G04 #@! TF.GenerationSoftware,KiCad,Pcbnew,(5.0.0)*
G04 #@! TF.CreationDate,2019-03-03T23:19:43-08:00*
G04 #@! TF.ProjectId,Cub_Wolf_Badge_Circuit,4375625F576F6C665F42616467655F43,rev?*
G04 #@! TF.SameCoordinates,Original*
G04 #@! TF.FileFunction,Soldermask,Top*
G04 #@! TF.FilePolarity,Negative*
%FSLAX46Y46*%
G04 Gerber Fmt 4.6, Leading zero omitted, Abs format (unit mm)*
G04 Created by KiCad (PCBNEW (5.0.0)) date 03/03/19 23:19:43*
%MOMM*%
%LPD*%
G01*
G04 APERTURE LIST*
%ADD10C,0.010000*%
%ADD11C,0.050000*%
%ADD12C,1.720000*%
%ADD13C,0.100000*%
%ADD14R,2.200000X2.200000*%
%ADD15C,2.200000*%
%ADD16C,2.000000*%
%ADD17R,2.000000X2.000000*%
%ADD18O,1.800000X1.800000*%
%ADD19C,1.800000*%
%ADD20R,1.800000X1.800000*%
%ADD21O,3.700000X2.400000*%
%ADD22O,2.700000X1.700000*%
%ADD23R,2.700000X1.700000*%
G04 APERTURE END LIST*
D10*
G36*
X107400000Y-31900000D02*
X107250000Y-32050000D01*
X107050000Y-32550000D01*
X106850000Y-33650000D01*
X106700000Y-35500000D01*
X106600000Y-40400000D01*
X106700000Y-42100000D01*
X106850000Y-44000000D01*
X107150000Y-45200000D01*
X107350000Y-45500000D01*
X107550000Y-45700000D01*
X107750000Y-45750000D01*
X107950000Y-45750000D01*
X108250000Y-45650000D01*
X108800000Y-45350000D01*
X109400000Y-44950000D01*
X109650000Y-44750000D01*
X110000000Y-44400000D01*
X110200000Y-44100000D01*
X110400000Y-43750000D01*
X110600000Y-43300000D01*
X110750000Y-42750000D01*
X110900000Y-42000000D01*
X110900000Y-41200000D01*
X110850000Y-40200000D01*
X110750000Y-39250000D01*
X110350000Y-37650000D01*
X110000000Y-36600000D01*
X109400000Y-35200000D01*
X108200000Y-32850000D01*
X107700000Y-32100000D01*
X107550000Y-31950000D01*
X107450000Y-31900000D01*
X107400000Y-31900000D01*
G37*
X107400000Y-31900000D02*
X107250000Y-32050000D01*
X107050000Y-32550000D01*
X106850000Y-33650000D01*
X106700000Y-35500000D01*
X106600000Y-40400000D01*
X106700000Y-42100000D01*
X106850000Y-44000000D01*
X107150000Y-45200000D01*
X107350000Y-45500000D01*
X107550000Y-45700000D01*
X107750000Y-45750000D01*
X107950000Y-45750000D01*
X108250000Y-45650000D01*
X108800000Y-45350000D01*
X109400000Y-44950000D01*
X109650000Y-44750000D01*
X110000000Y-44400000D01*
X110200000Y-44100000D01*
X110400000Y-43750000D01*
X110600000Y-43300000D01*
X110750000Y-42750000D01*
X110900000Y-42000000D01*
X110900000Y-41200000D01*
X110850000Y-40200000D01*
X110750000Y-39250000D01*
X110350000Y-37650000D01*
X110000000Y-36600000D01*
X109400000Y-35200000D01*
X108200000Y-32850000D01*
X107700000Y-32100000D01*
X107550000Y-31950000D01*
X107450000Y-31900000D01*
X107400000Y-31900000D01*
G36*
X126300000Y-81300000D02*
X127750000Y-81350000D01*
X129200000Y-81450000D01*
X130400000Y-81600000D01*
X131000000Y-81800000D01*
X131350000Y-82100000D01*
X131500000Y-82500000D01*
X131500000Y-82850000D01*
X131400000Y-83400000D01*
X131100000Y-84000000D01*
X130600000Y-84650000D01*
X130200000Y-85050000D01*
X129550000Y-85550000D01*
X128700000Y-86050000D01*
X127550000Y-86600000D01*
X126700000Y-86850000D01*
X126050000Y-86850000D01*
X125050000Y-86600000D01*
X123500000Y-85800000D01*
X122700000Y-85250000D01*
X122050000Y-84600000D01*
X121600000Y-84000000D01*
X121300000Y-83350000D01*
X121200000Y-82900000D01*
X121250000Y-82450000D01*
X121400000Y-82100000D01*
X121700000Y-81800000D01*
X122150000Y-81650000D01*
X122800000Y-81550000D01*
X124250000Y-81400000D01*
X126300000Y-81300000D01*
G37*
X126300000Y-81300000D02*
X127750000Y-81350000D01*
X129200000Y-81450000D01*
X130400000Y-81600000D01*
X131000000Y-81800000D01*
X131350000Y-82100000D01*
X131500000Y-82500000D01*
X131500000Y-82850000D01*
X131400000Y-83400000D01*
X131100000Y-84000000D01*
X130600000Y-84650000D01*
X130200000Y-85050000D01*
X129550000Y-85550000D01*
X128700000Y-86050000D01*
X127550000Y-86600000D01*
X126700000Y-86850000D01*
X126050000Y-86850000D01*
X125050000Y-86600000D01*
X123500000Y-85800000D01*
X122700000Y-85250000D01*
X122050000Y-84600000D01*
X121600000Y-84000000D01*
X121300000Y-83350000D01*
X121200000Y-82900000D01*
X121250000Y-82450000D01*
X121400000Y-82100000D01*
X121700000Y-81800000D01*
X122150000Y-81650000D01*
X122800000Y-81550000D01*
X124250000Y-81400000D01*
X126300000Y-81300000D01*
G36*
X129900000Y-90500000D02*
X129750000Y-90400000D01*
X129200000Y-90350000D01*
X128100000Y-90300000D01*
X124900000Y-90300000D01*
X123400000Y-90350000D01*
X123000000Y-90400000D01*
X122850000Y-90450000D01*
X122800000Y-90550000D01*
X122850000Y-90650000D01*
X123200000Y-90950000D01*
X123750000Y-91350000D01*
X124650000Y-91750000D01*
X125600000Y-92000000D01*
X126150000Y-92050000D01*
X126850000Y-92050000D01*
X127150000Y-92000000D01*
X127700000Y-91850000D01*
X128550000Y-91550000D01*
X129250000Y-91150000D01*
X129800000Y-90750000D01*
X129900000Y-90600000D01*
X129900000Y-90500000D01*
G37*
X129900000Y-90500000D02*
X129750000Y-90400000D01*
X129200000Y-90350000D01*
X128100000Y-90300000D01*
X124900000Y-90300000D01*
X123400000Y-90350000D01*
X123000000Y-90400000D01*
X122850000Y-90450000D01*
X122800000Y-90550000D01*
X122850000Y-90650000D01*
X123200000Y-90950000D01*
X123750000Y-91350000D01*
X124650000Y-91750000D01*
X125600000Y-92000000D01*
X126150000Y-92050000D01*
X126850000Y-92050000D01*
X127150000Y-92000000D01*
X127700000Y-91850000D01*
X128550000Y-91550000D01*
X129250000Y-91150000D01*
X129800000Y-90750000D01*
X129900000Y-90600000D01*
X129900000Y-90500000D01*
D11*
G36*
X145150000Y-31750000D02*
X145000000Y-31850000D01*
X144700000Y-32250000D01*
X143600000Y-34450000D01*
X142900000Y-36000000D01*
X142300000Y-37800000D01*
X141850000Y-39750000D01*
X141750000Y-40750000D01*
X141750000Y-41750000D01*
X141900000Y-42800000D01*
X142100000Y-43400000D01*
X142300000Y-43850000D01*
X142500000Y-44200000D01*
X142900000Y-44650000D01*
X143250000Y-44950000D01*
X144000000Y-45400000D01*
X144500000Y-45650000D01*
X144850000Y-45750000D01*
X145000000Y-45750000D01*
X145200000Y-45700000D01*
X145400000Y-45500000D01*
X145550000Y-45150000D01*
X145750000Y-44500000D01*
X145950000Y-43350000D01*
X146050000Y-42100000D01*
X146100000Y-40350000D01*
X146100000Y-37400000D01*
X146050000Y-35800000D01*
X145900000Y-34250000D01*
X145800000Y-33350000D01*
X145600000Y-32450000D01*
X145400000Y-31950000D01*
X145300000Y-31800000D01*
X145250000Y-31750000D01*
X145150000Y-31750000D01*
G37*
X145150000Y-31750000D02*
X145000000Y-31850000D01*
X144700000Y-32250000D01*
X143600000Y-34450000D01*
X142900000Y-36000000D01*
X142300000Y-37800000D01*
X141850000Y-39750000D01*
X141750000Y-40750000D01*
X141750000Y-41750000D01*
X141900000Y-42800000D01*
X142100000Y-43400000D01*
X142300000Y-43850000D01*
X142500000Y-44200000D01*
X142900000Y-44650000D01*
X143250000Y-44950000D01*
X144000000Y-45400000D01*
X144500000Y-45650000D01*
X144850000Y-45750000D01*
X145000000Y-45750000D01*
X145200000Y-45700000D01*
X145400000Y-45500000D01*
X145550000Y-45150000D01*
X145750000Y-44500000D01*
X145950000Y-43350000D01*
X146050000Y-42100000D01*
X146100000Y-40350000D01*
X146100000Y-37400000D01*
X146050000Y-35800000D01*
X145900000Y-34250000D01*
X145800000Y-33350000D01*
X145600000Y-32450000D01*
X145400000Y-31950000D01*
X145300000Y-31800000D01*
X145250000Y-31750000D01*
X145150000Y-31750000D01*
D12*
G04 #@! TO.C,Transistor2*
X119001412Y-50691066D03*
X121502823Y-51132133D03*
X116500000Y-50250000D03*
D13*
G36*
X117197597Y-51246272D02*
X115503728Y-50947597D01*
X115802403Y-49253728D01*
X117496272Y-49552403D01*
X117197597Y-51246272D01*
X117197597Y-51246272D01*
G37*
G04 #@! TD*
D12*
G04 #@! TO.C,Transistor1*
X131750000Y-51000000D03*
D13*
G36*
X132746272Y-51697597D02*
X131052403Y-51996272D01*
X130753728Y-50302403D01*
X132447597Y-50003728D01*
X132746272Y-51697597D01*
X132746272Y-51697597D01*
G37*
D12*
X136752823Y-50117867D03*
X134251412Y-50558934D03*
G04 #@! TD*
D14*
G04 #@! TO.C,BT1*
X126250000Y-82500000D03*
D15*
X126250000Y-62500000D03*
G04 #@! TD*
D16*
G04 #@! TO.C,LED1*
X135600000Y-58490000D03*
D17*
X135600000Y-55950000D03*
G04 #@! TD*
G04 #@! TO.C,LED2*
X116950000Y-55900000D03*
D16*
X116950000Y-58440000D03*
G04 #@! TD*
D18*
G04 #@! TO.C,R1*
X146500000Y-54840000D03*
D19*
X146500000Y-65000000D03*
G04 #@! TD*
D18*
G04 #@! TO.C,R2*
X142000000Y-54840000D03*
D19*
X142000000Y-65000000D03*
G04 #@! TD*
G04 #@! TO.C,R3*
X110500000Y-65000000D03*
D18*
X110500000Y-54840000D03*
G04 #@! TD*
D19*
G04 #@! TO.C,R4*
X106000000Y-65000000D03*
D18*
X106000000Y-54840000D03*
G04 #@! TD*
D19*
G04 #@! TO.C,C1*
X142750000Y-50000000D03*
D20*
X140750000Y-50000000D03*
G04 #@! TD*
G04 #@! TO.C,C2*
X111750000Y-50000000D03*
D19*
X109750000Y-50000000D03*
G04 #@! TD*
D21*
G04 #@! TO.C,SW1*
X106250000Y-32900000D03*
X106250000Y-41100000D03*
D22*
X106250000Y-35000000D03*
X106250000Y-37000000D03*
D23*
X106250000Y-39000000D03*
G04 #@! TD*
M02*
