G04 #@! TF.GenerationSoftware,KiCad,Pcbnew,(5.0.0)*
G04 #@! TF.CreationDate,2018-10-24T17:50:19-07:00*
G04 #@! TF.ProjectId,Cub_Wolf_Badge_Circuit,4375625F576F6C665F42616467655F43,rev?*
G04 #@! TF.SameCoordinates,Original*
G04 #@! TF.FileFunction,Profile,NP*
%FSLAX46Y46*%
G04 Gerber Fmt 4.6, Leading zero omitted, Abs format (unit mm)*
G04 Created by KiCad (PCBNEW (5.0.0)) date 10/24/18 17:50:19*
%MOMM*%
%LPD*%
G01*
G04 APERTURE LIST*
%ADD10C,0.100000*%
G04 APERTURE END LIST*
D10*
X148488448Y-51197500D02*
X148466848Y-50988020D01*
X148537788Y-51612550D02*
X148512108Y-51405720D01*
X148813858Y-53197350D02*
X148772668Y-53007550D01*
X149889728Y-57157540D02*
X149835978Y-56930440D01*
X150562948Y-60435000D02*
X150522788Y-60208180D01*
X150481018Y-59978480D02*
X150437718Y-59746330D01*
X148772668Y-53007550D02*
X148733338Y-52815060D01*
X149047218Y-54100290D02*
X148996958Y-53926380D01*
X149153018Y-54436960D02*
X149099248Y-54270540D01*
X150151648Y-58326850D02*
X150100508Y-58089950D01*
X148512108Y-51405720D02*
X148488448Y-51197500D01*
X148626788Y-52223020D02*
X148595138Y-52021360D01*
X148856908Y-53384290D02*
X148813858Y-53197350D01*
X148948478Y-53748980D02*
X148901788Y-53568220D01*
X150437718Y-59746330D02*
X150393008Y-59512180D01*
X150601388Y-60658510D02*
X150562948Y-60435000D01*
X148695908Y-52620030D02*
X148660388Y-52422620D01*
X149406258Y-55268730D02*
X149354078Y-55087020D01*
X148565468Y-51817820D02*
X148537788Y-51612550D01*
X149727908Y-56486520D02*
X149673788Y-56270590D01*
X148901788Y-53568220D02*
X148856908Y-53384290D01*
X150201968Y-58564390D02*
X150151648Y-58326850D01*
X149996168Y-57619820D02*
X149943158Y-57387480D01*
X148595138Y-52021360D02*
X148565468Y-51817820D01*
X149201928Y-54587070D02*
X149153018Y-54436960D01*
X148996958Y-53926380D02*
X148948478Y-53748980D01*
X150346978Y-59276470D02*
X150299728Y-59039650D01*
X149302558Y-54912530D02*
X149251808Y-54745740D01*
X149099248Y-54270540D02*
X149047218Y-54100290D01*
X149673788Y-56270590D02*
X149619738Y-56059250D01*
X149512248Y-55652150D02*
X149459018Y-55457260D01*
X149943158Y-57387480D02*
X149889728Y-57157540D01*
X149459018Y-55457260D02*
X149406258Y-55268730D01*
X149565858Y-55852960D02*
X149512248Y-55652150D01*
X149782008Y-56706610D02*
X149727908Y-56486520D01*
X150048648Y-57854130D02*
X149996168Y-57619820D01*
X150672718Y-61093790D02*
X150638008Y-60878250D01*
X149251808Y-54745740D02*
X149201928Y-54587070D01*
X149835978Y-56930440D02*
X149782008Y-56706610D01*
X148447298Y-50777480D02*
X148429838Y-50566010D01*
X150299728Y-59039650D02*
X150251358Y-58802140D01*
X149354078Y-55087020D02*
X149302558Y-54912530D01*
X150100508Y-58089950D02*
X150048648Y-57854130D01*
X148466848Y-50988020D02*
X148447298Y-50777480D01*
X150393008Y-59512180D02*
X150346978Y-59276470D01*
X148733338Y-52815060D02*
X148695908Y-52620030D01*
X148660388Y-52422620D02*
X148626788Y-52223020D01*
X149619738Y-56059250D02*
X149565858Y-55852960D01*
X150522788Y-60208180D02*
X150481018Y-59978480D01*
X150251358Y-58802140D02*
X150201968Y-58564390D01*
X150638008Y-60878250D02*
X150601388Y-60658510D01*
X145154215Y-73968840D02*
X145689898Y-73552580D01*
X150164463Y-68686340D02*
X150337997Y-68311970D01*
X142073692Y-76345280D02*
X142251168Y-76192670D01*
X149968929Y-69055900D02*
X150164463Y-68686340D01*
X143046676Y-75549000D02*
X143268215Y-75378360D01*
X141588590Y-76787750D02*
X141742655Y-76642540D01*
X142251168Y-76192670D02*
X142436952Y-76037020D01*
X140808627Y-77629070D02*
X140922688Y-77490990D01*
X140236895Y-78463490D02*
X140320035Y-78322290D01*
X141302101Y-77072750D02*
X141441822Y-76931050D01*
X140500145Y-78043300D02*
X140597605Y-77904950D01*
X139880165Y-79197900D02*
X139944485Y-79046280D01*
X149509478Y-69785420D02*
X149750800Y-69421860D01*
X148640423Y-70873650D02*
X148954885Y-70510110D01*
X147120918Y-72363730D02*
X147541233Y-71983420D01*
X146195846Y-73147110D02*
X146672654Y-72751220D01*
X145689898Y-73552580D02*
X146195846Y-73147110D01*
X140158015Y-78606200D02*
X140236895Y-78463490D01*
X142834454Y-75715460D02*
X143046676Y-75549000D01*
X141441822Y-76931050D02*
X141588590Y-76787750D01*
X140083155Y-78750710D02*
X140158015Y-78606200D01*
X150337997Y-68311970D02*
X150490123Y-67931600D01*
X149750800Y-69421860D02*
X149968929Y-69055900D01*
X149244372Y-70147770D02*
X149509478Y-69785420D01*
X143740258Y-75023400D02*
X143991266Y-74838520D01*
X143268215Y-75378360D02*
X143499326Y-75203250D01*
X141042786Y-77352430D02*
X141169172Y-77213110D01*
X140320035Y-78322290D02*
X140407705Y-78182330D01*
X139760295Y-79510230D02*
X139818855Y-79352450D01*
X140597605Y-77904950D02*
X140700350Y-77766960D01*
X139818855Y-79352450D02*
X139880165Y-79197900D01*
X147934190Y-71609110D02*
X148300389Y-71239580D01*
X140922688Y-77490990D02*
X141042786Y-77352430D01*
X139944485Y-79046280D02*
X140012065Y-78897310D01*
X146672654Y-72751220D02*
X147120918Y-72363730D01*
X142631296Y-75878040D02*
X142834454Y-75715460D01*
X141742655Y-76642540D02*
X141904272Y-76495140D01*
X143499326Y-75203250D02*
X143740258Y-75023400D01*
X148300389Y-71239580D02*
X148640423Y-70873650D01*
X142436952Y-76037020D02*
X142631296Y-75878040D01*
X150705408Y-61304690D02*
X150672718Y-61093790D01*
X150790498Y-61895010D02*
X150705408Y-61304690D01*
X140700350Y-77766960D02*
X140808627Y-77629070D01*
X143991266Y-74838520D02*
X144588202Y-74397090D01*
X150862518Y-62462530D02*
X150790498Y-61895010D01*
X150732538Y-67148060D02*
X150824018Y-66742490D01*
X140012065Y-78897310D02*
X140083155Y-78750710D01*
X150920868Y-63008450D02*
X150862518Y-62462530D01*
X150964948Y-63533990D02*
X150920868Y-63008450D01*
X150994158Y-64040340D02*
X150964948Y-63533990D01*
X151007918Y-64528690D02*
X150994158Y-64040340D01*
X144588202Y-74397090D02*
X145154215Y-73968840D01*
X151005618Y-65000240D02*
X151007918Y-64528690D01*
X148954885Y-70510110D02*
X149244372Y-70147770D01*
X150986678Y-65456200D02*
X151005618Y-65000240D01*
X150950488Y-65897760D02*
X150986678Y-65456200D01*
X150896468Y-66326130D02*
X150950488Y-65897760D01*
X140407705Y-78182330D02*
X140500145Y-78043300D01*
X141169172Y-77213110D02*
X141302101Y-77072750D01*
X150824018Y-66742490D02*
X150896468Y-66326130D01*
X150621439Y-67544040D02*
X150732538Y-67148060D01*
X147541233Y-71983420D02*
X147934190Y-71609110D01*
X141904272Y-76495140D02*
X142073692Y-76345280D01*
X150490123Y-67931600D02*
X150621439Y-67544040D01*
X139704245Y-79671510D02*
X139760295Y-79510230D01*
X139599624Y-79971930D02*
X139704245Y-79671510D01*
X139482231Y-80289760D02*
X139599624Y-79971930D01*
X139352828Y-80623570D02*
X139482231Y-80289760D01*
X139212181Y-80971920D02*
X139352828Y-80623570D01*
X132850225Y-91685630D02*
X132953992Y-91599130D01*
X131828245Y-92463230D02*
X131947022Y-92378830D01*
X136924849Y-85763130D02*
X137140961Y-85352410D01*
X133055009Y-91513230D02*
X133153049Y-91428130D01*
X139061051Y-81333370D02*
X139212181Y-80971920D01*
X133666809Y-90942030D02*
X133737989Y-90866730D01*
X130530968Y-93285730D02*
X130644222Y-93221930D01*
X131349477Y-92788530D02*
X131469283Y-92709430D01*
X135839565Y-87725820D02*
X136054711Y-87350200D01*
X138900201Y-81706500D02*
X139061051Y-81333370D01*
X137140961Y-85352410D02*
X137354978Y-84938970D01*
X135417480Y-88441620D02*
X135626901Y-88090110D01*
X133339369Y-91260730D02*
X133427199Y-91178730D01*
X138552389Y-82482000D02*
X138730393Y-82089850D01*
X130875273Y-93086430D02*
X130992636Y-93015130D01*
X132743921Y-91772530D02*
X132850225Y-91685630D01*
X138730393Y-82089850D02*
X138900201Y-81706500D01*
X138366954Y-82881490D02*
X138552389Y-82482000D01*
X136707407Y-86169720D02*
X136924849Y-85763130D01*
X136271575Y-86964690D02*
X136489394Y-86570710D01*
X137566138Y-84524280D02*
X137773678Y-84109740D01*
X131229956Y-92865930D02*
X131349477Y-92788530D01*
X134445716Y-89957300D02*
X134627482Y-89691210D01*
X138174849Y-83286900D02*
X138366954Y-82881490D01*
X130644222Y-93221930D02*
X130759062Y-93155430D01*
X137976836Y-83696800D02*
X138174849Y-83286900D01*
X130759062Y-93155430D02*
X130875273Y-93086430D01*
X136489394Y-86570710D02*
X136707407Y-86169720D01*
X133247909Y-91343830D02*
X133339369Y-91260730D01*
X135212065Y-88778920D02*
X135417480Y-88441620D01*
X131589158Y-92628730D02*
X131708884Y-92546630D01*
X137773678Y-84109740D02*
X137976836Y-83696800D01*
X136054711Y-87350200D02*
X136271575Y-86964690D01*
X134816303Y-89405150D02*
X135011418Y-89100580D01*
X132411965Y-92034130D02*
X132524574Y-91947030D01*
X135626901Y-88090110D02*
X135839565Y-87725820D01*
X134271770Y-90202000D02*
X134445716Y-89957300D01*
X134106405Y-90423860D02*
X134271770Y-90202000D01*
X133591139Y-91019230D02*
X133666809Y-90942030D01*
X132524574Y-91947030D02*
X132635298Y-91859730D01*
X130992636Y-93015130D02*
X131110936Y-92941530D01*
X133804469Y-90793330D02*
X133950384Y-90621450D01*
X135011418Y-89100580D02*
X135212065Y-88778920D01*
X133950384Y-90621450D02*
X134106405Y-90423860D01*
X133153049Y-91428130D02*
X133247909Y-91343830D01*
X131947022Y-92378830D02*
X132065000Y-92293530D01*
X131708884Y-92546630D02*
X131828245Y-92463230D01*
X133511199Y-91098230D02*
X133591139Y-91019230D01*
X132181960Y-92207530D02*
X132297688Y-92121030D01*
X132065000Y-92293530D02*
X132181960Y-92207530D01*
X137354978Y-84938970D02*
X137566138Y-84524280D01*
X134627482Y-89691210D02*
X134816303Y-89405150D01*
X133737989Y-90866730D02*
X133804469Y-90793330D01*
X132297688Y-92121030D02*
X132411965Y-92034130D01*
X132953992Y-91599130D02*
X133055009Y-91513230D01*
X131469283Y-92709430D02*
X131589158Y-92628730D01*
X131110936Y-92941530D02*
X131229956Y-92865930D01*
X133427199Y-91178730D02*
X133511199Y-91098230D01*
X132635298Y-91859730D02*
X132743921Y-91772530D01*
X143572271Y-26191820D02*
X143572271Y-26191820D01*
X143572273Y-26191820D02*
X143572273Y-26191820D01*
X143572272Y-26191820D02*
X143572272Y-26191820D01*
X143572273Y-26191820D02*
X143572273Y-26191820D01*
X143572273Y-26191820D02*
X143572273Y-26191820D01*
X143572271Y-26191820D02*
X143571317Y-26191220D01*
X143572273Y-26191820D02*
X143572272Y-26191820D01*
X143572272Y-26191820D02*
X143572271Y-26191820D01*
X143572271Y-26191820D02*
X143572271Y-26191820D01*
X143572271Y-26191820D02*
X143572271Y-26191820D01*
X143572274Y-26191820D02*
X143572273Y-26191820D01*
X143572272Y-26191820D02*
X143572272Y-26191820D01*
X147322887Y-28365250D02*
X147210248Y-28187030D01*
X143572274Y-26191820D02*
X143572274Y-26191820D01*
X143572274Y-26191820D02*
X143572274Y-26191820D01*
X143572275Y-26191820D02*
X143572274Y-26191820D01*
X143572275Y-26191820D02*
X143572275Y-26191820D01*
X143764757Y-26193820D02*
X143572281Y-26191820D01*
X147927824Y-29467890D02*
X147861894Y-29320480D01*
X146581998Y-27312970D02*
X146481424Y-27197400D01*
X147792104Y-29175970D02*
X147718364Y-29033580D01*
X143572276Y-26191820D02*
X143572275Y-26191820D01*
X145291897Y-26390220D02*
X145165611Y-26352220D01*
X143572277Y-26191820D02*
X143572276Y-26191820D01*
X143572275Y-26191820D02*
X143572275Y-26191820D01*
X144608523Y-26245420D02*
X144454229Y-26228620D01*
X143572281Y-26191820D02*
X143572280Y-26191820D01*
X147100555Y-28018540D02*
X146993398Y-27859530D01*
X144898271Y-26290320D02*
X144756401Y-26265820D01*
X145757297Y-26594920D02*
X145646095Y-26535320D01*
X143572279Y-26191820D02*
X143572277Y-26191820D01*
X147718364Y-29033580D02*
X147640564Y-28892500D01*
X147989994Y-29619030D02*
X147927824Y-29467890D01*
X143572276Y-26191820D02*
X143572276Y-26191820D01*
X143572276Y-26191820D02*
X143572276Y-26191820D01*
X143948783Y-26197820D02*
X143764757Y-26193820D01*
X144293112Y-26215320D02*
X144124766Y-26204820D01*
X143572277Y-26191820D02*
X143572277Y-26191820D01*
X143572280Y-26191820D02*
X143572280Y-26191820D01*
X146280160Y-26989720D02*
X146178649Y-26897120D01*
X143572279Y-26191820D02*
X143572279Y-26191820D01*
X144124766Y-26204820D02*
X143948783Y-26197820D01*
X147210248Y-28187030D02*
X147100555Y-28018540D01*
X146785063Y-27568880D02*
X146683078Y-27436710D01*
X145865748Y-26660720D02*
X145757297Y-26594920D01*
X147558624Y-28751920D02*
X147438876Y-28553450D01*
X143572276Y-26191820D02*
X143572276Y-26191820D01*
X143572277Y-26191820D02*
X143572277Y-26191820D01*
X143572279Y-26191820D02*
X143572279Y-26191820D01*
X143572279Y-26191820D02*
X143572279Y-26191820D01*
X143572280Y-26191820D02*
X143572279Y-26191820D01*
X148154894Y-30102780D02*
X148103434Y-29935670D01*
X146178649Y-26897120D02*
X146076020Y-26811520D01*
X144454229Y-26228620D02*
X144293112Y-26215320D01*
X146683078Y-27436710D02*
X146581998Y-27312970D01*
X144756401Y-26265820D02*
X144608523Y-26245420D01*
X145413801Y-26433220D02*
X145291897Y-26390220D01*
X148103434Y-29935670D02*
X148048504Y-29774680D01*
X145034539Y-26319020D02*
X144898271Y-26290320D01*
X146380945Y-27089730D02*
X146280160Y-26989720D01*
X146888367Y-27709730D02*
X146785063Y-27568880D01*
X145531731Y-26481520D02*
X145413801Y-26433220D01*
X145971853Y-26732820D02*
X145865748Y-26660720D01*
X147438876Y-28553450D02*
X147322887Y-28365250D01*
X146481424Y-27197400D02*
X146380945Y-27089730D01*
X148247774Y-30458590D02*
X148202974Y-30276810D01*
X148289384Y-30648900D02*
X148247774Y-30458590D01*
X143572280Y-26191820D02*
X143572280Y-26191820D01*
X147640564Y-28892500D02*
X147558624Y-28751920D01*
X146993398Y-27859530D02*
X146888367Y-27709730D01*
X148202974Y-30276810D02*
X148154894Y-30102780D01*
X145165611Y-26352220D02*
X145034539Y-26319020D01*
X145646095Y-26535320D02*
X145531731Y-26481520D01*
X147861894Y-29320480D02*
X147792104Y-29175970D01*
X146076020Y-26811520D02*
X145971853Y-26732820D01*
X148048504Y-29774680D02*
X147989994Y-29619030D01*
X148577466Y-40082070D02*
X148581766Y-39703560D01*
X148590934Y-34659440D02*
X148583834Y-34265280D01*
X148509266Y-44143050D02*
X148516766Y-43794020D01*
X148544366Y-42344110D02*
X148550566Y-41971550D01*
X148516766Y-43794020D02*
X148524066Y-43438930D01*
X148485766Y-45147050D02*
X148493766Y-44820230D01*
X148469266Y-45773740D02*
X148477566Y-45465110D01*
X148435066Y-46900450D02*
X148443766Y-46636300D01*
X148380866Y-48225560D02*
X148389966Y-48015700D01*
X148408166Y-47613410D02*
X148417166Y-47389680D01*
X148401248Y-50140970D02*
X148390158Y-49927720D01*
X148369958Y-49287000D02*
X148367658Y-49073640D01*
X148599834Y-35510330D02*
X148596234Y-35074190D01*
X148601766Y-36955100D02*
X148602535Y-36449980D01*
X148592566Y-38578920D02*
X148595366Y-38209930D01*
X148585766Y-39326410D02*
X148589366Y-38951310D01*
X148581766Y-39703560D02*
X148585766Y-39326410D01*
X148374166Y-48436460D02*
X148380866Y-48225560D01*
X148537866Y-42713300D02*
X148544366Y-42344110D01*
X148477566Y-45465110D02*
X148485766Y-45147050D01*
X148369766Y-48648210D02*
X148374166Y-48436460D01*
X148574934Y-33890890D02*
X148564114Y-33535490D01*
X148596234Y-35074190D02*
X148590934Y-34659440D01*
X148601934Y-35968660D02*
X148599834Y-35510330D01*
X148562266Y-41219080D02*
X148567666Y-40840510D01*
X148550566Y-41971550D02*
X148556566Y-41596320D01*
X148452366Y-46360000D02*
X148460866Y-46072250D01*
X148389966Y-48015700D02*
X148399066Y-47822310D01*
X148381158Y-49714200D02*
X148374458Y-49500580D01*
X148417166Y-47389680D02*
X148426166Y-47151810D01*
X148374458Y-49500580D02*
X148369958Y-49287000D01*
X148597766Y-37845010D02*
X148599766Y-37484820D01*
X148443766Y-46636300D02*
X148452366Y-46360000D01*
X148367658Y-49073640D02*
X148367566Y-48860650D01*
X148589366Y-38951310D02*
X148592566Y-38578920D01*
X148531166Y-43078470D02*
X148537866Y-42713300D01*
X148493766Y-44820230D02*
X148501566Y-44485350D01*
X148556566Y-41596320D02*
X148562266Y-41219080D01*
X148599766Y-37484820D02*
X148601766Y-36955100D01*
X148524066Y-43438930D02*
X148531166Y-43078470D01*
X148327904Y-30848550D02*
X148289384Y-30648900D01*
X148363424Y-31058350D02*
X148327904Y-30848550D01*
X148426166Y-47151810D02*
X148435066Y-46900450D01*
X148567666Y-40840510D02*
X148572766Y-40461280D01*
X148396054Y-31279090D02*
X148363424Y-31058350D01*
X148536244Y-32878390D02*
X148519014Y-32575110D01*
X148367566Y-48860650D02*
X148369766Y-48648210D01*
X148425874Y-31511580D02*
X148396054Y-31279090D01*
X148452974Y-31756620D02*
X148425874Y-31511580D01*
X148477474Y-32015020D02*
X148452974Y-31756620D01*
X148499454Y-32287590D02*
X148477474Y-32015020D01*
X148572766Y-40461280D02*
X148577466Y-40082070D01*
X148519014Y-32575110D02*
X148499454Y-32287590D01*
X148602535Y-36449980D02*
X148601934Y-35968660D01*
X148414488Y-50353790D02*
X148401248Y-50140970D01*
X148399066Y-47822310D02*
X148408166Y-47613410D01*
X148429838Y-50566010D02*
X148414488Y-50353790D01*
X148390158Y-49927720D02*
X148381158Y-49714200D01*
X148460866Y-46072250D02*
X148469266Y-45773740D01*
X148551244Y-33198250D02*
X148536244Y-32878390D01*
X148564114Y-33535490D02*
X148551244Y-33198250D01*
X148595366Y-38209930D02*
X148597766Y-37845010D01*
X148501566Y-44485350D02*
X148509266Y-44143050D01*
X148583834Y-34265280D02*
X148574934Y-33890890D01*
X102267313Y-68910790D02*
X102387648Y-69173650D01*
X105865534Y-72846170D02*
X106073276Y-73018800D01*
X104329281Y-71479260D02*
X104505940Y-71645810D01*
X103533844Y-70685640D02*
X103680091Y-70838090D01*
X101566947Y-63760630D02*
X101556517Y-64206080D01*
X101586627Y-63305470D02*
X101566947Y-63760630D01*
X103023199Y-70116600D02*
X103139033Y-70252100D01*
X105458497Y-72500190D02*
X105660496Y-72673200D01*
X103394694Y-70536940D02*
X103533844Y-70685640D01*
X101688417Y-66649820D02*
X101742987Y-67014820D01*
X101555317Y-64641360D02*
X101563317Y-65066040D01*
X101615537Y-62841020D02*
X101586627Y-63305470D01*
X102156416Y-68632010D02*
X102267313Y-68910790D01*
X106924504Y-73699560D02*
X107140688Y-73865720D01*
X106709334Y-73531470D02*
X106924504Y-73699560D01*
X106495513Y-73361770D02*
X106709334Y-73531470D01*
X102817214Y-69860980D02*
X102915814Y-69986110D01*
X102577514Y-69520790D02*
X102647724Y-69628000D01*
X101643177Y-66271990D02*
X101688417Y-66649820D01*
X106283382Y-73190770D02*
X106495513Y-73361770D01*
X104505940Y-71645810D02*
X104687666Y-71814210D01*
X103833096Y-70994000D02*
X103992522Y-71153050D01*
X101556517Y-64206080D02*
X101555317Y-64641360D01*
X101580637Y-65479670D02*
X101607257Y-65881800D01*
X105064973Y-72155370D02*
X105259877Y-72327470D01*
X103262977Y-70392320D02*
X103394694Y-70536940D01*
X105660496Y-72673200D02*
X105865534Y-72846170D01*
X105259877Y-72327470D02*
X105458497Y-72500190D01*
X102517434Y-69420160D02*
X102577514Y-69520790D01*
X104158030Y-71314900D02*
X104329281Y-71479260D01*
X103992522Y-71153050D02*
X104158030Y-71314900D01*
X103680091Y-70838090D02*
X103833096Y-70994000D01*
X102727734Y-69741500D02*
X102817214Y-69860980D01*
X101962877Y-68028470D02*
X102054947Y-68337760D01*
X102387648Y-69173650D02*
X102517434Y-69420160D01*
X102054947Y-68337760D02*
X102156416Y-68632010D01*
X101880207Y-67704590D02*
X101962877Y-68028470D01*
X101563317Y-65066040D02*
X101580637Y-65479670D01*
X101742987Y-67014820D02*
X101806917Y-67366560D01*
X101607257Y-65881800D02*
X101643177Y-66271990D01*
X107791931Y-74349510D02*
X108106512Y-74577910D01*
X107574738Y-74191020D02*
X107791931Y-74349510D01*
X107357544Y-74029650D02*
X107574738Y-74191020D01*
X107140688Y-73865720D02*
X107357544Y-74029650D01*
X106073276Y-73018800D02*
X106283382Y-73190770D01*
X104687666Y-71814210D02*
X104874124Y-71984170D01*
X102647724Y-69628000D02*
X102727734Y-69741500D01*
X103139033Y-70252100D02*
X103262977Y-70392320D01*
X102915814Y-69986110D02*
X103023199Y-70116600D01*
X104874124Y-71984170D02*
X105064973Y-72155370D01*
X101806917Y-67366560D02*
X101880207Y-67704590D01*
X102176880Y-58844530D02*
X102074757Y-59367280D01*
X102288085Y-58316500D02*
X102176880Y-58844530D01*
X103898339Y-51623970D02*
X103859299Y-51868900D01*
X103967139Y-51141410D02*
X103934279Y-51381500D01*
X102408363Y-57783620D02*
X102288085Y-58316500D01*
X102676073Y-56705070D02*
X102537697Y-57246330D01*
X102823475Y-56160300D02*
X102676073Y-56705070D01*
X103063729Y-55322590D02*
X102979889Y-55612430D01*
X103930107Y-43011130D02*
X103938707Y-43363070D01*
X104047349Y-50434420D02*
X104023659Y-50667980D01*
X103144279Y-55036610D02*
X103063729Y-55322590D01*
X103221549Y-54754370D02*
X103144279Y-55036610D01*
X103771879Y-52366570D02*
X103723469Y-52619510D01*
X103859299Y-51868900D02*
X103817149Y-52116400D01*
X104088567Y-47578210D02*
X104099107Y-47758430D01*
X104128979Y-48849590D02*
X104126279Y-49071320D01*
X104119737Y-48191790D02*
X104125737Y-48409920D01*
X103938707Y-43363070D02*
X103947707Y-43709220D01*
X104005417Y-45627580D02*
X104015537Y-45914720D01*
X104025757Y-46190820D02*
X104036087Y-46455190D01*
X104023659Y-50667980D02*
X103996929Y-50903600D01*
X104111979Y-49519060D02*
X104100309Y-49745280D01*
X104110837Y-47974650D02*
X104119737Y-48191790D01*
X104015537Y-45914720D02*
X104025757Y-46190820D01*
X103921707Y-42654050D02*
X103930107Y-43011130D01*
X104036087Y-46455190D02*
X104046517Y-46707180D01*
X104046517Y-46707180D02*
X104056947Y-46946140D01*
X103956907Y-44048920D02*
X103966307Y-44381510D01*
X101653657Y-62367730D02*
X101615537Y-62841020D01*
X104056947Y-46946140D02*
X104067487Y-47171400D01*
X103975807Y-44706330D02*
X103985507Y-45022710D01*
X104128837Y-48629150D02*
X104128979Y-48849590D01*
X102979889Y-55612430D02*
X102823475Y-56160300D01*
X103366329Y-54200720D02*
X103295569Y-54475770D01*
X101757427Y-61396430D02*
X101700957Y-61886060D01*
X102537697Y-57246330D02*
X102408363Y-57783620D01*
X104085659Y-49973170D02*
X104068009Y-50202850D01*
X103985507Y-45022710D02*
X103995407Y-45330020D01*
X101897837Y-60395090D02*
X101823057Y-60899290D01*
X104099107Y-47758430D02*
X104110837Y-47974650D01*
X103817149Y-52116400D02*
X103771879Y-52366570D01*
X104126279Y-49071320D02*
X104120579Y-49294440D01*
X104067487Y-47171400D02*
X104078027Y-47382310D01*
X104068009Y-50202850D02*
X104047349Y-50434420D01*
X103617179Y-53134080D02*
X103559269Y-53395910D01*
X101981737Y-59884280D02*
X101897837Y-60395090D01*
X104100309Y-49745280D02*
X104085659Y-49973170D01*
X103934279Y-51381500D02*
X103898339Y-51623970D01*
X101700957Y-61886060D02*
X101653657Y-62367730D01*
X103995407Y-45330020D02*
X104005417Y-45627580D01*
X104125737Y-48409920D02*
X104128837Y-48629150D01*
X102074757Y-59367280D02*
X101981737Y-59884280D01*
X103295569Y-54475770D02*
X103221549Y-54754370D01*
X103433859Y-53929120D02*
X103366329Y-54200720D01*
X103671909Y-52875310D02*
X103617179Y-53134080D01*
X103723469Y-52619510D02*
X103671909Y-52875310D01*
X104120579Y-49294440D02*
X104111979Y-49519060D01*
X101823057Y-60899290D02*
X101757427Y-61396430D01*
X103996929Y-50903600D02*
X103967139Y-51141410D01*
X104078027Y-47382310D02*
X104088567Y-47578210D01*
X103498169Y-53660890D02*
X103433859Y-53929120D01*
X103559269Y-53395910D02*
X103498169Y-53660890D01*
X103947707Y-43709220D02*
X103956907Y-44048920D01*
X103966307Y-44381510D02*
X103975807Y-44706330D01*
X103913607Y-42292490D02*
X103921707Y-42654050D01*
X104240067Y-30161220D02*
X104191667Y-30348180D01*
X103905807Y-41927120D02*
X103913607Y-42292490D01*
X103898207Y-41558580D02*
X103905807Y-41927120D01*
X103891007Y-41187540D02*
X103898207Y-41558580D01*
X103974097Y-31661240D02*
X103948877Y-31920920D01*
X104691467Y-28982660D02*
X104614087Y-29143790D01*
X105472727Y-27642970D02*
X105390687Y-27765530D01*
X104541207Y-29305740D02*
X104472697Y-29469450D01*
X106475997Y-26665010D02*
X106383127Y-26717110D01*
X103884107Y-40814660D02*
X103891007Y-41187540D01*
X103832907Y-35926090D02*
X103833907Y-36419500D01*
X106383127Y-26717110D02*
X106293147Y-26773710D01*
X105793667Y-27222210D02*
X105713787Y-27317510D01*
X103877607Y-40440590D02*
X103884107Y-40814660D01*
X103871507Y-40066000D02*
X103877607Y-40440590D01*
X104146937Y-30542640D02*
X104105747Y-30745580D01*
X103865707Y-39691540D02*
X103871507Y-40066000D01*
X103845197Y-34190250D02*
X103839397Y-34590440D01*
X104472697Y-29469450D02*
X104408447Y-29635900D01*
X106120407Y-26901510D02*
X106036917Y-26973210D01*
X104773447Y-28821400D02*
X104691467Y-28982660D01*
X103860307Y-39317860D02*
X103865707Y-39691540D01*
X103855307Y-38945640D02*
X103860307Y-39317860D01*
X103850807Y-38575530D02*
X103855307Y-38945640D01*
X103846807Y-38208180D02*
X103850807Y-38575530D01*
X103906837Y-32483870D02*
X103889777Y-32789050D01*
X105873907Y-27133310D02*
X105793667Y-27222210D01*
X104033537Y-31180730D02*
X104002277Y-31414840D01*
X106293147Y-26773710D02*
X106205697Y-26835110D01*
X106572117Y-26617310D02*
X106475997Y-26665010D01*
X104191667Y-30348180D02*
X104146937Y-30542640D01*
X106205697Y-26835110D02*
X106120407Y-26901510D01*
X103852997Y-33810970D02*
X103845197Y-34190250D01*
X104348337Y-29806040D02*
X104292247Y-29980840D01*
X103843207Y-37844250D02*
X103846807Y-38208180D01*
X105633907Y-27419210D02*
X105553677Y-27527610D01*
X103840107Y-37484400D02*
X103843207Y-37844250D01*
X103836307Y-36938620D02*
X103840107Y-37484400D01*
X103833907Y-36419500D02*
X103836307Y-36938620D01*
X105044567Y-28332510D02*
X104951727Y-28494630D01*
X103889777Y-32789050D02*
X103875207Y-33111320D01*
X103833397Y-35457400D02*
X103832907Y-35926090D01*
X104002277Y-31414840D02*
X103974097Y-31661240D01*
X103835497Y-35012510D02*
X103833397Y-35457400D01*
X104951727Y-28494630D02*
X104860167Y-28659040D01*
X106036917Y-26973210D02*
X105954867Y-27050410D01*
X103863007Y-33451650D02*
X103852997Y-33810970D01*
X103926497Y-32194800D02*
X103906837Y-32483870D01*
X104067987Y-30957960D02*
X104033537Y-31180730D01*
X104292247Y-29980840D02*
X104240067Y-30161220D01*
X105390687Y-27765530D02*
X105307217Y-27895520D01*
X105553677Y-27527610D02*
X105472727Y-27642970D01*
X103948877Y-31920920D02*
X103926497Y-32194800D01*
X105221947Y-28033190D02*
X105134517Y-28178770D01*
X105307217Y-27895520D02*
X105221947Y-28033190D01*
X103839397Y-34590440D02*
X103835497Y-35012510D01*
X104408447Y-29635900D02*
X104348337Y-29806040D01*
X104105747Y-30745580D02*
X104067987Y-30957960D01*
X105134517Y-28178770D02*
X105044567Y-28332510D01*
X104614087Y-29143790D02*
X104541207Y-29305740D01*
X105713787Y-27317510D02*
X105633907Y-27419210D01*
X105954867Y-27050410D02*
X105873907Y-27133310D01*
X103875207Y-33111320D02*
X103863007Y-33451650D01*
X104860167Y-28659040D02*
X104773447Y-28821400D01*
X109072669Y-26253740D02*
X108924827Y-26253210D01*
X109626176Y-26292040D02*
X109492497Y-26276340D01*
X109757542Y-26311940D02*
X109626176Y-26292040D01*
X110142676Y-26399540D02*
X110015301Y-26365540D01*
X110396870Y-26483140D02*
X110269702Y-26438640D01*
X110916796Y-26717840D02*
X110784145Y-26650140D01*
X111332305Y-26959440D02*
X111190386Y-26872340D01*
X111784461Y-27263220D02*
X111628853Y-27154700D01*
X112655507Y-27922650D02*
X112467260Y-27774520D01*
X113341165Y-28484650D02*
X113195090Y-28359470D01*
X115533003Y-30643070D02*
X115328111Y-30426380D01*
X113992296Y-29080960D02*
X113820280Y-28918400D01*
X107113970Y-26435410D02*
X106996226Y-26465110D01*
X107501087Y-26362810D02*
X107366040Y-26384510D01*
X107791008Y-26325510D02*
X107642623Y-26343210D01*
X107946603Y-26309510D02*
X107791008Y-26325510D01*
X111945615Y-27379270D02*
X111784461Y-27263220D01*
X116371887Y-31553840D02*
X116160062Y-31320400D01*
X109216235Y-26257740D02*
X109072669Y-26253740D01*
X110269702Y-26438640D02*
X110142676Y-26399540D01*
X112112805Y-27503020D02*
X111945615Y-27379270D01*
X107237120Y-26408610D02*
X107113970Y-26435410D01*
X107642623Y-26343210D02*
X107501087Y-26362810D01*
X108614345Y-26262210D02*
X108450724Y-26270210D01*
X108924827Y-26253210D02*
X108772217Y-26256210D01*
X110653601Y-26588640D02*
X110524673Y-26533040D01*
X110784145Y-26650140D02*
X110653601Y-26588640D01*
X111628853Y-27154700D02*
X111478297Y-27053540D01*
X113056493Y-28244720D02*
X112851754Y-28079320D01*
X111190386Y-26872340D02*
X111052046Y-26791840D01*
X112851754Y-28079320D02*
X112655507Y-27922650D01*
X112467260Y-27774520D02*
X112286524Y-27634720D01*
X114352419Y-29430460D02*
X114169808Y-29251790D01*
X116584457Y-31790370D02*
X116371887Y-31553840D01*
X108450724Y-26270210D02*
X108280861Y-26281610D01*
X109356013Y-26264740D02*
X109216235Y-26257740D01*
X110015301Y-26365540D02*
X109887087Y-26336440D01*
X108772217Y-26256210D02*
X108614345Y-26262210D01*
X109492497Y-26276340D02*
X109356013Y-26264740D01*
X111052046Y-26791840D02*
X110916796Y-26717840D01*
X112286524Y-27634720D02*
X112112805Y-27503020D01*
X113820280Y-28918400D02*
X113654155Y-28764540D01*
X114169808Y-29251790D02*
X113992296Y-29080960D01*
X114539735Y-29616540D02*
X114352419Y-29430460D01*
X114731357Y-29809600D02*
X114539735Y-29616540D01*
X115740224Y-30864590D02*
X115533003Y-30643070D01*
X115125941Y-30214960D02*
X114926892Y-30009220D01*
X106671837Y-26573710D02*
X106572117Y-26617310D01*
X106775520Y-26534010D02*
X106671837Y-26573710D01*
X114926892Y-30009220D02*
X114731357Y-29809600D01*
X106883530Y-26497910D02*
X106775520Y-26534010D01*
X108280861Y-26281610D02*
X108109766Y-26295010D01*
X106996226Y-26465110D02*
X106883530Y-26497910D01*
X115949375Y-31090510D02*
X115740224Y-30864590D01*
X113494318Y-28619810D02*
X113341165Y-28484650D01*
X111478297Y-27053540D02*
X111332305Y-26959440D01*
X113654155Y-28764540D02*
X113494318Y-28619810D01*
X113195090Y-28359470D02*
X113056493Y-28244720D01*
X110524673Y-26533040D02*
X110396870Y-26483140D01*
X115328111Y-30426380D02*
X115125941Y-30214960D01*
X107366040Y-26384510D02*
X107237120Y-26408610D01*
X108109766Y-26295010D02*
X107946603Y-26309510D01*
X109887087Y-26336440D02*
X109757542Y-26311940D01*
X116160062Y-31320400D02*
X115949375Y-31090510D01*
X121575538Y-37962620D02*
X121464099Y-37819290D01*
X122355614Y-38965850D02*
X122244175Y-38822530D01*
X122467053Y-39109170D02*
X122355614Y-38965850D01*
X119049117Y-34715060D02*
X118858517Y-34474720D01*
X122689932Y-39395810D02*
X122578492Y-39252480D01*
X116797375Y-32029610D02*
X116584457Y-31790370D01*
X117010243Y-32271080D02*
X116797375Y-32029610D01*
X119792507Y-35669520D02*
X119681068Y-35526190D01*
X122021296Y-38535890D02*
X121909856Y-38392580D01*
X120238266Y-36242790D02*
X120126826Y-36099480D01*
X117222666Y-32514380D02*
X117010243Y-32271080D01*
X117434248Y-32759070D02*
X117222666Y-32514380D01*
X118465688Y-33988330D02*
X118264249Y-33743130D01*
X119235311Y-34952920D02*
X119049117Y-34715060D01*
X121686977Y-38105940D02*
X121575538Y-37962620D01*
X122132735Y-38679210D02*
X122021296Y-38535890D01*
X122244175Y-38822530D02*
X122132735Y-38679210D01*
X122578492Y-39252480D02*
X122467053Y-39109170D01*
X122801371Y-39539120D02*
X122689932Y-39395810D01*
X119569628Y-35382880D02*
X119458190Y-35239560D01*
X121352660Y-37675980D02*
X121241220Y-37532660D01*
X117644594Y-33004720D02*
X117434248Y-32759070D01*
X117853307Y-33250900D02*
X117644594Y-33004720D01*
X120572583Y-36672750D02*
X120461145Y-36529430D01*
X118059991Y-33497180D02*
X117853307Y-33250900D01*
X118264249Y-33743130D02*
X118059991Y-33497180D01*
X120461145Y-36529430D02*
X120349705Y-36386110D01*
X121909856Y-38392580D02*
X121798417Y-38249250D01*
X118663909Y-34232340D02*
X118465688Y-33988330D01*
X118858517Y-34474720D02*
X118663909Y-34232340D01*
X119458190Y-35239560D02*
X119346750Y-35096230D01*
X121018341Y-37246020D02*
X120906902Y-37102710D01*
X121241220Y-37532660D02*
X121129781Y-37389340D01*
X119346750Y-35096230D02*
X119235311Y-34952920D01*
X120795462Y-36959380D02*
X120684022Y-36816060D01*
X120906902Y-37102710D02*
X120795462Y-36959380D01*
X119681068Y-35526190D02*
X119569628Y-35382880D01*
X119903947Y-35812830D02*
X119792507Y-35669520D01*
X120015386Y-35956150D02*
X119903947Y-35812830D01*
X120684022Y-36816060D02*
X120572583Y-36672750D01*
X120126826Y-36099480D02*
X120015386Y-35956150D01*
X121464099Y-37819290D02*
X121352660Y-37675980D01*
X121798417Y-38249250D02*
X121686977Y-38105940D01*
X120349705Y-36386110D02*
X120238266Y-36242790D01*
X121129781Y-37389340D02*
X121018341Y-37246020D01*
X124518344Y-39539120D02*
X124411034Y-39539120D01*
X124947587Y-39539120D02*
X124840277Y-39539120D01*
X125054898Y-39539120D02*
X124947587Y-39539120D01*
X125376830Y-39539120D02*
X125269520Y-39539120D01*
X125591453Y-39539120D02*
X125484141Y-39539120D01*
X126020696Y-39539120D02*
X125913385Y-39539120D01*
X126342664Y-39539120D02*
X126235317Y-39539120D01*
X126664703Y-39539120D02*
X126557356Y-39539120D01*
X129241012Y-39539120D02*
X129133666Y-39539120D01*
X127201434Y-39539120D02*
X127094087Y-39539120D01*
X127630819Y-39539120D02*
X127523472Y-39539120D01*
X128060203Y-39539120D02*
X127952858Y-39539120D01*
X123767169Y-39539120D02*
X123659858Y-39539120D01*
X124196412Y-39539120D02*
X124089101Y-39539120D01*
X124411034Y-39539120D02*
X124303723Y-39539120D01*
X124625655Y-39539120D02*
X124518344Y-39539120D01*
X126772048Y-39539120D02*
X126664703Y-39539120D01*
X129133666Y-39539120D02*
X129026320Y-39539120D01*
X128382242Y-39539120D02*
X128274896Y-39539120D01*
X125484141Y-39539120D02*
X125376830Y-39539120D01*
X126879395Y-39539120D02*
X126772048Y-39539120D01*
X125806074Y-39539120D02*
X125698764Y-39539120D01*
X125913385Y-39539120D02*
X125806074Y-39539120D01*
X129348359Y-39539120D02*
X129241012Y-39539120D01*
X129563051Y-39539120D02*
X129455704Y-39539120D01*
X126235317Y-39539120D02*
X126128007Y-39539120D01*
X126557356Y-39539120D02*
X126450010Y-39539120D01*
X128918974Y-39539120D02*
X128811627Y-39539120D01*
X127416126Y-39539120D02*
X127308780Y-39539120D01*
X127308780Y-39539120D02*
X127201434Y-39539120D01*
X128704280Y-39539120D02*
X128596935Y-39539120D01*
X127094087Y-39539120D02*
X126986741Y-39539120D01*
X129455704Y-39539120D02*
X129348359Y-39539120D01*
X128274896Y-39539120D02*
X128167550Y-39539120D01*
X124303723Y-39539120D02*
X124196412Y-39539120D01*
X124732966Y-39539120D02*
X124625655Y-39539120D01*
X125269520Y-39539120D02*
X125162209Y-39539120D01*
X128596935Y-39539120D02*
X128489588Y-39539120D01*
X123123303Y-39539120D02*
X123015993Y-39539120D01*
X124840277Y-39539120D02*
X124732966Y-39539120D01*
X122908682Y-39539120D02*
X122801371Y-39539120D01*
X126128007Y-39539120D02*
X126020696Y-39539120D01*
X127952858Y-39539120D02*
X127845511Y-39539120D01*
X124089101Y-39539120D02*
X123981790Y-39539120D01*
X129670398Y-39539120D02*
X129563051Y-39539120D01*
X126986741Y-39539120D02*
X126879395Y-39539120D01*
X128167550Y-39539120D02*
X128060203Y-39539120D01*
X123015993Y-39539120D02*
X122908682Y-39539120D01*
X123230614Y-39539120D02*
X123123303Y-39539120D01*
X128489588Y-39539120D02*
X128382242Y-39539120D01*
X123337925Y-39539120D02*
X123230614Y-39539120D01*
X123981790Y-39539120D02*
X123874480Y-39539120D01*
X123445236Y-39539120D02*
X123337925Y-39539120D01*
X123552547Y-39539120D02*
X123445236Y-39539120D01*
X127738164Y-39539120D02*
X127630819Y-39539120D01*
X126450010Y-39539120D02*
X126342664Y-39539120D01*
X127845511Y-39539120D02*
X127738164Y-39539120D01*
X127523472Y-39539120D02*
X127416126Y-39539120D01*
X125698764Y-39539120D02*
X125591453Y-39539120D01*
X123659858Y-39539120D02*
X123552547Y-39539120D01*
X123874480Y-39539120D02*
X123767169Y-39539120D01*
X125162209Y-39539120D02*
X125054898Y-39539120D01*
X129026320Y-39539120D02*
X128918974Y-39539120D01*
X128811627Y-39539120D02*
X128704280Y-39539120D01*
X132010627Y-36529430D02*
X131899188Y-36672750D01*
X136751797Y-30809940D02*
X136380001Y-31209410D01*
X130339035Y-38679210D02*
X130227595Y-38822530D01*
X132344946Y-36099480D02*
X132233506Y-36242790D01*
X132902143Y-35382880D02*
X132790704Y-35526190D01*
X141344620Y-26915920D02*
X141058945Y-27085100D01*
X141623036Y-26764130D02*
X141344620Y-26915920D01*
X142157499Y-26513220D02*
X141894045Y-26629850D01*
X133644473Y-34432900D02*
X133236462Y-34952920D01*
X142413252Y-26414420D02*
X142157499Y-26513220D01*
X131341990Y-37389340D02*
X131230551Y-37532660D01*
X131453430Y-37246020D02*
X131341990Y-37389340D01*
X139200728Y-28458390D02*
X138868375Y-28745790D01*
X141894045Y-26629850D02*
X141623036Y-26764130D01*
X140766159Y-27271560D02*
X140466410Y-27475140D01*
X133013583Y-35239560D02*
X132902143Y-35382880D01*
X137118400Y-30426100D02*
X136751797Y-30809940D01*
X130561914Y-38392580D02*
X130450474Y-38535890D01*
X131676309Y-36959380D02*
X131564869Y-37102710D01*
X130784793Y-38105940D02*
X130673353Y-38249250D01*
X134448319Y-33436880D02*
X134048476Y-33927520D01*
X142901061Y-26270620D02*
X142661155Y-26333520D01*
X139526856Y-28187490D02*
X139200728Y-28458390D01*
X135621427Y-32054760D02*
X135234943Y-32500380D01*
X130896232Y-37962620D02*
X130784793Y-38105940D01*
X131007672Y-37819290D02*
X130896232Y-37962620D01*
X131119111Y-37675980D02*
X131007672Y-37819290D01*
X141058945Y-27085100D02*
X140766159Y-27271560D01*
X132233506Y-36242790D02*
X132122067Y-36386110D01*
X140159844Y-27695750D02*
X139846610Y-27933240D01*
X132679264Y-35669520D02*
X132567825Y-35812830D01*
X131230551Y-37532660D02*
X131119111Y-37675980D01*
X131564869Y-37102710D02*
X131453430Y-37246020D01*
X133125022Y-35096230D02*
X133013583Y-35239560D01*
X131787748Y-36816060D02*
X131676309Y-36959380D01*
X131899188Y-36672750D02*
X131787748Y-36816060D01*
X132456385Y-35956150D02*
X132344946Y-36099480D01*
X136003162Y-31624390D02*
X135621427Y-32054760D01*
X132567825Y-35812830D02*
X132456385Y-35956150D01*
X132790704Y-35526190D02*
X132679264Y-35669520D01*
X134843858Y-32961130D02*
X134448319Y-33436880D01*
X143132822Y-26225820D02*
X142901061Y-26270620D01*
X137479664Y-30058010D02*
X137118400Y-30426100D01*
X137835442Y-29705820D02*
X137479664Y-30058010D01*
X142661155Y-26333520D02*
X142413252Y-26414420D01*
X140466410Y-27475140D02*
X140159844Y-27695750D01*
X143356290Y-26199220D02*
X143132822Y-26225820D01*
X138185585Y-29369640D02*
X137835442Y-29705820D01*
X138868375Y-28745790D02*
X138529945Y-29049580D01*
X139846610Y-27933240D02*
X139526856Y-28187490D01*
X136380001Y-31209410D02*
X136003162Y-31624390D01*
X129781837Y-39395810D02*
X129670398Y-39539120D01*
X130227595Y-38822530D02*
X130116156Y-38965850D01*
X129893277Y-39252480D02*
X129781837Y-39395810D01*
X130004716Y-39109170D02*
X129893277Y-39252480D01*
X130116156Y-38965850D02*
X130004716Y-39109170D01*
X143571317Y-26191220D02*
X143356290Y-26199220D01*
X130450474Y-38535890D02*
X130339035Y-38679210D01*
X132122067Y-36386110D02*
X132010627Y-36529430D01*
X135234943Y-32500380D02*
X134843858Y-32961130D01*
X133236462Y-34952920D02*
X133125022Y-35096230D01*
X134048476Y-33927520D02*
X133644473Y-34432900D01*
X138529945Y-29049580D02*
X138185585Y-29369640D01*
X130673353Y-38249250D02*
X130561914Y-38392580D01*
X125215146Y-94377750D02*
X125493308Y-94413750D01*
X124087171Y-94132950D02*
X124371741Y-94209250D01*
X123800653Y-94046550D02*
X124087171Y-94132950D01*
X122928032Y-93726710D02*
X123221222Y-93843440D01*
X122334008Y-93462900D02*
X122632340Y-93599870D01*
X121208034Y-92870390D02*
X121421793Y-92991240D01*
X120616608Y-92515740D02*
X120806004Y-92633300D01*
X120088157Y-92158960D02*
X120258248Y-92279230D01*
X116306541Y-87073940D02*
X116504298Y-87431270D01*
X119306130Y-91510870D02*
X119455286Y-91648940D01*
X118728892Y-90896400D02*
X118871418Y-91060670D01*
X118155692Y-90150470D02*
X118300581Y-90351600D01*
X127956852Y-94285850D02*
X128228679Y-94221450D01*
X127413023Y-94384650D02*
X127685012Y-94340250D01*
X127140748Y-94419050D02*
X127413023Y-94384650D01*
X124935590Y-94331650D02*
X125215146Y-94377750D01*
X119923379Y-92036470D02*
X120088157Y-92158960D01*
X116504298Y-87431270D02*
X116694436Y-87771080D01*
X117706803Y-89479150D02*
X117859366Y-89714910D01*
X122632340Y-93599870D02*
X122928032Y-93726710D01*
X119763348Y-91911080D02*
X119923379Y-92036470D01*
X127685012Y-94340250D02*
X127956852Y-94285850D01*
X126046003Y-94455550D02*
X126320813Y-94461550D01*
X125493308Y-94413750D02*
X125770215Y-94439650D01*
X121728873Y-93158590D02*
X122032899Y-93315820D01*
X120806004Y-92633300D02*
X121002959Y-92751300D01*
X120258248Y-92279230D02*
X120434211Y-92397930D01*
X116877522Y-88094030D02*
X117054114Y-88400790D01*
X119014758Y-91217400D02*
X119159475Y-91367250D01*
X119159475Y-91367250D02*
X119306130Y-91510870D01*
X117224777Y-88692010D02*
X117390072Y-88968370D01*
X121421793Y-92991240D02*
X121728873Y-93158590D01*
X119455286Y-91648940D02*
X119607505Y-91782130D01*
X117859366Y-89714910D02*
X118008808Y-89938460D01*
X125770215Y-94439650D02*
X126046003Y-94455550D01*
X124654501Y-94275450D02*
X124935590Y-94331650D01*
X123221222Y-93843440D02*
X123512050Y-93950050D01*
X117390072Y-88968370D02*
X117550560Y-89230530D01*
X128772857Y-94062650D02*
X129045483Y-93968250D01*
X124371741Y-94209250D02*
X124654501Y-94275450D01*
X130419519Y-93346630D02*
X130530968Y-93285730D01*
X121002959Y-92751300D02*
X121208034Y-92870390D01*
X118300581Y-90351600D02*
X118444036Y-90542520D01*
X126320813Y-94461550D02*
X126594781Y-94457550D01*
X130142797Y-93490910D02*
X130419519Y-93346630D01*
X119607505Y-91782130D02*
X119763348Y-91911080D01*
X118008808Y-89938460D02*
X118155692Y-90150470D01*
X129867170Y-93625230D02*
X130142797Y-93490910D01*
X129592502Y-93749560D02*
X129867170Y-93625230D01*
X117550560Y-89230530D02*
X117706803Y-89479150D01*
X129318652Y-93863920D02*
X129592502Y-93749560D01*
X126594781Y-94457550D02*
X126868047Y-94443350D01*
X129045483Y-93968250D02*
X129318652Y-93863920D01*
X128500635Y-94147050D02*
X128772857Y-94062650D01*
X118586619Y-90723900D02*
X118728892Y-90896400D01*
X120434211Y-92397930D02*
X120616608Y-92515740D01*
X118444036Y-90542520D02*
X118586619Y-90723900D01*
X118871418Y-91060670D02*
X119014758Y-91217400D01*
X122032899Y-93315820D02*
X122334008Y-93462900D01*
X128228679Y-94221450D02*
X128500635Y-94147050D01*
X126868047Y-94443350D02*
X127140748Y-94419050D01*
X123512050Y-93950050D02*
X123800653Y-94046550D01*
X116694436Y-87771080D02*
X116877522Y-88094030D01*
X117054114Y-88400790D02*
X117224777Y-88692010D01*
X109472138Y-75602910D02*
X109706644Y-75787550D01*
X108965723Y-75214580D02*
X109225300Y-75412060D01*
X115830855Y-86199880D02*
X115965840Y-86450500D01*
X115695869Y-85946980D02*
X115830855Y-86199880D01*
X115561096Y-85692270D02*
X115695869Y-85946980D01*
X111588129Y-77533080D02*
X111706248Y-77677090D01*
X112889540Y-80054870D02*
X112949150Y-80208240D01*
X110340216Y-76308570D02*
X110529442Y-76472720D01*
X110877380Y-76789350D02*
X111036902Y-76942700D01*
X113926221Y-82421170D02*
X114038668Y-82658410D01*
X111187332Y-77093310D02*
X111329077Y-77241620D01*
X115426751Y-85436200D02*
X115561096Y-85692270D01*
X115293049Y-85179210D02*
X115426751Y-85436200D01*
X113510780Y-81521790D02*
X113609060Y-81738300D01*
X112628390Y-79319610D02*
X112688480Y-79485530D01*
X111462541Y-77388060D02*
X111588129Y-77533080D01*
X111329077Y-77241620D02*
X111462541Y-77388060D01*
X109929222Y-75966410D02*
X110140278Y-76139940D01*
X112112120Y-78251870D02*
X112198960Y-78397410D01*
X115160206Y-84921760D02*
X115293049Y-85179210D01*
X112198960Y-78397410D02*
X112280770Y-78544560D01*
X110529442Y-76472720D02*
X110708362Y-76632830D01*
X115028435Y-84664290D02*
X115160206Y-84921760D01*
X114897951Y-84407270D02*
X115028435Y-84664290D01*
X114641707Y-83896360D02*
X114768970Y-84151140D01*
X108693003Y-75010000D02*
X108965723Y-75214580D01*
X108406735Y-74797930D02*
X108693003Y-75010000D01*
X113084910Y-80542960D02*
X113160640Y-80723400D01*
X112787930Y-79778340D02*
X112835730Y-79911420D01*
X110708362Y-76632830D02*
X110877380Y-76789350D01*
X112565700Y-79157920D02*
X112628390Y-79319610D01*
X112019830Y-78107500D02*
X112112120Y-78251870D01*
X113416590Y-81311600D02*
X113510780Y-81521790D01*
X112357940Y-78693740D02*
X112430880Y-78845410D01*
X114516376Y-83643370D02*
X114641707Y-83896360D01*
X114393191Y-83392630D02*
X114516376Y-83643370D01*
X109225300Y-75412060D02*
X109472138Y-75602910D01*
X108106512Y-74577910D02*
X108406735Y-74797930D01*
X114272368Y-83144590D02*
X114393191Y-83392630D01*
X113160640Y-80723400D02*
X113241300Y-80911950D01*
X111036902Y-76942700D02*
X111187332Y-77093310D01*
X114154122Y-82899700D02*
X114272368Y-83144590D01*
X112835730Y-79911420D02*
X112889540Y-80054870D01*
X113816994Y-82188440D02*
X113926221Y-82421170D01*
X113711204Y-81960680D02*
X113816994Y-82188440D01*
X109706644Y-75787550D02*
X109929222Y-75966410D01*
X110140278Y-76139940D02*
X110340216Y-76308570D01*
X113014350Y-80371090D02*
X113084910Y-80542960D01*
X112746360Y-79656090D02*
X112787930Y-79778340D01*
X111921690Y-77963870D02*
X112019830Y-78107500D01*
X113326690Y-81108170D02*
X113416590Y-81311600D01*
X112430880Y-78845410D02*
X112500000Y-79000000D01*
X112949150Y-80208240D02*
X113014350Y-80371090D01*
X111706248Y-77677090D02*
X111817302Y-77820540D01*
X116100607Y-86698410D02*
X116306541Y-87073940D01*
X114768970Y-84151140D02*
X114897951Y-84407270D01*
X112280770Y-78544560D02*
X112357940Y-78693740D01*
X112688480Y-79485530D02*
X112746360Y-79656090D01*
X115965840Y-86450500D02*
X116100607Y-86698410D01*
X114038668Y-82658410D02*
X114154122Y-82899700D01*
X113609060Y-81738300D02*
X113711204Y-81960680D01*
X113241300Y-80911950D02*
X113326690Y-81108170D01*
X111817302Y-77820540D02*
X111921690Y-77963870D01*
X112500000Y-79000000D02*
X112565700Y-79157920D01*
M02*
