G04 #@! TF.GenerationSoftware,KiCad,Pcbnew,(5.0.0)*
G04 #@! TF.CreationDate,2018-10-24T17:50:19-07:00*
G04 #@! TF.ProjectId,Cub_Wolf_Badge_Circuit,4375625F576F6C665F42616467655F43,rev?*
G04 #@! TF.SameCoordinates,Original*
G04 #@! TF.FileFunction,Legend,Top*
G04 #@! TF.FilePolarity,Positive*
%FSLAX46Y46*%
G04 Gerber Fmt 4.6, Leading zero omitted, Abs format (unit mm)*
G04 Created by KiCad (PCBNEW (5.0.0)) date 10/24/18 17:50:19*
%MOMM*%
%LPD*%
G01*
G04 APERTURE LIST*
%ADD10C,0.300000*%
%ADD11C,0.010000*%
%ADD12C,0.050000*%
%ADD13C,0.100000*%
%ADD14C,0.120000*%
%ADD15C,0.150000*%
G04 APERTURE END LIST*
D10*
X120935714Y-45035714D02*
X120864285Y-45107142D01*
X120650000Y-45178571D01*
X120507142Y-45178571D01*
X120292857Y-45107142D01*
X120150000Y-44964285D01*
X120078571Y-44821428D01*
X120007142Y-44535714D01*
X120007142Y-44321428D01*
X120078571Y-44035714D01*
X120150000Y-43892857D01*
X120292857Y-43750000D01*
X120507142Y-43678571D01*
X120650000Y-43678571D01*
X120864285Y-43750000D01*
X120935714Y-43821428D01*
X122221428Y-44178571D02*
X122221428Y-45178571D01*
X121578571Y-44178571D02*
X121578571Y-44964285D01*
X121650000Y-45107142D01*
X121792857Y-45178571D01*
X122007142Y-45178571D01*
X122150000Y-45107142D01*
X122221428Y-45035714D01*
X122935714Y-45178571D02*
X122935714Y-43678571D01*
X122935714Y-44250000D02*
X123078571Y-44178571D01*
X123364285Y-44178571D01*
X123507142Y-44250000D01*
X123578571Y-44321428D01*
X123650000Y-44464285D01*
X123650000Y-44892857D01*
X123578571Y-45035714D01*
X123507142Y-45107142D01*
X123364285Y-45178571D01*
X123078571Y-45178571D01*
X122935714Y-45107142D01*
X125364285Y-45107142D02*
X125578571Y-45178571D01*
X125935714Y-45178571D01*
X126078571Y-45107142D01*
X126150000Y-45035714D01*
X126221428Y-44892857D01*
X126221428Y-44750000D01*
X126150000Y-44607142D01*
X126078571Y-44535714D01*
X125935714Y-44464285D01*
X125650000Y-44392857D01*
X125507142Y-44321428D01*
X125435714Y-44250000D01*
X125364285Y-44107142D01*
X125364285Y-43964285D01*
X125435714Y-43821428D01*
X125507142Y-43750000D01*
X125650000Y-43678571D01*
X126007142Y-43678571D01*
X126221428Y-43750000D01*
X127507142Y-45107142D02*
X127364285Y-45178571D01*
X127078571Y-45178571D01*
X126935714Y-45107142D01*
X126864285Y-45035714D01*
X126792857Y-44892857D01*
X126792857Y-44464285D01*
X126864285Y-44321428D01*
X126935714Y-44250000D01*
X127078571Y-44178571D01*
X127364285Y-44178571D01*
X127507142Y-44250000D01*
X128364285Y-45178571D02*
X128221428Y-45107142D01*
X128150000Y-45035714D01*
X128078571Y-44892857D01*
X128078571Y-44464285D01*
X128150000Y-44321428D01*
X128221428Y-44250000D01*
X128364285Y-44178571D01*
X128578571Y-44178571D01*
X128721428Y-44250000D01*
X128792857Y-44321428D01*
X128864285Y-44464285D01*
X128864285Y-44892857D01*
X128792857Y-45035714D01*
X128721428Y-45107142D01*
X128578571Y-45178571D01*
X128364285Y-45178571D01*
X130150000Y-44178571D02*
X130150000Y-45178571D01*
X129507142Y-44178571D02*
X129507142Y-44964285D01*
X129578571Y-45107142D01*
X129721428Y-45178571D01*
X129935714Y-45178571D01*
X130078571Y-45107142D01*
X130150000Y-45035714D01*
X130650000Y-44178571D02*
X131221428Y-44178571D01*
X130864285Y-43678571D02*
X130864285Y-44964285D01*
X130935714Y-45107142D01*
X131078571Y-45178571D01*
X131221428Y-45178571D01*
X131650000Y-45107142D02*
X131792857Y-45178571D01*
X132078571Y-45178571D01*
X132221428Y-45107142D01*
X132292857Y-44964285D01*
X132292857Y-44892857D01*
X132221428Y-44750000D01*
X132078571Y-44678571D01*
X131864285Y-44678571D01*
X131721428Y-44607142D01*
X131650000Y-44464285D01*
X131650000Y-44392857D01*
X131721428Y-44250000D01*
X131864285Y-44178571D01*
X132078571Y-44178571D01*
X132221428Y-44250000D01*
D11*
G36*
X111800000Y-55250000D02*
X111650000Y-55300000D01*
X111550000Y-55450000D01*
X111550000Y-55750000D01*
X111650000Y-56300000D01*
X111900000Y-57250000D01*
X112200000Y-58100000D01*
X112650000Y-58950000D01*
X113200000Y-59650000D01*
X113850000Y-60200000D01*
X114650000Y-60650000D01*
X115400000Y-60900000D01*
X116150000Y-61000000D01*
X117100000Y-61050000D01*
X117850000Y-61000000D01*
X118850000Y-60900000D01*
X120100000Y-60600000D01*
X120600000Y-60350000D01*
X120900000Y-60050000D01*
X120950000Y-59800000D01*
X120900000Y-59500000D01*
X120650000Y-59100000D01*
X120350000Y-58800000D01*
X120100000Y-58600000D01*
X119900000Y-58500000D01*
X119600000Y-58500000D01*
X119150000Y-58650000D01*
X118250000Y-59150000D01*
X117550000Y-59400000D01*
X117000000Y-59450000D01*
X116500000Y-59450000D01*
X115850000Y-59250000D01*
X115350000Y-58900000D01*
X114900000Y-58450000D01*
X114600000Y-57950000D01*
X114300000Y-57200000D01*
X114100000Y-56500000D01*
X113850000Y-55950000D01*
X113650000Y-55700000D01*
X113550000Y-55650000D01*
X113050000Y-55550000D01*
X112000000Y-55300000D01*
X111800000Y-55250000D01*
G37*
X111800000Y-55250000D02*
X111650000Y-55300000D01*
X111550000Y-55450000D01*
X111550000Y-55750000D01*
X111650000Y-56300000D01*
X111900000Y-57250000D01*
X112200000Y-58100000D01*
X112650000Y-58950000D01*
X113200000Y-59650000D01*
X113850000Y-60200000D01*
X114650000Y-60650000D01*
X115400000Y-60900000D01*
X116150000Y-61000000D01*
X117100000Y-61050000D01*
X117850000Y-61000000D01*
X118850000Y-60900000D01*
X120100000Y-60600000D01*
X120600000Y-60350000D01*
X120900000Y-60050000D01*
X120950000Y-59800000D01*
X120900000Y-59500000D01*
X120650000Y-59100000D01*
X120350000Y-58800000D01*
X120100000Y-58600000D01*
X119900000Y-58500000D01*
X119600000Y-58500000D01*
X119150000Y-58650000D01*
X118250000Y-59150000D01*
X117550000Y-59400000D01*
X117000000Y-59450000D01*
X116500000Y-59450000D01*
X115850000Y-59250000D01*
X115350000Y-58900000D01*
X114900000Y-58450000D01*
X114600000Y-57950000D01*
X114300000Y-57200000D01*
X114100000Y-56500000D01*
X113850000Y-55950000D01*
X113650000Y-55700000D01*
X113550000Y-55650000D01*
X113050000Y-55550000D01*
X112000000Y-55300000D01*
X111800000Y-55250000D01*
D12*
G36*
X141000000Y-55250000D02*
X140750000Y-55250000D01*
X140000000Y-55500000D01*
X139500000Y-55600000D01*
X139100000Y-55600000D01*
X138700000Y-56100000D01*
X138400000Y-56900000D01*
X138200000Y-57600000D01*
X137900000Y-58200000D01*
X137500000Y-58700000D01*
X137200000Y-59000000D01*
X136900000Y-59200000D01*
X136500000Y-59400000D01*
X136200000Y-59500000D01*
X135600000Y-59600000D01*
X135300000Y-59600000D01*
X134900000Y-59500000D01*
X134600000Y-59400000D01*
X134200000Y-59200000D01*
X133900000Y-59000000D01*
X133700000Y-58800000D01*
X133300000Y-58600000D01*
X133000000Y-58500000D01*
X132800000Y-58500000D01*
X132300000Y-58800000D01*
X131800000Y-59400000D01*
X131700000Y-59700000D01*
X131700000Y-59900000D01*
X131900000Y-60200000D01*
X132400000Y-60500000D01*
X133600000Y-60900000D01*
X134400000Y-61000000D01*
X135600000Y-61000000D01*
X137100000Y-60800000D01*
X138400000Y-60400000D01*
X139200000Y-59900000D01*
X139900000Y-59100000D01*
X140400000Y-58100000D01*
X140800000Y-57000000D01*
X141100000Y-55800000D01*
X141100000Y-55400000D01*
X141100000Y-55300000D01*
X141000000Y-55250000D01*
G37*
X141000000Y-55250000D02*
X140750000Y-55250000D01*
X140000000Y-55500000D01*
X139500000Y-55600000D01*
X139100000Y-55600000D01*
X138700000Y-56100000D01*
X138400000Y-56900000D01*
X138200000Y-57600000D01*
X137900000Y-58200000D01*
X137500000Y-58700000D01*
X137200000Y-59000000D01*
X136900000Y-59200000D01*
X136500000Y-59400000D01*
X136200000Y-59500000D01*
X135600000Y-59600000D01*
X135300000Y-59600000D01*
X134900000Y-59500000D01*
X134600000Y-59400000D01*
X134200000Y-59200000D01*
X133900000Y-59000000D01*
X133700000Y-58800000D01*
X133300000Y-58600000D01*
X133000000Y-58500000D01*
X132800000Y-58500000D01*
X132300000Y-58800000D01*
X131800000Y-59400000D01*
X131700000Y-59700000D01*
X131700000Y-59900000D01*
X131900000Y-60200000D01*
X132400000Y-60500000D01*
X133600000Y-60900000D01*
X134400000Y-61000000D01*
X135600000Y-61000000D01*
X137100000Y-60800000D01*
X138400000Y-60400000D01*
X139200000Y-59900000D01*
X139900000Y-59100000D01*
X140400000Y-58100000D01*
X140800000Y-57000000D01*
X141100000Y-55800000D01*
X141100000Y-55400000D01*
X141100000Y-55300000D01*
X141000000Y-55250000D01*
D13*
X139644558Y-43099740D02*
X139580498Y-42855210D01*
X140115558Y-44175570D02*
X140017208Y-44001870D01*
X139423468Y-41799620D02*
X139408838Y-41517120D01*
X139778058Y-43497310D02*
X139718608Y-43336250D01*
X140017208Y-44001870D02*
X139927848Y-43830610D01*
X140337250Y-44528250D02*
X140222401Y-44351180D01*
X140866884Y-45241120D02*
X140724922Y-45063190D01*
X141324120Y-45766870D02*
X141166975Y-45593450D01*
X141503787Y-33758650D02*
X141705766Y-33349580D01*
X140345177Y-36505720D02*
X140483110Y-36126800D01*
X139404038Y-41227460D02*
X139409038Y-40930820D01*
X141166975Y-45593450D02*
X141014399Y-45418030D01*
X140097195Y-37248680D02*
X140216528Y-36879730D01*
X140589002Y-44884750D02*
X140459614Y-44706270D01*
X141014399Y-45418030D02*
X140866884Y-45241120D01*
X139886618Y-37970820D02*
X139987213Y-37612430D01*
X141818066Y-46270280D02*
X141650156Y-46105780D01*
X139526398Y-42602780D02*
X139482218Y-42342600D01*
X139481968Y-40000390D02*
X139525568Y-39677260D01*
X139408838Y-41517120D02*
X139404038Y-41227460D01*
X139580498Y-42855210D02*
X139526398Y-42602780D01*
X139578738Y-39347880D02*
X139641458Y-39012390D01*
X139447998Y-40317130D02*
X139481968Y-40000390D01*
X139718608Y-43336250D02*
X139644558Y-43099740D01*
X139927848Y-43830610D02*
X139847968Y-43662260D01*
X140724922Y-45063190D02*
X140589002Y-44884750D01*
X139847968Y-43662260D02*
X139778058Y-43497310D01*
X140459614Y-44706270D02*
X140337250Y-44528250D01*
X141988582Y-46430830D02*
X141818066Y-46270280D01*
X141310856Y-34163860D02*
X141503787Y-33758650D01*
X141127008Y-34565070D02*
X141310856Y-34163860D01*
X140786692Y-35354860D02*
X140952276Y-34962120D01*
X139525568Y-39677260D02*
X139578738Y-39347880D01*
X140216528Y-36879730D02*
X140345177Y-36505720D01*
X141485344Y-45937800D02*
X141324120Y-45766870D01*
X140952276Y-34962120D02*
X141127008Y-34565070D01*
X140630293Y-35743140D02*
X140786692Y-35354860D01*
X139447918Y-42074840D02*
X139423468Y-41799620D01*
X141650156Y-46105780D02*
X141485344Y-45937800D01*
X140483110Y-36126800D02*
X140630293Y-35743140D01*
X139482218Y-42342600D02*
X139447918Y-42074840D01*
X139987213Y-37612430D02*
X140097195Y-37248680D01*
X140222401Y-44351180D02*
X140115558Y-44175570D01*
X139795438Y-38323720D02*
X139886618Y-37970820D01*
X139713708Y-38670950D02*
X139795438Y-38323720D01*
X139641458Y-39012390D02*
X139713708Y-38670950D01*
X139423678Y-40627330D02*
X139447998Y-40317130D01*
X139409038Y-40930820D02*
X139423678Y-40627330D01*
X144947251Y-49095860D02*
X144924981Y-49010860D01*
X144878081Y-48848060D02*
X144853551Y-48770460D01*
X144901911Y-48928260D02*
X144878081Y-48848060D01*
X145142641Y-50332310D02*
X145136841Y-50270410D01*
X145206441Y-51013010D02*
X145200641Y-50951110D01*
X145223841Y-51198610D02*
X145218041Y-51136810D01*
X145136841Y-50270410D02*
X145131041Y-50208510D01*
X145160041Y-50518010D02*
X145154241Y-50456110D01*
X143038933Y-47283620D02*
X142863085Y-47157090D01*
X144853551Y-48770460D02*
X144828351Y-48695660D01*
X145218041Y-51136810D02*
X145212241Y-51074910D01*
X143213952Y-47402750D02*
X143038933Y-47283620D01*
X145189041Y-50827410D02*
X145183241Y-50765510D01*
X143387652Y-47514010D02*
X143213952Y-47402750D01*
X143559540Y-47616860D02*
X143387652Y-47514010D01*
X143729128Y-47710860D02*
X143559540Y-47616860D01*
X144924981Y-49010860D02*
X144901911Y-48928260D01*
X144219169Y-47934860D02*
X144059432Y-47870360D01*
X143895922Y-47795560D02*
X143729128Y-47710860D01*
X144403851Y-48000260D02*
X144374641Y-47988560D01*
X144579781Y-48170060D02*
X144550621Y-48130560D01*
X144637511Y-48261260D02*
X144608761Y-48213660D01*
X144721911Y-48426860D02*
X144694131Y-48367960D01*
X145194841Y-50889310D02*
X145189041Y-50827410D01*
X145200641Y-50951110D02*
X145194841Y-50889310D01*
X145027301Y-49456860D02*
X145008731Y-49363760D01*
X144989171Y-49272460D02*
X144968661Y-49183160D01*
X145044811Y-49551560D02*
X145027301Y-49456860D01*
X145165841Y-50579910D02*
X145160041Y-50518010D01*
X145171641Y-50641810D02*
X145165841Y-50579910D01*
X145103461Y-49944060D02*
X145090601Y-49844160D01*
X144749271Y-48489260D02*
X144721911Y-48426860D01*
X145076511Y-49745360D02*
X145061231Y-49647760D01*
X145061231Y-49647760D02*
X145044811Y-49551560D01*
X144374641Y-47988560D02*
X144219169Y-47934860D01*
X144462571Y-48038360D02*
X144433181Y-48016860D01*
X144433181Y-48016860D02*
X144403851Y-48000260D01*
X144521341Y-48095360D02*
X144491971Y-48064560D01*
X144665981Y-48312760D02*
X144637511Y-48261260D01*
X144968661Y-49183160D02*
X144947251Y-49095860D01*
X144828351Y-48695660D02*
X144802541Y-48623760D01*
X145131041Y-50208510D02*
X145125241Y-50146710D01*
X144491971Y-48064560D02*
X144462571Y-48038360D01*
X145212241Y-51074910D02*
X145206441Y-51013010D01*
X145183241Y-50765510D02*
X145177441Y-50703610D01*
X144608761Y-48213660D02*
X144579781Y-48170060D01*
X144550621Y-48130560D02*
X144521341Y-48095360D01*
X145154241Y-50456110D02*
X145148441Y-50394210D01*
X145229641Y-51260510D02*
X145223841Y-51198610D01*
X144802541Y-48623760D02*
X144776161Y-48554960D01*
X145125241Y-50146710D02*
X145115021Y-50045020D01*
X145148441Y-50394210D02*
X145142641Y-50332310D01*
X145008731Y-49363760D02*
X144989171Y-49272460D01*
X145090601Y-49844160D02*
X145076511Y-49745360D01*
X142161214Y-46586930D02*
X141988582Y-46430830D01*
X145177441Y-50703610D02*
X145171641Y-50641810D01*
X145115021Y-50045020D02*
X145103461Y-49944060D01*
X142335471Y-46738110D02*
X142161214Y-46586930D01*
X142510863Y-46883850D02*
X142335471Y-46738110D01*
X142686897Y-47023670D02*
X142510863Y-46883850D01*
X144776161Y-48554960D02*
X144749271Y-48489260D01*
X142863085Y-47157090D02*
X142686897Y-47023670D01*
X144059432Y-47870360D02*
X143895922Y-47795560D01*
X144694131Y-48367960D02*
X144665981Y-48312760D01*
X133869021Y-55487670D02*
X134229585Y-55321040D01*
X139925175Y-53384390D02*
X140428073Y-53259130D01*
X136643541Y-54365740D02*
X137084219Y-54215560D01*
X143261258Y-52600910D02*
X143397897Y-52569310D01*
X141621592Y-52980110D02*
X141758231Y-52948510D01*
X141348314Y-53043310D02*
X141484953Y-53011710D01*
X145252841Y-51508110D02*
X145247041Y-51446210D01*
X142851341Y-52695710D02*
X142987980Y-52664110D01*
X141484953Y-53011710D02*
X141621592Y-52980110D01*
X145235441Y-51322410D02*
X145229641Y-51260510D01*
X145241241Y-51384310D02*
X145235441Y-51322410D01*
X145247041Y-51446210D02*
X145241241Y-51384310D01*
X145305041Y-52065010D02*
X145299241Y-52003110D01*
X145264441Y-51631910D02*
X145258641Y-51570010D01*
X139430070Y-53513720D02*
X139925175Y-53384390D01*
X145276041Y-51755610D02*
X145270241Y-51693810D01*
X143534535Y-52537710D02*
X143671174Y-52506110D01*
X145174202Y-52158510D02*
X145310841Y-52126910D01*
X145037563Y-52190110D02*
X145174202Y-52158510D01*
X143671174Y-52506110D02*
X143807813Y-52474510D01*
X137995163Y-53924490D02*
X138464699Y-53783960D01*
X141758231Y-52948510D02*
X141894870Y-52916910D01*
X140938398Y-53138110D02*
X141075037Y-53106510D01*
X133521364Y-55655970D02*
X133869021Y-55487670D01*
X145299241Y-52003110D02*
X145293441Y-51941310D01*
X145310841Y-52126910D02*
X145305041Y-52065010D01*
X144900924Y-52221710D02*
X145037563Y-52190110D01*
X135793595Y-54674540D02*
X136213211Y-54518800D01*
X144764285Y-52253310D02*
X144900924Y-52221710D01*
X144217730Y-52379710D02*
X144354368Y-52348110D01*
X143944452Y-52442910D02*
X144081091Y-52411310D01*
X144081091Y-52411310D02*
X144217730Y-52379710D01*
X143397897Y-52569310D02*
X143534535Y-52537710D01*
X141894870Y-52916910D02*
X142031508Y-52885310D01*
X142578064Y-52758910D02*
X142714702Y-52727310D01*
X140428073Y-53259130D02*
X140938398Y-53138110D01*
X138943122Y-53646970D02*
X139430070Y-53513720D01*
X142304786Y-52822110D02*
X142441425Y-52790510D01*
X142168147Y-52853710D02*
X142304786Y-52822110D01*
X142441425Y-52790510D02*
X142578064Y-52758910D01*
X141075037Y-53106510D02*
X141211675Y-53074910D01*
X145258641Y-51570010D02*
X145252841Y-51508110D01*
X145270241Y-51693810D02*
X145264441Y-51631910D01*
X133186976Y-55825750D02*
X133521364Y-55655970D01*
X145281841Y-51817510D02*
X145276041Y-51755610D01*
X145287641Y-51879410D02*
X145281841Y-51817510D01*
X145293441Y-51941310D02*
X145287641Y-51879410D01*
X143124619Y-52632510D02*
X143261258Y-52600910D01*
X138464699Y-53783960D02*
X138943122Y-53646970D01*
X136213211Y-54518800D02*
X136643541Y-54365740D01*
X142031508Y-52885310D02*
X142168147Y-52853710D01*
X137534882Y-54068420D02*
X137995163Y-53924490D01*
X144627646Y-52284910D02*
X144764285Y-52253310D01*
X144491007Y-52316510D02*
X144627646Y-52284910D01*
X144354368Y-52348110D02*
X144491007Y-52316510D01*
X137084219Y-54215560D02*
X137534882Y-54068420D01*
X143807813Y-52474510D02*
X143944452Y-52442910D01*
X142987980Y-52664110D02*
X143124619Y-52632510D01*
X142714702Y-52727310D02*
X142851341Y-52695710D01*
X141211675Y-53074910D02*
X141348314Y-53043310D01*
X132866226Y-55996850D02*
X133186976Y-55825750D01*
X132559475Y-56169090D02*
X132866226Y-55996850D01*
X127639391Y-69290120D02*
X127633291Y-68797750D01*
X132267094Y-56342300D02*
X132559475Y-56169090D01*
X127689651Y-67252500D02*
X127732641Y-66720530D01*
X129017903Y-73905980D02*
X128917182Y-73801230D01*
X129889411Y-74427080D02*
X129800811Y-74407080D01*
X128291421Y-72868610D02*
X128163502Y-72567820D01*
X131989443Y-56516300D02*
X132267094Y-56342300D01*
X131726888Y-56690920D02*
X131989443Y-56516300D01*
X127787401Y-66183050D02*
X127853721Y-65641800D01*
X127864921Y-71502710D02*
X127793121Y-71099270D01*
X129679546Y-59059700D02*
X129887232Y-58649640D01*
X129220000Y-74087580D02*
X129118983Y-74001480D01*
X131033463Y-57216820D02*
X131248533Y-57041350D01*
X130653360Y-57567350D02*
X130834950Y-57392200D01*
X130342412Y-57916240D02*
X130489060Y-57742090D01*
X130103539Y-58262090D02*
X130213783Y-58089630D01*
X128020301Y-64554990D02*
X128120171Y-64012940D01*
X127732641Y-66720530D02*
X127787401Y-66183050D01*
X129518381Y-74289780D02*
X129420121Y-74231780D01*
X128718512Y-73564040D02*
X128621422Y-73431640D01*
X127734871Y-70674530D02*
X127689961Y-70230260D01*
X129420121Y-74231780D02*
X129320521Y-74164380D01*
X130213783Y-58089630D02*
X130342412Y-57916240D01*
X128938957Y-60890010D02*
X129110188Y-60407430D01*
X129118983Y-74001480D02*
X129017903Y-73905980D01*
X131479798Y-56866000D02*
X131726888Y-56690920D01*
X131248533Y-57041350D02*
X131479798Y-56866000D01*
X127689961Y-70230260D02*
X127658201Y-69768200D01*
X129110188Y-60407430D02*
X129290828Y-59940340D01*
X130834950Y-57392200D02*
X131033463Y-57216820D01*
X129709151Y-74377480D02*
X129614871Y-74338380D01*
X128352055Y-62940320D02*
X128483684Y-62413240D01*
X127931421Y-65098530D02*
X128020301Y-64554990D01*
X127853721Y-65641800D02*
X127931421Y-65098530D01*
X128526392Y-73290060D02*
X128433862Y-73139350D01*
X127639791Y-68292850D02*
X127658641Y-67777190D01*
X128049911Y-72238740D02*
X127950451Y-71883120D01*
X129320521Y-74164380D02*
X129220000Y-74087580D01*
X129614871Y-74338380D02*
X129518381Y-74289780D01*
X130055771Y-74438510D02*
X129974541Y-74437580D01*
X130132671Y-74430510D02*
X130055771Y-74438510D01*
X130489060Y-57742090D02*
X130653360Y-57567350D01*
X129887232Y-58649640D02*
X130103539Y-58262090D01*
X129480679Y-59490520D02*
X129679546Y-59059700D01*
X129290828Y-59940340D02*
X129480679Y-59490520D01*
X128483684Y-62413240D02*
X128625508Y-61894670D01*
X128777332Y-61386330D02*
X128938957Y-60890010D01*
X128625508Y-61894670D02*
X128777332Y-61386330D01*
X128230818Y-63474140D02*
X128352055Y-62940320D01*
X128120171Y-64012940D02*
X128230818Y-63474140D01*
X127950451Y-71883120D02*
X127864921Y-71502710D01*
X127793121Y-71099270D02*
X127734871Y-70674530D01*
X128621422Y-73431640D02*
X128526392Y-73290060D01*
X128163502Y-72567820D02*
X128049911Y-72238740D01*
X129800811Y-74407080D02*
X129709151Y-74377480D01*
X128433862Y-73139350D02*
X128291421Y-72868610D01*
X128817242Y-73687250D02*
X128718512Y-73564040D01*
X128917182Y-73801230D02*
X128817242Y-73687250D01*
X129974541Y-74437580D02*
X129889411Y-74427080D01*
X127658641Y-67777190D02*
X127689651Y-67252500D01*
X127658201Y-69768200D02*
X127639391Y-69290120D01*
X127633291Y-68797750D02*
X127639791Y-68292850D01*
X107490539Y-31910050D02*
X107463569Y-31904050D01*
X108437829Y-33253180D02*
X108375249Y-33137790D01*
X107463574Y-31904050D02*
X107463574Y-31904050D01*
X107463572Y-31904050D02*
X107463572Y-31904050D01*
X107463571Y-31904050D02*
X107463572Y-31904050D01*
X107463571Y-31904050D02*
X107463571Y-31904050D01*
X108147079Y-32731350D02*
X108095269Y-32643250D01*
X108200929Y-32824850D02*
X108147079Y-32731350D01*
X108639879Y-33633450D02*
X108570089Y-33500940D01*
X109319237Y-34967850D02*
X109113929Y-34552940D01*
X108712199Y-33771780D02*
X108639879Y-33633450D01*
X109113929Y-34552940D02*
X109028019Y-34384570D01*
X107463570Y-31904050D02*
X107463570Y-31904050D01*
X107608659Y-31980450D02*
X107577479Y-31956250D01*
X107997449Y-32482850D02*
X107951339Y-32410450D01*
X109512366Y-35382290D02*
X109319237Y-34967850D01*
X107463574Y-31904050D02*
X107463574Y-31904050D01*
X107463572Y-31904050D02*
X107463573Y-31904050D01*
X107463573Y-31904050D02*
X107463573Y-31904050D01*
X107463571Y-31904050D02*
X107463571Y-31904050D01*
X107709729Y-32080650D02*
X107674719Y-32042650D01*
X108045409Y-32560450D02*
X107997449Y-32482850D01*
X107463571Y-31904050D02*
X107463571Y-31904050D01*
X107463571Y-31904050D02*
X107463571Y-31904050D01*
X107463570Y-31904050D02*
X107463570Y-31904050D01*
X107518479Y-31921050D02*
X107490539Y-31910050D01*
X108944959Y-34222330D02*
X108864679Y-34066160D01*
X107783999Y-32171050D02*
X107746139Y-32123450D01*
X108256859Y-32923650D02*
X108200929Y-32824850D01*
X108502759Y-33374210D02*
X108437829Y-33253180D01*
X107463573Y-31904050D02*
X107463573Y-31904050D01*
X107463569Y-31904050D02*
X107463569Y-31904050D01*
X107951339Y-32410450D02*
X107906999Y-32343150D01*
X108787109Y-33915990D02*
X108712199Y-33771780D01*
X108375249Y-33137790D02*
X108314939Y-33027970D01*
X107463572Y-31904050D02*
X107463572Y-31904050D01*
X109028019Y-34384570D02*
X108944959Y-34222330D01*
X107463573Y-31904050D02*
X107463574Y-31904050D01*
X107463573Y-31904050D02*
X107463573Y-31904050D01*
X107463569Y-31904050D02*
X107463569Y-31904050D01*
X107823389Y-32223550D02*
X107783999Y-32171050D01*
X107463569Y-31904050D02*
X107463569Y-31904050D01*
X107463573Y-31904050D02*
X107463573Y-31904050D01*
X107463573Y-31904050D02*
X107463573Y-31904050D01*
X107463572Y-31904050D02*
X107463572Y-31904050D01*
X107463570Y-31904050D02*
X107463570Y-31904050D01*
X108864679Y-34066160D02*
X108787109Y-33915990D01*
X107463570Y-31904050D02*
X107463570Y-31904050D01*
X107463569Y-31904050D02*
X107463570Y-31904050D01*
X107641049Y-32009250D02*
X107608659Y-31980450D01*
X107463571Y-31904050D02*
X107463571Y-31904050D01*
X107463569Y-31904050D02*
X107463569Y-31904050D01*
X107674719Y-32042650D02*
X107641049Y-32009250D01*
X107864369Y-32280850D02*
X107823389Y-32223550D01*
X108314939Y-33027970D02*
X108256859Y-32923650D01*
X107463570Y-31904050D02*
X107463571Y-31904050D01*
X107906999Y-32343150D02*
X107864369Y-32280850D01*
X107746139Y-32123450D02*
X107709729Y-32080650D01*
X108095269Y-32643250D02*
X108045409Y-32560450D01*
X107463572Y-31904050D02*
X107463572Y-31904050D01*
X107463570Y-31904050D02*
X107463570Y-31904050D01*
X107547439Y-31936450D02*
X107518479Y-31921050D01*
X108570089Y-33500940D02*
X108502759Y-33374210D01*
X107577479Y-31956250D02*
X107547439Y-31936450D01*
X106937175Y-44412010D02*
X106976655Y-44571800D01*
X110904418Y-40476910D02*
X110871678Y-40118690D01*
X107372405Y-45552270D02*
X107426235Y-45611670D01*
X107056265Y-44860400D02*
X107096975Y-44989340D01*
X107016255Y-44721240D02*
X107056265Y-44860400D01*
X108393178Y-45590870D02*
X108509376Y-45530070D01*
X110932358Y-41168220D02*
X110924658Y-40826930D01*
X110837648Y-42434880D02*
X110880218Y-42134090D01*
X110634058Y-43266050D02*
X110714588Y-43001410D01*
X107096975Y-44989340D02*
X107138685Y-45108140D01*
X110414099Y-37828350D02*
X110294522Y-37428270D01*
X110910178Y-41822350D02*
X110927558Y-41500200D01*
X110782438Y-42724170D02*
X110837648Y-42434880D01*
X110714588Y-43001410D02*
X110782438Y-42724170D01*
X109198872Y-45096070D02*
X109360519Y-44983740D01*
X108762596Y-45382270D02*
X108900203Y-45295470D01*
X106976655Y-44571800D02*
X107016255Y-44721240D01*
X108283532Y-45642870D02*
X108393178Y-45590870D01*
X110316182Y-43978790D02*
X110434876Y-43755280D01*
X109360519Y-44983740D02*
X109530764Y-44863060D01*
X108632418Y-45460570D02*
X108762596Y-45382270D01*
X107607155Y-45732070D02*
X107674915Y-45753270D01*
X110616218Y-38614990D02*
X110521338Y-38224110D01*
X110768808Y-39379910D02*
X110698718Y-39000440D01*
X110826468Y-39752850D02*
X110768808Y-39379910D01*
X110927558Y-41500200D02*
X110932358Y-41168220D01*
X110880218Y-42134090D02*
X110910178Y-41822350D01*
X110040472Y-44380800D02*
X110184721Y-44187490D01*
X107321325Y-45483170D02*
X107372405Y-45552270D01*
X108082725Y-45720070D02*
X108180145Y-45685970D01*
X106855215Y-44030950D02*
X106897535Y-44241790D01*
X109045530Y-45199970D02*
X109198872Y-45096070D01*
X107272705Y-45404270D02*
X107321325Y-45483170D01*
X107483105Y-45661370D02*
X107543315Y-45701470D01*
X110540828Y-43517530D02*
X110634058Y-43266050D01*
X107904625Y-45761070D02*
X107990985Y-45745170D01*
X110184721Y-44187490D02*
X110316182Y-43978790D01*
X108180145Y-45685970D02*
X108283532Y-45642870D01*
X107426235Y-45611670D02*
X107483105Y-45661370D01*
X106897535Y-44241790D02*
X106937175Y-44412010D01*
X107746885Y-45765070D02*
X107823355Y-45767070D01*
X107138685Y-45108140D02*
X107181675Y-45216870D01*
X109883410Y-44558210D02*
X110040472Y-44380800D01*
X108900203Y-45295470D02*
X109045530Y-45199970D01*
X107823355Y-45767070D02*
X107904625Y-45761070D01*
X107543315Y-45701470D02*
X107607155Y-45732070D01*
X109713516Y-44719150D02*
X109883410Y-44558210D01*
X108509376Y-45530070D02*
X108632418Y-45460570D01*
X110434876Y-43755280D02*
X110540828Y-43517530D01*
X107990985Y-45745170D02*
X108082725Y-45720070D01*
X107181675Y-45216870D02*
X107226255Y-45315570D01*
X110162631Y-37024410D02*
X110018447Y-36617330D01*
X107674915Y-45753270D02*
X107746885Y-45765070D01*
X106816215Y-43787480D02*
X106855215Y-44030950D01*
X109693291Y-35795720D02*
X109512366Y-35382290D01*
X109861993Y-36207590D02*
X109693291Y-35795720D01*
X110924658Y-40826930D02*
X110904418Y-40476910D01*
X110018447Y-36617330D02*
X109861993Y-36207590D01*
X110294522Y-37428270D02*
X110162631Y-37024410D01*
X110521338Y-38224110D02*
X110414099Y-37828350D01*
X107226255Y-45315570D02*
X107272705Y-45404270D01*
X110698718Y-39000440D02*
X110616218Y-38614990D01*
X110871678Y-40118690D02*
X110826468Y-39752850D01*
X109530764Y-44863060D02*
X109713516Y-44719150D01*
X106801225Y-34032740D02*
X106769205Y-34381050D01*
X107241415Y-32045600D02*
X107229015Y-32066300D01*
X106620275Y-40936070D02*
X106633755Y-41359240D01*
X106602445Y-40055150D02*
X106609845Y-40500620D01*
X106598245Y-38681230D02*
X106596645Y-39143190D01*
X107180215Y-32161600D02*
X107168155Y-32188600D01*
X107192325Y-32135900D02*
X107180215Y-32161600D01*
X107279325Y-31991700D02*
X107266565Y-32008300D01*
X107292245Y-31976400D02*
X107279325Y-31991700D01*
X107373635Y-31914800D02*
X107359545Y-31921800D01*
X107417415Y-31903800D02*
X107402555Y-31905800D01*
X107359545Y-31921800D02*
X107345685Y-31929800D01*
X106633285Y-36846210D02*
X106620265Y-37298520D01*
X106954965Y-32901150D02*
X106912735Y-33140280D01*
X107144105Y-32246300D02*
X107132085Y-32277000D01*
X107387965Y-31909800D02*
X107373635Y-31914800D01*
X106748065Y-43211660D02*
X106780515Y-43513620D01*
X106718855Y-42883830D02*
X106748065Y-43211660D01*
X106692845Y-42532420D02*
X106718855Y-42883830D01*
X106596645Y-39143190D02*
X106598045Y-39601930D01*
X107059235Y-32485300D02*
X107046845Y-32524000D01*
X107156125Y-32216800D02*
X107144105Y-32246300D01*
X107463735Y-31905270D02*
X107447995Y-31903270D01*
X106602645Y-38218280D02*
X106598245Y-38681230D01*
X106835835Y-33708340D02*
X106801225Y-34032740D01*
X107402555Y-31905800D02*
X107387965Y-31909800D01*
X107332035Y-31938800D02*
X107318585Y-31950000D01*
X107083745Y-32411200D02*
X107071535Y-32447700D01*
X107204485Y-32111400D02*
X107192325Y-32135900D01*
X107253925Y-32026300D02*
X107241415Y-32045600D01*
X106739815Y-34751010D02*
X106713075Y-35140340D01*
X107132085Y-32277000D02*
X107120055Y-32308800D01*
X107229015Y-32066300D02*
X107216705Y-32088200D01*
X107305325Y-31962500D02*
X107292245Y-31976400D01*
X145211722Y-31722930D02*
X145211722Y-31722930D01*
X106780515Y-43513620D02*
X106816215Y-43787480D01*
X107345685Y-31929800D02*
X107332035Y-31938800D01*
X106670005Y-42159670D02*
X106692845Y-42532420D01*
X106650325Y-41767860D02*
X106670005Y-42159670D01*
X106689025Y-35546790D02*
X106667695Y-35968080D01*
X107095895Y-32375900D02*
X107083745Y-32411200D01*
X106769205Y-34381050D02*
X106739815Y-34751010D01*
X106609845Y-40500620D02*
X106620275Y-40936070D01*
X106620265Y-37298520D02*
X106610045Y-37756620D01*
X106649105Y-36401980D02*
X106633285Y-36846210D01*
X106667695Y-35968080D02*
X106649105Y-36401980D01*
X107318585Y-31950000D02*
X107305325Y-31962500D01*
X106713075Y-35140340D02*
X106689025Y-35546790D01*
X106999675Y-32694970D02*
X106954965Y-32901150D01*
X107046845Y-32524000D02*
X106999675Y-32694970D01*
X107432555Y-31902800D02*
X107417415Y-31903800D01*
X107107995Y-32341800D02*
X107095895Y-32375900D01*
X107216705Y-32088200D02*
X107204485Y-32111400D01*
X107447995Y-31903270D02*
X107432555Y-31902800D01*
X145211722Y-31722930D02*
X145212050Y-31720630D01*
X106633755Y-41359240D02*
X106650325Y-41767860D01*
X107120055Y-32308800D02*
X107107995Y-32341800D01*
X107071535Y-32447700D02*
X107059235Y-32485300D01*
X107168155Y-32188600D02*
X107156125Y-32216800D01*
X106598045Y-39601930D02*
X106602445Y-40055150D01*
X106610045Y-37756620D02*
X106602645Y-38218280D01*
X106873015Y-33410100D02*
X106835835Y-33708340D01*
X107266565Y-32008300D02*
X107253925Y-32026300D01*
X106912735Y-33140280D02*
X106873015Y-33410100D01*
X145365225Y-31855960D02*
X145352875Y-31837260D01*
X145211716Y-31722870D02*
X145211716Y-31722870D01*
X145211716Y-31722870D02*
X145211717Y-31722880D01*
X145599145Y-32407760D02*
X145584815Y-32366960D01*
X145211716Y-31722870D02*
X145211716Y-31722870D01*
X145427005Y-31969260D02*
X145414595Y-31944060D01*
X145543165Y-32251560D02*
X145529685Y-32215360D01*
X145225225Y-31725860D02*
X145211715Y-31722860D01*
X145264725Y-31743860D02*
X145251715Y-31736860D01*
X145584815Y-32366960D02*
X145570715Y-32327360D01*
X145211719Y-31722900D02*
X145211719Y-31722900D01*
X145211720Y-31722910D02*
X145211720Y-31722910D01*
X145211721Y-31722920D02*
X145211721Y-31722920D01*
X145211719Y-31722910D02*
X145211719Y-31722910D01*
X145211715Y-31722870D02*
X145211716Y-31722870D01*
X145251715Y-31736860D02*
X145238555Y-31730860D01*
X145389885Y-31897460D02*
X145377555Y-31876060D01*
X145516385Y-32180360D02*
X145503245Y-32146560D01*
X145238555Y-31730860D02*
X145225225Y-31725860D01*
X145377555Y-31876060D02*
X145365225Y-31855960D01*
X145303025Y-31775460D02*
X145290365Y-31763460D01*
X145503245Y-32146560D02*
X145490265Y-32113960D01*
X145211718Y-31722900D02*
X145211718Y-31722900D01*
X145211720Y-31722910D02*
X145211720Y-31722910D01*
X145211720Y-31722910D02*
X145211720Y-31722910D01*
X145211719Y-31722900D02*
X145211719Y-31722910D01*
X145211718Y-31722900D02*
X145211718Y-31722900D01*
X145211717Y-31722880D02*
X145211718Y-31722880D01*
X145211717Y-31722880D02*
X145211717Y-31722880D01*
X145328075Y-31803660D02*
X145315585Y-31788860D01*
X145211717Y-31722880D02*
X145211717Y-31722880D01*
X145477405Y-32082560D02*
X145464665Y-32052360D01*
X145402225Y-31920160D02*
X145389885Y-31897460D01*
X145211715Y-31722860D02*
X145211715Y-31722870D01*
X145211716Y-31722870D02*
X145211716Y-31722870D01*
X145315585Y-31788860D02*
X145303025Y-31775460D01*
X145529685Y-32215360D02*
X145516385Y-32180360D01*
X145613725Y-32449560D02*
X145599145Y-32407760D01*
X145452035Y-32023360D02*
X145439485Y-31995660D01*
X145464665Y-32052360D02*
X145452035Y-32023360D01*
X145679075Y-32661160D02*
X145628575Y-32492560D01*
X145727075Y-32864950D02*
X145679075Y-32661160D01*
X145628575Y-32492560D02*
X145613725Y-32449560D01*
X145340495Y-31819760D02*
X145328075Y-31803660D01*
X145211720Y-31722910D02*
X145211721Y-31722920D01*
X145277605Y-31752860D02*
X145264725Y-31743860D01*
X145352875Y-31837260D02*
X145340495Y-31819760D01*
X145211722Y-31722920D02*
X145211722Y-31722930D01*
X145211722Y-31722920D02*
X145211722Y-31722920D01*
X145211719Y-31722900D02*
X145211719Y-31722900D01*
X145290365Y-31763460D02*
X145277605Y-31752860D01*
X145556835Y-32288860D02*
X145543165Y-32251560D01*
X145211721Y-31722920D02*
X145211722Y-31722920D01*
X145211718Y-31722900D02*
X145211719Y-31722900D01*
X145211721Y-31722920D02*
X145211721Y-31722920D01*
X145211716Y-31722870D02*
X145211716Y-31722870D01*
X145414595Y-31944060D02*
X145402225Y-31920160D01*
X145211721Y-31722920D02*
X145211721Y-31722920D01*
X145211719Y-31722910D02*
X145211720Y-31722910D01*
X145211718Y-31722880D02*
X145211718Y-31722900D01*
X145439485Y-31995660D02*
X145427005Y-31969260D01*
X145490265Y-32113960D02*
X145477405Y-32082560D01*
X145570715Y-32327360D02*
X145556835Y-32288860D01*
X145211717Y-31722880D02*
X145211717Y-31722880D01*
X146007112Y-42851640D02*
X146033562Y-42495340D01*
X145866362Y-44024510D02*
X145906862Y-43773610D01*
X143204074Y-44914200D02*
X143424801Y-45063530D01*
X146076242Y-41722720D02*
X146092542Y-41310870D01*
X143880858Y-45337930D02*
X144016314Y-45415330D01*
X145893335Y-33987290D02*
X145855705Y-33665100D01*
X145960515Y-34701430D02*
X145928285Y-34333480D01*
X145772535Y-33101690D02*
X145727075Y-32864950D01*
X145815425Y-33369170D02*
X145772535Y-33101690D01*
X145928285Y-34333480D02*
X145893335Y-33987290D01*
X144144020Y-45485430D02*
X144264291Y-45548230D01*
X145855705Y-33665100D02*
X145815425Y-33369170D01*
X145295802Y-45645360D02*
X145345342Y-45593860D01*
X146040515Y-35913520D02*
X146016665Y-35493690D01*
X146094695Y-37240930D02*
X146079565Y-36789370D01*
X146122155Y-38623240D02*
X146116055Y-38160100D01*
X145559312Y-45199060D02*
X145597582Y-45091990D01*
X145479192Y-45384760D02*
X145519952Y-45296660D01*
X144483802Y-45651230D02*
X144583682Y-45691230D01*
X145392202Y-45533260D02*
X145436712Y-45463560D01*
X145635092Y-44975280D02*
X145672152Y-44848830D01*
X145822262Y-44243460D02*
X145866362Y-44024510D01*
X145977202Y-43184940D02*
X146007112Y-42851640D01*
X144016314Y-45415330D02*
X144144020Y-45485430D01*
X145436712Y-45463560D02*
X145479192Y-45384760D01*
X145064602Y-45764060D02*
X145128002Y-45747260D01*
X145906862Y-43773610D02*
X145943802Y-43493000D01*
X145989985Y-35088920D02*
X145960515Y-34701430D01*
X146105532Y-40884980D02*
X146115232Y-40447280D01*
X146016665Y-35493690D02*
X145989985Y-35088920D01*
X145128002Y-45747260D02*
X145187452Y-45721960D01*
X146061495Y-36346160D02*
X146040515Y-35913520D01*
X146079565Y-36789370D02*
X146061495Y-36346160D01*
X146106855Y-37698580D02*
X146094695Y-37240930D01*
X146116055Y-38160100D02*
X146106855Y-37698580D01*
X146033562Y-42495340D02*
X146056602Y-42118280D01*
X146125155Y-39085760D02*
X146122155Y-38623240D01*
X146056602Y-42118280D02*
X146076242Y-41722720D01*
X145597582Y-45091990D02*
X145635092Y-44975280D01*
X144765262Y-45747730D02*
X144847592Y-45764030D01*
X144377446Y-45603530D02*
X144483802Y-45651230D01*
X143585418Y-45161930D02*
X143737331Y-45253430D01*
X144264291Y-45548230D02*
X144377446Y-45603530D01*
X145709092Y-44712540D02*
X145746202Y-44566280D01*
X145943802Y-43493000D02*
X145977202Y-43184940D01*
X145519952Y-45296660D02*
X145559312Y-45199060D01*
X145672152Y-44848830D02*
X145709092Y-44712540D01*
X144847592Y-45764030D02*
X144924722Y-45772030D01*
X145783822Y-44409960D02*
X145822262Y-44243460D01*
X146115232Y-40447280D02*
X146121732Y-40000020D01*
X145746202Y-44566280D02*
X145783822Y-44409960D01*
X144924722Y-45772030D02*
X144996952Y-45772060D01*
X144583682Y-45691230D02*
X144677392Y-45723430D01*
X146092542Y-41310870D02*
X146105532Y-40884980D01*
X145345342Y-45593860D02*
X145392202Y-45533260D01*
X144677392Y-45723430D02*
X144765262Y-45747730D01*
X145187452Y-45721960D02*
X145243282Y-45688060D01*
X146125032Y-39545440D02*
X146125155Y-39085760D01*
X146121732Y-40000020D02*
X146125032Y-39545440D01*
X145243282Y-45688060D02*
X145295802Y-45645360D01*
X144996952Y-45772060D02*
X145064602Y-45764060D01*
X143737331Y-45253430D02*
X143880858Y-45337930D01*
X142998730Y-44748330D02*
X143204074Y-44914200D01*
X143424801Y-45063530D02*
X143585418Y-45161930D01*
X142488645Y-37131040D02*
X142344151Y-37585730D01*
X143012283Y-35716920D02*
X142822726Y-36196310D01*
X143982380Y-33603650D02*
X143920290Y-33726990D01*
X144363670Y-32857470D02*
X144314580Y-32951770D01*
X144700040Y-32244970D02*
X144663030Y-32308070D01*
X144803440Y-32078070D02*
X144770190Y-32130070D01*
X145125170Y-31729570D02*
X145102780Y-31740070D01*
X144953190Y-31872470D02*
X144925290Y-31906470D01*
X142330916Y-43926020D02*
X142474865Y-44154750D01*
X142822726Y-36196310D02*
X142648174Y-36667800D01*
X144770190Y-32130070D02*
X144735740Y-32185670D01*
X142100329Y-38468060D02*
X142001029Y-38895060D01*
X144456870Y-32680870D02*
X144411080Y-32767170D01*
X145149050Y-31722040D02*
X145146950Y-31722570D01*
X142808758Y-44566240D02*
X142998730Y-44748330D01*
X142634141Y-44368270D02*
X142808758Y-44566240D01*
X143436360Y-34735760D02*
X143216832Y-35229960D01*
X144866500Y-31985070D02*
X144835530Y-32029770D01*
X142214708Y-38031520D02*
X142100329Y-38468060D01*
X144211220Y-33152490D02*
X144156840Y-33259020D01*
X144584930Y-32445670D02*
X144543750Y-32520170D01*
X145056010Y-31770770D02*
X145031530Y-31791070D01*
X142344151Y-37585730D02*
X142214708Y-38031520D01*
X144543750Y-32520170D02*
X144501080Y-32598570D01*
X144663030Y-32308070D02*
X144624680Y-32374970D01*
X144411080Y-32767170D02*
X144363670Y-32857470D01*
X145146950Y-31722570D02*
X145125170Y-31729570D01*
X142474865Y-44154750D02*
X142634141Y-44368270D01*
X141793739Y-40115310D02*
X141754909Y-40500710D01*
X141847719Y-39719010D02*
X141793739Y-40115310D01*
X141990879Y-43151840D02*
X142088939Y-43424230D01*
X143670850Y-34234660D02*
X143436360Y-34735760D01*
X144896410Y-31943970D02*
X144866500Y-31985070D01*
X142202278Y-43682400D02*
X142330916Y-43926020D01*
X142088939Y-43424230D02*
X142202278Y-43682400D01*
X144100610Y-33369700D02*
X144042470Y-33484580D01*
X145006270Y-31814770D02*
X144980170Y-31841870D01*
X141908089Y-42865550D02*
X141990879Y-43151840D01*
X141788249Y-42252670D02*
X141840549Y-42565730D01*
X144501080Y-32598570D02*
X144456870Y-32680870D01*
X145151150Y-31721550D02*
X145149050Y-31722040D01*
X144624680Y-32374970D02*
X144584930Y-32445670D01*
X142648174Y-36667800D02*
X142488645Y-37131040D01*
X144735740Y-32185670D02*
X144700040Y-32244970D01*
X142001029Y-38895060D02*
X141916819Y-39312150D01*
X141840549Y-42565730D02*
X141908089Y-42865550D01*
X141731219Y-40874890D02*
X141722719Y-41237500D01*
X143216832Y-35229960D02*
X143012283Y-35716920D01*
X144835530Y-32029770D02*
X144803440Y-32078070D01*
X141722719Y-41237500D02*
X141729319Y-41588230D01*
X141916819Y-39312150D02*
X141847719Y-39719010D01*
X143920290Y-33726990D02*
X143670850Y-34234660D01*
X144042470Y-33484580D02*
X143982380Y-33603650D01*
X144156840Y-33259020D02*
X144100610Y-33369700D01*
X145031530Y-31791070D02*
X145006270Y-31814770D01*
X144925290Y-31906470D02*
X144896410Y-31943970D01*
X144263780Y-33050070D02*
X144211220Y-33152490D01*
X144314580Y-32951770D02*
X144263780Y-33050070D01*
X145079740Y-31753770D02*
X145056010Y-31770770D01*
X144980170Y-31841870D02*
X144953190Y-31872470D01*
X145102780Y-31740070D02*
X145079740Y-31753770D01*
X141751179Y-41926730D02*
X141788249Y-42252670D01*
X141729319Y-41588230D02*
X141751179Y-41926730D01*
X141754909Y-40500710D02*
X141731219Y-40874890D01*
X143418129Y-28966980D02*
X143418129Y-28966980D01*
X145188150Y-31718000D02*
X145186150Y-31717950D01*
X145212050Y-31720630D02*
X145210150Y-31720280D01*
X145190150Y-31718080D02*
X145188150Y-31718000D01*
X145206150Y-31719640D02*
X145204150Y-31719350D01*
X143418132Y-28966930D02*
X143418132Y-28966940D01*
X145210150Y-31720280D02*
X145208150Y-31719940D01*
X145208150Y-31719940D02*
X145206150Y-31719640D01*
X143418124Y-28967030D02*
X143418123Y-28967030D01*
X143418126Y-28967020D02*
X143418124Y-28967020D01*
X145176150Y-31718110D02*
X145174150Y-31718230D01*
X145178150Y-31718020D02*
X145176150Y-31718110D01*
X143418123Y-28967040D02*
X143420480Y-28959470D01*
X143418124Y-28967020D02*
X143418124Y-28967030D01*
X143418124Y-28967020D02*
X143418124Y-28967020D01*
X143418130Y-28966970D02*
X143418129Y-28966970D01*
X143418131Y-28966960D02*
X143418131Y-28966960D01*
X143418133Y-28966930D02*
X143418132Y-28966930D01*
X143418127Y-28967000D02*
X143418127Y-28967010D01*
X143418129Y-28966970D02*
X143418129Y-28966980D01*
X143418131Y-28966940D02*
X143418131Y-28966960D01*
X143418136Y-28966890D02*
X143418135Y-28966900D01*
X145204150Y-31719350D02*
X145202150Y-31719100D01*
X145170050Y-31718550D02*
X145167950Y-31718750D01*
X145172150Y-31718370D02*
X145170050Y-31718550D01*
X145180150Y-31717960D02*
X145178150Y-31718020D01*
X145192150Y-31718180D02*
X145190150Y-31718080D01*
X145194150Y-31718320D02*
X145192150Y-31718180D01*
X145196150Y-31718480D02*
X145194150Y-31718320D01*
X143418128Y-28966990D02*
X143418127Y-28967000D01*
X143418133Y-28966920D02*
X143418133Y-28966920D01*
X143418123Y-28967030D02*
X143418123Y-28967040D01*
X143418130Y-28966960D02*
X143418130Y-28966970D01*
X143424336Y-28966120D02*
X143418136Y-28966890D01*
X145202150Y-31719100D02*
X145200150Y-31718870D01*
X143418134Y-28966910D02*
X143418134Y-28966910D01*
X145198150Y-31718660D02*
X145196150Y-31718480D01*
X143418127Y-28967000D02*
X143418127Y-28967000D01*
X143418126Y-28967010D02*
X143418126Y-28967020D01*
X143430436Y-28965480D02*
X143424336Y-28966120D01*
X143418135Y-28966900D02*
X143418135Y-28966900D01*
X143418133Y-28966920D02*
X143418133Y-28966930D01*
X143418128Y-28966990D02*
X143418128Y-28966990D01*
X143418131Y-28966960D02*
X143418130Y-28966960D01*
X143418135Y-28966900D02*
X143418134Y-28966910D01*
X143418136Y-28966890D02*
X143418136Y-28966890D01*
X143418129Y-28966980D02*
X143418128Y-28966990D01*
X143418132Y-28966940D02*
X143418131Y-28966940D01*
X145153250Y-31721080D02*
X145151150Y-31721550D01*
X143418134Y-28966910D02*
X143418133Y-28966920D01*
X143418127Y-28967010D02*
X143418126Y-28967010D01*
X145184150Y-31717920D02*
X145182150Y-31717930D01*
X145155350Y-31720650D02*
X145153250Y-31721080D01*
X143418135Y-28966900D02*
X143418135Y-28966900D01*
X145157450Y-31720260D02*
X145155350Y-31720650D01*
X145200150Y-31718870D02*
X145198150Y-31718660D01*
X145161650Y-31719560D02*
X145159550Y-31719890D01*
X145159550Y-31719890D02*
X145157450Y-31720260D01*
X145163750Y-31719260D02*
X145161650Y-31719560D01*
X145165850Y-31719000D02*
X145163750Y-31719260D01*
X145167950Y-31718750D02*
X145165850Y-31719000D01*
X145174150Y-31718230D02*
X145172150Y-31718370D01*
X145186150Y-31717950D02*
X145184150Y-31717920D01*
X145182150Y-31717930D02*
X145180150Y-31717960D01*
X143491936Y-28965990D02*
X143486736Y-28965360D01*
X142860779Y-31087620D02*
X142929119Y-30941500D01*
X143476136Y-28964460D02*
X143470736Y-28964180D01*
X143481436Y-28964850D02*
X143476136Y-28964460D01*
X143542236Y-28979560D02*
X143538136Y-28977560D01*
X143561336Y-28989560D02*
X143557636Y-28987560D01*
X143593809Y-29168260D02*
X143598409Y-29118660D01*
X143550136Y-28983560D02*
X143546236Y-28981560D01*
X143594316Y-29042160D02*
X143585416Y-29015760D01*
X143571836Y-28997560D02*
X143568436Y-28994560D01*
X143584809Y-29225160D02*
X143593809Y-29168260D01*
X143532989Y-29437360D02*
X143554339Y-29359960D01*
X143277989Y-30144980D02*
X143325079Y-30027700D01*
X143436436Y-28964950D02*
X143430436Y-28965480D01*
X143442336Y-28964530D02*
X143436436Y-28964950D01*
X142561679Y-31702030D02*
X142640129Y-31544390D01*
X143486736Y-28965360D02*
X143481436Y-28964850D01*
X143448136Y-28964230D02*
X143442336Y-28964530D01*
X143453936Y-28964050D02*
X143448136Y-28964230D01*
X143511536Y-28969560D02*
X143506836Y-28968560D01*
X143478519Y-29611060D02*
X143507689Y-29521160D01*
X142312879Y-32187930D02*
X142397959Y-32024030D01*
X143557636Y-28987560D02*
X143553936Y-28985560D01*
X143598409Y-29118660D02*
X143598616Y-29076560D01*
X143408969Y-29808450D02*
X143445589Y-29706860D01*
X143516136Y-28970560D02*
X143511536Y-28969560D01*
X142789779Y-31236960D02*
X142860779Y-31087620D01*
X143571639Y-29289160D02*
X143584809Y-29225160D01*
X143554339Y-29359960D02*
X143571639Y-29289160D01*
X142136739Y-32520430D02*
X142225769Y-32353480D01*
X143502036Y-28967590D02*
X143497036Y-28966730D01*
X143520736Y-28971560D02*
X143516136Y-28970560D01*
X143525236Y-28972560D02*
X143520736Y-28971560D01*
X142994699Y-30798820D02*
X143057429Y-30659810D01*
X143459636Y-28963970D02*
X143453936Y-28964050D01*
X143465236Y-28964030D02*
X143459636Y-28963970D01*
X143497036Y-28966730D02*
X143491936Y-28965990D01*
X143506836Y-28968560D02*
X143502036Y-28967590D01*
X143529636Y-28973560D02*
X143525236Y-28972560D01*
X143117209Y-30524700D02*
X143173959Y-30393700D01*
X141916761Y-32936790D02*
X142136739Y-32520430D01*
X142929119Y-30941500D02*
X142994699Y-30798820D01*
X143533936Y-28975560D02*
X143529636Y-28973560D01*
X143538136Y-28977560D02*
X143533936Y-28975560D01*
X143546236Y-28981560D02*
X143542236Y-28979560D01*
X143325079Y-30027700D02*
X143368769Y-29915450D01*
X143564936Y-28991560D02*
X143561336Y-28989560D01*
X143227589Y-30267060D02*
X143277989Y-30144980D01*
X143173959Y-30393700D02*
X143227589Y-30267060D01*
X142480929Y-31861980D02*
X142561679Y-31702030D01*
X143585416Y-29015760D02*
X143571836Y-28997560D01*
X143568436Y-28994560D02*
X143564936Y-28991560D01*
X143057429Y-30659810D02*
X143117209Y-30524700D01*
X142397959Y-32024030D02*
X142480929Y-31861980D01*
X141705766Y-33349580D02*
X141916761Y-32936790D01*
X143507689Y-29521160D02*
X143532989Y-29437360D01*
X143445589Y-29706860D02*
X143478519Y-29611060D01*
X142225769Y-32353480D02*
X142312879Y-32187930D01*
X143470736Y-28964180D02*
X143465236Y-28964030D01*
X143553936Y-28985560D02*
X143550136Y-28983560D01*
X143598616Y-29076560D02*
X143594316Y-29042160D01*
X143368769Y-29915450D02*
X143408969Y-29808450D01*
X142716189Y-31389290D02*
X142789779Y-31236960D01*
X142640129Y-31544390D02*
X142716189Y-31389290D01*
X111604594Y-56137130D02*
X111620424Y-56215330D01*
X111567024Y-55924630D02*
X111577884Y-55991830D01*
X111538224Y-55640530D02*
X111540524Y-55690630D01*
X111572212Y-55377330D02*
X111561882Y-55406030D01*
X111673792Y-55263030D02*
X111652062Y-55275530D01*
X111750752Y-55240530D02*
X111723122Y-55245530D01*
X112749474Y-59139100D02*
X112841504Y-59264960D01*
X111775794Y-56871780D02*
X111827774Y-57067360D01*
X111577884Y-55991830D02*
X111590414Y-56062630D01*
X111748924Y-56765930D02*
X111775794Y-56871780D01*
X112660714Y-59008750D02*
X112749474Y-59139100D01*
X111598462Y-55328530D02*
X111584392Y-55351530D01*
X112125704Y-57964560D02*
X112193334Y-58128400D01*
X111550324Y-55800830D02*
X111557824Y-55861030D01*
X111632272Y-55290630D02*
X111614412Y-55308230D01*
X111882214Y-57257470D02*
X111939164Y-57442160D01*
X111998684Y-57621520D02*
X112060844Y-57795630D01*
X111546882Y-55471930D02*
X111542082Y-55509430D01*
X111637874Y-56297330D02*
X111656924Y-56383130D01*
X111620424Y-56215330D02*
X111637874Y-56297330D01*
X111677574Y-56472830D02*
X111699794Y-56566530D01*
X111584392Y-55351530D02*
X111572212Y-55377330D01*
X112936874Y-59386430D02*
X113035644Y-59503580D01*
X112841504Y-59264960D02*
X112936874Y-59386430D01*
X111544524Y-55744030D02*
X111550324Y-55800830D01*
X111697472Y-55252530D02*
X111673792Y-55263030D01*
X112575164Y-58873860D02*
X112660714Y-59008750D01*
X111723584Y-56664230D02*
X111748924Y-56765930D01*
X111656924Y-56383130D02*
X111677574Y-56472830D01*
X111538982Y-55550030D02*
X111537682Y-55593630D01*
X112492754Y-58734330D02*
X112575164Y-58873860D01*
X112337134Y-58441100D02*
X112413434Y-58590110D01*
X111614412Y-55308230D02*
X111598462Y-55328530D01*
X112060844Y-57795630D02*
X112125704Y-57964560D01*
X111590414Y-56062630D02*
X111604594Y-56137130D01*
X112413434Y-58590110D02*
X112492754Y-58734330D01*
X112263794Y-58287220D02*
X112337134Y-58441100D01*
X111699794Y-56566530D02*
X111723584Y-56664230D01*
X140976189Y-55227370D02*
X140976189Y-55227370D01*
X111557824Y-55861030D02*
X111567024Y-55924630D01*
X112193334Y-58128400D02*
X112263794Y-58287220D01*
X140976189Y-55227370D02*
X140976284Y-55238530D01*
X111939164Y-57442160D02*
X111998684Y-57621520D01*
X111542082Y-55509430D02*
X111538982Y-55550030D01*
X111540524Y-55690630D02*
X111544524Y-55744030D01*
X111723122Y-55245530D02*
X111697472Y-55252530D01*
X111553482Y-55437530D02*
X111546882Y-55471930D01*
X111537682Y-55593630D02*
X111538224Y-55640530D01*
X111561882Y-55406030D02*
X111553482Y-55437530D01*
X111652062Y-55275530D02*
X111632272Y-55290630D01*
X111827774Y-57067360D02*
X111882214Y-57257470D01*
X140976184Y-55227400D02*
X140976185Y-55227400D01*
X140893338Y-56834060D02*
X140924358Y-56722690D01*
X140976187Y-55227390D02*
X140976187Y-55227380D01*
X140976185Y-55227400D02*
X140976185Y-55227400D01*
X140976185Y-55227400D02*
X140976185Y-55227400D01*
X140976187Y-55227390D02*
X140976187Y-55227390D01*
X141160814Y-55485510D02*
X141156914Y-55447010D01*
X140976186Y-55227390D02*
X140976186Y-55227390D01*
X141143014Y-55379910D02*
X141132894Y-55351110D01*
X140976185Y-55227400D02*
X140976185Y-55227400D01*
X141120734Y-55325510D02*
X141106474Y-55303010D01*
X141162614Y-55527410D02*
X141160814Y-55485510D01*
X141071458Y-56150510D02*
X141089358Y-56070410D01*
X140976188Y-55227380D02*
X140976188Y-55227380D01*
X140976185Y-55227400D02*
X140976185Y-55227400D01*
X140759938Y-57285560D02*
X140794018Y-57177970D01*
X141156028Y-55674210D02*
X141160228Y-55621610D01*
X140976186Y-55227390D02*
X140976187Y-55227390D01*
X141149828Y-55730510D02*
X141156028Y-55674210D01*
X140976187Y-55227380D02*
X140976188Y-55227380D01*
X140976186Y-55227390D02*
X140976186Y-55227390D01*
X140976184Y-55227410D02*
X140976184Y-55227400D01*
X141156914Y-55447010D02*
X141151014Y-55411810D01*
X141141628Y-55790610D02*
X141149828Y-55730510D01*
X141119398Y-55922510D02*
X141131508Y-55854610D01*
X140976184Y-55227410D02*
X140976184Y-55227410D01*
X140860488Y-56950200D02*
X140893338Y-56834060D01*
X141162428Y-55572710D02*
X141162614Y-55527410D01*
X141003284Y-55233410D02*
X140976184Y-55227410D01*
X141160228Y-55621610D02*
X141162428Y-55572710D01*
X141028214Y-55241410D02*
X141003284Y-55233410D01*
X141050984Y-55252710D02*
X141028214Y-55241410D01*
X141131508Y-55854610D02*
X141141628Y-55790610D01*
X140953538Y-56616020D02*
X140980878Y-56514010D01*
X140976189Y-55227370D02*
X140976189Y-55227370D01*
X140976188Y-55227380D02*
X140976189Y-55227370D01*
X140976188Y-55227380D02*
X140976188Y-55227380D01*
X140976188Y-55227380D02*
X140976188Y-55227380D01*
X140976184Y-55227400D02*
X140976184Y-55227400D01*
X141006348Y-56416510D02*
X141029938Y-56323410D01*
X140976185Y-55227400D02*
X140976185Y-55227400D01*
X140924358Y-56722690D02*
X140953538Y-56616020D01*
X140976188Y-55227380D02*
X140976188Y-55227380D01*
X140976187Y-55227380D02*
X140976187Y-55227380D01*
X140976187Y-55227390D02*
X140976187Y-55227390D01*
X141089358Y-56070410D02*
X141105348Y-55994410D01*
X140976185Y-55227400D02*
X140976186Y-55227390D01*
X140976184Y-55227410D02*
X140976184Y-55227410D01*
X141051648Y-56234810D02*
X141071458Y-56150510D01*
X141029938Y-56323410D02*
X141051648Y-56234810D01*
X141132894Y-55351110D02*
X141120734Y-55325510D01*
X141071614Y-55266610D02*
X141050984Y-55252710D01*
X141090104Y-55283410D02*
X141071614Y-55266610D01*
X140980878Y-56514010D02*
X141006348Y-56416510D01*
X140976188Y-55227380D02*
X140976188Y-55227380D01*
X140976186Y-55227390D02*
X140976186Y-55227390D01*
X140976187Y-55227380D02*
X140976187Y-55227380D01*
X141106474Y-55303010D02*
X141090104Y-55283410D01*
X140976186Y-55227390D02*
X140976186Y-55227390D01*
X140976186Y-55227390D02*
X140976186Y-55227390D01*
X141151014Y-55411810D02*
X141143014Y-55379910D01*
X141105348Y-55994410D02*
X141119398Y-55922510D01*
X140825828Y-57071170D02*
X140860488Y-56950200D01*
X140794018Y-57177970D02*
X140825828Y-57071170D01*
X133446252Y-60898340D02*
X133636338Y-60937840D01*
X137105419Y-60826800D02*
X137316429Y-60777600D01*
X138291050Y-60465500D02*
X138465422Y-60390500D01*
X139646968Y-59474600D02*
X139704588Y-59396700D01*
X139307608Y-59862300D02*
X139362888Y-59808000D01*
X137919840Y-60603200D02*
X138108977Y-60536400D01*
X136672417Y-60911400D02*
X136890536Y-60871500D01*
X137316429Y-60777600D02*
X137522928Y-60723900D01*
X135780350Y-61023200D02*
X136005030Y-61002600D01*
X135108592Y-61054200D02*
X135331493Y-61049200D01*
X139073134Y-60051100D02*
X139199428Y-59956800D01*
X139362888Y-59808000D02*
X139418808Y-59749400D01*
X140265038Y-58467320D02*
X140317208Y-58363420D01*
X139253088Y-59911900D02*
X139307608Y-59862300D01*
X135331493Y-61049200D02*
X135555625Y-61038700D01*
X133087638Y-60801540D02*
X133263139Y-60852940D01*
X132659517Y-60641540D02*
X132786120Y-60692740D01*
X136229026Y-60977100D02*
X136451702Y-60946600D01*
X135555625Y-61038700D02*
X135780350Y-61023200D01*
X133263139Y-60852940D02*
X133446252Y-60898340D01*
X140047228Y-58866800D02*
X140102848Y-58769800D01*
X134453653Y-61037940D02*
X134669033Y-61049040D01*
X138631454Y-60311500D02*
X138788509Y-60228500D01*
X139934298Y-59054100D02*
X139991018Y-58961600D01*
X139819808Y-59231300D02*
X139877198Y-59144000D01*
X139199428Y-59956800D02*
X139253088Y-59911900D01*
X139475288Y-59686600D02*
X139532208Y-59619700D01*
X138465422Y-60390500D02*
X138631454Y-60311500D01*
X139589468Y-59549000D02*
X139646968Y-59474600D01*
X134034877Y-60999340D02*
X134242055Y-61021440D01*
X138108977Y-60536400D02*
X138291050Y-60465500D01*
X137522928Y-60723900D02*
X137724277Y-60665700D01*
X132920384Y-60744040D02*
X133087638Y-60801540D01*
X136005030Y-61002600D02*
X136229026Y-60977100D01*
X139418808Y-59749400D02*
X139475288Y-59686600D01*
X137724277Y-60665700D02*
X137919840Y-60603200D01*
X136451702Y-60946600D02*
X136672417Y-60911400D01*
X134242055Y-61021440D02*
X134453653Y-61037940D01*
X140723688Y-57393730D02*
X140759938Y-57285560D01*
X140685378Y-57502310D02*
X140723688Y-57393730D01*
X140513608Y-57937000D02*
X140559118Y-57828640D01*
X140645108Y-57611100D02*
X140685378Y-57502310D01*
X139532208Y-59619700D02*
X139589468Y-59549000D01*
X133832760Y-60971440D02*
X134034877Y-60999340D01*
X132786120Y-60692740D02*
X132920384Y-60744040D01*
X134887559Y-61054040D02*
X135108592Y-61054200D01*
X133636338Y-60937840D02*
X133832760Y-60971440D01*
X140602988Y-57719950D02*
X140645108Y-57611100D01*
X140559118Y-57828640D02*
X140602988Y-57719950D01*
X138935948Y-60141700D02*
X139073134Y-60051100D01*
X134669033Y-61049040D02*
X134887559Y-61054040D01*
X140466558Y-58044840D02*
X140513608Y-57937000D01*
X140418078Y-58151990D02*
X140466558Y-58044840D01*
X138788509Y-60228500D02*
X138935948Y-60141700D01*
X139991018Y-58961600D02*
X140047228Y-58866800D01*
X140368258Y-58258250D02*
X140418078Y-58151990D01*
X136890536Y-60871500D02*
X137105419Y-60826800D01*
X140317208Y-58363420D02*
X140368258Y-58258250D01*
X140211858Y-58569850D02*
X140265038Y-58467320D01*
X140157758Y-58670700D02*
X140211858Y-58569850D01*
X140102848Y-58769800D02*
X140157758Y-58670700D01*
X139877198Y-59144000D02*
X139934298Y-59054100D01*
X139762238Y-59315600D02*
X139819808Y-59231300D01*
X139704588Y-59396700D02*
X139762238Y-59315600D01*
X132543316Y-58609340D02*
X132495776Y-58639440D01*
X133833126Y-58860440D02*
X133764406Y-58811540D01*
X134195790Y-59134190D02*
X134052536Y-59027940D01*
X133172856Y-58509640D02*
X133121046Y-58497940D01*
X132970816Y-58482940D02*
X132922136Y-58483940D01*
X133632996Y-58724040D02*
X133570096Y-58685340D01*
X133764406Y-58811540D02*
X133697726Y-58766040D01*
X131676696Y-59594140D02*
X131662446Y-59657240D01*
X133121046Y-58497940D02*
X133070166Y-58489940D01*
X133697726Y-58766040D02*
X133632996Y-58724040D01*
X132540549Y-60590440D02*
X132659517Y-60641540D01*
X132229217Y-60436840D02*
X132325427Y-60488140D01*
X132140547Y-60385240D02*
X132229217Y-60436840D01*
X132124336Y-58954240D02*
X132046496Y-59032740D01*
X132059387Y-60333340D02*
X132140547Y-60385240D01*
X134342830Y-59227890D02*
X134195790Y-59134190D01*
X131919507Y-60228140D02*
X131985717Y-60280940D01*
X132873986Y-58487940D02*
X132826266Y-58494940D01*
X132300816Y-58791040D02*
X132209116Y-58873740D01*
X131728787Y-60010740D02*
X131765397Y-60066140D01*
X131805066Y-59327040D02*
X131762316Y-59396140D01*
X132826266Y-58494940D02*
X132778876Y-58506040D01*
X133570096Y-58685340D02*
X133508936Y-58650140D01*
X133977086Y-58968640D02*
X133903986Y-58912840D01*
X131809377Y-60120840D02*
X131860737Y-60174840D01*
X131677577Y-59897140D02*
X131699527Y-59954340D01*
X132046496Y-59032740D02*
X131975626Y-59109140D01*
X131662907Y-59838840D02*
X131677577Y-59897140D01*
X131655346Y-59719040D02*
X131655507Y-59779540D01*
X131662446Y-59657240D02*
X131655346Y-59719040D01*
X131726656Y-59463640D02*
X131698106Y-59529640D01*
X132731706Y-58520340D02*
X132684666Y-58537840D01*
X132447856Y-58672740D02*
X132399456Y-58709040D01*
X132209116Y-58873740D02*
X132124336Y-58954240D01*
X132637656Y-58558540D02*
X132590576Y-58582340D01*
X133508936Y-58650140D02*
X133449416Y-58618340D01*
X132922136Y-58483940D02*
X132873986Y-58487940D01*
X133225696Y-58524740D02*
X133172856Y-58509640D01*
X134052536Y-59027940D02*
X133977086Y-58968640D01*
X132684666Y-58537840D02*
X132637656Y-58558540D01*
X133334886Y-58564740D02*
X133279676Y-58543040D01*
X133391436Y-58589840D02*
X133334886Y-58564740D01*
X133279676Y-58543040D02*
X133225696Y-58524740D01*
X133903986Y-58912840D02*
X133833126Y-58860440D01*
X131860737Y-60174840D02*
X131919507Y-60228140D01*
X131699527Y-59954340D02*
X131728787Y-60010740D01*
X132429194Y-60539340D02*
X132540549Y-60590440D01*
X132325427Y-60488140D02*
X132429194Y-60539340D01*
X131985717Y-60280940D02*
X132059387Y-60333340D01*
X131765397Y-60066140D02*
X131809377Y-60120840D01*
X131655507Y-59779540D02*
X131662907Y-59838840D01*
X133020126Y-58484940D02*
X132970816Y-58482940D01*
X131698106Y-59529640D02*
X131676696Y-59594140D01*
X131762316Y-59396140D02*
X131726656Y-59463640D01*
X131854886Y-59256240D02*
X131805066Y-59327040D01*
X133449416Y-58618340D02*
X133391436Y-58589840D01*
X132495776Y-58639440D02*
X132447856Y-58672740D01*
X131911746Y-59183640D02*
X131854886Y-59256240D01*
X131975626Y-59109140D02*
X131911746Y-59183640D01*
X132350476Y-58748440D02*
X132300816Y-58791040D01*
X132590576Y-58582340D02*
X132543316Y-58609340D01*
X132778876Y-58506040D02*
X132731706Y-58520340D01*
X133070166Y-58489940D02*
X133020126Y-58484940D01*
X132399456Y-58709040D02*
X132350476Y-58748440D01*
X136396292Y-59394260D02*
X136240546Y-59445760D01*
X136990364Y-59092060D02*
X136847073Y-59181660D01*
X138877934Y-55829350D02*
X138847844Y-55870450D01*
X139242424Y-55598960D02*
X139214284Y-55599960D01*
X138757384Y-56010850D02*
X138727354Y-56063050D01*
X134493209Y-59309290D02*
X134342830Y-59227890D01*
X139214284Y-55599960D02*
X139188074Y-55600350D01*
X134646483Y-59378490D02*
X134493209Y-59309290D01*
X134802208Y-59435790D02*
X134646483Y-59378490D01*
X134959938Y-59481290D02*
X134802208Y-59435790D01*
X138697474Y-56117850D02*
X138667814Y-56175050D01*
X139025334Y-55671750D02*
X138996454Y-55696650D01*
X138327284Y-57094250D02*
X138306524Y-57174950D01*
X135119227Y-59515290D02*
X134959938Y-59481290D01*
X135279632Y-59537990D02*
X135119227Y-59515290D01*
X136549591Y-59332960D02*
X136396292Y-59394260D01*
X137947144Y-58065990D02*
X137850134Y-58222510D01*
X138117374Y-57730680D02*
X138036384Y-57901990D01*
X138609364Y-56296350D02*
X138580684Y-56360250D01*
X138252894Y-57366970D02*
X138189694Y-57552290D01*
X137745777Y-58371340D02*
X137634520Y-58512290D01*
X137129429Y-58993460D02*
X136990364Y-59092060D01*
X138727354Y-56063050D02*
X138697474Y-56117850D01*
X138967214Y-55724850D02*
X138937674Y-55756450D01*
X138189694Y-57552290D02*
X138117374Y-57730680D01*
X138419774Y-56782750D02*
X138395344Y-56858750D01*
X136847073Y-59181660D02*
X136700000Y-59262060D01*
X135602006Y-59549960D02*
X135440707Y-59549490D01*
X138395344Y-56858750D02*
X138371754Y-56936050D01*
X138937674Y-55756450D02*
X138907894Y-55791350D01*
X139109304Y-55618850D02*
X139081814Y-55632750D01*
X135440707Y-59549490D02*
X135279632Y-59537990D01*
X135763085Y-59539460D02*
X135602006Y-59549960D01*
X136082800Y-59487260D02*
X135923498Y-59518560D01*
X136240546Y-59445760D02*
X136082800Y-59487260D01*
X136700000Y-59262060D02*
X136549591Y-59332960D01*
X137850134Y-58222510D02*
X137745777Y-58371340D01*
X138524694Y-56494150D02*
X138497494Y-56563750D01*
X138638424Y-56234550D02*
X138609364Y-56296350D01*
X138817684Y-55914350D02*
X138787514Y-55961250D01*
X139081814Y-55632750D02*
X139053804Y-55650450D01*
X139188074Y-55600350D02*
X139162484Y-55602350D01*
X138667814Y-56175050D02*
X138638424Y-56234550D01*
X137516813Y-58645180D02*
X137393098Y-58769800D01*
X137263822Y-58885960D02*
X137129429Y-58993460D01*
X138036384Y-57901990D02*
X137947144Y-58065990D01*
X137634520Y-58512290D02*
X137516813Y-58645180D01*
X138497494Y-56563750D02*
X138470904Y-56635150D01*
X137393098Y-58769800D02*
X137263822Y-58885960D01*
X138470904Y-56635150D02*
X138444984Y-56708150D01*
X138580684Y-56360250D02*
X138552444Y-56426250D01*
X139162484Y-55602350D02*
X139136214Y-55608350D01*
X139053804Y-55650450D02*
X139025334Y-55671750D01*
X138306524Y-57174950D02*
X138252894Y-57366970D01*
X138371754Y-56936050D02*
X138349044Y-57014550D01*
X138552444Y-56426250D02*
X138524694Y-56494150D01*
X139136214Y-55608350D02*
X139109304Y-55618850D01*
X135923498Y-59518560D02*
X135763085Y-59539460D01*
X138349044Y-57014550D02*
X138327284Y-57094250D01*
X138444984Y-56708150D02*
X138419774Y-56782750D01*
X138996454Y-55696650D02*
X138967214Y-55724850D01*
X138787514Y-55961250D02*
X138757384Y-56010850D01*
X138907894Y-55791350D02*
X138877934Y-55829350D01*
X138847844Y-55870450D02*
X138817684Y-55914350D01*
X140172094Y-55424860D02*
X140123674Y-55437960D01*
X140616564Y-55290560D02*
X140600084Y-55295560D01*
X140710114Y-55264560D02*
X140695164Y-55268560D01*
X140915474Y-55234420D02*
X140904494Y-55234560D01*
X140753484Y-55254560D02*
X140739274Y-55257560D01*
X140870084Y-55236560D02*
X140858124Y-55237560D01*
X107463574Y-31904050D02*
X107463574Y-31904050D01*
X140411194Y-55355260D02*
X140364074Y-55369660D01*
X139743814Y-55527960D02*
X139698574Y-55536960D01*
X140904494Y-55234560D02*
X140893274Y-55234970D01*
X140123674Y-55437960D02*
X140075264Y-55450660D01*
X139272404Y-55596960D02*
X139242424Y-55598960D01*
X139526414Y-55566960D02*
X139486004Y-55572960D01*
X140648774Y-55280560D02*
X140632794Y-55285560D01*
X139304134Y-55594960D02*
X139272404Y-55596960D01*
X139883384Y-55497760D02*
X139836304Y-55508460D01*
X140268604Y-55397760D02*
X140220434Y-55411460D01*
X140845914Y-55238560D02*
X140833454Y-55240560D01*
X140679954Y-55272560D02*
X140664494Y-55276560D01*
X139337524Y-55591960D02*
X139304134Y-55594960D01*
X140566354Y-55305560D02*
X140549104Y-55310560D01*
X140833454Y-55240560D02*
X140820744Y-55242560D01*
X139372504Y-55587960D02*
X139337524Y-55591960D01*
X139567964Y-55559960D02*
X139526414Y-55566960D01*
X139610564Y-55552960D02*
X139567964Y-55559960D01*
X139408964Y-55583960D02*
X139372504Y-55587960D01*
X140632794Y-55285560D02*
X140616564Y-55290560D01*
X139446824Y-55578960D02*
X139408964Y-55583960D01*
X139698574Y-55536960D02*
X139654124Y-55544960D01*
X139930914Y-55486560D02*
X139883384Y-55497760D01*
X140316514Y-55383860D02*
X140268604Y-55397760D01*
X140807794Y-55244560D02*
X140794594Y-55246560D01*
X140724814Y-55260560D02*
X140710114Y-55264560D01*
X140503804Y-55325660D02*
X140457804Y-55340560D01*
X140664494Y-55276560D02*
X140648774Y-55280560D01*
X140976284Y-55238530D02*
X140966784Y-55237530D01*
X140858124Y-55237560D02*
X140845914Y-55238560D01*
X140926214Y-55234540D02*
X140915474Y-55234420D01*
X140781134Y-55248560D02*
X140767434Y-55251560D01*
X140794594Y-55246560D02*
X140781134Y-55248560D01*
X140946974Y-55235590D02*
X140936754Y-55234930D01*
X140956984Y-55236530D02*
X140946974Y-55235590D01*
X140936754Y-55234930D02*
X140926214Y-55234540D01*
X140075264Y-55450660D02*
X140026934Y-55462960D01*
X139486004Y-55572960D02*
X139446824Y-55578960D01*
X139654124Y-55544960D02*
X139610564Y-55552960D01*
X139789744Y-55518960D02*
X139743814Y-55527960D01*
X139836304Y-55508460D02*
X139789744Y-55518960D01*
X140220434Y-55411460D02*
X140172094Y-55424860D01*
X139978784Y-55474960D02*
X139930914Y-55486560D01*
X140364074Y-55369660D02*
X140316514Y-55383860D01*
X140881804Y-55235630D02*
X140870084Y-55236560D01*
X140457804Y-55340560D02*
X140411194Y-55355260D01*
X140549104Y-55310560D02*
X140503804Y-55325660D01*
X140583354Y-55300560D02*
X140566354Y-55305560D01*
X140966784Y-55237530D02*
X140956984Y-55236530D01*
X140739274Y-55257560D02*
X140724814Y-55260560D01*
X140600084Y-55295560D02*
X140583354Y-55300560D01*
X140695164Y-55268560D02*
X140679954Y-55272560D01*
X140767434Y-55251560D02*
X140753484Y-55254560D01*
X140820744Y-55242560D02*
X140807794Y-55244560D01*
X140893274Y-55234970D02*
X140881804Y-55235630D01*
X107463574Y-31904050D02*
X107463735Y-31905270D01*
X140026934Y-55462960D02*
X139978784Y-55474960D01*
X130463295Y-84832660D02*
X130315890Y-84975720D01*
X130719510Y-81669940D02*
X130792680Y-81692040D01*
X131176298Y-81913140D02*
X131265038Y-82001340D01*
X131068148Y-84092160D02*
X130965498Y-84242110D01*
X131506708Y-83067850D02*
X131475528Y-83208290D01*
X130959180Y-81760340D02*
X131074418Y-81832640D01*
X130548420Y-81626840D02*
X130637990Y-81648240D01*
X130792680Y-81692040D02*
X130857210Y-81714440D01*
X130115521Y-81546240D02*
X130234346Y-81565640D01*
X129720768Y-81491340D02*
X129858437Y-81509040D01*
X131492718Y-82422380D02*
X131518878Y-82542390D01*
X126592439Y-86852890D02*
X126447729Y-86864090D01*
X129458232Y-85640890D02*
X129264040Y-85760690D01*
X131535748Y-82796950D02*
X131526848Y-82930580D01*
X131533148Y-82667400D02*
X131535748Y-82796950D01*
X129858437Y-81509040D02*
X129990119Y-81527340D01*
X126303825Y-86867090D02*
X126160084Y-86863090D01*
X130732298Y-84540130D02*
X130602167Y-84687310D01*
X130346301Y-81585540D02*
X130451090Y-81605940D01*
X129990119Y-81527340D02*
X130115521Y-81546240D01*
X127037829Y-86772190D02*
X126886846Y-86806890D01*
X131380848Y-83496890D02*
X131317778Y-83644120D01*
X131340838Y-82096840D02*
X131403908Y-82199160D01*
X129645149Y-85516070D02*
X129458232Y-85640890D01*
X129824583Y-85386680D02*
X129645149Y-85516070D01*
X131518878Y-82542390D02*
X131533148Y-82667400D01*
X131526848Y-82930580D02*
X131506708Y-83067850D01*
X131265038Y-82001340D02*
X131340838Y-82096840D01*
X128625680Y-86108330D02*
X128421187Y-86213290D01*
X128839332Y-85995580D02*
X128625680Y-86108330D01*
X131074418Y-81832640D02*
X131176298Y-81913140D01*
X130853478Y-84391580D02*
X130732298Y-84540130D01*
X130857210Y-81714440D02*
X130912810Y-81737240D01*
X130234346Y-81565640D02*
X130346301Y-81585540D01*
X126447729Y-86864090D02*
X126303825Y-86867090D01*
X131244498Y-83792730D02*
X131161218Y-83942220D01*
X130912810Y-81737240D02*
X130959180Y-81760340D01*
X130451090Y-81605940D02*
X130548420Y-81626840D01*
X126738598Y-86833790D02*
X126592439Y-86852890D01*
X126886846Y-86806890D02*
X126738598Y-86833790D01*
X127192188Y-86729690D02*
X127037829Y-86772190D01*
X127513601Y-86621290D02*
X127350564Y-86679390D01*
X127350564Y-86679390D02*
X127192188Y-86729690D01*
X130160163Y-85116060D02*
X129996325Y-85253190D01*
X129264040Y-85760690D02*
X129062786Y-85875040D01*
X129577409Y-81474240D02*
X129720768Y-81491340D01*
X127681943Y-86555290D02*
X127513601Y-86621290D01*
X128225208Y-86310490D02*
X128037103Y-86399890D01*
X130602167Y-84687310D02*
X130463295Y-84832660D01*
X131454468Y-82307820D02*
X131492718Y-82422380D01*
X129428655Y-81457940D02*
X129577409Y-81474240D01*
X128037103Y-86399890D02*
X127856228Y-86481490D01*
X129062786Y-85875040D02*
X128839332Y-85995580D01*
X131403908Y-82199160D02*
X131454468Y-82307820D01*
X131317778Y-83644120D02*
X131244498Y-83792730D01*
X130965498Y-84242110D02*
X130853478Y-84391580D01*
X130637990Y-81648240D02*
X130719510Y-81669940D01*
X127856228Y-86481490D02*
X127681943Y-86555290D01*
X131433498Y-83351450D02*
X131380848Y-83496890D01*
X131161218Y-83942220D02*
X131068148Y-84092160D01*
X131475528Y-83208290D02*
X131433498Y-83351450D01*
X128421187Y-86213290D02*
X128225208Y-86310490D01*
X129996325Y-85253190D02*
X129824583Y-85386680D01*
X130315890Y-84975720D02*
X130160163Y-85116060D01*
X128261068Y-81364440D02*
X128439334Y-81375340D01*
X111750660Y-55250460D02*
X111750660Y-55250480D01*
X128079766Y-81355440D02*
X128261068Y-81364440D01*
X127895723Y-81346440D02*
X128079766Y-81355440D01*
X127520595Y-81331440D02*
X127709234Y-81338440D01*
X126944719Y-81316440D02*
X127138042Y-81320440D01*
X111750658Y-55250810D02*
X111750658Y-55250830D01*
X111750658Y-55250860D02*
X111750658Y-55250880D01*
X111893910Y-55253420D02*
X111881530Y-55251420D01*
X111906520Y-55255420D02*
X111893910Y-55253420D01*
X111750658Y-55250900D02*
X111750658Y-55250920D01*
X111750658Y-55250780D02*
X111750658Y-55250810D01*
X111750660Y-55250590D02*
X111750660Y-55250610D01*
X127330099Y-81325440D02*
X127520595Y-81331440D01*
X111857460Y-55249420D02*
X111845760Y-55248460D01*
X111750660Y-55250370D02*
X111750660Y-55250390D01*
X111750658Y-55250730D02*
X111750658Y-55250740D01*
X126750425Y-81313440D02*
X126944719Y-81316440D01*
X111750658Y-55250710D02*
X111750658Y-55250730D01*
X126360104Y-81310850D02*
X126555456Y-81311440D01*
X111780380Y-55247680D02*
X111770260Y-55248400D01*
X111869380Y-55250420D02*
X111857460Y-55249420D01*
X111750658Y-55250830D02*
X111750658Y-55250850D01*
X111750658Y-55250690D02*
X111750658Y-55250710D01*
X111750658Y-55250650D02*
X111750658Y-55250670D01*
X111750658Y-55250760D02*
X111750658Y-55250780D01*
X111750660Y-55250440D02*
X111750660Y-55250460D01*
X111750658Y-55250740D02*
X111750658Y-55250760D01*
X111801270Y-55246980D02*
X111790710Y-55247210D01*
X111919370Y-55257420D02*
X111906520Y-55255420D01*
X111750657Y-55250970D02*
X111750752Y-55240530D01*
X111750658Y-55250670D02*
X111750658Y-55250690D01*
X111845760Y-55248460D02*
X111834290Y-55247740D01*
X111750660Y-55250490D02*
X111750660Y-55250510D01*
X129274800Y-81442240D02*
X129428655Y-81457940D01*
X129116138Y-81427240D02*
X129274800Y-81442240D01*
X128952965Y-81413040D02*
X129116138Y-81427240D01*
X128785578Y-81399640D02*
X128952965Y-81413040D01*
X126555456Y-81311440D02*
X126750425Y-81313440D01*
X111750660Y-55250530D02*
X111750660Y-55250550D01*
X111812050Y-55246990D02*
X111801270Y-55246980D01*
X111750660Y-55250480D02*
X111750660Y-55250490D01*
X128614268Y-81387140D02*
X128785578Y-81399640D01*
X127709234Y-81338440D02*
X127895723Y-81346440D01*
X127138042Y-81320440D02*
X127330099Y-81325440D01*
X111750660Y-55250610D02*
X111750658Y-55250630D01*
X111750658Y-55250960D02*
X111750657Y-55250970D01*
X111750660Y-55250570D02*
X111750660Y-55250590D01*
X111750660Y-55250550D02*
X111750660Y-55250570D01*
X111760360Y-55249370D02*
X111750660Y-55250370D01*
X111750658Y-55250880D02*
X111750658Y-55250900D01*
X111750658Y-55250940D02*
X111750658Y-55250960D01*
X111750660Y-55250510D02*
X111750660Y-55250530D01*
X111770260Y-55248400D02*
X111760360Y-55249370D01*
X111823060Y-55247240D02*
X111812050Y-55246990D01*
X111750658Y-55250920D02*
X111750658Y-55250940D01*
X111834290Y-55247740D02*
X111823060Y-55247240D01*
X111790710Y-55247210D02*
X111780380Y-55247680D01*
X111881530Y-55251420D02*
X111869380Y-55250420D01*
X128439334Y-81375340D02*
X128614268Y-81387140D01*
X111750658Y-55250850D02*
X111750658Y-55250860D01*
X111750658Y-55250630D02*
X111750658Y-55250650D01*
X111750660Y-55250420D02*
X111750660Y-55250440D01*
X111750660Y-55250390D02*
X111750660Y-55250420D01*
X113823010Y-55870110D02*
X113795260Y-55830610D01*
X113454230Y-55610020D02*
X113425600Y-55608020D01*
X113632000Y-55658810D02*
X113605810Y-55641810D01*
X113740020Y-55760510D02*
X113712630Y-55730210D01*
X112690880Y-55473920D02*
X112643280Y-55461620D01*
X113219690Y-55584020D02*
X113180490Y-55578020D01*
X113294250Y-55595020D02*
X113257640Y-55590020D01*
X112107440Y-55301420D02*
X112091570Y-55296420D01*
X112831950Y-55508720D02*
X112785300Y-55497520D01*
X113257640Y-55590020D02*
X113219690Y-55584020D01*
X112156460Y-55316420D02*
X112139880Y-55311420D01*
X112091570Y-55296420D02*
X112075930Y-55292420D01*
X111932450Y-55259420D02*
X111919370Y-55257420D01*
X111945750Y-55261420D02*
X111932450Y-55259420D01*
X112123540Y-55306420D02*
X112107440Y-55301420D01*
X113481020Y-55611020D02*
X113454230Y-55610020D01*
X111973040Y-55267420D02*
X111959280Y-55264420D01*
X112595530Y-55448820D02*
X112547720Y-55435720D01*
X112060530Y-55288420D02*
X112045370Y-55284420D01*
X112264360Y-55351420D02*
X112218510Y-55336520D01*
X112547720Y-55435720D02*
X112499930Y-55422320D01*
X113554770Y-55619410D02*
X113530030Y-55613410D01*
X113180490Y-55578020D02*
X113140120Y-55571020D01*
X113395200Y-55606020D02*
X113363120Y-55603020D01*
X113850770Y-55912310D02*
X113823010Y-55870110D01*
X112139880Y-55311420D02*
X112123540Y-55306420D01*
X113906130Y-56004910D02*
X113878490Y-55957310D01*
X112310750Y-55366120D02*
X112264360Y-55351420D01*
X113685460Y-55703010D02*
X113658570Y-55679210D01*
X112030440Y-55280420D02*
X112015740Y-55276420D01*
X112404780Y-55394720D02*
X112357580Y-55380520D01*
X112452260Y-55408620D02*
X112404780Y-55394720D01*
X112075930Y-55292420D02*
X112060530Y-55288420D01*
X112643280Y-55461620D02*
X112595530Y-55448820D01*
X113140120Y-55571020D02*
X113098660Y-55564020D01*
X113795260Y-55830610D02*
X113767580Y-55794010D01*
X112923720Y-55530020D02*
X112878120Y-55519520D01*
X113425600Y-55608020D02*
X113395200Y-55606020D01*
X113505870Y-55611410D02*
X113481020Y-55611020D01*
X113767580Y-55794010D02*
X113740020Y-55760510D01*
X113012850Y-55548020D02*
X112968650Y-55539020D01*
X113056210Y-55556020D02*
X113012850Y-55548020D01*
X112968650Y-55539020D02*
X112923720Y-55530020D01*
X113363120Y-55603020D02*
X113329440Y-55599020D01*
X111959280Y-55264420D02*
X111945750Y-55261420D01*
X112045370Y-55284420D02*
X112030440Y-55280420D01*
X113878490Y-55957310D02*
X113850770Y-55912310D01*
X111987030Y-55270420D02*
X111973040Y-55267420D01*
X112173280Y-55321420D02*
X112156460Y-55316420D01*
X112218510Y-55336520D02*
X112173280Y-55321420D01*
X112738250Y-55485920D02*
X112690880Y-55473920D01*
X113530030Y-55613410D02*
X113505870Y-55611410D01*
X113658570Y-55679210D02*
X113632000Y-55658810D01*
X113712630Y-55730210D02*
X113685460Y-55703010D01*
X113098660Y-55564020D02*
X113056210Y-55556020D01*
X113580050Y-55628410D02*
X113554770Y-55619410D01*
X112001270Y-55273420D02*
X111987030Y-55270420D01*
X112015740Y-55276420D02*
X112001270Y-55273420D01*
X112357580Y-55380520D02*
X112310750Y-55366120D01*
X113605810Y-55641810D02*
X113580050Y-55628410D01*
X112499930Y-55422320D02*
X112452260Y-55408620D01*
X112785300Y-55497520D02*
X112738250Y-55485920D01*
X112878120Y-55519520D02*
X112831950Y-55508720D01*
X113329440Y-55599020D02*
X113294250Y-55595020D01*
X113960920Y-56107710D02*
X113933620Y-56055110D01*
X115616754Y-59086310D02*
X115485705Y-58999810D01*
X116182831Y-59342210D02*
X116035575Y-59291910D01*
X118304393Y-59097810D02*
X118134630Y-59179110D01*
X119367267Y-58552610D02*
X119296577Y-58579510D01*
X119561137Y-58496310D02*
X119499277Y-58510910D01*
X118134630Y-59179110D02*
X117964959Y-59249510D01*
X118690577Y-58882210D02*
X118585035Y-58941810D01*
X114274860Y-56969210D02*
X114254760Y-56893810D01*
X115359390Y-58904510D02*
X115238083Y-58800610D01*
X119499277Y-58510910D02*
X119434747Y-58529710D01*
X116964187Y-59450110D02*
X116802815Y-59448110D01*
X119144577Y-58645610D02*
X119062747Y-58684810D01*
X113987980Y-56162710D02*
X113960920Y-56107710D01*
X114092760Y-56403910D02*
X114067190Y-56340610D01*
X114142340Y-56536010D02*
X114117830Y-56469110D01*
X114189490Y-56674810D02*
X114166240Y-56604610D01*
X119677807Y-58479710D02*
X119620557Y-58485710D01*
X115011582Y-58567450D02*
X114906930Y-58438430D01*
X114233800Y-56819510D02*
X114212030Y-56746510D01*
X114212030Y-56746510D02*
X114189490Y-56674810D01*
X115485705Y-58999810D02*
X115359390Y-58904510D01*
X116643721Y-59436110D02*
X116487176Y-59414410D01*
X119222427Y-58610510D02*
X119144577Y-58645610D01*
X119296577Y-58579510D02*
X119222427Y-58610510D01*
X114416680Y-57497560D02*
X114360460Y-57314130D01*
X114360460Y-57314130D02*
X114312250Y-57123410D01*
X116487176Y-59414410D02*
X116333455Y-59383010D01*
X118790867Y-58826710D02*
X118690577Y-58882210D01*
X118886147Y-58775310D02*
X118790867Y-58826710D01*
X117459239Y-59396810D02*
X117292672Y-59425110D01*
X114014750Y-56219910D02*
X113987980Y-56162710D01*
X114041170Y-56279210D02*
X114014750Y-56219910D01*
X114067190Y-56340610D02*
X114041170Y-56279210D01*
X114117830Y-56469110D02*
X114092760Y-56403910D01*
X114166240Y-56604610D02*
X114142340Y-56536010D01*
X114254760Y-56893810D02*
X114233800Y-56819510D01*
X114716210Y-58156050D02*
X114630670Y-58002960D01*
X115122057Y-58688230D02*
X115011582Y-58567450D01*
X115891962Y-59232510D02*
X115752264Y-59163910D01*
X117292672Y-59425110D02*
X117127564Y-59443110D01*
X117964959Y-59249510D02*
X117795655Y-59309110D01*
X115238083Y-58800610D02*
X115122057Y-58688230D01*
X119434747Y-58529710D02*
X119367267Y-58552610D01*
X119062747Y-58684810D02*
X118976687Y-58728010D01*
X114552060Y-57842100D02*
X114480630Y-57673600D01*
X114630670Y-58002960D02*
X114552060Y-57842100D01*
X118585035Y-58941810D02*
X118473978Y-59005610D01*
X119620557Y-58485710D02*
X119561137Y-58496310D01*
X114906930Y-58438430D02*
X114808380Y-58301240D01*
X117795655Y-59309110D02*
X117626991Y-59358210D01*
X118473978Y-59005610D02*
X118304393Y-59097810D01*
X117127564Y-59443110D02*
X116964187Y-59450110D01*
X114312250Y-57123410D02*
X114294040Y-57045810D01*
X114808380Y-58301240D02*
X114716210Y-58156050D01*
X118976687Y-58728010D02*
X118886147Y-58775310D01*
X117626991Y-59358210D02*
X117459239Y-59396810D01*
X113933620Y-56055110D02*
X113906130Y-56004910D01*
X114294040Y-57045810D02*
X114274860Y-56969210D01*
X114480630Y-57673600D02*
X114416680Y-57497560D01*
X116802815Y-59448110D02*
X116643721Y-59436110D01*
X115752264Y-59163910D02*
X115616754Y-59086310D01*
X116333455Y-59383010D02*
X116182831Y-59342210D01*
X116035575Y-59291910D02*
X115891962Y-59232510D01*
X120716556Y-60274410D02*
X120716556Y-60274380D01*
X120958626Y-59892210D02*
X120965326Y-59854310D01*
X120961057Y-59656710D02*
X120952557Y-59615710D01*
X120822087Y-59314710D02*
X120793297Y-59269710D01*
X120970357Y-59737310D02*
X120966957Y-59697210D01*
X120716556Y-60274660D02*
X120716556Y-60274630D01*
X120937496Y-59966510D02*
X120949326Y-59929610D01*
X120965326Y-59854310D02*
X120969526Y-59815810D01*
X120864746Y-60108710D02*
X120886746Y-60073910D01*
X120783466Y-60209610D02*
X120813106Y-60176510D01*
X120893227Y-59446710D02*
X120872047Y-59403210D01*
X120793297Y-59269710D02*
X120761977Y-59224310D01*
X120848337Y-59359210D02*
X120822087Y-59314710D01*
X120906206Y-60038610D02*
X120923126Y-60002810D01*
X120813106Y-60176510D02*
X120840196Y-60142910D01*
X120716556Y-60274470D02*
X120716556Y-60274440D01*
X120716556Y-60274570D02*
X120716556Y-60274530D01*
X120716556Y-60274690D02*
X120716556Y-60274660D01*
X120840196Y-60142910D02*
X120864746Y-60108710D01*
X120716556Y-60274440D02*
X120716556Y-60274410D01*
X120716556Y-60274240D02*
X120716556Y-60274210D01*
X120716556Y-60274600D02*
X120716556Y-60274570D01*
X120941527Y-59574210D02*
X120927967Y-59532210D01*
X119733137Y-58477710D02*
X119677807Y-58479710D01*
X119786807Y-58479710D02*
X119733137Y-58477710D01*
X120872047Y-59403210D02*
X120848337Y-59359210D01*
X120237527Y-58675610D02*
X120187237Y-58637410D01*
X120952557Y-59615710D02*
X120941527Y-59574210D01*
X120567337Y-58989910D02*
X120507747Y-58927410D01*
X120716556Y-60274300D02*
X120716556Y-60274270D01*
X120966957Y-59697210D02*
X120961057Y-59656710D01*
X120969526Y-59815810D02*
X120971226Y-59776810D01*
X120716556Y-60274500D02*
X120716556Y-60274470D01*
X120886746Y-60073910D02*
X120906206Y-60038610D01*
X119940427Y-58507510D02*
X119890197Y-58493710D01*
X120971226Y-59776810D02*
X120970357Y-59737310D01*
X120923126Y-60002810D02*
X120937496Y-59966510D01*
X120716556Y-60274270D02*
X120716556Y-60274240D01*
X119839077Y-58484710D02*
X119786807Y-58479710D01*
X119890197Y-58493710D02*
X119839077Y-58484710D01*
X120341087Y-58764110D02*
X120288727Y-58717810D01*
X120728117Y-59178310D02*
X120691717Y-59131910D01*
X120761977Y-59224310D02*
X120728117Y-59178310D01*
X120716556Y-60274330D02*
X120716556Y-60274300D01*
X120716556Y-60274530D02*
X120716556Y-60274500D01*
X120751286Y-60242210D02*
X120783466Y-60209610D01*
X120716556Y-60274380D02*
X120716556Y-60274330D01*
X120716556Y-60274630D02*
X120716556Y-60274600D01*
X119990027Y-58525410D02*
X119940427Y-58507510D01*
X120911867Y-59489710D02*
X120893227Y-59446710D01*
X120716556Y-60274210D02*
X120751286Y-60242210D01*
X120039247Y-58547310D02*
X119990027Y-58525410D01*
X120088357Y-58573310D02*
X120039247Y-58547310D01*
X120927967Y-59532210D02*
X120911867Y-59489710D01*
X120137597Y-58603310D02*
X120088357Y-58573310D01*
X120611327Y-59037710D02*
X120567337Y-58989910D01*
X120949326Y-59929610D02*
X120958626Y-59892210D01*
X120187237Y-58637410D02*
X120137597Y-58603310D01*
X120288727Y-58717810D02*
X120237527Y-58675610D01*
X120394877Y-58814510D02*
X120341087Y-58764110D01*
X120691717Y-59131910D02*
X120652787Y-59085010D01*
X120450347Y-58868910D02*
X120394877Y-58814510D01*
X120507747Y-58927410D02*
X120450347Y-58868910D01*
X120652787Y-59085010D02*
X120611327Y-59037710D01*
X120149344Y-60585640D02*
X120289053Y-60528840D01*
X113955790Y-60294940D02*
X114088011Y-60376740D01*
X120716556Y-60275080D02*
X120716556Y-60275050D01*
X120530835Y-60407140D02*
X120631146Y-60342440D01*
X120416512Y-60469340D02*
X120530835Y-60407140D01*
X120716556Y-60274820D02*
X120716556Y-60274790D01*
X116967328Y-61058240D02*
X117183137Y-61056240D01*
X120716556Y-60274950D02*
X120716556Y-60274910D01*
X117619443Y-61039740D02*
X117838179Y-61025640D01*
X120631146Y-60342440D02*
X120716556Y-60275240D01*
X118056126Y-61007840D02*
X118272404Y-60986340D01*
X116754260Y-61056240D02*
X116967328Y-61058240D01*
X114968261Y-60795940D02*
X115105432Y-60842940D01*
X120716556Y-60275020D02*
X120716556Y-60274990D01*
X120289053Y-60528840D02*
X120416512Y-60469340D01*
X113465982Y-59930540D02*
X113582700Y-60027240D01*
X116140312Y-61025240D02*
X116339870Y-61039740D01*
X120716556Y-60275110D02*
X120716556Y-60275080D01*
X115947020Y-61006340D02*
X116140312Y-61025240D01*
X120716556Y-60275150D02*
X120716556Y-60275110D01*
X119836698Y-60690740D02*
X119998265Y-60639640D01*
X113137872Y-59616490D02*
X113243631Y-59725260D01*
X117183137Y-61056240D02*
X117400802Y-61050240D01*
X115760877Y-60982940D02*
X115947020Y-61006340D01*
X115413566Y-60922440D02*
X115582765Y-60955040D01*
X119485625Y-60784040D02*
X119665524Y-60738940D01*
X113827541Y-60209440D02*
X113955790Y-60294940D01*
X116544814Y-61050240D02*
X116754260Y-61056240D01*
X119297884Y-60825940D02*
X119485625Y-60784040D01*
X116339870Y-61039740D02*
X116544814Y-61050240D01*
X119103183Y-60864740D02*
X119297884Y-60825940D01*
X118902402Y-60900240D02*
X119103183Y-60864740D01*
X115582765Y-60955040D02*
X115760877Y-60982940D01*
X114224264Y-60455040D02*
X114364615Y-60529840D01*
X120716556Y-60274850D02*
X120716556Y-60274820D01*
X120716556Y-60274880D02*
X120716556Y-60274850D01*
X120716556Y-60274910D02*
X120716556Y-60274880D01*
X120716556Y-60275050D02*
X120716556Y-60275020D01*
X119998265Y-60639640D02*
X120149344Y-60585640D01*
X114509127Y-60601240D02*
X114657863Y-60669340D01*
X120716556Y-60275240D02*
X120716556Y-60275210D01*
X114088011Y-60376740D02*
X114224264Y-60455040D01*
X120716556Y-60274990D02*
X120716556Y-60274950D01*
X120716556Y-60275210D02*
X120716556Y-60275180D01*
X119665524Y-60738940D02*
X119836698Y-60690740D01*
X115105432Y-60842940D02*
X115254161Y-60885140D01*
X118696423Y-60932440D02*
X118902402Y-60900240D01*
X114810886Y-60734240D02*
X114968261Y-60795940D01*
X114657863Y-60669340D02*
X114810886Y-60734240D01*
X113352979Y-59829900D02*
X113465982Y-59930540D01*
X117838179Y-61025640D02*
X118056126Y-61007840D01*
X118486131Y-60961140D02*
X118696423Y-60932440D01*
X114364615Y-60529840D02*
X114509127Y-60601240D01*
X113243631Y-59725260D02*
X113352979Y-59829900D01*
X120716556Y-60274720D02*
X120716556Y-60274690D01*
X120716556Y-60274760D02*
X120716556Y-60274720D01*
X118272404Y-60986340D02*
X118486131Y-60961140D01*
X113035644Y-59503580D02*
X113137872Y-59616490D01*
X120716556Y-60274790D02*
X120716556Y-60274760D01*
X120716556Y-60275180D02*
X120716556Y-60275150D01*
X117400802Y-61050240D02*
X117619443Y-61039740D01*
X115254161Y-60885140D02*
X115413566Y-60922440D01*
X113703199Y-60120240D02*
X113827541Y-60209440D01*
X113582700Y-60027240D02*
X113703199Y-60120240D01*
X147860725Y-67196480D02*
X147868825Y-67151580D01*
X147690205Y-67496880D02*
X147713405Y-67460380D01*
X147620595Y-67606380D02*
X147643795Y-67569880D01*
X146643795Y-68884080D02*
X146682655Y-68844580D01*
X147342155Y-68044380D02*
X147365355Y-68007880D01*
X147133315Y-68372880D02*
X147156525Y-68336380D01*
X146799235Y-68725880D02*
X146838095Y-68686380D01*
X147504565Y-67788880D02*
X147527775Y-67752380D01*
X147957925Y-66657680D02*
X147966025Y-66612780D01*
X146682655Y-68844580D02*
X146721515Y-68804980D01*
X147643795Y-67569880D02*
X147666995Y-67533380D01*
X147909325Y-66927080D02*
X147917425Y-66882180D01*
X147759815Y-67387380D02*
X147783025Y-67350880D01*
X147295745Y-68117380D02*
X147318945Y-68080880D01*
X147949825Y-66702580D02*
X147957925Y-66657680D01*
X147941725Y-66747480D02*
X147949825Y-66702580D01*
X147574185Y-67679380D02*
X147597385Y-67642880D01*
X146876955Y-68646780D02*
X146915815Y-68607280D01*
X147917425Y-66882180D02*
X147925525Y-66837280D01*
X147933625Y-66792380D02*
X147941725Y-66747480D01*
X147226135Y-68226880D02*
X147249335Y-68190380D01*
X147411765Y-67934880D02*
X147434965Y-67898380D01*
X147736615Y-67423880D02*
X147759815Y-67387380D01*
X147249335Y-68190380D02*
X147272535Y-68153880D01*
X147713405Y-67460380D02*
X147736615Y-67423880D01*
X147925525Y-66837280D02*
X147933625Y-66792380D01*
X147318945Y-68080880D02*
X147342155Y-68044380D01*
X147901225Y-66971980D02*
X147909325Y-66927080D01*
X147852625Y-67241380D02*
X147860725Y-67196480D01*
X147829425Y-67277880D02*
X147852625Y-67241380D01*
X147666995Y-67533380D02*
X147690205Y-67496880D01*
X147550975Y-67715880D02*
X147574185Y-67679380D01*
X147179725Y-68299880D02*
X147202935Y-68263380D01*
X147458165Y-67861880D02*
X147481365Y-67825380D01*
X147272535Y-68153880D02*
X147295745Y-68117380D01*
X146838095Y-68686380D02*
X146876955Y-68646780D01*
X147202935Y-68263380D02*
X147226135Y-68226880D01*
X146604935Y-68923680D02*
X146643795Y-68884080D01*
X147071255Y-68448980D02*
X147110115Y-68409380D01*
X146527215Y-69002780D02*
X146566075Y-68963180D01*
X146488355Y-69042380D02*
X146527215Y-69002780D01*
X146566075Y-68963180D02*
X146604935Y-68923680D01*
X147032395Y-68488580D02*
X147071255Y-68448980D01*
X147876925Y-67106680D02*
X147885025Y-67061780D01*
X147783025Y-67350880D02*
X147806225Y-67314380D01*
X146915815Y-68607280D02*
X146954675Y-68567680D01*
X147868825Y-67151580D02*
X147876925Y-67106680D01*
X147597385Y-67642880D02*
X147620595Y-67606380D01*
X146993535Y-68528080D02*
X147032395Y-68488580D01*
X146954675Y-68567680D02*
X146993535Y-68528080D01*
X146760375Y-68765380D02*
X146799235Y-68725880D01*
X147806225Y-67314380D02*
X147829425Y-67277880D01*
X147527775Y-67752380D02*
X147550975Y-67715880D01*
X147434965Y-67898380D02*
X147458165Y-67861880D01*
X147156525Y-68336380D02*
X147179725Y-68299880D01*
X146449495Y-69081880D02*
X146488355Y-69042380D01*
X147893125Y-67016880D02*
X147901225Y-66971980D01*
X147388565Y-67971380D02*
X147411765Y-67934880D01*
X147365355Y-68007880D02*
X147388565Y-67971380D01*
X147110115Y-68409380D02*
X147133315Y-68372880D01*
X147481365Y-67825380D02*
X147504565Y-67788880D01*
X146721515Y-68804980D02*
X146760375Y-68765380D01*
X147885025Y-67061780D02*
X147893125Y-67016880D01*
X141482727Y-73568850D02*
X141845039Y-73262030D01*
X140519785Y-74404420D02*
X140821133Y-74138760D01*
X145691835Y-69835580D02*
X145779215Y-69755480D01*
X145342315Y-70155980D02*
X145429695Y-70075880D01*
X146332915Y-69200580D02*
X146371775Y-69161080D01*
X146255195Y-69279780D02*
X146294055Y-69240180D01*
X144031615Y-71357480D02*
X144118995Y-71277380D01*
X146294055Y-69240180D02*
X146332915Y-69200580D01*
X144293755Y-71117180D02*
X144381135Y-71037080D01*
X144468515Y-70956980D02*
X144555895Y-70876880D01*
X143944235Y-71437580D02*
X144031615Y-71357480D01*
X143682095Y-71677880D02*
X143769475Y-71597780D01*
X143070435Y-72238580D02*
X143157815Y-72158480D01*
X146410635Y-69121480D02*
X146449495Y-69081880D01*
X146022035Y-69517180D02*
X146060895Y-69477580D01*
X139486585Y-75368620D02*
X139721122Y-75139750D01*
X146371775Y-69161080D02*
X146410635Y-69121480D01*
X146138615Y-69398480D02*
X146177475Y-69358880D01*
X145905455Y-69635880D02*
X145944315Y-69596280D01*
X143507335Y-71838080D02*
X143594715Y-71757980D01*
X142229738Y-72938910D02*
X142637859Y-72598190D01*
X138863553Y-76024560D02*
X139058834Y-75809730D01*
X144992795Y-70476380D02*
X145080175Y-70396280D01*
X144118995Y-71277380D02*
X144206375Y-71197280D01*
X143332575Y-71998280D02*
X143419955Y-71918180D01*
X145517075Y-69995780D02*
X145604455Y-69915680D01*
X140236689Y-74658950D02*
X140519785Y-74404420D01*
X143856855Y-71517680D02*
X143944235Y-71437580D01*
X143769475Y-71597780D02*
X143856855Y-71517680D01*
X138505012Y-76449230D02*
X138679290Y-76237300D01*
X146216335Y-69319280D02*
X146255195Y-69279780D01*
X146177475Y-69358880D02*
X146216335Y-69319280D01*
X144818035Y-70636580D02*
X144905415Y-70556480D01*
X141141770Y-73860670D02*
X141482727Y-73568850D01*
X145167555Y-70316180D02*
X145254935Y-70236080D01*
X142637859Y-72598190D02*
X143070435Y-72238580D01*
X146099755Y-69437980D02*
X146138615Y-69398480D01*
X146060895Y-69477580D02*
X146099755Y-69437980D01*
X145983175Y-69556680D02*
X146022035Y-69517180D01*
X145254935Y-70236080D02*
X145342315Y-70155980D01*
X138339685Y-76661650D02*
X138505012Y-76449230D01*
X140821133Y-74138760D02*
X141141770Y-73860670D01*
X145944315Y-69596280D02*
X145983175Y-69556680D01*
X145866595Y-69675380D02*
X145905455Y-69635880D01*
X145779215Y-69755480D02*
X145866595Y-69675380D01*
X143157815Y-72158480D02*
X143245195Y-72078380D01*
X144905415Y-70556480D02*
X144992795Y-70476380D01*
X145604455Y-69915680D02*
X145691835Y-69835580D01*
X145429695Y-70075880D02*
X145517075Y-69995780D01*
X139266167Y-75591510D02*
X139486585Y-75368620D01*
X144381135Y-71037080D02*
X144468515Y-70956980D01*
X144730655Y-70716680D02*
X144818035Y-70636580D01*
X144643275Y-70796780D02*
X144730655Y-70716680D01*
X139058834Y-75809730D02*
X139266167Y-75591510D01*
X144555895Y-70876880D02*
X144643275Y-70796780D01*
X143594715Y-71757980D02*
X143682095Y-71677880D01*
X143419955Y-71918180D02*
X143507335Y-71838080D01*
X138679290Y-76237300D02*
X138863553Y-76024560D01*
X145080175Y-70396280D02*
X145167555Y-70316180D01*
X144206375Y-71197280D02*
X144293755Y-71117180D01*
X143245195Y-72078380D02*
X143332575Y-71998280D01*
X141845039Y-73262030D02*
X142229738Y-72938910D01*
X139970812Y-74903630D02*
X140236689Y-74658950D01*
X139721122Y-75139750D02*
X139970812Y-74903630D01*
X130639451Y-63553540D02*
X130546451Y-63793020D01*
X131074230Y-62872530D02*
X130956413Y-62998400D01*
X130131501Y-65701990D02*
X130087551Y-66085570D01*
X130380301Y-64345100D02*
X130307441Y-64654870D01*
X130437281Y-74242110D02*
X130388431Y-74299210D01*
X130260081Y-71911310D02*
X130335681Y-72374270D01*
X130137201Y-70976120D02*
X130193971Y-71444790D01*
X130204811Y-74412210D02*
X130132671Y-74430510D01*
X130540801Y-74011910D02*
X130513891Y-74098510D01*
X130193971Y-71444790D02*
X130260081Y-71911310D01*
X130271771Y-74384210D02*
X130204811Y-74412210D01*
X130333121Y-74346610D02*
X130271771Y-74384210D01*
X134167034Y-62952130D02*
X133886391Y-62944130D01*
X130388431Y-74299210D02*
X130333121Y-74346610D01*
X130335681Y-72374270D02*
X130420911Y-72832240D01*
X129984601Y-68198640D02*
X129988401Y-68650350D01*
X130022561Y-66896040D02*
X130001821Y-67320080D01*
X132547062Y-62847930D02*
X132297825Y-62817430D01*
X133066672Y-62897530D02*
X132803622Y-62874630D01*
X133608893Y-62932230D02*
X133335374Y-62916730D01*
X132056751Y-62783130D02*
X131824674Y-62744930D01*
X131197886Y-62778630D02*
X131074230Y-62872530D01*
X130021491Y-69571460D02*
X130051111Y-70038040D01*
X130738881Y-63340340D02*
X130639451Y-63553540D01*
X133335374Y-62916730D02*
X133066672Y-62897530D01*
X135304320Y-62951130D02*
X135019463Y-62956130D01*
X130956413Y-62998400D02*
X130844582Y-63154820D01*
X130479241Y-74175210D02*
X130437281Y-74242110D01*
X130241591Y-64985210D02*
X130182891Y-65334730D01*
X130569671Y-73809020D02*
X130559551Y-73915410D01*
X135019463Y-62956130D02*
X134734407Y-62958130D01*
X130570871Y-73692690D02*
X130569671Y-73809020D01*
X130562571Y-73566390D02*
X130570871Y-73692690D01*
X130544391Y-73430110D02*
X130562571Y-73566390D01*
X130420911Y-72832240D02*
X130515921Y-73283810D01*
X130546451Y-63793020D02*
X130460021Y-64057350D01*
X130515921Y-73283810D02*
X130544391Y-73430110D01*
X130000641Y-69108420D02*
X130021491Y-69571460D01*
X129989101Y-67754760D02*
X129984601Y-68198640D01*
X130460021Y-64057350D02*
X130380301Y-64345100D01*
X130051111Y-70038040D02*
X130089631Y-70506730D01*
X136425014Y-62895330D02*
X136149322Y-62914230D01*
X132297825Y-62817430D02*
X132056751Y-62783130D01*
X131602430Y-62702830D02*
X131462132Y-62692330D01*
X130844582Y-63154820D02*
X130738881Y-63340340D01*
X132803622Y-62874630D02*
X132547062Y-62847930D01*
X131824674Y-62744930D02*
X131602430Y-62702830D01*
X136149322Y-62914230D02*
X135870086Y-62929830D01*
X131327236Y-62718030D02*
X131197886Y-62778630D01*
X130001821Y-67320080D02*
X129989101Y-67754760D01*
X131462132Y-62692330D02*
X131327236Y-62718030D01*
X130182891Y-65334730D02*
X130131501Y-65701990D01*
X135870086Y-62929830D02*
X135588140Y-62942130D01*
X130307441Y-64654870D02*
X130241591Y-64985210D01*
X130051181Y-66484060D02*
X130022561Y-66896040D01*
X133886391Y-62944130D02*
X133608893Y-62932230D01*
X134734407Y-62958130D02*
X134449984Y-62957130D01*
X130513891Y-74098510D02*
X130479241Y-74175210D01*
X130559551Y-73915410D02*
X130540801Y-74011910D01*
X130087551Y-66085570D02*
X130051181Y-66484060D01*
X134449984Y-62957130D02*
X134167034Y-62952130D01*
X135588140Y-62942130D02*
X135304320Y-62951130D01*
X130089631Y-70506730D02*
X130137201Y-70976120D01*
X129988401Y-68650350D02*
X130000641Y-69108420D01*
X143136025Y-57247260D02*
X143079295Y-57469920D01*
X143264245Y-56389140D02*
X143247715Y-56597640D01*
X142559404Y-58829770D02*
X142446180Y-59055030D01*
X142938765Y-57920950D02*
X142855675Y-58148170D01*
X138402555Y-62631730D02*
X138185333Y-62675130D01*
X136696323Y-62873230D02*
X136425014Y-62895330D01*
X141171763Y-60926390D02*
X141008371Y-61106440D01*
X136962414Y-62847930D02*
X136696323Y-62873230D01*
X137222451Y-62819430D02*
X136962414Y-62847930D01*
X137475598Y-62787930D02*
X137222451Y-62819430D01*
X137957874Y-62715730D02*
X137721017Y-62753330D01*
X139976736Y-62005150D02*
X139799604Y-62119300D01*
X143452135Y-55113460D02*
X143424395Y-55178560D01*
X137721017Y-62753330D02*
X137475598Y-62787930D01*
X138185333Y-62675130D02*
X137957874Y-62715730D01*
X141787741Y-60140850D02*
X141640104Y-60345880D01*
X142200191Y-59499170D02*
X142068144Y-59716920D01*
X143321195Y-55545860D02*
X143307415Y-55627960D01*
X143355515Y-55390460D02*
X143337215Y-55466760D01*
X143399075Y-55246460D02*
X143376125Y-55317060D01*
X143295845Y-55713060D02*
X143286445Y-55801260D01*
X143269845Y-56185610D02*
X143264245Y-56389140D01*
X139621947Y-62221730D02*
X139444122Y-62311830D01*
X143183245Y-57027280D02*
X143136025Y-57247260D01*
X143376125Y-55317060D02*
X143355515Y-55390460D01*
X143587835Y-54878860D02*
X143550125Y-54933760D01*
X143247715Y-56597640D02*
X143220595Y-56810550D01*
X139444122Y-62311830D02*
X139305871Y-62372030D01*
X142764515Y-58375770D02*
X142665635Y-58603160D01*
X140501386Y-61598160D02*
X140327986Y-61744000D01*
X143550125Y-54933760D02*
X143514975Y-54991060D01*
X138608706Y-62585330D02*
X138402555Y-62631730D01*
X138802949Y-62536130D02*
X138608706Y-62585330D01*
X138984449Y-62484130D02*
X138802949Y-62536130D01*
X139152369Y-62429430D02*
X138984449Y-62484130D01*
X143079295Y-57469920D02*
X143013425Y-57694670D01*
X140152983Y-61879860D02*
X139976736Y-62005150D01*
X141487989Y-60545530D02*
X141331756Y-60739230D01*
X141930540Y-59930990D02*
X141787741Y-60140850D01*
X143013425Y-57694670D02*
X142938765Y-57920950D01*
X140327986Y-61744000D02*
X140152983Y-61879860D01*
X141008371Y-61106440D02*
X140841937Y-61278790D01*
X143307415Y-55627960D02*
X143295845Y-55713060D01*
X143279145Y-55892560D02*
X143273945Y-55986960D01*
X143220595Y-56810550D02*
X143183245Y-57027280D01*
X143337215Y-55466760D02*
X143321195Y-55545860D01*
X143286445Y-55801260D02*
X143279145Y-55892560D01*
X140672822Y-61442890D02*
X140501386Y-61598160D01*
X143270845Y-56084660D02*
X143269845Y-56185610D01*
X140841937Y-61278790D02*
X140672822Y-61442890D01*
X143273945Y-55986960D02*
X143270845Y-56084660D01*
X142068144Y-59716920D02*
X141930540Y-59930990D01*
X142665635Y-58603160D02*
X142559404Y-58829770D01*
X142855675Y-58148170D02*
X142764515Y-58375770D01*
X142326322Y-59278360D02*
X142200191Y-59499170D01*
X143424395Y-55178560D02*
X143399075Y-55246460D01*
X143514975Y-54991060D02*
X143482315Y-55050960D01*
X139305871Y-62372030D02*
X139152369Y-62429430D01*
X139799604Y-62119300D02*
X139621947Y-62221730D01*
X142446180Y-59055030D02*
X142326322Y-59278360D01*
X143482315Y-55050960D02*
X143452135Y-55113460D01*
X143628115Y-54826460D02*
X143587835Y-54878860D01*
X141331756Y-60739230D02*
X141171763Y-60926390D01*
X141640104Y-60345880D02*
X141487989Y-60545530D01*
X145235725Y-54154460D02*
X145183755Y-54162460D01*
X145286275Y-54147460D02*
X145235725Y-54154460D01*
X145428485Y-54130460D02*
X145382735Y-54135460D01*
X147082615Y-57648320D02*
X147019185Y-57348400D01*
X143670995Y-54776360D02*
X143628115Y-54826460D01*
X144111855Y-54456160D02*
X144046935Y-54488860D01*
X144846845Y-54227960D02*
X144787335Y-54241660D01*
X145628775Y-54118610D02*
X145592795Y-54119460D01*
X143716515Y-54728660D02*
X143670995Y-54776360D01*
X143764705Y-54683260D02*
X143716515Y-54728660D01*
X143925655Y-54560360D02*
X143869245Y-54599160D01*
X144179685Y-54425360D02*
X144111855Y-54456160D01*
X144727115Y-54256060D02*
X144666245Y-54271160D01*
X146819645Y-56507930D02*
X146750375Y-56249040D01*
X145662525Y-54118660D02*
X145628775Y-54118610D01*
X146750375Y-56249040D02*
X146679885Y-56001530D01*
X145693965Y-54119610D02*
X145662525Y-54118660D01*
X143815605Y-54640160D02*
X143764705Y-54683260D01*
X144666245Y-54271160D02*
X144604835Y-54286960D01*
X145472445Y-54126460D02*
X145428485Y-54130460D01*
X145514545Y-54123460D02*
X145472445Y-54126460D01*
X145020145Y-54191260D02*
X144963335Y-54202760D01*
X146954155Y-57058050D02*
X146887605Y-56777760D01*
X143869245Y-54599160D02*
X143815605Y-54640160D01*
X143984875Y-54523560D02*
X143925655Y-54560360D01*
X144046935Y-54488860D02*
X143984875Y-54523560D01*
X144400935Y-54344060D02*
X144324185Y-54369360D01*
X144963335Y-54202760D02*
X144905545Y-54214960D01*
X145183755Y-54162460D02*
X145130445Y-54171460D01*
X146887605Y-56777760D02*
X146819645Y-56507930D01*
X144250455Y-54396460D02*
X144179685Y-54425360D01*
X145592795Y-54119460D02*
X145554685Y-54121460D01*
X144324185Y-54369360D02*
X144250455Y-54396460D01*
X144787335Y-54241660D02*
X144727115Y-54256060D01*
X145382735Y-54135460D02*
X145335305Y-54141460D01*
X144905545Y-54214960D02*
X144846845Y-54227960D01*
X145130445Y-54171460D02*
X145075885Y-54180460D01*
X145335305Y-54141460D02*
X145286275Y-54147460D01*
X145075885Y-54180460D02*
X145020145Y-54191260D01*
X145554685Y-54121460D02*
X145514545Y-54123460D01*
X147019185Y-57348400D02*
X146954155Y-57058050D01*
X147144335Y-57957370D02*
X147082615Y-57648320D01*
X144480715Y-54320460D02*
X144400935Y-54344060D01*
X144604835Y-54286960D02*
X144542965Y-54303360D01*
X144542965Y-54303360D02*
X144480715Y-54320460D01*
X147869405Y-63782880D02*
X147858865Y-63694980D01*
X147911565Y-64134480D02*
X147901025Y-64046580D01*
X147990325Y-66478080D02*
X147998425Y-66433180D01*
X147716305Y-62215070D02*
X147682675Y-61831430D01*
X148022725Y-66298480D02*
X148030825Y-66253580D01*
X147837785Y-63519180D02*
X147827245Y-63431280D01*
X147858865Y-63694980D02*
X147848325Y-63607080D01*
X147204245Y-58275120D02*
X147144335Y-57957370D01*
X147682675Y-61831430D02*
X147646175Y-61451530D01*
X147848325Y-63607080D02*
X147837785Y-63519180D01*
X148038925Y-66208680D02*
X148047025Y-66163780D01*
X147262255Y-58601100D02*
X147204245Y-58275120D01*
X148059125Y-65365080D02*
X148048585Y-65277180D01*
X147473325Y-59978400D02*
X147423895Y-59623960D01*
X147827245Y-63431280D02*
X147816705Y-63343380D01*
X147890485Y-63958680D02*
X147879945Y-63870780D01*
X147995885Y-64837680D02*
X147985345Y-64749780D01*
X148016965Y-65013480D02*
X148006425Y-64925580D01*
X148063225Y-66073980D02*
X148071325Y-66029080D01*
X148038045Y-65189280D02*
X148027505Y-65101380D01*
X147974805Y-64661880D02*
X147964265Y-64573980D01*
X147922105Y-64222380D02*
X147911565Y-64134480D01*
X148030825Y-66253580D02*
X148038925Y-66208680D01*
X147966025Y-66612780D02*
X147974125Y-66567880D01*
X148027505Y-65101380D02*
X148016965Y-65013480D01*
X148101285Y-65716680D02*
X148090745Y-65628780D01*
X147901025Y-64046580D02*
X147890485Y-63958680D01*
X147318265Y-58934860D02*
X147262255Y-58601100D01*
X147372175Y-59275970D02*
X147318265Y-58934860D01*
X147974125Y-66567880D02*
X147982225Y-66522980D01*
X148090745Y-65628780D02*
X148080205Y-65540880D01*
X147520365Y-60338810D02*
X147473325Y-59978400D01*
X147746955Y-62602000D02*
X147716305Y-62215070D01*
X147774545Y-62991780D02*
X147746955Y-62602000D01*
X147785085Y-63079680D02*
X147774545Y-62991780D01*
X147816705Y-63343380D02*
X147806165Y-63255480D01*
X147795625Y-63167580D02*
X147785085Y-63079680D01*
X147879945Y-63870780D02*
X147869405Y-63782880D01*
X147985345Y-64749780D02*
X147974805Y-64661880D01*
X148087525Y-65939280D02*
X148095625Y-65894380D01*
X148055125Y-66118880D02*
X148063225Y-66073980D01*
X148006525Y-66388280D02*
X148014625Y-66343380D01*
X148047025Y-66163780D02*
X148055125Y-66118880D01*
X147953725Y-64486080D02*
X147943185Y-64398180D01*
X147423895Y-59623960D02*
X147372175Y-59275970D01*
X148006425Y-64925580D02*
X147995885Y-64837680D01*
X147964265Y-64573980D02*
X147953725Y-64486080D01*
X148095625Y-65894380D02*
X148103725Y-65849480D01*
X147932645Y-64310280D02*
X147922105Y-64222380D01*
X147606895Y-61075840D02*
X147564925Y-60704770D01*
X147943185Y-64398180D02*
X147932645Y-64310280D01*
X148103725Y-65849480D02*
X148111825Y-65804580D01*
X148071325Y-66029080D02*
X148079425Y-65984180D01*
X147806165Y-63255480D02*
X147795625Y-63167580D01*
X148048585Y-65277180D02*
X148038045Y-65189280D01*
X148079425Y-65984180D02*
X148087525Y-65939280D01*
X148080205Y-65540880D02*
X148069665Y-65452980D01*
X147564925Y-60704770D02*
X147520365Y-60338810D01*
X147646175Y-61451530D02*
X147606895Y-61075840D01*
X148069665Y-65452980D02*
X148059125Y-65365080D01*
X148111825Y-65804580D02*
X148101285Y-65716680D01*
X148014625Y-66343380D02*
X148022725Y-66298480D01*
X147982225Y-66522980D02*
X147990325Y-66478080D01*
X147998425Y-66433180D02*
X148006525Y-66388280D01*
X122844275Y-90670870D02*
X122888495Y-90719770D01*
X122790915Y-90584270D02*
X122811585Y-90625770D01*
X122787515Y-90511570D02*
X122782715Y-90546270D01*
X122943745Y-90772670D02*
X123009545Y-90829570D01*
X122884675Y-90425870D02*
X122838005Y-90451470D01*
X123836518Y-90306870D02*
X123656753Y-90314870D01*
X123546444Y-91226770D02*
X123616514Y-91272270D01*
X122782715Y-90546270D02*
X122790915Y-90584270D01*
X123616514Y-91272270D02*
X123689744Y-91317170D01*
X123265365Y-91026270D02*
X123368489Y-91101070D01*
X123023305Y-90382670D02*
X122946285Y-90402970D01*
X123495330Y-90323870D02*
X123351761Y-90335470D01*
X126360096Y-81311710D02*
X126360096Y-81311710D01*
X123085405Y-90890670D02*
X123170835Y-90956170D01*
X124748727Y-90288870D02*
X124490728Y-90291870D01*
X123116235Y-90364770D02*
X123023305Y-90382670D01*
X125993355Y-90284680D02*
X125649329Y-90285060D01*
X126360096Y-81311730D02*
X126360096Y-81311730D01*
X125327541Y-90285870D02*
X125027502Y-90286870D01*
X126360096Y-81311700D02*
X126360096Y-81311700D01*
X122888495Y-90719770D02*
X122943745Y-90772670D01*
X122811585Y-90625770D02*
X122844275Y-90670870D01*
X126360096Y-81311690D02*
X126360104Y-81310850D01*
X126360096Y-81311730D02*
X126360096Y-81311730D01*
X123009545Y-90829570D02*
X123085405Y-90890670D01*
X123170835Y-90956170D02*
X123265365Y-91026270D01*
X122805785Y-90480070D02*
X122787515Y-90511570D01*
X122838005Y-90451470D02*
X122805785Y-90480070D01*
X122946285Y-90402970D02*
X122884675Y-90425870D01*
X123225558Y-90349070D02*
X123116235Y-90364770D01*
X126360096Y-81311700D02*
X126360096Y-81311690D01*
X123351761Y-90335470D02*
X123225558Y-90349070D01*
X126360096Y-81311740D02*
X126360096Y-81311730D01*
X124035111Y-90300870D02*
X123836518Y-90306870D01*
X125027502Y-90286870D02*
X124748727Y-90288870D01*
X123689744Y-91317170D02*
X123765954Y-91361370D01*
X123479724Y-91180770D02*
X123546444Y-91226770D01*
X123368489Y-91101070D02*
X123479724Y-91180770D01*
X123656753Y-90314870D02*
X123495330Y-90323870D01*
X126360096Y-81311710D02*
X126360096Y-81311710D01*
X124253019Y-90295870D02*
X124035111Y-90300870D01*
X124490728Y-90291870D02*
X124253019Y-90295870D01*
X126360096Y-81311730D02*
X126360096Y-81311710D01*
X126360096Y-81311740D02*
X126360096Y-81311740D01*
X125649329Y-90285060D02*
X125327541Y-90285870D01*
X126360096Y-81311740D02*
X126360096Y-81311740D01*
X126360096Y-81311730D02*
X126360096Y-81311730D01*
X126360104Y-90284580D02*
X125993355Y-90284680D01*
X126360096Y-81311700D02*
X126360096Y-81311700D01*
X126360096Y-81311700D02*
X126360096Y-81311700D01*
X126360096Y-81311710D02*
X126360096Y-81311700D01*
X126360096Y-81311780D02*
X126360096Y-81311780D01*
X124281167Y-81376280D02*
X124459386Y-81365380D01*
X122730900Y-81528280D02*
X122862534Y-81509980D01*
X121196606Y-82917380D02*
X121189106Y-82785000D01*
X122083267Y-81649180D02*
X122172807Y-81627780D01*
X121864097Y-81715380D02*
X121928617Y-81692980D01*
X121234496Y-82414300D02*
X121272916Y-82301060D01*
X123767687Y-81413980D02*
X123935023Y-81400580D01*
X125775504Y-81317380D02*
X125969785Y-81314380D01*
X121189106Y-82785000D02*
X121192806Y-82656720D01*
X125199702Y-81332380D02*
X125390169Y-81326380D01*
X125969785Y-81314380D02*
X126164747Y-81312380D01*
X126360096Y-81311750D02*
X126360096Y-81311740D01*
X122486766Y-81566580D02*
X122605547Y-81547180D01*
X126360096Y-81311750D02*
X126360096Y-81311750D01*
X125582201Y-81321380D02*
X125775504Y-81317380D01*
X126360096Y-81311750D02*
X126360096Y-81311750D01*
X121323326Y-82193740D02*
X121385926Y-82092780D01*
X122270107Y-81606880D02*
X122374854Y-81586480D01*
X126360096Y-81311760D02*
X126360096Y-81311760D01*
X123143457Y-81475180D02*
X123292158Y-81458880D01*
X121385926Y-82092780D02*
X121460906Y-81998580D01*
X124640644Y-81356380D02*
X124824645Y-81347380D01*
X126360096Y-81311770D02*
X126360096Y-81311770D01*
X126360096Y-81311790D02*
X126360096Y-81311790D01*
X125390169Y-81326380D02*
X125582201Y-81321380D01*
X122605547Y-81547180D02*
X122730900Y-81528280D01*
X124459386Y-81365380D02*
X124640644Y-81356380D01*
X126360096Y-81311770D02*
X126360096Y-81311770D01*
X126360096Y-81311790D02*
X126360096Y-81311780D01*
X124106281Y-81388080D02*
X124281167Y-81376280D01*
X121548466Y-81911680D02*
X121648808Y-81832380D01*
X122001767Y-81670880D02*
X122083267Y-81649180D01*
X126164747Y-81312380D02*
X126360096Y-81311790D01*
X123445959Y-81443180D02*
X123604567Y-81428180D01*
X122374854Y-81586480D02*
X122486766Y-81566580D01*
X121272916Y-82301060D02*
X121323326Y-82193740D01*
X121215126Y-83053450D02*
X121196606Y-82917380D01*
X121762137Y-81761280D02*
X121808507Y-81738180D01*
X121648808Y-81832380D02*
X121762137Y-81761280D01*
X121284356Y-83334790D02*
X121244446Y-83192730D01*
X121334656Y-83479180D02*
X121284356Y-83334790D01*
X121244446Y-83192730D02*
X121215126Y-83053450D01*
X126360096Y-81311750D02*
X126360096Y-81311750D01*
X126360096Y-81311760D02*
X126360096Y-81311750D01*
X126360096Y-81311760D02*
X126360096Y-81311760D01*
X126360096Y-81311790D02*
X126360096Y-81311790D01*
X126360096Y-81311770D02*
X126360096Y-81311760D01*
X126360096Y-81311770D02*
X126360096Y-81311770D01*
X126360096Y-81311780D02*
X126360096Y-81311770D01*
X125011097Y-81339380D02*
X125199702Y-81332380D01*
X121207856Y-82533000D02*
X121234496Y-82414300D01*
X124824645Y-81347380D02*
X125011097Y-81339380D01*
X123935023Y-81400580D02*
X124106281Y-81388080D01*
X123292158Y-81458880D02*
X123445959Y-81443180D01*
X123604567Y-81428180D02*
X123767687Y-81413980D01*
X121928617Y-81692980D02*
X122001767Y-81670880D01*
X123000150Y-81492280D02*
X123143457Y-81475180D01*
X122862534Y-81509980D02*
X123000150Y-81492280D01*
X122172807Y-81627780D02*
X122270107Y-81606880D01*
X121808507Y-81738180D02*
X121864097Y-81715380D01*
X121460906Y-81998580D02*
X121548466Y-81911680D01*
X121192806Y-82656720D02*
X121207856Y-82533000D01*
X126360096Y-81311780D02*
X126360096Y-81311780D01*
X123586703Y-85856590D02*
X123586703Y-85856620D01*
X123586703Y-85856450D02*
X123586703Y-85856480D01*
X123586703Y-85856810D02*
X123586703Y-85856840D01*
X123586703Y-85856680D02*
X123586703Y-85856710D01*
X125421346Y-86723390D02*
X125265094Y-86671990D01*
X121635786Y-84071080D02*
X121545906Y-83921850D01*
X121843523Y-84369370D02*
X121735056Y-84220400D01*
X121465626Y-83773150D02*
X121395146Y-83625450D01*
X126015864Y-86850790D02*
X125870523Y-86830690D01*
X121735056Y-84220400D02*
X121635786Y-84071080D01*
X125104508Y-86612690D02*
X124938945Y-86545590D01*
X121545906Y-83921850D02*
X121465626Y-83773150D01*
X123586703Y-85856010D02*
X123586703Y-85856040D01*
X122222116Y-84809690D02*
X122087253Y-84664470D01*
X122676311Y-85230730D02*
X122516844Y-85093270D01*
X123200732Y-85620420D02*
X123018454Y-85494760D01*
X123586703Y-85856200D02*
X123586703Y-85856230D01*
X123586703Y-85856140D02*
X123586703Y-85856170D01*
X124590322Y-86387790D02*
X124405975Y-86297090D01*
X123586703Y-85856070D02*
X123586703Y-85856100D01*
X123586703Y-85856260D02*
X123586703Y-85856290D01*
X123586703Y-85856420D02*
X123586703Y-85856450D01*
X123586703Y-85856550D02*
X123586703Y-85856590D01*
X125265094Y-86671990D02*
X125104508Y-86612690D01*
X123586703Y-85856100D02*
X123586703Y-85856140D01*
X123586703Y-85855870D02*
X123586703Y-85855900D01*
X123586703Y-85856480D02*
X123586703Y-85856510D01*
X122087253Y-84664470D02*
X121960988Y-84517550D01*
X123586703Y-85856750D02*
X123586703Y-85856780D01*
X122365380Y-84952780D02*
X122222116Y-84809690D01*
X123586703Y-85855900D02*
X123586703Y-85855950D01*
X122843581Y-85364710D02*
X122676311Y-85230730D01*
X123018454Y-85494760D02*
X122843581Y-85364710D01*
X123390214Y-85741270D02*
X123200732Y-85620420D01*
X123586703Y-85856620D02*
X123586703Y-85856650D01*
X126160084Y-86863090D02*
X126015864Y-86850790D01*
X123586703Y-85856650D02*
X123586703Y-85856680D01*
X123586703Y-85856230D02*
X123586703Y-85856260D01*
X124014002Y-86092180D02*
X123805089Y-85977920D01*
X124767764Y-86470590D02*
X124590322Y-86387790D01*
X125870523Y-86830690D02*
X125723418Y-86802790D01*
X125723418Y-86802790D02*
X125573906Y-86766990D01*
X124938945Y-86545590D02*
X124767764Y-86470590D01*
X123586703Y-85856320D02*
X123586703Y-85856360D01*
X123586703Y-85856510D02*
X123586703Y-85856550D01*
X123586703Y-85856170D02*
X123586703Y-85856200D01*
X123586703Y-85856290D02*
X123586703Y-85856320D01*
X123805089Y-85977920D02*
X123586703Y-85855810D01*
X123586703Y-85856390D02*
X123586703Y-85856420D01*
X123586703Y-85856780D02*
X123586703Y-85856810D01*
X123586703Y-85856360D02*
X123586703Y-85856390D01*
X123586703Y-85855810D02*
X123586703Y-85855840D01*
X124405975Y-86297090D02*
X124214083Y-86198590D01*
X123586703Y-85856710D02*
X123586703Y-85856750D01*
X123586703Y-85856040D02*
X123586703Y-85856070D01*
X124214083Y-86198590D02*
X124014002Y-86092180D01*
X123586703Y-85855950D02*
X123586703Y-85855980D01*
X121395146Y-83625450D02*
X121334656Y-83479180D01*
X121960988Y-84517550D02*
X121843523Y-84369370D01*
X123586703Y-85856840D02*
X123390214Y-85741270D01*
X123586703Y-85855980D02*
X123586703Y-85856010D01*
X123586703Y-85855840D02*
X123586703Y-85855870D01*
X125573906Y-86766990D02*
X125421346Y-86723390D01*
X122516844Y-85093270D02*
X122365380Y-84952780D01*
X129696943Y-90382570D02*
X129604013Y-90364670D01*
X127070926Y-90284950D02*
X126726902Y-90284570D01*
X129776493Y-90772570D02*
X129831743Y-90719670D01*
X129604013Y-90364670D02*
X129494689Y-90348970D01*
X129882243Y-90451370D02*
X129835573Y-90425770D01*
X127692750Y-90286770D02*
X127392713Y-90285770D01*
X129634833Y-90890670D02*
X129710693Y-90829470D01*
X128467231Y-90295770D02*
X128229522Y-90291770D01*
X129908653Y-90625670D02*
X129929333Y-90584170D01*
X127971523Y-90288770D02*
X127692750Y-90286770D01*
X129875963Y-90670770D02*
X129908653Y-90625670D01*
X129831743Y-90719670D02*
X129875963Y-90670770D01*
X129914463Y-90479970D02*
X129882243Y-90451370D01*
X129932733Y-90511470D02*
X129914463Y-90479970D01*
X129063493Y-90314770D02*
X128883729Y-90306770D01*
X127392713Y-90285770D02*
X127070926Y-90284950D01*
X126726902Y-90284570D02*
X126360104Y-90284580D01*
X128883729Y-90306770D02*
X128685137Y-90300770D01*
X129494689Y-90348970D02*
X129368487Y-90335370D01*
X129710693Y-90829470D02*
X129776493Y-90772570D01*
X129929333Y-90584170D02*
X129937533Y-90546170D01*
X129835573Y-90425770D02*
X129773963Y-90402870D01*
X129368487Y-90335370D02*
X129224917Y-90323770D01*
X129773963Y-90402870D02*
X129696943Y-90382570D01*
X128685137Y-90300770D02*
X128467231Y-90295770D01*
X129937533Y-90546170D02*
X129932733Y-90511470D01*
X129224917Y-90323770D02*
X129063493Y-90314770D01*
X128229522Y-90291770D02*
X127971523Y-90288770D01*
X123765954Y-91361370D02*
X123844954Y-91404770D01*
X125042394Y-91873970D02*
X125141144Y-91900770D01*
X124367354Y-91646070D02*
X124460754Y-91682570D01*
X124010614Y-91489070D02*
X124096894Y-91529870D01*
X126803654Y-92051370D02*
X126897454Y-92039270D01*
X125727754Y-92025070D02*
X125822814Y-92039270D01*
X125534574Y-91990870D02*
X125631614Y-92008970D01*
X129103734Y-91272270D02*
X129173804Y-91226770D01*
X126531714Y-92074870D02*
X126620604Y-92069870D01*
X125631614Y-92008970D02*
X125727754Y-92025070D01*
X129549403Y-90956170D02*
X129634833Y-90890670D01*
X129454873Y-91026270D02*
X129549403Y-90956170D01*
X129351749Y-91101070D02*
X129454873Y-91026270D01*
X128352894Y-91646070D02*
X128444794Y-91608470D01*
X129240514Y-91180770D02*
X129351749Y-91101070D01*
X124943854Y-91845670D02*
X125042394Y-91873970D01*
X129173804Y-91226770D02*
X129240514Y-91180770D01*
X126992514Y-92025070D02*
X127088654Y-92008970D01*
X128164784Y-91717870D02*
X128259494Y-91682570D01*
X128793674Y-91447370D02*
X128875294Y-91404770D01*
X127088654Y-92008970D02*
X127185694Y-91990870D01*
X124651334Y-91751870D02*
X124748134Y-91784570D01*
X125822814Y-92039270D02*
X125916614Y-92051370D01*
X125239924Y-91925870D02*
X125338544Y-91949270D01*
X129030504Y-91317170D02*
X129103734Y-91272270D01*
X128954294Y-91361370D02*
X129030504Y-91317170D01*
X128444794Y-91608470D02*
X128535014Y-91569670D01*
X128259494Y-91682570D02*
X128352894Y-91646070D01*
X124185234Y-91569670D02*
X124275454Y-91608470D01*
X127874564Y-91815870D02*
X127972134Y-91784570D01*
X127480344Y-91925870D02*
X127579124Y-91900770D01*
X127283444Y-91970970D02*
X127381724Y-91949270D01*
X127381724Y-91949270D02*
X127480344Y-91925870D01*
X126897454Y-92039270D02*
X126992514Y-92025070D01*
X125916614Y-92051370D02*
X126008954Y-92061870D01*
X123844954Y-91404770D02*
X123926574Y-91447370D01*
X126360144Y-92078870D02*
X126444834Y-92077870D01*
X125141144Y-91900770D02*
X125239924Y-91925870D01*
X124845704Y-91815870D02*
X124943854Y-91845670D01*
X123926574Y-91447370D02*
X124010614Y-91489070D01*
X126188554Y-92074870D02*
X126275444Y-92077870D01*
X126099664Y-92069870D02*
X126188554Y-92074870D01*
X126275444Y-92077870D02*
X126360144Y-92078870D01*
X125338544Y-91949270D02*
X125436824Y-91970970D01*
X128875294Y-91404770D02*
X128954294Y-91361370D01*
X128709634Y-91489070D02*
X128793674Y-91447370D01*
X128623354Y-91529870D02*
X128709634Y-91489070D01*
X128535014Y-91569670D02*
X128623354Y-91529870D01*
X128068934Y-91751870D02*
X128164784Y-91717870D01*
X127972134Y-91784570D02*
X128068934Y-91751870D01*
X126711314Y-92061870D02*
X126803654Y-92051370D01*
X124748134Y-91784570D02*
X124845704Y-91815870D01*
X124275454Y-91608470D02*
X124367354Y-91646070D01*
X124096894Y-91529870D02*
X124185234Y-91569670D01*
X126008954Y-92061870D02*
X126099664Y-92069870D01*
X124555484Y-91717870D02*
X124651334Y-91751870D01*
X127776414Y-91845670D02*
X127874564Y-91815870D01*
X127677874Y-91873970D02*
X127776414Y-91845670D01*
X127579124Y-91900770D02*
X127677874Y-91873970D01*
X124460754Y-91682570D02*
X124555484Y-91717870D01*
X127185694Y-91990870D02*
X127283444Y-91970970D01*
X126620604Y-92069870D02*
X126711314Y-92061870D01*
X126444834Y-92077870D02*
X126531714Y-92074870D01*
X125436824Y-91970970D02*
X125534574Y-91990870D01*
X105323612Y-58961600D02*
X105251412Y-59382750D01*
X105616572Y-57467680D02*
X105542582Y-57812870D01*
X104828392Y-62284820D02*
X104770642Y-62761990D01*
X105107882Y-60283450D02*
X105036442Y-60763290D01*
X107456992Y-70427640D02*
X107811080Y-70742480D01*
X107127405Y-70123270D02*
X107456992Y-70427640D01*
X104839972Y-66773350D02*
X104927722Y-67062300D01*
X106821651Y-69827970D02*
X107127405Y-70123270D01*
X106278965Y-69258900D02*
X106539061Y-69540310D01*
X106040694Y-68982300D02*
X106278965Y-69258900D01*
X105823581Y-68709110D02*
X106040694Y-68982300D01*
X105626954Y-68437910D02*
X105823581Y-68709110D01*
X105031942Y-67344750D02*
X105153309Y-67622130D01*
X104621912Y-64824150D02*
X104624912Y-65181750D01*
X104681162Y-63647340D02*
X104650762Y-64058360D01*
X107632682Y-54336580D02*
X107585032Y-54321580D01*
X105691152Y-57141080D02*
X105616572Y-57467680D01*
X104668882Y-65853420D02*
X104711222Y-66170330D01*
X105396162Y-58559660D02*
X105323612Y-58961600D01*
X107102952Y-54276880D02*
X107009842Y-54312180D01*
X105542582Y-57812870D02*
X105469132Y-58176800D01*
X105450145Y-68167290D02*
X105626954Y-68437910D01*
X104965142Y-61263010D02*
X104893922Y-61782780D01*
X105292488Y-67895830D02*
X105450145Y-68167290D01*
X104927722Y-67062300D02*
X105031942Y-67344750D01*
X104711222Y-66170330D02*
X104768032Y-66476510D01*
X104640332Y-65524370D02*
X104668882Y-65853420D01*
X104630812Y-64450160D02*
X104621912Y-64824150D01*
X105251412Y-59382750D02*
X105179522Y-59823320D01*
X104650762Y-64058360D02*
X104630812Y-64450160D01*
X104721342Y-63215690D02*
X104681162Y-63647340D01*
X105179522Y-59823320D02*
X105107882Y-60283450D01*
X107491912Y-54290980D02*
X107392082Y-54264580D01*
X107680952Y-54351280D02*
X107632682Y-54336580D01*
X107729742Y-54365680D02*
X107680952Y-54351280D01*
X105918962Y-56271200D02*
X105842292Y-56543010D01*
X105469132Y-58176800D02*
X105396162Y-58559660D01*
X105996452Y-56017350D02*
X105918962Y-56271200D01*
X107392082Y-54264580D02*
X107294012Y-54253280D01*
X105766372Y-56832900D02*
X105691152Y-57141080D01*
X104893922Y-61782780D02*
X104828392Y-62284820D01*
X105842292Y-56543010D02*
X105766372Y-56832900D01*
X107294012Y-54253280D02*
X107197652Y-54257280D01*
X107585032Y-54321580D02*
X107538072Y-54306380D01*
X105036442Y-60763290D02*
X104965142Y-61263010D01*
X107538072Y-54306380D02*
X107491912Y-54290980D01*
X106539061Y-69540310D02*
X106821651Y-69827970D01*
X105153309Y-67622130D02*
X105292488Y-67895830D01*
X104770642Y-62761990D02*
X104721342Y-63215690D01*
X107197652Y-54257280D02*
X107102952Y-54276880D01*
X104768032Y-66476510D02*
X104839972Y-66773350D01*
X104624912Y-65181750D02*
X104640332Y-65524370D01*
X109046702Y-54633560D02*
X109020862Y-54616060D01*
X109144902Y-54738760D02*
X109121202Y-54707360D01*
X108854202Y-54583880D02*
X108821832Y-54581880D01*
X108967862Y-54593260D02*
X108940772Y-54587260D01*
X107778962Y-54379880D02*
X107729742Y-54365680D01*
X107828532Y-54393780D02*
X107778962Y-54379880D01*
X108370412Y-54520880D02*
X108323072Y-54511880D01*
X107928332Y-54420680D02*
X107878352Y-54407380D01*
X107978392Y-54433680D02*
X107928332Y-54420680D01*
X108028422Y-54446180D02*
X107978392Y-54433680D01*
X109581841Y-57219040D02*
X109534841Y-56996940D01*
X108078342Y-54458280D02*
X108028422Y-54446180D01*
X109395672Y-55469760D02*
X109383812Y-55402460D01*
X108275072Y-54502880D02*
X108226512Y-54492380D01*
X108635582Y-54562880D02*
X108594092Y-54556880D01*
X108751932Y-54575880D02*
X108714592Y-54571880D01*
X109309182Y-55096960D02*
X109291422Y-55042660D01*
X109341962Y-55212660D02*
X109326042Y-55153660D01*
X109470681Y-56562600D02*
X109454231Y-56351480D01*
X109370882Y-55337160D02*
X109356922Y-55273860D01*
X109272802Y-54990960D02*
X109253362Y-54941860D01*
X109167982Y-54773360D02*
X109144902Y-54738760D01*
X108507592Y-54543880D02*
X108462762Y-54536880D01*
X109072072Y-54654660D02*
X109046702Y-54633560D01*
X109356922Y-55273860D02*
X109341962Y-55212660D01*
X109431732Y-55756060D02*
X109424432Y-55682060D01*
X109121202Y-54707360D02*
X109096912Y-54679360D01*
X108128062Y-54470080D02*
X108078342Y-54458280D01*
X108913332Y-54585260D02*
X108884732Y-54584880D01*
X108177482Y-54481480D02*
X108128062Y-54470080D01*
X109424432Y-55682060D02*
X109416032Y-55609660D01*
X108323072Y-54511880D02*
X108275072Y-54502880D01*
X108462762Y-54536880D02*
X108417002Y-54528880D01*
X108551402Y-54550880D02*
X108507592Y-54543880D01*
X108675782Y-54567880D02*
X108635582Y-54562880D01*
X109020862Y-54616060D02*
X108994572Y-54602260D01*
X108714592Y-54571880D02*
X108675782Y-54567880D01*
X108787712Y-54578880D02*
X108751932Y-54575880D01*
X108994572Y-54602260D02*
X108967862Y-54593260D01*
X109291422Y-55042660D02*
X109272802Y-54990960D01*
X109447932Y-56065060D02*
X109445832Y-55986060D01*
X109497671Y-56777940D02*
X109470681Y-56562600D01*
X109534841Y-56996940D02*
X109497671Y-56777940D01*
X109233122Y-54895360D02*
X109212122Y-54851760D01*
X109096912Y-54679360D02*
X109072072Y-54654660D01*
X109326042Y-55153660D02*
X109309182Y-55096960D01*
X109253362Y-54941860D02*
X109233122Y-54895360D01*
X109445832Y-55986060D02*
X109442432Y-55908160D01*
X109190392Y-54811060D02*
X109167982Y-54773360D01*
X108884732Y-54584880D02*
X108854202Y-54583880D01*
X109212122Y-54851760D02*
X109190392Y-54811060D01*
X109442432Y-55908160D02*
X109437732Y-55831460D01*
X109454231Y-56351480D02*
X109448631Y-56145160D01*
X108940772Y-54587260D02*
X108913332Y-54585260D01*
X109383812Y-55402460D02*
X109370882Y-55337160D01*
X109448631Y-56145160D02*
X109447932Y-56065060D01*
X109416032Y-55609660D02*
X109406432Y-55538860D01*
X107878352Y-54407380D02*
X107828532Y-54393780D01*
X108226512Y-54492380D02*
X108177482Y-54481480D01*
X108821832Y-54581880D02*
X108787712Y-54578880D01*
X109406432Y-55538860D02*
X109395672Y-55469760D01*
X109437732Y-55831460D02*
X109431732Y-55756060D01*
X108417002Y-54528880D02*
X108370412Y-54520880D01*
X108594092Y-54556880D02*
X108551402Y-54550880D01*
X111872565Y-61269940D02*
X111705923Y-61097140D01*
X112387668Y-61736400D02*
X112213790Y-61590140D01*
X113735039Y-62478960D02*
X113567287Y-62424160D01*
X114315997Y-62626560D02*
X114110218Y-62580160D01*
X117409951Y-62945660D02*
X117126203Y-62936660D01*
X119916222Y-62869160D02*
X119651852Y-62892060D01*
X121639794Y-62875160D02*
X121519701Y-62778860D01*
X115493845Y-62814160D02*
X115241162Y-62782660D01*
X109638311Y-57443650D02*
X109581841Y-57219040D01*
X109703911Y-57670220D02*
X109638311Y-57443650D01*
X114110218Y-62580160D02*
X113916290Y-62530960D01*
X110646525Y-59703460D02*
X110514720Y-59484880D01*
X113275578Y-62306560D02*
X113096704Y-62215960D01*
X117980048Y-62952660D02*
X117694841Y-62950660D01*
X109778281Y-57898170D02*
X109703911Y-57670220D01*
X109861071Y-58126940D02*
X109778281Y-57898170D01*
X114759818Y-62710560D02*
X114532805Y-62669960D01*
X121394192Y-62716160D02*
X121263414Y-62688560D01*
X109951921Y-58355960D02*
X109861071Y-58126940D01*
X110388859Y-59263150D02*
X110269295Y-59038820D01*
X118829345Y-62938660D02*
X118548125Y-62946660D01*
X116565432Y-62908760D02*
X116290054Y-62889860D01*
X113413859Y-62366760D02*
X113275578Y-62306560D01*
X118548125Y-62946660D02*
X118264751Y-62951660D01*
X113567287Y-62424160D02*
X113413859Y-62366760D01*
X110269295Y-59038820D02*
X110156381Y-58812480D01*
X117694841Y-62950660D02*
X117409951Y-62945660D01*
X110514720Y-59484880D02*
X110388859Y-59263150D01*
X112563252Y-61872680D02*
X112387668Y-61736400D01*
X112740188Y-61998400D02*
X112563252Y-61872680D01*
X111074073Y-60334510D02*
X110926554Y-60128830D01*
X114996211Y-62748060D02*
X114759818Y-62710560D01*
X119382033Y-62911260D02*
X119107589Y-62926760D01*
X110783922Y-59918290D02*
X110646525Y-59703460D01*
X110926554Y-60128830D02*
X110783922Y-59918290D01*
X116019115Y-62867760D02*
X115753437Y-62842460D01*
X121519701Y-62778860D02*
X121394192Y-62716160D01*
X111382349Y-60728960D02*
X111226121Y-60534740D01*
X111542400Y-60916620D02*
X111382349Y-60728960D01*
X118264751Y-62951660D02*
X117980048Y-62952660D01*
X119107589Y-62926760D02*
X118829345Y-62938660D01*
X120425323Y-62811960D02*
X120174321Y-62842460D01*
X120668405Y-62777760D02*
X120425323Y-62811960D01*
X113916290Y-62530960D02*
X113735039Y-62478960D01*
X113096704Y-62215960D02*
X112918123Y-62113000D01*
X112041972Y-61434470D02*
X111872565Y-61269940D01*
X121263414Y-62688560D02*
X121127516Y-62697560D01*
X112213790Y-61590140D02*
X112041972Y-61434470D01*
X114532805Y-62669960D02*
X114315997Y-62626560D01*
X120902744Y-62739560D02*
X120668405Y-62777760D01*
X121127516Y-62697560D02*
X120902744Y-62739560D01*
X121754321Y-63003620D02*
X121639794Y-62875160D01*
X111226121Y-60534740D02*
X111074073Y-60334510D01*
X112918123Y-62113000D02*
X112740188Y-61998400D01*
X116290054Y-62889860D02*
X116019115Y-62867760D01*
X115241162Y-62782660D02*
X114996211Y-62748060D01*
X119651852Y-62892060D02*
X119382033Y-62911260D01*
X115753437Y-62842460D02*
X115493845Y-62814160D01*
X116844422Y-62924360D02*
X116565432Y-62908760D01*
X117126203Y-62936660D02*
X116844422Y-62924360D01*
X120174321Y-62842460D02*
X119916222Y-62869160D01*
X110050471Y-58584660D02*
X109951921Y-58355960D01*
X110156381Y-58812480D02*
X110050471Y-58584660D01*
X111705923Y-61097140D02*
X111542400Y-60916620D01*
X121863134Y-63162790D02*
X121754321Y-63003620D01*
X122063030Y-63567340D02*
X121966090Y-63351170D01*
X121966090Y-63351170D02*
X121863134Y-63162790D01*
X122153810Y-63809810D02*
X122063030Y-63567340D01*
X122238280Y-64077120D02*
X122153810Y-63809810D01*
X122316290Y-64367800D02*
X122238280Y-64077120D01*
X122387710Y-64680400D02*
X122316290Y-64367800D01*
X122610900Y-70537360D02*
X122647540Y-70071760D01*
X122447400Y-71927980D02*
X122510980Y-71466940D01*
X122452370Y-65013440D02*
X122387710Y-64680400D01*
X122560840Y-65735000D02*
X122510130Y-65365450D01*
X122669190Y-66934090D02*
X122640520Y-66520780D01*
X122604350Y-66120590D02*
X122560840Y-65735000D01*
X122690210Y-67359060D02*
X122669190Y-66934090D01*
X122708750Y-68238120D02*
X122703450Y-67794220D01*
X122374550Y-72384580D02*
X122447400Y-71927980D01*
X122703450Y-67794220D02*
X122690210Y-67359060D01*
X122705950Y-68689290D02*
X122708750Y-68238120D01*
X122675500Y-69607580D02*
X122694920Y-69146270D01*
X122694920Y-69146270D02*
X122705950Y-68689290D01*
X122565430Y-71002910D02*
X122610900Y-70537360D01*
X122510980Y-71466940D02*
X122565430Y-71002910D01*
X122640520Y-66520780D02*
X122604350Y-66120590D01*
X122510130Y-65365450D02*
X122452370Y-65013440D01*
X122647540Y-70071760D02*
X122675500Y-69607580D01*
X124831518Y-65397150D02*
X124904798Y-65949320D01*
X124423211Y-63203190D02*
X124542092Y-63745600D01*
X123841982Y-61125980D02*
X124002670Y-61627540D01*
X125084328Y-69143560D02*
X125068668Y-69638010D01*
X124000127Y-73559040D02*
X123901437Y-73682250D01*
X124938798Y-71017520D02*
X124867088Y-71436270D01*
X124542092Y-63745600D02*
X124649928Y-64293360D01*
X122514400Y-74407010D02*
X122447390Y-74379110D01*
X122292270Y-72835270D02*
X122374550Y-72384580D01*
X125068668Y-69638010D02*
X125039348Y-70116450D01*
X122204630Y-74093210D02*
X122177510Y-74006610D01*
X122200420Y-73278590D02*
X122292270Y-72835270D01*
X122154590Y-73561140D02*
X122172380Y-73424870D01*
X123298900Y-74226570D02*
X123200710Y-74284570D01*
X122330560Y-74294010D02*
X122281580Y-74236910D01*
X123671434Y-60639490D02*
X123841982Y-61125980D01*
X124780768Y-71831220D02*
X124679614Y-72200440D01*
X124746488Y-64844520D02*
X124831518Y-65397150D01*
X122146590Y-73687410D02*
X122154590Y-73561140D01*
X122829840Y-74421870D02*
X122744720Y-74432370D01*
X123599851Y-73996370D02*
X123498898Y-74082470D01*
X123103010Y-59289830D02*
X123301711Y-59719470D01*
X123498898Y-74082470D02*
X123398440Y-74159170D01*
X124153263Y-62142220D02*
X124293523Y-62668090D01*
X122148090Y-73803730D02*
X122146590Y-73687410D01*
X122172380Y-73424870D02*
X122200420Y-73278590D01*
X123200710Y-74284570D02*
X123104280Y-74333170D01*
X122158520Y-73910110D02*
X122148090Y-73803730D01*
X122177510Y-74006610D02*
X122158520Y-73910110D01*
X122385970Y-74341410D02*
X122330560Y-74294010D01*
X122663490Y-74433310D02*
X122586570Y-74425310D01*
X123398440Y-74159170D02*
X123298900Y-74226570D01*
X123801547Y-73796220D02*
X123700878Y-73900970D01*
X123700878Y-73900970D02*
X123599851Y-73996370D01*
X124192207Y-73285060D02*
X124097197Y-73426630D01*
X124867088Y-71436270D02*
X124780768Y-71831220D01*
X125086528Y-68635030D02*
X125084328Y-69143560D01*
X124002670Y-61627540D02*
X124153263Y-62142220D01*
X123491264Y-60170000D02*
X123671434Y-60639490D01*
X124284737Y-73134330D02*
X124192207Y-73285060D01*
X125051708Y-67583540D02*
X125075588Y-68114390D01*
X125015128Y-67044450D02*
X125051708Y-67583540D01*
X125075588Y-68114390D02*
X125086528Y-68635030D01*
X124293523Y-62668090D02*
X124423211Y-63203190D01*
X122281580Y-74236910D02*
X122239460Y-74170010D01*
X124431837Y-72853950D02*
X124284737Y-73134330D01*
X124679614Y-72200440D02*
X124563383Y-72542000D01*
X124563383Y-72542000D02*
X124431837Y-72853950D01*
X124904798Y-65949320D02*
X124966078Y-66499070D01*
X124649928Y-64293360D02*
X124746488Y-64844520D01*
X124996138Y-70576940D02*
X124938798Y-71017520D01*
X123301711Y-59719470D02*
X123491264Y-60170000D01*
X122447390Y-74379110D02*
X122385970Y-74341410D01*
X122744720Y-74432370D02*
X122663490Y-74433310D01*
X124966078Y-66499070D02*
X125015128Y-67044450D01*
X122895400Y-58883040D02*
X123103010Y-59289830D01*
X123901437Y-73682250D02*
X123801547Y-73796220D01*
X122586570Y-74425310D02*
X122514400Y-74407010D01*
X122918420Y-74401870D02*
X122829840Y-74421870D01*
X123010040Y-74372270D02*
X122918420Y-74401870D01*
X124097197Y-73426630D02*
X124000127Y-73559040D01*
X122239460Y-74170010D02*
X122204630Y-74093210D01*
X125039348Y-70116450D02*
X124996138Y-70576940D01*
X123104280Y-74333170D02*
X123010040Y-74372270D01*
X108774437Y-52437910D02*
X108911111Y-52469510D01*
X120238652Y-56228790D02*
X120511377Y-56398610D01*
X121854701Y-57439220D02*
X122027616Y-57615260D01*
X119952582Y-56060290D02*
X120238652Y-56228790D01*
X118330083Y-55241350D02*
X118679440Y-55401640D01*
X107681043Y-52185110D02*
X107817716Y-52216710D01*
X110824552Y-52911910D02*
X110961226Y-52943510D01*
X110277855Y-52785510D02*
X110414529Y-52817110D01*
X109867832Y-52690710D02*
X110004507Y-52722310D01*
X115990547Y-54324660D02*
X116408301Y-54471540D01*
X115123472Y-54038830D02*
X115562195Y-54180390D01*
X111234575Y-53006710D02*
X111371250Y-53038310D01*
X110004507Y-52722310D02*
X110141180Y-52753910D01*
X108501088Y-52374710D02*
X108637762Y-52406310D01*
X108091066Y-52279910D02*
X108227739Y-52311510D01*
X110551203Y-52848710D02*
X110687878Y-52880310D01*
X110141180Y-52753910D02*
X110277855Y-52785510D01*
X108637762Y-52406310D02*
X108774437Y-52437910D01*
X109457809Y-52595910D02*
X109594483Y-52627510D01*
X107954391Y-52248310D02*
X108091066Y-52279910D01*
X121666843Y-57263740D02*
X121854701Y-57439220D01*
X121015883Y-56741770D02*
X121247204Y-56914910D01*
X116408301Y-54471540D02*
X116815227Y-54620920D01*
X113269458Y-53501950D02*
X113747373Y-53631560D01*
X120511377Y-56398610D02*
X120770531Y-56569650D01*
X121464267Y-57088940D02*
X121666843Y-57263740D01*
X120770531Y-56569650D02*
X121015883Y-56741770D01*
X109184460Y-52532710D02*
X109321134Y-52564310D01*
X113747373Y-53631560D02*
X114215833Y-53764310D01*
X119016597Y-55563780D02*
X119341326Y-55727680D01*
X108364414Y-52343110D02*
X108501088Y-52374710D01*
X110414529Y-52817110D02*
X110551203Y-52848710D01*
X118679440Y-55401640D02*
X119016597Y-55563780D01*
X110687878Y-52880310D02*
X110824552Y-52911910D01*
X109321134Y-52564310D02*
X109457809Y-52595910D01*
X111781273Y-53133110D02*
X112286179Y-53252620D01*
X111644598Y-53101510D02*
X111781273Y-53133110D01*
X111097901Y-52975110D02*
X111234575Y-53006710D01*
X110961226Y-52943510D02*
X111097901Y-52975110D01*
X109047786Y-52501110D02*
X109184460Y-52532710D01*
X108227739Y-52311510D02*
X108364414Y-52343110D01*
X109731157Y-52659110D02*
X109867832Y-52690710D01*
X108911111Y-52469510D02*
X109047786Y-52501110D01*
X107817716Y-52216710D02*
X107954391Y-52248310D01*
X119653397Y-55893220D02*
X119952582Y-56060290D01*
X119341326Y-55727680D02*
X119653397Y-55893220D01*
X109594483Y-52627510D02*
X109731157Y-52659110D01*
X112286179Y-53252620D02*
X112782317Y-53375610D01*
X111371250Y-53038310D02*
X111507924Y-53069910D01*
X122027616Y-57615260D02*
X122185356Y-57791760D01*
X115562195Y-54180390D02*
X115990547Y-54324660D01*
X111507924Y-53069910D02*
X111644598Y-53101510D01*
X114215833Y-53764310D02*
X114674608Y-53900110D01*
X122679116Y-58501020D02*
X122895400Y-58883040D01*
X122454398Y-58145710D02*
X122679116Y-58501020D01*
X122327693Y-57968620D02*
X122454398Y-58145710D01*
X114674608Y-53900110D02*
X115123472Y-54038830D01*
X112782317Y-53375610D02*
X113269458Y-53501950D01*
X122185356Y-57791760D02*
X122327693Y-57968620D01*
X121247204Y-56914910D02*
X121464267Y-57088940D01*
X107996603Y-48421970D02*
X107969243Y-48484270D01*
X108081003Y-48256370D02*
X108052533Y-48307870D01*
X107471493Y-51441110D02*
X107465693Y-51503010D01*
X107512093Y-51008010D02*
X107506293Y-51069910D01*
X107517893Y-50946110D02*
X107512093Y-51008010D01*
X107544368Y-52153510D02*
X107681043Y-52185110D01*
X107657313Y-49642570D02*
X107642033Y-49740170D01*
X107506293Y-51069910D02*
X107500493Y-51131810D01*
X107615083Y-49938870D02*
X107603513Y-50039820D01*
X107593293Y-50141610D02*
X107587493Y-50203510D01*
X107673733Y-49546370D02*
X107657313Y-49642570D01*
X107729363Y-49267370D02*
X107709803Y-49358670D01*
X107890183Y-48690670D02*
X107864983Y-48765470D01*
X107413493Y-52060010D02*
X107407693Y-52121910D01*
X107448293Y-51688710D02*
X107442493Y-51750610D01*
X108197163Y-48090470D02*
X108167873Y-48125670D01*
X107523693Y-50884210D02*
X107517893Y-50946110D01*
X107459893Y-51564910D02*
X107454093Y-51626810D01*
X107477293Y-51379310D02*
X107471493Y-51441110D01*
X107771283Y-49090870D02*
X107749873Y-49178170D01*
X107942363Y-48549970D02*
X107915993Y-48618770D01*
X108285323Y-48011970D02*
X108255933Y-48033470D01*
X107483093Y-51317410D02*
X107477293Y-51379310D01*
X107642033Y-49740170D02*
X107627943Y-49838970D01*
X107816623Y-48923270D02*
X107793553Y-49005870D01*
X107552693Y-50574810D02*
X107546893Y-50636710D01*
X108109753Y-48208770D02*
X108081003Y-48256370D01*
X107691243Y-49451670D02*
X107673733Y-49546370D01*
X107558493Y-50512910D02*
X107552693Y-50574810D01*
X107709803Y-49358670D02*
X107691243Y-49451670D01*
X107541093Y-50698510D02*
X107535293Y-50760410D01*
X107564293Y-50451010D02*
X107558493Y-50512910D01*
X107570093Y-50389210D02*
X107564293Y-50451010D01*
X108024383Y-48363070D02*
X107996603Y-48421970D01*
X107425093Y-51936210D02*
X107419293Y-51998110D01*
X107915993Y-48618770D02*
X107890183Y-48690670D01*
X107407693Y-52121910D02*
X107544368Y-52153510D01*
X107436693Y-51812510D02*
X107430893Y-51874410D01*
X107465693Y-51503010D02*
X107459893Y-51564910D01*
X107535293Y-50760410D02*
X107529493Y-50822310D01*
X107500493Y-51131810D02*
X107494693Y-51193610D01*
X108052533Y-48307870D02*
X108024383Y-48363070D01*
X107419293Y-51998110D02*
X107413493Y-52060010D01*
X107430893Y-51874410D02*
X107425093Y-51936210D01*
X107454093Y-51626810D02*
X107448293Y-51688710D01*
X107864983Y-48765470D02*
X107840453Y-48843070D01*
X107442493Y-51750610D02*
X107436693Y-51812510D01*
X107494693Y-51193610D02*
X107488893Y-51255510D01*
X107546893Y-50636710D02*
X107541093Y-50698510D01*
X108226533Y-48059670D02*
X108197163Y-48090470D01*
X107603513Y-50039820D02*
X107593293Y-50141610D01*
X107575893Y-50327310D02*
X107570093Y-50389210D01*
X107581693Y-50265410D02*
X107575893Y-50327310D01*
X108255933Y-48033470D02*
X108226533Y-48059670D01*
X107488893Y-51255510D02*
X107483093Y-51317410D01*
X107749873Y-49178170D02*
X107729363Y-49267370D01*
X107587493Y-50203510D02*
X107581693Y-50265410D01*
X107793553Y-49005870D02*
X107771283Y-49090870D01*
X107529493Y-50822310D02*
X107523693Y-50884210D01*
X107627943Y-49838970D02*
X107615083Y-49938870D01*
X107840453Y-48843070D02*
X107816623Y-48923270D01*
X107969243Y-48484270D02*
X107942363Y-48549970D01*
X108138723Y-48165170D02*
X108109753Y-48208770D01*
X108167873Y-48125670D02*
X108138723Y-48165170D01*
X109178344Y-47604470D02*
X109006164Y-47699870D01*
X109703316Y-47267570D02*
X109527385Y-47387890D01*
X109879570Y-47139880D02*
X109703316Y-47267570D01*
X108343873Y-47983670D02*
X108314653Y-47995370D01*
X109352239Y-47500350D02*
X109178344Y-47604470D01*
X108504553Y-47928370D02*
X108343873Y-47983670D01*
X109006164Y-47699870D02*
X108836162Y-47785970D01*
X110055681Y-47005290D02*
X109879570Y-47139880D01*
X108668803Y-47862270D02*
X108504553Y-47928370D01*
X109527385Y-47387890D02*
X109352239Y-47500350D01*
X108314653Y-47995370D02*
X108285323Y-48011970D01*
X108836162Y-47785970D02*
X108668803Y-47862270D01*
X113181933Y-41322660D02*
X113181161Y-41635010D01*
X110895211Y-33048620D02*
X111083019Y-33432930D01*
X113019381Y-43022780D02*
X112954361Y-43261000D01*
X113148491Y-42226860D02*
X113116291Y-42505070D01*
X112441317Y-36973330D02*
X112552559Y-37363880D01*
X111763019Y-34999120D02*
X111914450Y-35394660D01*
X111604008Y-34604520D02*
X111763019Y-34999120D01*
X110291493Y-31923450D02*
X110499296Y-32293230D01*
X110214823Y-31789020D02*
X110291493Y-31923450D01*
X109796063Y-31008870D02*
X109860573Y-31134820D01*
X109616563Y-30644140D02*
X109673983Y-30763350D01*
X109860573Y-31134820D02*
X109927303Y-31262660D01*
X112246273Y-44662810D02*
X112120907Y-44844080D01*
X113084823Y-39978860D02*
X113123833Y-40327670D01*
X112193960Y-36185990D02*
X112321734Y-36580490D01*
X109733843Y-30884980D02*
X109796063Y-31008870D01*
X111706811Y-45384510D02*
X111557661Y-45561940D01*
X111850712Y-45205390D02*
X111706811Y-45384510D01*
X112364533Y-44481780D02*
X112246273Y-44662810D01*
X112757221Y-43769490D02*
X112672031Y-43944830D01*
X112911033Y-38890100D02*
X112978273Y-39259440D01*
X112058147Y-35790500D02*
X112193960Y-36185990D01*
X112832981Y-43596750D02*
X112757221Y-43769490D01*
X112954361Y-43261000D02*
X112898851Y-43427090D01*
X113172533Y-41000210D02*
X113181933Y-41322660D01*
X109673983Y-30763350D02*
X109733843Y-30884980D01*
X109996163Y-31392180D02*
X110067083Y-31523200D01*
X112749393Y-38135480D02*
X112834683Y-38515240D01*
X111437569Y-34211530D02*
X111604008Y-34604520D01*
X110700586Y-32668510D02*
X110895211Y-33048620D01*
X113073301Y-42770600D02*
X113019381Y-43022780D01*
X113116291Y-42505070D02*
X113073301Y-42770600D01*
X112655303Y-37751470D02*
X112749393Y-38135480D01*
X110139993Y-31655540D02*
X110214823Y-31789020D01*
X111083019Y-33432930D02*
X111263856Y-33820790D01*
X112321734Y-36580490D02*
X112441317Y-36973330D01*
X109927303Y-31262660D02*
X109996163Y-31392180D01*
X110231185Y-46864280D02*
X110055681Y-47005290D01*
X110405618Y-46717320D02*
X110231185Y-46864280D01*
X110578516Y-46564880D02*
X110405618Y-46717320D01*
X110749414Y-46407440D02*
X110578516Y-46564880D01*
X110917848Y-46245490D02*
X110749414Y-46407440D01*
X111083354Y-46079480D02*
X110917848Y-46245490D01*
X111245468Y-45909910D02*
X111083354Y-46079480D01*
X111403725Y-45737240D02*
X111245468Y-45909910D01*
X111557661Y-45561940D02*
X111403725Y-45737240D01*
X110067083Y-31523200D02*
X110139993Y-31655540D01*
X111988899Y-45025100D02*
X111850712Y-45205390D01*
X112120907Y-44844080D02*
X111988899Y-45025100D01*
X113036253Y-39622560D02*
X113084823Y-39978860D01*
X112577871Y-44122320D02*
X112475221Y-44301450D01*
X112552559Y-37363880D02*
X112655303Y-37751470D01*
X112672031Y-43944830D02*
X112577871Y-44122320D01*
X112978273Y-39259440D02*
X113036253Y-39622560D01*
X111263856Y-33820790D02*
X111437569Y-34211530D01*
X112475221Y-44301450D02*
X112364533Y-44481780D01*
X113181161Y-41635010D02*
X113170061Y-41936630D01*
X112834683Y-38515240D02*
X112911033Y-38890100D01*
X111914450Y-35394660D02*
X112058147Y-35790500D01*
X112898851Y-43427090D02*
X112832981Y-43596750D01*
X113170061Y-41936630D02*
X113148491Y-42226860D01*
X113153113Y-40668340D02*
X113172533Y-41000210D01*
X110499296Y-32293230D02*
X110700586Y-32668510D01*
X113123833Y-40327670D02*
X113153113Y-40668340D01*
X118348544Y-38502390D02*
X118244682Y-38363460D01*
X109167323Y-29546960D02*
X109192983Y-29627060D01*
X116153909Y-35672790D02*
X115807207Y-35253740D01*
X118036959Y-38085610D02*
X117933097Y-37946680D01*
X118140820Y-38224530D02*
X118036959Y-38085610D01*
X111805546Y-30897610D02*
X111515203Y-30620820D01*
X109126103Y-29400860D02*
X109145003Y-29471460D01*
X109086123Y-29170760D02*
X109090623Y-29220060D01*
X109095696Y-29058360D02*
X109088596Y-29089760D01*
X117933097Y-37946680D02*
X117829235Y-37807750D01*
X109254003Y-29800560D02*
X109289223Y-29893660D01*
X109098823Y-29274960D02*
X109110683Y-29335260D01*
X109085396Y-29127260D02*
X109086123Y-29170760D01*
X109088596Y-29089760D02*
X109085396Y-29127260D01*
X110251730Y-29525430D02*
X110043584Y-29371030D01*
X110969208Y-30121970D02*
X110715528Y-29901900D01*
X118244682Y-38363460D02*
X118140820Y-38224530D01*
X112106138Y-31191310D02*
X111805546Y-30897610D01*
X109189336Y-28981060D02*
X109121936Y-29014660D01*
X110043584Y-29371030D02*
X109852587Y-29240500D01*
X111236096Y-30361940D02*
X110969208Y-30121970D01*
X114761572Y-34030420D02*
X114414470Y-33637240D01*
X109221903Y-29711660D02*
X109254003Y-29800560D01*
X109110683Y-29335260D02*
X109126103Y-29400860D01*
X109090623Y-29220060D02*
X109098823Y-29274960D01*
X118763991Y-39058110D02*
X118660129Y-38919180D01*
X109392349Y-29002160D02*
X109279806Y-28977060D01*
X112734128Y-31825480D02*
X112415993Y-31500940D01*
X116498047Y-36095810D02*
X116153909Y-35672790D01*
X118867852Y-39197030D02*
X118763991Y-39058110D01*
X118556267Y-38780250D02*
X118452405Y-38641320D01*
X110476040Y-29702720D02*
X110251730Y-29525430D01*
X116838633Y-36521810D02*
X116498047Y-36095810D01*
X115458927Y-34839680D02*
X115110054Y-34431570D01*
X109106776Y-29033260D02*
X109095696Y-29058360D01*
X113391287Y-32515360D02*
X113059554Y-32163950D01*
X109279806Y-28977060D02*
X109189336Y-28981060D01*
X112415993Y-31500940D02*
X112106138Y-31191310D01*
X115807207Y-35253740D02*
X115458927Y-34839680D01*
X118452405Y-38641320D02*
X118348544Y-38502390D01*
X114069731Y-33252990D02*
X113728341Y-32878710D01*
X117829235Y-37807750D02*
X117505213Y-37378780D01*
X109525984Y-29055060D02*
X109392349Y-29002160D01*
X110715528Y-29901900D02*
X110476040Y-29702720D01*
X113728341Y-32878710D02*
X113391287Y-32515360D01*
X115110054Y-34431570D02*
X114761572Y-34030420D01*
X109679725Y-29134860D02*
X109525984Y-29055060D01*
X111515203Y-30620820D02*
X111236096Y-30361940D01*
X109121936Y-29014660D02*
X109106776Y-29033260D01*
X113059554Y-32163950D02*
X112734128Y-31825480D01*
X117505213Y-37378780D02*
X117174684Y-36949800D01*
X109509343Y-30413780D02*
X109561663Y-30527560D01*
X114414470Y-33637240D02*
X114069731Y-33252990D01*
X118660129Y-38919180D02*
X118556267Y-38780250D01*
X109561663Y-30527560D02*
X109616563Y-30644140D01*
X109459693Y-30303010D02*
X109509343Y-30413780D01*
X109145003Y-29471460D02*
X109167323Y-29546960D01*
X109412783Y-30195420D02*
X109459693Y-30303010D01*
X109368683Y-30091200D02*
X109412783Y-30195420D01*
X109327473Y-29990560D02*
X109368683Y-30091200D01*
X117174684Y-36949800D02*
X116838633Y-36521810D01*
X109289223Y-29893660D02*
X109327473Y-29990560D01*
X109192983Y-29627060D02*
X109221903Y-29711660D01*
X109852587Y-29240500D02*
X109679725Y-29134860D01*
X120114193Y-40864180D02*
X120010331Y-40725250D01*
X120425778Y-41280970D02*
X120321916Y-41142040D01*
X120218054Y-41003100D02*
X120114193Y-40864180D01*
X120321916Y-41142040D02*
X120218054Y-41003100D01*
X120633501Y-41558820D02*
X120529639Y-41419890D01*
X118971714Y-39335960D02*
X118867852Y-39197030D01*
X119075576Y-39474900D02*
X118971714Y-39335960D01*
X119179437Y-39613820D02*
X119075576Y-39474900D01*
X119283299Y-39752750D02*
X119179437Y-39613820D01*
X119387161Y-39891680D02*
X119283299Y-39752750D01*
X119491022Y-40030600D02*
X119387161Y-39891680D01*
X119594884Y-40169530D02*
X119491022Y-40030600D01*
X119698746Y-40308470D02*
X119594884Y-40169530D01*
X119802608Y-40447390D02*
X119698746Y-40308470D01*
X120529639Y-41419890D02*
X120425778Y-41280970D01*
X119906469Y-40586320D02*
X119802608Y-40447390D01*
X120010331Y-40725250D02*
X119906469Y-40586320D01*
X132026257Y-41558350D02*
X131921257Y-41697370D01*
X132761255Y-40585180D02*
X132656255Y-40724210D01*
X132656255Y-40724210D02*
X132551256Y-40863230D01*
X132131256Y-41419320D02*
X132026257Y-41558350D01*
X132236256Y-41280300D02*
X132131256Y-41419320D01*
X132551256Y-40863230D02*
X132446256Y-41002250D01*
X132446256Y-41002250D02*
X132341256Y-41141280D01*
X132341256Y-41141280D02*
X132236256Y-41280300D01*
X139348905Y-32491590D02*
X139032536Y-32831190D01*
X140265947Y-31538140D02*
X139966439Y-31844220D01*
X133601254Y-39473000D02*
X133496254Y-39612030D01*
X134231252Y-38638860D02*
X134126253Y-38777890D01*
X134441252Y-38360820D02*
X134336252Y-38499830D01*
X143054995Y-29107870D02*
X142897590Y-29204270D01*
X134756251Y-37943750D02*
X134651251Y-38082760D01*
X134861251Y-37804720D02*
X134756251Y-37943750D01*
X135787872Y-36611060D02*
X135473558Y-37008960D01*
X138062983Y-33903630D02*
X137735748Y-34276180D01*
X134651251Y-38082760D02*
X134546252Y-38221790D01*
X143317272Y-28984670D02*
X143195165Y-29034370D01*
X141382889Y-30450750D02*
X141117476Y-30700380D01*
X136428674Y-35819400D02*
X136106521Y-36214250D01*
X138712207Y-33180290D02*
X138388746Y-33538060D01*
X142112223Y-29802500D02*
X141881092Y-30000970D01*
X143420480Y-28959470D02*
X143317272Y-28984670D01*
X135164408Y-37407130D02*
X134861251Y-37804720D01*
X135473558Y-37008960D02*
X135164408Y-37407130D01*
X137080179Y-35038870D02*
X136753503Y-35427320D01*
X140558175Y-31244920D02*
X140265947Y-31538140D01*
X142534397Y-29462570D02*
X142330269Y-29622750D01*
X133706253Y-39333970D02*
X133601254Y-39473000D01*
X133811253Y-39194960D02*
X133706253Y-39333970D01*
X139660482Y-32162320D02*
X139348905Y-32491590D01*
X142723782Y-29322790D02*
X142534397Y-29462570D01*
X138388746Y-33538060D02*
X138062983Y-33903630D01*
X143195165Y-29034370D02*
X143054995Y-29107870D01*
X132866255Y-40446170D02*
X132761255Y-40585180D01*
X132971255Y-40307140D02*
X132866255Y-40446170D01*
X133181254Y-40029100D02*
X133076255Y-40168110D01*
X133076255Y-40168110D02*
X132971255Y-40307140D01*
X139966439Y-31844220D02*
X139660482Y-32162320D01*
X133286254Y-39890070D02*
X133181254Y-40029100D01*
X133391254Y-39751040D02*
X133286254Y-39890070D01*
X137735748Y-34276180D02*
X137407870Y-34654870D01*
X133916253Y-39055930D02*
X133811253Y-39194960D01*
X134021253Y-38916900D02*
X133916253Y-39055930D01*
X141637704Y-30217340D02*
X141382889Y-30450750D01*
X134336252Y-38499830D02*
X134231252Y-38638860D01*
X142897590Y-29204270D02*
X142723782Y-29322790D01*
X134126253Y-38777890D02*
X134021253Y-38916900D01*
X141881092Y-30000970D02*
X141637704Y-30217340D01*
X136106521Y-36214250D02*
X135787872Y-36611060D01*
X136753503Y-35427320D02*
X136428674Y-35819400D01*
X142330269Y-29622750D02*
X142112223Y-29802500D01*
X133496254Y-39612030D02*
X133391254Y-39751040D01*
X134546252Y-38221790D02*
X134441252Y-38360820D01*
X137407870Y-34654870D02*
X137080179Y-35038870D01*
X139032536Y-32831190D02*
X138712207Y-33180290D01*
X140842295Y-30965380D02*
X140558175Y-31244920D01*
X141117476Y-30700380D02*
X140842295Y-30965380D01*
X108595438Y-71409260D02*
X109027045Y-71764010D01*
X113651012Y-75696030D02*
X113831676Y-75895540D01*
X113459782Y-75495300D02*
X113651012Y-75696030D01*
X113041582Y-75085090D02*
X113256977Y-75292090D01*
X112033859Y-74193510D02*
X112309736Y-74428530D01*
X112309736Y-74428530D02*
X112568974Y-74654610D01*
X111740329Y-73948250D02*
X112033859Y-74193510D01*
X108190340Y-71069220D02*
X108595438Y-71409260D01*
X110743703Y-73138200D02*
X111096264Y-73421890D01*
X110369439Y-72839110D02*
X110743703Y-73138200D01*
X109027045Y-71764010D02*
X109485830Y-72134910D01*
X109972461Y-72523340D02*
X110369439Y-72839110D01*
X109485830Y-72134910D02*
X109972461Y-72523340D01*
X113256977Y-75292090D02*
X113459782Y-75495300D01*
X112812586Y-74873030D02*
X113041582Y-75085090D01*
X112568974Y-74654610D02*
X112812586Y-74873030D01*
X111096264Y-73421890D02*
X111428135Y-73691470D01*
X111428135Y-73691470D02*
X111740329Y-73948250D01*
X107811080Y-70742480D02*
X108190340Y-71069220D01*
X115411340Y-78380090D02*
X115544213Y-78665840D01*
X114750519Y-77139720D02*
X114885585Y-77366970D01*
X117846379Y-83846020D02*
X117945029Y-84037070D01*
X116267814Y-80354040D02*
X116431470Y-80752590D01*
X116111821Y-79977510D02*
X116267814Y-80354040D01*
X115149340Y-77850120D02*
X115280053Y-78108610D01*
X114165363Y-76296150D02*
X114320411Y-76499820D01*
X115962477Y-79621720D02*
X116111821Y-79977510D01*
X117746619Y-83649490D02*
X117846379Y-83846020D01*
X117645929Y-83447810D02*
X117746619Y-83649490D01*
X116727950Y-81458570D02*
X116828809Y-81690960D01*
X116627990Y-81224480D02*
X116727950Y-81458570D01*
X117544491Y-83241360D02*
X117645929Y-83447810D01*
X115018188Y-77603340D02*
X115149340Y-77850120D01*
X114468944Y-76707430D02*
X114611976Y-76920310D01*
X117442484Y-83030460D02*
X117544491Y-83241360D01*
X117340098Y-82815460D02*
X117442484Y-83030460D01*
X116431470Y-80752590D02*
X116529100Y-80989040D01*
X115679686Y-78967170D02*
X115818769Y-79285370D01*
X117237511Y-82596700D02*
X117340098Y-82815460D01*
X117134904Y-82374530D02*
X117237511Y-82596700D01*
X116930373Y-81921310D02*
X117032465Y-82149290D01*
X115280053Y-78108610D02*
X115411340Y-78380090D01*
X117032465Y-82149290D02*
X117134904Y-82374530D01*
X116828809Y-81690960D02*
X116930373Y-81921310D01*
X116529100Y-80989040D02*
X116627990Y-81224480D01*
X115818769Y-79285370D02*
X115962477Y-79621720D01*
X114885585Y-77366970D02*
X115018188Y-77603340D01*
X114320411Y-76499820D02*
X114468944Y-76707430D01*
X115544213Y-78665840D02*
X115679686Y-78967170D01*
X114611976Y-76920310D02*
X114750519Y-77139720D01*
X114002789Y-76095160D02*
X114165363Y-76296150D01*
X113831676Y-75895540D02*
X114002789Y-76095160D01*
X129120068Y-88130710D02*
X129493539Y-88031610D01*
X131701126Y-87155050D02*
X131926786Y-87044990D01*
X130941723Y-87505130D02*
X131209417Y-87384070D01*
X128743002Y-88216810D02*
X129120068Y-88130710D01*
X132532864Y-86720100D02*
X132713998Y-86610070D01*
X130227747Y-87794550D02*
X130587508Y-87656410D01*
X133206242Y-86260200D02*
X133356014Y-86133500D01*
X133049864Y-86381170D02*
X133206242Y-86260200D01*
X130587508Y-87656410D02*
X130941723Y-87505130D01*
X131462277Y-87267730D02*
X131701126Y-87155050D01*
X129862928Y-87919590D02*
X130227747Y-87794550D01*
X129493539Y-88031610D02*
X129862928Y-87919590D01*
X132886057Y-86497440D02*
X133049864Y-86381170D01*
X131209417Y-87384070D02*
X131462277Y-87267730D01*
X132713998Y-86610070D02*
X132886057Y-86497440D01*
X132341833Y-86828560D02*
X132532864Y-86720100D01*
X132140080Y-86936520D02*
X132341833Y-86828560D01*
X131926786Y-87044990D02*
X132140080Y-86936520D01*
X135688516Y-82088810D02*
X135860051Y-81680110D01*
X135369229Y-82833610D02*
X135525182Y-82472960D01*
X135219832Y-83171800D02*
X135369229Y-82833610D01*
X135525182Y-82472960D02*
X135688516Y-82088810D01*
X137083980Y-78808530D02*
X137215263Y-78533580D01*
X136951313Y-79096870D02*
X137083980Y-78808530D01*
X136816227Y-79399920D02*
X136951313Y-79096870D01*
X136677688Y-79718940D02*
X136816227Y-79399920D01*
X136534663Y-80055250D02*
X136677688Y-79718940D01*
X135860051Y-81680110D02*
X136040612Y-81245810D01*
X136386119Y-80410130D02*
X136534663Y-80055250D01*
X136231020Y-80784880D02*
X136386119Y-80410130D01*
X136040612Y-81245810D02*
X136231020Y-80784880D01*
X138182275Y-76875850D02*
X138339685Y-76661650D01*
X138031748Y-77093120D02*
X138182275Y-76875850D01*
X137215263Y-78533580D02*
X137346193Y-78270760D01*
X137887072Y-77314760D02*
X138031748Y-77093120D01*
X137611134Y-77776280D02*
X137747211Y-77542040D01*
X137747211Y-77542040D02*
X137887072Y-77314760D01*
X137477807Y-78018750D02*
X137611134Y-77776280D01*
X137346193Y-78270760D02*
X137477807Y-78018750D01*
X118415229Y-84898210D02*
X118503379Y-85049200D01*
X122619087Y-87886020D02*
X122987334Y-87998570D01*
X119107369Y-85944460D02*
X119167479Y-86012060D01*
X117945029Y-84037070D02*
X118042389Y-84222320D01*
X124115376Y-88264010D02*
X124497534Y-88328310D01*
X123735966Y-88187610D02*
X124115376Y-88264010D01*
X120858064Y-87145530D02*
X121197947Y-87317130D01*
X118830309Y-85570920D02*
X118904709Y-85679060D01*
X121897173Y-87625200D02*
X122255538Y-87761530D01*
X120525314Y-86962300D02*
X120858064Y-87145530D01*
X118904709Y-85679060D02*
X118975809Y-85777560D01*
X118138269Y-84401390D02*
X118232489Y-84573970D01*
X123359789Y-88099110D02*
X123735966Y-88187610D01*
X121544480Y-87477030D02*
X121897173Y-87625200D01*
X122255538Y-87761530D02*
X122619087Y-87886020D01*
X119574758Y-86343360D02*
X119883174Y-86561150D01*
X118232489Y-84573970D02*
X118324879Y-84739690D01*
X118975809Y-85777560D02*
X119043419Y-85866160D01*
X119883174Y-86561150D02*
X120200189Y-86767480D01*
X118589149Y-85192310D02*
X118672349Y-85327200D01*
X122987334Y-87998570D02*
X123359789Y-88099110D01*
X128362830Y-88290010D02*
X128743002Y-88216810D01*
X120200189Y-86767480D02*
X120525314Y-86962300D01*
X121197947Y-87317130D02*
X121544480Y-87477030D01*
X119275429Y-86114160D02*
X119574758Y-86343360D01*
X119223559Y-86068760D02*
X119275429Y-86114160D01*
X119167479Y-86012060D02*
X119223559Y-86068760D01*
X119043419Y-85866160D02*
X119107369Y-85944460D01*
X118752799Y-85453500D02*
X118830309Y-85570920D01*
X118672349Y-85327200D02*
X118752799Y-85453500D01*
X118042389Y-84222320D02*
X118138269Y-84401390D01*
X118503379Y-85049200D02*
X118589149Y-85192310D01*
X118324879Y-84739690D02*
X118415229Y-84898210D01*
X133356014Y-86133500D02*
X133500000Y-86000000D01*
X135076168Y-83488580D02*
X135219832Y-83171800D01*
X134415069Y-84787840D02*
X134542403Y-84562450D01*
X134288534Y-84998070D02*
X134415069Y-84787840D01*
X134937416Y-83784980D02*
X135076168Y-83488580D01*
X134034565Y-85377300D02*
X134161972Y-85194210D01*
X133773914Y-85708480D02*
X133905486Y-85548370D01*
X133639026Y-85858680D02*
X133773914Y-85708480D01*
X134671356Y-84320880D02*
X134802753Y-84062070D01*
X134542403Y-84562450D02*
X134671356Y-84320880D01*
X134802753Y-84062070D02*
X134937416Y-83784980D01*
X134161972Y-85194210D02*
X134288534Y-84998070D01*
X133905486Y-85548370D02*
X134034565Y-85377300D01*
X133500000Y-86000000D02*
X133639026Y-85858680D01*
D14*
G04 #@! TO.C,D1*
X134520000Y-55660000D02*
X134364000Y-55660000D01*
X136836000Y-55660000D02*
X136680000Y-55660000D01*
X134520163Y-58261130D02*
G75*
G02X134520000Y-56179039I1079837J1041130D01*
G01*
X136679837Y-58261130D02*
G75*
G03X136680000Y-56179039I-1079837J1041130D01*
G01*
X134521392Y-58892335D02*
G75*
G02X134364484Y-55660000I1078608J1672335D01*
G01*
X136678608Y-58892335D02*
G75*
G03X136835516Y-55660000I-1078608J1672335D01*
G01*
G04 #@! TO.C,D2*
X118028608Y-58842335D02*
G75*
G03X118185516Y-55610000I-1078608J1672335D01*
G01*
X115871392Y-58842335D02*
G75*
G02X115714484Y-55610000I1078608J1672335D01*
G01*
X118029837Y-58211130D02*
G75*
G03X118030000Y-56129039I-1079837J1041130D01*
G01*
X115870163Y-58211130D02*
G75*
G02X115870000Y-56129039I1079837J1041130D01*
G01*
X118186000Y-55610000D02*
X118030000Y-55610000D01*
X115870000Y-55610000D02*
X115714000Y-55610000D01*
G04 #@! TO.C,Q1*
X136735257Y-51261080D02*
G75*
G02X136345315Y-52068261I-2483845J702146D01*
G01*
X136381209Y-49067634D02*
G75*
G03X133799926Y-47998432I-2129797J-1491300D01*
G01*
X131740003Y-49886004D02*
G75*
G02X133799926Y-47998432I2511409J-672930D01*
G01*
X132157509Y-52068262D02*
G75*
G03X132800007Y-52693395I2093903J1509328D01*
G01*
X132800007Y-52693395D02*
X136345315Y-52068261D01*
G04 #@! TO.C,Q2*
X116907509Y-52200394D02*
X120452817Y-52825526D01*
X116517566Y-51393213D02*
G75*
G03X116907509Y-52200394I2483846J702147D01*
G01*
X116871617Y-49199767D02*
G75*
G02X119452897Y-48130566I2129795J-1491299D01*
G01*
X121512819Y-50018136D02*
G75*
G03X119452897Y-48130566I-2511407J-672930D01*
G01*
X121095315Y-52200392D02*
G75*
G02X120452817Y-52825526I-2093903J1509326D01*
G01*
G04 #@! TO.C,D1*
D15*
X131911904Y-57902380D02*
X131911904Y-56902380D01*
X132150000Y-56902380D01*
X132292857Y-56950000D01*
X132388095Y-57045238D01*
X132435714Y-57140476D01*
X132483333Y-57330952D01*
X132483333Y-57473809D01*
X132435714Y-57664285D01*
X132388095Y-57759523D01*
X132292857Y-57854761D01*
X132150000Y-57902380D01*
X131911904Y-57902380D01*
X133435714Y-57902380D02*
X132864285Y-57902380D01*
X133150000Y-57902380D02*
X133150000Y-56902380D01*
X133054761Y-57045238D01*
X132959523Y-57140476D01*
X132864285Y-57188095D01*
G04 #@! TO.C,D2*
X119171904Y-57622380D02*
X119171904Y-56622380D01*
X119410000Y-56622380D01*
X119552857Y-56670000D01*
X119648095Y-56765238D01*
X119695714Y-56860476D01*
X119743333Y-57050952D01*
X119743333Y-57193809D01*
X119695714Y-57384285D01*
X119648095Y-57479523D01*
X119552857Y-57574761D01*
X119410000Y-57622380D01*
X119171904Y-57622380D01*
X120124285Y-56717619D02*
X120171904Y-56670000D01*
X120267142Y-56622380D01*
X120505238Y-56622380D01*
X120600476Y-56670000D01*
X120648095Y-56717619D01*
X120695714Y-56812857D01*
X120695714Y-56908095D01*
X120648095Y-57050952D01*
X120076666Y-57622380D01*
X120695714Y-57622380D01*
G04 #@! TO.C,Q1*
X133634525Y-47608855D02*
X133532465Y-47578497D01*
X133422136Y-47501244D01*
X133256642Y-47385364D01*
X133154582Y-47355006D01*
X133060791Y-47371544D01*
X133149031Y-47597753D02*
X133046971Y-47567396D01*
X132936642Y-47490142D01*
X132856671Y-47310829D01*
X132798788Y-46982560D01*
X132812608Y-46786708D01*
X132889861Y-46676379D01*
X132975383Y-46612946D01*
X133162966Y-46579870D01*
X133265026Y-46610227D01*
X133375355Y-46687481D01*
X133455326Y-46866794D01*
X133513209Y-47195063D01*
X133499389Y-47390915D01*
X133422136Y-47501244D01*
X133336614Y-47564677D01*
X133149031Y-47597753D01*
X134509004Y-47357953D02*
X133946257Y-47457181D01*
X134227630Y-47407567D02*
X134053982Y-46422759D01*
X133984998Y-46579984D01*
X133907745Y-46690313D01*
X133822222Y-46753747D01*
G04 #@! TO.C,Q2*
X119430714Y-47707912D02*
X119345192Y-47644479D01*
X119267939Y-47534149D01*
X119152059Y-47368656D01*
X119066536Y-47305222D01*
X118972745Y-47288684D01*
X118978296Y-47531431D02*
X118892774Y-47467998D01*
X118815521Y-47357669D01*
X118801701Y-47161817D01*
X118859583Y-46833548D01*
X118939555Y-46654234D01*
X119049884Y-46576981D01*
X119151944Y-46546623D01*
X119339527Y-46579699D01*
X119425049Y-46643133D01*
X119502302Y-46753462D01*
X119516122Y-46949313D01*
X119458239Y-47277583D01*
X119378268Y-47456896D01*
X119267939Y-47534149D01*
X119165879Y-47564507D01*
X118978296Y-47531431D01*
X119932632Y-46780987D02*
X119987796Y-46742360D01*
X120089856Y-46712003D01*
X120324334Y-46753348D01*
X120409857Y-46816781D01*
X120448483Y-46871946D01*
X120478841Y-46974006D01*
X120462303Y-47067797D01*
X120390601Y-47200215D01*
X119728626Y-47663735D01*
X120338269Y-47771231D01*
G04 #@! TD*
M02*
