  0
SECTION
  2
HEADER
  9
$ACADVER
  1
AC1014
  9
$HANDSEED
  5
FFFF
  9
$MEASUREMENT
 70
     1
  0
ENDSEC
  0
SECTION
  2
TABLES
  0
TABLE
  2
VPORT
  5
8
330
0
100
AcDbSymbolTable
 70
     4
  0
VPORT
  5
2E
330
8
100
AcDbSymbolTableRecord
100
AcDbViewportTableRecord
  2
*ACTIVE
 70
     0
 10
0.0
 20
0.0
 11
1.0
 21
1.0
 12
210.0
 22
148.5
 13
0.0
 23
0.0
 14
10.0
 24
10.0
 15
10.0
 25
10.0
 16
0.0
 26
0.0
 36
1.0
 17
0.0
 27
0.0
 37
0.0
 40
341.0
 41
1.24
 42
50.0
 43
0.0
 44
0.0
 50
0.0
 51
0.0
 71
     0
 72
   100
 73
     1
 74
     3
 75
     0
 76
     0
 77
     0
 78
     0
  0
ENDTAB
  0
TABLE
  2
LTYPE
  5
5
330
0
100
AcDbSymbolTable
 70
     1
  0
LTYPE
  5
14
330
5
100
AcDbSymbolTableRecord
100
AcDbLinetypeTableRecord
  2
BYBLOCK
 70
     0
  3

 72
    65
 73
     0
 40
0.0
  0
LTYPE
  5
15
330
5
100
AcDbSymbolTableRecord
100
AcDbLinetypeTableRecord
  2
BYLAYER
 70
     0
  3

 72
    65
 73
     0
 40
0.0
  0
LTYPE
  5
16
330
5
100
AcDbSymbolTableRecord
100
AcDbLinetypeTableRecord
  2
CONTINUOUS
 70
     0
  3
Solid line
 72
    65
 73
     0
 40
0.0
  0
ENDTAB
  0
TABLE
  2
LAYER
  5
2
100
AcDbSymbolTable
 70
4
  0
LAYER
  5
50
100
AcDbSymbolTableRecord
100
AcDbLayerTableRecord
  2
0
 70
0
  6
CONTINUOUS
  0
LAYER
  5
51
100
AcDbSymbolTableRecord
100
AcDbLayerTableRecord
  2
Outline
 70
0
  6
CONTINUOUS
  0
LAYER
  5
52
100
AcDbSymbolTableRecord
100
AcDbLayerTableRecord
  2
Black
 70
0
  6
CONTINUOUS
  0
LAYER
  5
53
100
AcDbSymbolTableRecord
100
AcDbLayerTableRecord
  2
Silkscreen
 70
0
  6
CONTINUOUS
  0
ENDTAB
  0
TABLE
  2
STYLE
  5
3
330
0
100
AcDbSymbolTable
 70
     1
  0
STYLE
  5
11
330
3
100
AcDbSymbolTableRecord
100
AcDbTextStyleTableRecord
  2
STANDARD
 70
     0
 40
0.0
 41
1.0
 50
0.0
 71
     0
 42
2.5
  3
txt
  4

  0
ENDTAB
  0
TABLE
  2
VIEW
  5
6
330
0
100
AcDbSymbolTable
 70
     0
  0
ENDTAB
  0
TABLE
  2
UCS
  5
7
330
0
100
AcDbSymbolTable
 70
     0
  0
ENDTAB
  0
TABLE
  2
APPID
  5
9
330
0
100
AcDbSymbolTable
 70
     2
  0
APPID
  5
12
330
9
100
AcDbSymbolTableRecord
100
AcDbRegAppTableRecord
  2
ACAD
 70
     0
  0
ENDTAB
  0
TABLE
  2
DIMSTYLE
  5
A
330
0
100
AcDbSymbolTable
 70
     1
  0
DIMSTYLE
105
27
330
A
100
AcDbSymbolTableRecord
100
AcDbDimStyleTableRecord
  2
ISO-25
 70
     0
  3

  4

  5

  6

  7

 40
1.0
 41
2.5
 42
0.625
 43
3.75
 44
1.25
 45
0.0
 46
0.0
 47
0.0
 48
0.0
140
2.5
141
2.5
142
0.0
143
0.03937007874016
144
1.0
145
0.0
146
1.0
147
0.625
 71
     0
 72
     0
 73
     0
 74
     0
 75
     0
 76
     0
 77
     1
 78
     8
170
     0
171
     3
172
     1
173
     0
174
     0
175
     0
176
     0
177
     0
178
     0
270
     2
271
     2
272
     2
273
     2
274
     3
340
11
275
     0
280
     0
281
     0
282
     0
283
     0
284
     8
285
     0
286
     0
287
     3
288
     0
  0
ENDTAB
  0
TABLE
  2
BLOCK_RECORD
  5
1
330
0
100
AcDbSymbolTable
 70
     1
  0
BLOCK_RECORD
  5
1F
330
1
100
AcDbSymbolTableRecord
100
AcDbBlockTableRecord
  2
*MODEL_SPACE
  0
BLOCK_RECORD
  5
1B
330
1
100
AcDbSymbolTableRecord
100
AcDbBlockTableRecord
  2
*PAPER_SPACE
  0
ENDTAB
  0
ENDSEC
  0
SECTION
  2
BLOCKS
  0
BLOCK
  5
20
330
1F
100
AcDbEntity
  8
0
100
AcDbBlockBegin
  2
*MODEL_SPACE
 70
     0
 10
0.0
 20
0.0
 30
0.0
  3
*MODEL_SPACE
  1

  0
ENDBLK
  5
21
330
1F
100
AcDbEntity
  8
0
100
AcDbBlockEnd
  0
BLOCK
  5
1C
330
1B
100
AcDbEntity
 67
     1
  8
0
100
AcDbBlockBegin
  2
*PAPER_SPACE
  1

  0
ENDBLK
  5
1D
330
1B
100
AcDbEntity
 67
     1
  8
0
100
AcDbBlockEnd
  0
ENDSEC
  0
SECTION
  2
ENTITIES
  0
LWPOLYLINE
  5
100
100
AcDbEntity
  8
Outline
 62
7
100
AcDbPolyline
 90
864
 70
1
 10
75.774870
 20
177.806890
 30
0.0
 10
75.559843
 20
177.798890
 30
0.0
 10
75.336375
 20
177.772290
 30
0.0
 10
75.104614
 20
177.727490
 30
0.0
 10
74.864708
 20
177.664590
 30
0.0
 10
74.616805
 20
177.583690
 30
0.0
 10
74.361052
 20
177.484890
 30
0.0
 10
74.097598
 20
177.368260
 30
0.0
 10
73.826589
 20
177.233980
 30
0.0
 10
73.548173
 20
177.082190
 30
0.0
 10
73.262498
 20
176.913010
 30
0.0
 10
72.969712
 20
176.726550
 30
0.0
 10
72.669963
 20
176.522970
 30
0.0
 10
72.363397
 20
176.302360
 30
0.0
 10
72.050163
 20
176.064870
 30
0.0
 10
71.730409
 20
175.810620
 30
0.0
 10
71.404281
 20
175.539720
 30
0.0
 10
71.071928
 20
175.252320
 30
0.0
 10
70.733498
 20
174.948530
 30
0.0
 10
70.389138
 20
174.628470
 30
0.0
 10
70.038995
 20
174.292290
 30
0.0
 10
69.683217
 20
173.940100
 30
0.0
 10
69.321953
 20
173.572010
 30
0.0
 10
68.955350
 20
173.188170
 30
0.0
 10
68.583554
 20
172.788700
 30
0.0
 10
68.206715
 20
172.373720
 30
0.0
 10
67.824980
 20
171.943350
 30
0.0
 10
67.438496
 20
171.497730
 30
0.0
 10
67.047411
 20
171.036980
 30
0.0
 10
66.651872
 20
170.561230
 30
0.0
 10
66.252029
 20
170.070590
 30
0.0
 10
65.848026
 20
169.565210
 30
0.0
 10
65.440015
 20
169.045190
 30
0.0
 10
65.328575
 20
168.901880
 30
0.0
 10
65.217136
 20
168.758550
 30
0.0
 10
65.105696
 20
168.615230
 30
0.0
 10
64.994257
 20
168.471920
 30
0.0
 10
64.882817
 20
168.328590
 30
0.0
 10
64.771378
 20
168.185280
 30
0.0
 10
64.659938
 20
168.041960
 30
0.0
 10
64.548499
 20
167.898630
 30
0.0
 10
64.437059
 20
167.755320
 30
0.0
 10
64.325620
 20
167.612000
 30
0.0
 10
64.214180
 20
167.468680
 30
0.0
 10
64.102741
 20
167.325360
 30
0.0
 10
63.991301
 20
167.182050
 30
0.0
 10
63.879862
 20
167.038730
 30
0.0
 10
63.768422
 20
166.895400
 30
0.0
 10
63.656983
 20
166.752090
 30
0.0
 10
63.545543
 20
166.608770
 30
0.0
 10
63.434104
 20
166.465450
 30
0.0
 10
63.322664
 20
166.322130
 30
0.0
 10
63.211225
 20
166.178820
 30
0.0
 10
63.099785
 20
166.035490
 30
0.0
 10
62.988346
 20
165.892170
 30
0.0
 10
62.876906
 20
165.748860
 30
0.0
 10
62.765467
 20
165.605530
 30
0.0
 10
62.654027
 20
165.462220
 30
0.0
 10
62.542588
 20
165.318900
 30
0.0
 10
62.431148
 20
165.175580
 30
0.0
 10
62.319709
 20
165.032260
 30
0.0
 10
62.208269
 20
164.888940
 30
0.0
 10
62.096830
 20
164.745630
 30
0.0
 10
61.985390
 20
164.602300
 30
0.0
 10
61.873951
 20
164.458990
 30
0.0
 10
61.766604
 20
164.458990
 30
0.0
 10
61.659257
 20
164.458990
 30
0.0
 10
61.551912
 20
164.458990
 30
0.0
 10
61.444565
 20
164.458990
 30
0.0
 10
61.337219
 20
164.458990
 30
0.0
 10
61.229873
 20
164.458990
 30
0.0
 10
61.122527
 20
164.458990
 30
0.0
 10
61.015180
 20
164.458990
 30
0.0
 10
60.907833
 20
164.458990
 30
0.0
 10
60.800488
 20
164.458990
 30
0.0
 10
60.693141
 20
164.458990
 30
0.0
 10
60.585795
 20
164.458990
 30
0.0
 10
60.478449
 20
164.458990
 30
0.0
 10
60.371103
 20
164.458990
 30
0.0
 10
60.263756
 20
164.458990
 30
0.0
 10
60.156411
 20
164.458990
 30
0.0
 10
60.049064
 20
164.458990
 30
0.0
 10
59.941717
 20
164.458990
 30
0.0
 10
59.834372
 20
164.458990
 30
0.0
 10
59.727025
 20
164.458990
 30
0.0
 10
59.619679
 20
164.458990
 30
0.0
 10
59.512333
 20
164.458990
 30
0.0
 10
59.404987
 20
164.458990
 30
0.0
 10
59.297640
 20
164.458990
 30
0.0
 10
59.190294
 20
164.458990
 30
0.0
 10
59.082948
 20
164.458990
 30
0.0
 10
58.975601
 20
164.458990
 30
0.0
 10
58.868256
 20
164.458990
 30
0.0
 10
58.760909
 20
164.458990
 30
0.0
 10
58.653563
 20
164.458990
 30
0.0
 10
58.546217
 20
164.458990
 30
0.0
 10
58.438870
 20
164.458990
 30
0.0
 10
58.331560
 20
164.458990
 30
0.0
 10
58.224249
 20
164.458990
 30
0.0
 10
58.116938
 20
164.458990
 30
0.0
 10
58.009627
 20
164.458990
 30
0.0
 10
57.902317
 20
164.458990
 30
0.0
 10
57.795006
 20
164.458990
 30
0.0
 10
57.687694
 20
164.458990
 30
0.0
 10
57.580383
 20
164.458990
 30
0.0
 10
57.473073
 20
164.458990
 30
0.0
 10
57.365762
 20
164.458990
 30
0.0
 10
57.258451
 20
164.458990
 30
0.0
 10
57.151140
 20
164.458990
 30
0.0
 10
57.043830
 20
164.458990
 30
0.0
 10
56.936519
 20
164.458990
 30
0.0
 10
56.829208
 20
164.458990
 30
0.0
 10
56.721897
 20
164.458990
 30
0.0
 10
56.614587
 20
164.458990
 30
0.0
 10
56.507276
 20
164.458990
 30
0.0
 10
56.399965
 20
164.458990
 30
0.0
 10
56.292654
 20
164.458990
 30
0.0
 10
56.185343
 20
164.458990
 30
0.0
 10
56.078033
 20
164.458990
 30
0.0
 10
55.970722
 20
164.458990
 30
0.0
 10
55.863411
 20
164.458990
 30
0.0
 10
55.756100
 20
164.458990
 30
0.0
 10
55.648789
 20
164.458990
 30
0.0
 10
55.541478
 20
164.458990
 30
0.0
 10
55.434167
 20
164.458990
 30
0.0
 10
55.326856
 20
164.458990
 30
0.0
 10
55.219546
 20
164.458990
 30
0.0
 10
55.112235
 20
164.458990
 30
0.0
 10
55.004924
 20
164.458990
 30
0.0
 10
54.893485
 20
164.602300
 30
0.0
 10
54.782045
 20
164.745630
 30
0.0
 10
54.670606
 20
164.888940
 30
0.0
 10
54.559167
 20
165.032260
 30
0.0
 10
54.447728
 20
165.175580
 30
0.0
 10
54.336288
 20
165.318900
 30
0.0
 10
54.224849
 20
165.462220
 30
0.0
 10
54.113409
 20
165.605530
 30
0.0
 10
54.001970
 20
165.748860
 30
0.0
 10
53.890530
 20
165.892170
 30
0.0
 10
53.779091
 20
166.035490
 30
0.0
 10
53.667652
 20
166.178820
 30
0.0
 10
53.556213
 20
166.322130
 30
0.0
 10
53.444773
 20
166.465450
 30
0.0
 10
53.333334
 20
166.608770
 30
0.0
 10
53.221894
 20
166.752090
 30
0.0
 10
53.110455
 20
166.895400
 30
0.0
 10
52.999015
 20
167.038730
 30
0.0
 10
52.887575
 20
167.182050
 30
0.0
 10
52.776136
 20
167.325360
 30
0.0
 10
52.664698
 20
167.468680
 30
0.0
 10
52.553258
 20
167.612000
 30
0.0
 10
52.441819
 20
167.755320
 30
0.0
 10
52.330379
 20
167.898630
 30
0.0
 10
52.218939
 20
168.041960
 30
0.0
 10
52.107500
 20
168.185280
 30
0.0
 10
51.996060
 20
168.328590
 30
0.0
 10
51.884621
 20
168.471920
 30
0.0
 10
51.773181
 20
168.615230
 30
0.0
 10
51.661743
 20
168.758550
 30
0.0
 10
51.550303
 20
168.901880
 30
0.0
 10
51.438864
 20
169.045190
 30
0.0
 10
51.252670
 20
169.283050
 30
0.0
 10
51.062070
 20
169.523390
 30
0.0
 10
50.867462
 20
169.765770
 30
0.0
 10
50.669241
 20
170.009780
 30
0.0
 10
50.467802
 20
170.254980
 30
0.0
 10
50.263544
 20
170.500930
 30
0.0
 10
50.056860
 20
170.747210
 30
0.0
 10
49.848147
 20
170.993390
 30
0.0
 10
49.637801
 20
171.239040
 30
0.0
 10
49.426219
 20
171.483730
 30
0.0
 10
49.213796
 20
171.727030
 30
0.0
 10
49.000928
 20
171.968500
 30
0.0
 10
48.788010
 20
172.207740
 30
0.0
 10
48.575440
 20
172.444270
 30
0.0
 10
48.363615
 20
172.677710
 30
0.0
 10
48.152928
 20
172.907600
 30
0.0
 10
47.943777
 20
173.133520
 30
0.0
 10
47.736556
 20
173.355040
 30
0.0
 10
47.531664
 20
173.571730
 30
0.0
 10
47.329494
 20
173.783150
 30
0.0
 10
47.130445
 20
173.988890
 30
0.0
 10
46.934910
 20
174.188510
 30
0.0
 10
46.743288
 20
174.381570
 30
0.0
 10
46.555972
 20
174.567650
 30
0.0
 10
46.373361
 20
174.746320
 30
0.0
 10
46.195849
 20
174.917150
 30
0.0
 10
46.023833
 20
175.079710
 30
0.0
 10
45.857708
 20
175.233570
 30
0.0
 10
45.697871
 20
175.378300
 30
0.0
 10
45.544718
 20
175.513460
 30
0.0
 10
45.398643
 20
175.638640
 30
0.0
 10
45.260046
 20
175.753390
 30
0.0
 10
45.055307
 20
175.918790
 30
0.0
 10
44.859060
 20
176.075460
 30
0.0
 10
44.670813
 20
176.223590
 30
0.0
 10
44.490077
 20
176.363390
 30
0.0
 10
44.316358
 20
176.495090
 30
0.0
 10
44.149168
 20
176.618840
 30
0.0
 10
43.988014
 20
176.734890
 30
0.0
 10
43.832406
 20
176.843410
 30
0.0
 10
43.681850
 20
176.944570
 30
0.0
 10
43.535858
 20
177.038670
 30
0.0
 10
43.393939
 20
177.125770
 30
0.0
 10
43.255599
 20
177.206270
 30
0.0
 10
43.120349
 20
177.280270
 30
0.0
 10
42.987698
 20
177.347970
 30
0.0
 10
42.857154
 20
177.409470
 30
0.0
 10
42.728226
 20
177.465070
 30
0.0
 10
42.600423
 20
177.514970
 30
0.0
 10
42.473255
 20
177.559470
 30
0.0
 10
42.346229
 20
177.598570
 30
0.0
 10
42.218854
 20
177.632570
 30
0.0
 10
42.090640
 20
177.661670
 30
0.0
 10
41.961095
 20
177.686170
 30
0.0
 10
41.829729
 20
177.706070
 30
0.0
 10
41.696050
 20
177.721770
 30
0.0
 10
41.559566
 20
177.733370
 30
0.0
 10
41.419788
 20
177.740370
 30
0.0
 10
41.276222
 20
177.744370
 30
0.0
 10
41.128380
 20
177.744900
 30
0.0
 10
40.975770
 20
177.741900
 30
0.0
 10
40.817898
 20
177.735900
 30
0.0
 10
40.654277
 20
177.727900
 30
0.0
 10
40.484414
 20
177.716500
 30
0.0
 10
40.313319
 20
177.703100
 30
0.0
 10
40.150156
 20
177.688600
 30
0.0
 10
39.994561
 20
177.672600
 30
0.0
 10
39.846176
 20
177.654900
 30
0.0
 10
39.704640
 20
177.635300
 30
0.0
 10
39.569593
 20
177.613600
 30
0.0
 10
39.440673
 20
177.589500
 30
0.0
 10
39.317523
 20
177.562700
 30
0.0
 10
39.199779
 20
177.533000
 30
0.0
 10
39.087083
 20
177.500200
 30
0.0
 10
38.979073
 20
177.464100
 30
0.0
 10
38.875390
 20
177.424400
 30
0.0
 10
38.775670
 20
177.380800
 30
0.0
 10
38.679550
 20
177.333100
 30
0.0
 10
38.586680
 20
177.281000
 30
0.0
 10
38.496700
 20
177.224400
 30
0.0
 10
38.409250
 20
177.163000
 30
0.0
 10
38.323960
 20
177.096600
 30
0.0
 10
38.240470
 20
177.024900
 30
0.0
 10
38.158420
 20
176.947700
 30
0.0
 10
38.077460
 20
176.864800
 30
0.0
 10
37.997220
 20
176.775900
 30
0.0
 10
37.917340
 20
176.680600
 30
0.0
 10
37.837460
 20
176.578900
 30
0.0
 10
37.757230
 20
176.470500
 30
0.0
 10
37.676280
 20
176.355140
 30
0.0
 10
37.594240
 20
176.232580
 30
0.0
 10
37.510770
 20
176.102590
 30
0.0
 10
37.425500
 20
175.964920
 30
0.0
 10
37.338070
 20
175.819340
 30
0.0
 10
37.248120
 20
175.665600
 30
0.0
 10
37.155280
 20
175.503480
 30
0.0
 10
37.063720
 20
175.339070
 30
0.0
 10
36.977000
 20
175.176710
 30
0.0
 10
36.895020
 20
175.015450
 30
0.0
 10
36.817640
 20
174.854320
 30
0.0
 10
36.744760
 20
174.692370
 30
0.0
 10
36.676250
 20
174.528660
 30
0.0
 10
36.612000
 20
174.362210
 30
0.0
 10
36.551890
 20
174.192070
 30
0.0
 10
36.495800
 20
174.017270
 30
0.0
 10
36.443620
 20
173.836890
 30
0.0
 10
36.395220
 20
173.649930
 30
0.0
 10
36.350490
 20
173.455470
 30
0.0
 10
36.309300
 20
173.252530
 30
0.0
 10
36.271540
 20
173.040150
 30
0.0
 10
36.237090
 20
172.817380
 30
0.0
 10
36.205830
 20
172.583270
 30
0.0
 10
36.177650
 20
172.336870
 30
0.0
 10
36.152430
 20
172.077190
 30
0.0
 10
36.130050
 20
171.803310
 30
0.0
 10
36.110390
 20
171.514240
 30
0.0
 10
36.093330
 20
171.209060
 30
0.0
 10
36.078760
 20
170.886790
 30
0.0
 10
36.066560
 20
170.546460
 30
0.0
 10
36.056550
 20
170.187140
 30
0.0
 10
36.048750
 20
169.807860
 30
0.0
 10
36.042950
 20
169.407670
 30
0.0
 10
36.039050
 20
168.985600
 30
0.0
 10
36.036950
 20
168.540710
 30
0.0
 10
36.036460
 20
168.072020
 30
0.0
 10
36.037460
 20
167.578610
 30
0.0
 10
36.039860
 20
167.059490
 30
0.0
 10
36.043660
 20
166.513710
 30
0.0
 10
36.046760
 20
166.153860
 30
0.0
 10
36.050360
 20
165.789930
 30
0.0
 10
36.054360
 20
165.422580
 30
0.0
 10
36.058860
 20
165.052470
 30
0.0
 10
36.063860
 20
164.680250
 30
0.0
 10
36.069260
 20
164.306570
 30
0.0
 10
36.075060
 20
163.932110
 30
0.0
 10
36.081160
 20
163.557520
 30
0.0
 10
36.087660
 20
163.183450
 30
0.0
 10
36.094560
 20
162.810570
 30
0.0
 10
36.101760
 20
162.439530
 30
0.0
 10
36.109360
 20
162.070990
 30
0.0
 10
36.117160
 20
161.705620
 30
0.0
 10
36.125260
 20
161.344060
 30
0.0
 10
36.133660
 20
160.986980
 30
0.0
 10
36.142260
 20
160.635040
 30
0.0
 10
36.151260
 20
160.288890
 30
0.0
 10
36.160460
 20
159.949190
 30
0.0
 10
36.169860
 20
159.616600
 30
0.0
 10
36.179360
 20
159.291780
 30
0.0
 10
36.189060
 20
158.975400
 30
0.0
 10
36.198960
 20
158.668090
 30
0.0
 10
36.208970
 20
158.370530
 30
0.0
 10
36.219090
 20
158.083390
 30
0.0
 10
36.229310
 20
157.807290
 30
0.0
 10
36.239640
 20
157.542920
 30
0.0
 10
36.250070
 20
157.290930
 30
0.0
 10
36.260500
 20
157.051970
 30
0.0
 10
36.271040
 20
156.826710
 30
0.0
 10
36.281580
 20
156.615800
 30
0.0
 10
36.292120
 20
156.419900
 30
0.0
 10
36.302660
 20
156.239680
 30
0.0
 10
36.314390
 20
156.023460
 30
0.0
 10
36.323290
 20
155.806320
 30
0.0
 10
36.329290
 20
155.588190
 30
0.0
 10
36.332390
 20
155.368960
 30
0.0
 10
36.332532
 20
155.148520
 30
0.0
 10
36.329832
 20
154.926790
 30
0.0
 10
36.324132
 20
154.703670
 30
0.0
 10
36.315532
 20
154.479050
 30
0.0
 10
36.303862
 20
154.252830
 30
0.0
 10
36.289212
 20
154.024940
 30
0.0
 10
36.271562
 20
153.795260
 30
0.0
 10
36.250902
 20
153.563690
 30
0.0
 10
36.227212
 20
153.330130
 30
0.0
 10
36.200482
 20
153.094510
 30
0.0
 10
36.170692
 20
152.856700
 30
0.0
 10
36.137832
 20
152.616610
 30
0.0
 10
36.101892
 20
152.374140
 30
0.0
 10
36.062852
 20
152.129210
 30
0.0
 10
36.020702
 20
151.881710
 30
0.0
 10
35.975432
 20
151.631540
 30
0.0
 10
35.927022
 20
151.378600
 30
0.0
 10
35.875462
 20
151.122800
 30
0.0
 10
35.820732
 20
150.864030
 30
0.0
 10
35.762822
 20
150.602200
 30
0.0
 10
35.701722
 20
150.337220
 30
0.0
 10
35.637412
 20
150.068990
 30
0.0
 10
35.569882
 20
149.797390
 30
0.0
 10
35.499122
 20
149.522340
 30
0.0
 10
35.425102
 20
149.243740
 30
0.0
 10
35.347832
 20
148.961500
 30
0.0
 10
35.267282
 20
148.675520
 30
0.0
 10
35.183442
 20
148.385680
 30
0.0
 10
35.027028
 20
147.837810
 30
0.0
 10
34.879626
 20
147.293040
 30
0.0
 10
34.741250
 20
146.751780
 30
0.0
 10
34.611916
 20
146.214490
 30
0.0
 10
34.491638
 20
145.681610
 30
0.0
 10
34.380433
 20
145.153580
 30
0.0
 10
34.278310
 20
144.630830
 30
0.0
 10
34.185290
 20
144.113830
 30
0.0
 10
34.101390
 20
143.603020
 30
0.0
 10
34.026610
 20
143.098820
 30
0.0
 10
33.960980
 20
142.601680
 30
0.0
 10
33.904510
 20
142.112050
 30
0.0
 10
33.857210
 20
141.630380
 30
0.0
 10
33.819090
 20
141.157090
 30
0.0
 10
33.790180
 20
140.692640
 30
0.0
 10
33.770500
 20
140.237480
 30
0.0
 10
33.760070
 20
139.792030
 30
0.0
 10
33.758870
 20
139.356750
 30
0.0
 10
33.766870
 20
138.932070
 30
0.0
 10
33.784190
 20
138.518440
 30
0.0
 10
33.810810
 20
138.116310
 30
0.0
 10
33.846730
 20
137.726120
 30
0.0
 10
33.891970
 20
137.348290
 30
0.0
 10
33.946540
 20
136.983290
 30
0.0
 10
34.010470
 20
136.631550
 30
0.0
 10
34.083760
 20
136.293520
 30
0.0
 10
34.166430
 20
135.969640
 30
0.0
 10
34.258500
 20
135.660350
 30
0.0
 10
34.359969
 20
135.366100
 30
0.0
 10
34.470866
 20
135.087320
 30
0.0
 10
34.591201
 20
134.824460
 30
0.0
 10
34.720987
 20
134.577950
 30
0.0
 10
34.781067
 20
134.477320
 30
0.0
 10
34.851277
 20
134.370110
 30
0.0
 10
34.931287
 20
134.256610
 30
0.0
 10
35.020767
 20
134.137130
 30
0.0
 10
35.119367
 20
134.012000
 30
0.0
 10
35.226752
 20
133.881510
 30
0.0
 10
35.342586
 20
133.746010
 30
0.0
 10
35.466530
 20
133.605790
 30
0.0
 10
35.598247
 20
133.461170
 30
0.0
 10
35.737397
 20
133.312470
 30
0.0
 10
35.883644
 20
133.160020
 30
0.0
 10
36.036649
 20
133.004110
 30
0.0
 10
36.196075
 20
132.845060
 30
0.0
 10
36.361583
 20
132.683210
 30
0.0
 10
36.532834
 20
132.518850
 30
0.0
 10
36.709493
 20
132.352300
 30
0.0
 10
36.891219
 20
132.183900
 30
0.0
 10
37.077677
 20
132.013940
 30
0.0
 10
37.268526
 20
131.842740
 30
0.0
 10
37.463430
 20
131.670640
 30
0.0
 10
37.662050
 20
131.497920
 30
0.0
 10
37.864049
 20
131.324910
 30
0.0
 10
38.069087
 20
131.151940
 30
0.0
 10
38.276829
 20
130.979310
 30
0.0
 10
38.486935
 20
130.807340
 30
0.0
 10
38.699066
 20
130.636340
 30
0.0
 10
38.912887
 20
130.466640
 30
0.0
 10
39.128057
 20
130.298550
 30
0.0
 10
39.344241
 20
130.132390
 30
0.0
 10
39.561097
 20
129.968460
 30
0.0
 10
39.778291
 20
129.807090
 30
0.0
 10
39.995484
 20
129.648600
 30
0.0
 10
40.310065
 20
129.420200
 30
0.0
 10
40.610288
 20
129.200180
 30
0.0
 10
40.896556
 20
128.988110
 30
0.0
 10
41.169276
 20
128.783530
 30
0.0
 10
41.428853
 20
128.586050
 30
0.0
 10
41.675691
 20
128.395200
 30
0.0
 10
41.910197
 20
128.210560
 30
0.0
 10
42.132775
 20
128.031700
 30
0.0
 10
42.343831
 20
127.858170
 30
0.0
 10
42.543769
 20
127.689540
 30
0.0
 10
42.732995
 20
127.525390
 30
0.0
 10
42.911915
 20
127.365280
 30
0.0
 10
43.080933
 20
127.208760
 30
0.0
 10
43.240455
 20
127.055410
 30
0.0
 10
43.390885
 20
126.904800
 30
0.0
 10
43.532630
 20
126.756490
 30
0.0
 10
43.666094
 20
126.610050
 30
0.0
 10
43.791682
 20
126.465030
 30
0.0
 10
43.909801
 20
126.321020
 30
0.0
 10
44.020855
 20
126.177570
 30
0.0
 10
44.125243
 20
126.034240
 30
0.0
 10
44.223383
 20
125.890610
 30
0.0
 10
44.315673
 20
125.746240
 30
0.0
 10
44.402513
 20
125.600700
 30
0.0
 10
44.484323
 20
125.453550
 30
0.0
 10
44.561493
 20
125.304370
 30
0.0
 10
44.634433
 20
125.152700
 30
0.0
 10
44.703553
 20
124.998110
 30
0.0
 10
44.769253
 20
124.840190
 30
0.0
 10
44.831943
 20
124.678500
 30
0.0
 10
44.892033
 20
124.512580
 30
0.0
 10
44.949913
 20
124.342020
 30
0.0
 10
44.991483
 20
124.219770
 30
0.0
 10
45.039283
 20
124.086690
 30
0.0
 10
45.093093
 20
123.943240
 30
0.0
 10
45.152703
 20
123.789870
 30
0.0
 10
45.217903
 20
123.627020
 30
0.0
 10
45.288463
 20
123.455150
 30
0.0
 10
45.364193
 20
123.274710
 30
0.0
 10
45.444853
 20
123.086160
 30
0.0
 10
45.530243
 20
122.889940
 30
0.0
 10
45.620143
 20
122.686510
 30
0.0
 10
45.714333
 20
122.476320
 30
0.0
 10
45.812613
 20
122.259810
 30
0.0
 10
45.914757
 20
122.037430
 30
0.0
 10
46.020547
 20
121.809670
 30
0.0
 10
46.129774
 20
121.576940
 30
0.0
 10
46.242221
 20
121.339700
 30
0.0
 10
46.357675
 20
121.098410
 30
0.0
 10
46.475921
 20
120.853520
 30
0.0
 10
46.596744
 20
120.605480
 30
0.0
 10
46.719929
 20
120.354740
 30
0.0
 10
46.845260
 20
120.101750
 30
0.0
 10
46.972523
 20
119.846970
 30
0.0
 10
47.101504
 20
119.590840
 30
0.0
 10
47.231988
 20
119.333820
 30
0.0
 10
47.363759
 20
119.076350
 30
0.0
 10
47.496602
 20
118.818900
 30
0.0
 10
47.630304
 20
118.561910
 30
0.0
 10
47.764649
 20
118.305840
 30
0.0
 10
47.899422
 20
118.051130
 30
0.0
 10
48.034408
 20
117.798230
 30
0.0
 10
48.169393
 20
117.547610
 30
0.0
 10
48.304160
 20
117.299700
 30
0.0
 10
48.510094
 20
116.924170
 30
0.0
 10
48.707851
 20
116.566840
 30
0.0
 10
48.897989
 20
116.227030
 30
0.0
 10
49.081075
 20
115.904080
 30
0.0
 10
49.257667
 20
115.597320
 30
0.0
 10
49.428330
 20
115.306100
 30
0.0
 10
49.593625
 20
115.029740
 30
0.0
 10
49.754113
 20
114.767580
 30
0.0
 10
49.910356
 20
114.518960
 30
0.0
 10
50.062919
 20
114.283200
 30
0.0
 10
50.212361
 20
114.059650
 30
0.0
 10
50.359245
 20
113.847640
 30
0.0
 10
50.504134
 20
113.646510
 30
0.0
 10
50.647589
 20
113.455590
 30
0.0
 10
50.790172
 20
113.274210
 30
0.0
 10
50.932445
 20
113.101710
 30
0.0
 10
51.074971
 20
112.937440
 30
0.0
 10
51.218311
 20
112.780710
 30
0.0
 10
51.363028
 20
112.630860
 30
0.0
 10
51.509683
 20
112.487240
 30
0.0
 10
51.658839
 20
112.349170
 30
0.0
 10
51.811058
 20
112.215980
 30
0.0
 10
51.966901
 20
112.087030
 30
0.0
 10
52.126932
 20
111.961640
 30
0.0
 10
52.291710
 20
111.839150
 30
0.0
 10
52.461801
 20
111.718880
 30
0.0
 10
52.637764
 20
111.600180
 30
0.0
 10
52.820161
 20
111.482370
 30
0.0
 10
53.009557
 20
111.364810
 30
0.0
 10
53.206512
 20
111.246810
 30
0.0
 10
53.411587
 20
111.127720
 30
0.0
 10
53.625346
 20
111.006870
 30
0.0
 10
53.932426
 20
110.839520
 30
0.0
 10
54.236452
 20
110.682290
 30
0.0
 10
54.537561
 20
110.535210
 30
0.0
 10
54.835893
 20
110.398240
 30
0.0
 10
55.131585
 20
110.271400
 30
0.0
 10
55.424775
 20
110.154670
 30
0.0
 10
55.715603
 20
110.048060
 30
0.0
 10
56.004206
 20
109.951560
 30
0.0
 10
56.290724
 20
109.865160
 30
0.0
 10
56.575294
 20
109.788860
 30
0.0
 10
56.858054
 20
109.722660
 30
0.0
 10
57.139143
 20
109.666460
 30
0.0
 10
57.418699
 20
109.620360
 30
0.0
 10
57.696861
 20
109.584360
 30
0.0
 10
57.973768
 20
109.558460
 30
0.0
 10
58.249556
 20
109.542560
 30
0.0
 10
58.524366
 20
109.536560
 30
0.0
 10
58.798334
 20
109.540560
 30
0.0
 10
59.071600
 20
109.554760
 30
0.0
 10
59.344301
 20
109.579060
 30
0.0
 10
59.616576
 20
109.613460
 30
0.0
 10
59.888565
 20
109.657860
 30
0.0
 10
60.160405
 20
109.712260
 30
0.0
 10
60.432232
 20
109.776660
 30
0.0
 10
60.704188
 20
109.851060
 30
0.0
 10
60.976410
 20
109.935460
 30
0.0
 10
61.249036
 20
110.029860
 30
0.0
 10
61.522205
 20
110.134190
 30
0.0
 10
61.796055
 20
110.248550
 30
0.0
 10
62.070723
 20
110.372880
 30
0.0
 10
62.346350
 20
110.507200
 30
0.0
 10
62.623072
 20
110.651480
 30
0.0
 10
62.734521
 20
110.712380
 30
0.0
 10
62.847775
 20
110.776180
 30
0.0
 10
62.962615
 20
110.842680
 30
0.0
 10
63.078826
 20
110.911680
 30
0.0
 10
63.196189
 20
110.982980
 30
0.0
 10
63.314489
 20
111.056580
 30
0.0
 10
63.433509
 20
111.132180
 30
0.0
 10
63.553030
 20
111.209580
 30
0.0
 10
63.672836
 20
111.288680
 30
0.0
 10
63.792711
 20
111.369380
 30
0.0
 10
63.912437
 20
111.451480
 30
0.0
 10
64.031798
 20
111.534880
 30
0.0
 10
64.150575
 20
111.619280
 30
0.0
 10
64.268553
 20
111.704580
 30
0.0
 10
64.385513
 20
111.790580
 30
0.0
 10
64.501241
 20
111.877080
 30
0.0
 10
64.615518
 20
111.963980
 30
0.0
 10
64.728127
 20
112.051080
 30
0.0
 10
64.838851
 20
112.138380
 30
0.0
 10
64.947474
 20
112.225580
 30
0.0
 10
65.053778
 20
112.312480
 30
0.0
 10
65.157545
 20
112.398980
 30
0.0
 10
65.258562
 20
112.484880
 30
0.0
 10
65.356602
 20
112.569980
 30
0.0
 10
65.451462
 20
112.654280
 30
0.0
 10
65.542922
 20
112.737380
 30
0.0
 10
65.630752
 20
112.819380
 30
0.0
 10
65.714752
 20
112.899880
 30
0.0
 10
65.794692
 20
112.978880
 30
0.0
 10
65.870362
 20
113.056080
 30
0.0
 10
65.941542
 20
113.131380
 30
0.0
 10
66.008022
 20
113.204780
 30
0.0
 10
66.153937
 20
113.376660
 30
0.0
 10
66.309958
 20
113.574250
 30
0.0
 10
66.475323
 20
113.796110
 30
0.0
 10
66.649269
 20
114.040810
 30
0.0
 10
66.831035
 20
114.306900
 30
0.0
 10
67.019856
 20
114.592960
 30
0.0
 10
67.214971
 20
114.897530
 30
0.0
 10
67.415618
 20
115.219190
 30
0.0
 10
67.621033
 20
115.556490
 30
0.0
 10
67.830454
 20
115.908000
 30
0.0
 10
68.043118
 20
116.272290
 30
0.0
 10
68.258264
 20
116.647910
 30
0.0
 10
68.475128
 20
117.033420
 30
0.0
 10
68.692947
 20
117.427400
 30
0.0
 10
68.910960
 20
117.828390
 30
0.0
 10
69.128402
 20
118.234980
 30
0.0
 10
69.344514
 20
118.645700
 30
0.0
 10
69.558531
 20
119.059140
 30
0.0
 10
69.769691
 20
119.473830
 30
0.0
 10
69.977231
 20
119.888370
 30
0.0
 10
70.180389
 20
120.301310
 30
0.0
 10
70.378402
 20
120.711210
 30
0.0
 10
70.570507
 20
121.116620
 30
0.0
 10
70.755942
 20
121.516110
 30
0.0
 10
70.933946
 20
121.908260
 30
0.0
 10
71.103754
 20
122.291610
 30
0.0
 10
71.264604
 20
122.664740
 30
0.0
 10
71.415734
 20
123.026190
 30
0.0
 10
71.556381
 20
123.374540
 30
0.0
 10
71.685784
 20
123.708350
 30
0.0
 10
71.803177
 20
124.026180
 30
0.0
 10
71.907798
 20
124.326600
 30
0.0
 10
71.963848
 20
124.487880
 30
0.0
 10
72.022408
 20
124.645660
 30
0.0
 10
72.083718
 20
124.800210
 30
0.0
 10
72.148038
 20
124.951830
 30
0.0
 10
72.215618
 20
125.100800
 30
0.0
 10
72.286708
 20
125.247400
 30
0.0
 10
72.361568
 20
125.391910
 30
0.0
 10
72.440448
 20
125.534620
 30
0.0
 10
72.523588
 20
125.675820
 30
0.0
 10
72.611258
 20
125.815780
 30
0.0
 10
72.703698
 20
125.954810
 30
0.0
 10
72.801158
 20
126.093160
 30
0.0
 10
72.903903
 20
126.231150
 30
0.0
 10
73.012180
 20
126.369040
 30
0.0
 10
73.126241
 20
126.507120
 30
0.0
 10
73.246339
 20
126.645680
 30
0.0
 10
73.372725
 20
126.785000
 30
0.0
 10
73.505654
 20
126.925360
 30
0.0
 10
73.645375
 20
127.067060
 30
0.0
 10
73.792143
 20
127.210360
 30
0.0
 10
73.946208
 20
127.355570
 30
0.0
 10
74.107825
 20
127.502970
 30
0.0
 10
74.277245
 20
127.652830
 30
0.0
 10
74.454721
 20
127.805440
 30
0.0
 10
74.640505
 20
127.961090
 30
0.0
 10
74.834849
 20
128.120070
 30
0.0
 10
75.038007
 20
128.282650
 30
0.0
 10
75.250229
 20
128.449110
 30
0.0
 10
75.471768
 20
128.619750
 30
0.0
 10
75.702879
 20
128.794860
 30
0.0
 10
75.943811
 20
128.974710
 30
0.0
 10
76.194819
 20
129.159590
 30
0.0
 10
76.791755
 20
129.601020
 30
0.0
 10
77.357768
 20
130.029270
 30
0.0
 10
77.893451
 20
130.445530
 30
0.0
 10
78.399399
 20
130.851000
 30
0.0
 10
78.876207
 20
131.246890
 30
0.0
 10
79.324471
 20
131.634380
 30
0.0
 10
79.744786
 20
132.014690
 30
0.0
 10
80.137743
 20
132.389000
 30
0.0
 10
80.503942
 20
132.758530
 30
0.0
 10
80.843976
 20
133.124460
 30
0.0
 10
81.158438
 20
133.488000
 30
0.0
 10
81.447925
 20
133.850340
 30
0.0
 10
81.713031
 20
134.212690
 30
0.0
 10
81.954353
 20
134.576250
 30
0.0
 10
82.172482
 20
134.942210
 30
0.0
 10
82.368016
 20
135.311770
 30
0.0
 10
82.541550
 20
135.686140
 30
0.0
 10
82.693676
 20
136.066510
 30
0.0
 10
82.824992
 20
136.454070
 30
0.0
 10
82.936091
 20
136.850050
 30
0.0
 10
83.027571
 20
137.255620
 30
0.0
 10
83.100021
 20
137.671980
 30
0.0
 10
83.154041
 20
138.100350
 30
0.0
 10
83.190231
 20
138.541910
 30
0.0
 10
83.209171
 20
138.997870
 30
0.0
 10
83.211471
 20
139.469420
 30
0.0
 10
83.197711
 20
139.957770
 30
0.0
 10
83.168501
 20
140.464120
 30
0.0
 10
83.124421
 20
140.989660
 30
0.0
 10
83.066071
 20
141.535580
 30
0.0
 10
82.994051
 20
142.103100
 30
0.0
 10
82.908961
 20
142.693420
 30
0.0
 10
82.876271
 20
142.904320
 30
0.0
 10
82.841561
 20
143.119860
 30
0.0
 10
82.804941
 20
143.339600
 30
0.0
 10
82.766501
 20
143.563110
 30
0.0
 10
82.726341
 20
143.789930
 30
0.0
 10
82.684571
 20
144.019630
 30
0.0
 10
82.641271
 20
144.251780
 30
0.0
 10
82.596561
 20
144.485930
 30
0.0
 10
82.550531
 20
144.721640
 30
0.0
 10
82.503281
 20
144.958460
 30
0.0
 10
82.454911
 20
145.195970
 30
0.0
 10
82.405521
 20
145.433720
 30
0.0
 10
82.355201
 20
145.671260
 30
0.0
 10
82.304061
 20
145.908160
 30
0.0
 10
82.252201
 20
146.143980
 30
0.0
 10
82.199721
 20
146.378290
 30
0.0
 10
82.146711
 20
146.610630
 30
0.0
 10
82.093281
 20
146.840570
 30
0.0
 10
82.039531
 20
147.067670
 30
0.0
 10
81.985561
 20
147.291500
 30
0.0
 10
81.931461
 20
147.511590
 30
0.0
 10
81.877341
 20
147.727520
 30
0.0
 10
81.823291
 20
147.938860
 30
0.0
 10
81.769411
 20
148.145150
 30
0.0
 10
81.715801
 20
148.345960
 30
0.0
 10
81.662571
 20
148.540850
 30
0.0
 10
81.609811
 20
148.729380
 30
0.0
 10
81.557631
 20
148.911090
 30
0.0
 10
81.506111
 20
149.085580
 30
0.0
 10
81.455361
 20
149.252370
 30
0.0
 10
81.405481
 20
149.411040
 30
0.0
 10
81.356571
 20
149.561150
 30
0.0
 10
81.302801
 20
149.727570
 30
0.0
 10
81.250771
 20
149.897820
 30
0.0
 10
81.200511
 20
150.071730
 30
0.0
 10
81.152031
 20
150.249130
 30
0.0
 10
81.105341
 20
150.429890
 30
0.0
 10
81.060461
 20
150.613820
 30
0.0
 10
81.017411
 20
150.800760
 30
0.0
 10
80.976221
 20
150.990560
 30
0.0
 10
80.936891
 20
151.183050
 30
0.0
 10
80.899461
 20
151.378080
 30
0.0
 10
80.863941
 20
151.575490
 30
0.0
 10
80.830341
 20
151.775090
 30
0.0
 10
80.798691
 20
151.976750
 30
0.0
 10
80.769021
 20
152.180290
 30
0.0
 10
80.741341
 20
152.385560
 30
0.0
 10
80.715661
 20
152.592390
 30
0.0
 10
80.692001
 20
152.800610
 30
0.0
 10
80.670401
 20
153.010090
 30
0.0
 10
80.650851
 20
153.220630
 30
0.0
 10
80.633391
 20
153.432100
 30
0.0
 10
80.618041
 20
153.644320
 30
0.0
 10
80.604801
 20
153.857140
 30
0.0
 10
80.593711
 20
154.070390
 30
0.0
 10
80.584711
 20
154.283910
 30
0.0
 10
80.578011
 20
154.497530
 30
0.0
 10
80.573511
 20
154.711110
 30
0.0
 10
80.571211
 20
154.924470
 30
0.0
 10
80.571119
 20
155.137460
 30
0.0
 10
80.573319
 20
155.349900
 30
0.0
 10
80.577719
 20
155.561650
 30
0.0
 10
80.584419
 20
155.772550
 30
0.0
 10
80.593519
 20
155.982410
 30
0.0
 10
80.602619
 20
156.175800
 30
0.0
 10
80.611719
 20
156.384700
 30
0.0
 10
80.620719
 20
156.608430
 30
0.0
 10
80.629719
 20
156.846300
 30
0.0
 10
80.638619
 20
157.097660
 30
0.0
 10
80.647319
 20
157.361810
 30
0.0
 10
80.655919
 20
157.638110
 30
0.0
 10
80.664419
 20
157.925860
 30
0.0
 10
80.672819
 20
158.224370
 30
0.0
 10
80.681119
 20
158.533000
 30
0.0
 10
80.689319
 20
158.851060
 30
0.0
 10
80.697319
 20
159.177880
 30
0.0
 10
80.705119
 20
159.512760
 30
0.0
 10
80.712819
 20
159.855060
 30
0.0
 10
80.720319
 20
160.204090
 30
0.0
 10
80.727619
 20
160.559180
 30
0.0
 10
80.734719
 20
160.919640
 30
0.0
 10
80.741419
 20
161.284810
 30
0.0
 10
80.747919
 20
161.654000
 30
0.0
 10
80.754119
 20
162.026560
 30
0.0
 10
80.760119
 20
162.401790
 30
0.0
 10
80.765819
 20
162.779030
 30
0.0
 10
80.771219
 20
163.157600
 30
0.0
 10
80.776319
 20
163.536830
 30
0.0
 10
80.781019
 20
163.916040
 30
0.0
 10
80.785319
 20
164.294550
 30
0.0
 10
80.789319
 20
164.671700
 30
0.0
 10
80.792919
 20
165.046800
 30
0.0
 10
80.796119
 20
165.419190
 30
0.0
 10
80.798919
 20
165.788180
 30
0.0
 10
80.801319
 20
166.153100
 30
0.0
 10
80.803319
 20
166.513290
 30
0.0
 10
80.805319
 20
167.043010
 30
0.0
 10
80.806088
 20
167.548130
 30
0.0
 10
80.805487
 20
168.029450
 30
0.0
 10
80.803387
 20
168.487780
 30
0.0
 10
80.799787
 20
168.923920
 30
0.0
 10
80.794487
 20
169.338670
 30
0.0
 10
80.787387
 20
169.732830
 30
0.0
 10
80.778487
 20
170.107220
 30
0.0
 10
80.767667
 20
170.462620
 30
0.0
 10
80.754797
 20
170.799860
 30
0.0
 10
80.739797
 20
171.119720
 30
0.0
 10
80.722567
 20
171.423000
 30
0.0
 10
80.703007
 20
171.710520
 30
0.0
 10
80.681027
 20
171.983090
 30
0.0
 10
80.656527
 20
172.241490
 30
0.0
 10
80.629427
 20
172.486530
 30
0.0
 10
80.599607
 20
172.719020
 30
0.0
 10
80.566977
 20
172.939760
 30
0.0
 10
80.531457
 20
173.149560
 30
0.0
 10
80.492937
 20
173.349210
 30
0.0
 10
80.451327
 20
173.539520
 30
0.0
 10
80.406527
 20
173.721300
 30
0.0
 10
80.358447
 20
173.895330
 30
0.0
 10
80.306987
 20
174.062440
 30
0.0
 10
80.252057
 20
174.223430
 30
0.0
 10
80.193547
 20
174.379080
 30
0.0
 10
80.131377
 20
174.530220
 30
0.0
 10
80.065447
 20
174.677630
 30
0.0
 10
79.995657
 20
174.822140
 30
0.0
 10
79.921917
 20
174.964530
 30
0.0
 10
79.844117
 20
175.105610
 30
0.0
 10
79.762177
 20
175.246190
 30
0.0
 10
79.642429
 20
175.444660
 30
0.0
 10
79.526440
 20
175.632860
 30
0.0
 10
79.413801
 20
175.811080
 30
0.0
 10
79.304108
 20
175.979570
 30
0.0
 10
79.196951
 20
176.138580
 30
0.0
 10
79.091920
 20
176.288380
 30
0.0
 10
78.988616
 20
176.429230
 30
0.0
 10
78.886631
 20
176.561400
 30
0.0
 10
78.785551
 20
176.685140
 30
0.0
 10
78.684977
 20
176.800710
 30
0.0
 10
78.584498
 20
176.908380
 30
0.0
 10
78.483713
 20
177.008390
 30
0.0
 10
78.382202
 20
177.100990
 30
0.0
 10
78.279573
 20
177.186590
 30
0.0
 10
78.175406
 20
177.265290
 30
0.0
 10
78.069301
 20
177.337390
 30
0.0
 10
77.960850
 20
177.403190
 30
0.0
 10
77.849648
 20
177.462790
 30
0.0
 10
77.735284
 20
177.516590
 30
0.0
 10
77.617354
 20
177.564890
 30
0.0
 10
77.495450
 20
177.607890
 30
0.0
 10
77.369164
 20
177.645890
 30
0.0
 10
77.238092
 20
177.679090
 30
0.0
 10
77.101824
 20
177.707790
 30
0.0
 10
76.959954
 20
177.732290
 30
0.0
 10
76.812076
 20
177.752690
 30
0.0
 10
76.657782
 20
177.769490
 30
0.0
 10
76.496665
 20
177.782790
 30
0.0
 10
76.328319
 20
177.793290
 30
0.0
 10
76.152336
 20
177.800290
 30
0.0
 10
75.968310
 20
177.804290
 30
0.0
 10
75.775834
 20
177.806290
 30
0.0
 10
75.775833
 20
177.806290
 30
0.0
 10
75.775833
 20
177.806290
 30
0.0
 10
75.775833
 20
177.806290
 30
0.0
 10
75.775832
 20
177.806290
 30
0.0
 10
75.775832
 20
177.806290
 30
0.0
 10
75.775832
 20
177.806290
 30
0.0
 10
75.775832
 20
177.806290
 30
0.0
 10
75.775830
 20
177.806290
 30
0.0
 10
75.775830
 20
177.806290
 30
0.0
 10
75.775830
 20
177.806290
 30
0.0
 10
75.775829
 20
177.806290
 30
0.0
 10
75.775829
 20
177.806290
 30
0.0
 10
75.775829
 20
177.806290
 30
0.0
 10
75.775829
 20
177.806290
 30
0.0
 10
75.775828
 20
177.806290
 30
0.0
 10
75.775828
 20
177.806290
 30
0.0
 10
75.775828
 20
177.806290
 30
0.0
 10
75.775827
 20
177.806290
 30
0.0
 10
75.775827
 20
177.806290
 30
0.0
 10
75.775827
 20
177.806290
 30
0.0
 10
75.775826
 20
177.806290
 30
0.0
 10
75.775826
 20
177.806290
 30
0.0
 10
75.775826
 20
177.806290
 30
0.0
 10
75.775826
 20
177.806290
 30
0.0
 10
75.775825
 20
177.806290
 30
0.0
 10
75.775825
 20
177.806290
 30
0.0
 10
75.775825
 20
177.806290
 30
0.0
 10
75.775824
 20
177.806290
 30
0.0
 10
75.775824
 20
177.806290
 30
0.0
 10
75.775824
 20
177.806290
 30
0.0
 10
75.775824
 20
177.806290
 30
0.0
  0
ENDSEC
  0
SECTION
  2
OBJECTS
  0
DICTIONARY
  5
C
330
0
100
AcDbDictionary
  3
ACAD_GROUP
350
D
  3
ACAD_MLINESTYLE
350
17
  0
DICTIONARY
  5
D
330
C
100
AcDbDictionary
  0
DICTIONARY
  5
1A
330
C
100
AcDbDictionary
  0
DICTIONARY
  5
17
330
C
100
AcDbDictionary
  3
STANDARD
350
18
  0
DICTIONARY
  5
19
330
C
100
AcDbDictionary
  0
ENDSEC
  0
EOF
