M48
;DRILL file {KiCad (5.0.0)} date 03/03/19 23:19:45
;FORMAT={3:3/ absolute / metric / suppress leading zeros}
FMAT,2
METRIC,TZ
T1C0.800
T2C0.900
T3C1.050
T4C1.500
%
G90
G05
M71
T1
X116500Y-50250
X119001Y-50691
X121503Y-51132
X110500Y-54840
X110500Y-65000
X131750Y-51000
X134251Y-50559
X136753Y-50118
X140750Y-50000
X142750Y-50000
X109750Y-50000
X111750Y-50000
X146500Y-54840
X146500Y-65000
X142000Y-54840
X142000Y-65000
X106000Y-54840
X106000Y-65000
T2
X135600Y-55950
X135600Y-58490
X116950Y-55900
X116950Y-58440
X106250Y-35000
X106250Y-37000
X106250Y-39000
T3
X126250Y-62500
X126250Y-82500
T4
X106250Y-32900
X106250Y-41100
T0
M30
