G04 #@! TF.GenerationSoftware,KiCad,Pcbnew,(5.0.0)*
G04 #@! TF.CreationDate,2019-03-03T23:19:43-08:00*
G04 #@! TF.ProjectId,Cub_Wolf_Badge_Circuit,4375625F576F6C665F42616467655F43,rev?*
G04 #@! TF.SameCoordinates,Original*
G04 #@! TF.FileFunction,Soldermask,Bot*
G04 #@! TF.FilePolarity,Negative*
%FSLAX46Y46*%
G04 Gerber Fmt 4.6, Leading zero omitted, Abs format (unit mm)*
G04 Created by KiCad (PCBNEW (5.0.0)) date 03/03/19 23:19:43*
%MOMM*%
%LPD*%
G01*
G04 APERTURE LIST*
%ADD10C,1.720000*%
%ADD11C,0.100000*%
%ADD12R,2.200000X2.200000*%
%ADD13C,2.200000*%
%ADD14C,2.000000*%
%ADD15R,2.000000X2.000000*%
%ADD16O,1.800000X1.800000*%
%ADD17C,1.800000*%
%ADD18R,1.800000X1.800000*%
%ADD19R,19.500000X4.500000*%
%ADD20O,3.700000X2.400000*%
%ADD21O,2.700000X1.700000*%
%ADD22R,2.700000X1.700000*%
G04 APERTURE END LIST*
D10*
G04 #@! TO.C,Transistor2*
X119001412Y-50691066D03*
X121502823Y-51132133D03*
X116500000Y-50250000D03*
D11*
G36*
X117197597Y-51246272D02*
X115503728Y-50947597D01*
X115802403Y-49253728D01*
X117496272Y-49552403D01*
X117197597Y-51246272D01*
X117197597Y-51246272D01*
G37*
G04 #@! TD*
D10*
G04 #@! TO.C,Transistor1*
X131750000Y-51000000D03*
D11*
G36*
X132746272Y-51697597D02*
X131052403Y-51996272D01*
X130753728Y-50302403D01*
X132447597Y-50003728D01*
X132746272Y-51697597D01*
X132746272Y-51697597D01*
G37*
D10*
X136752823Y-50117867D03*
X134251412Y-50558934D03*
G04 #@! TD*
D12*
G04 #@! TO.C,BT1*
X126250000Y-82500000D03*
D13*
X126250000Y-62500000D03*
G04 #@! TD*
D14*
G04 #@! TO.C,LED1*
X135600000Y-58490000D03*
D15*
X135600000Y-55950000D03*
G04 #@! TD*
G04 #@! TO.C,LED2*
X116950000Y-55900000D03*
D14*
X116950000Y-58440000D03*
G04 #@! TD*
D16*
G04 #@! TO.C,R1*
X146500000Y-54840000D03*
D17*
X146500000Y-65000000D03*
G04 #@! TD*
D16*
G04 #@! TO.C,R2*
X142000000Y-54840000D03*
D17*
X142000000Y-65000000D03*
G04 #@! TD*
G04 #@! TO.C,R3*
X110500000Y-65000000D03*
D16*
X110500000Y-54840000D03*
G04 #@! TD*
D17*
G04 #@! TO.C,R4*
X106000000Y-65000000D03*
D16*
X106000000Y-54840000D03*
G04 #@! TD*
D17*
G04 #@! TO.C,C1*
X142750000Y-50000000D03*
D18*
X140750000Y-50000000D03*
G04 #@! TD*
G04 #@! TO.C,C2*
X111750000Y-50000000D03*
D17*
X109750000Y-50000000D03*
G04 #@! TD*
D19*
G04 #@! TO.C,Solder Pin Here*
X126250000Y-44500000D03*
G04 #@! TD*
D20*
G04 #@! TO.C,SW1*
X106250000Y-32900000D03*
X106250000Y-41100000D03*
D21*
X106250000Y-35000000D03*
X106250000Y-37000000D03*
D22*
X106250000Y-39000000D03*
G04 #@! TD*
M02*
