G04 #@! TF.GenerationSoftware,KiCad,Pcbnew,(5.0.0)*
G04 #@! TF.CreationDate,2018-10-24T17:50:19-07:00*
G04 #@! TF.ProjectId,Cub_Wolf_Badge_Circuit,4375625F576F6C665F42616467655F43,rev?*
G04 #@! TF.SameCoordinates,Original*
G04 #@! TF.FileFunction,Legend,Bot*
G04 #@! TF.FilePolarity,Positive*
%FSLAX46Y46*%
G04 Gerber Fmt 4.6, Leading zero omitted, Abs format (unit mm)*
G04 Created by KiCad (PCBNEW (5.0.0)) date 10/24/18 17:50:19*
%MOMM*%
%LPD*%
G01*
G04 APERTURE LIST*
%ADD10C,0.300000*%
%ADD11C,0.120000*%
%ADD12C,0.150000*%
G04 APERTURE END LIST*
D10*
X137742857Y-72475000D02*
X137028571Y-72475000D01*
X137885714Y-72903571D02*
X137385714Y-71403571D01*
X136885714Y-72903571D01*
X136457142Y-72832142D02*
X136314285Y-72903571D01*
X136028571Y-72903571D01*
X135885714Y-72832142D01*
X135814285Y-72689285D01*
X135814285Y-72617857D01*
X135885714Y-72475000D01*
X136028571Y-72403571D01*
X136242857Y-72403571D01*
X136385714Y-72332142D01*
X136457142Y-72189285D01*
X136457142Y-72117857D01*
X136385714Y-71975000D01*
X136242857Y-71903571D01*
X136028571Y-71903571D01*
X135885714Y-71975000D01*
X135385714Y-71903571D02*
X134814285Y-71903571D01*
X135171428Y-71403571D02*
X135171428Y-72689285D01*
X135100000Y-72832142D01*
X134957142Y-72903571D01*
X134814285Y-72903571D01*
X133671428Y-72903571D02*
X133671428Y-72117857D01*
X133742857Y-71975000D01*
X133885714Y-71903571D01*
X134171428Y-71903571D01*
X134314285Y-71975000D01*
X133671428Y-72832142D02*
X133814285Y-72903571D01*
X134171428Y-72903571D01*
X134314285Y-72832142D01*
X134385714Y-72689285D01*
X134385714Y-72546428D01*
X134314285Y-72403571D01*
X134171428Y-72332142D01*
X133814285Y-72332142D01*
X133671428Y-72260714D01*
X132957142Y-72903571D02*
X132957142Y-71403571D01*
X132957142Y-71975000D02*
X132814285Y-71903571D01*
X132528571Y-71903571D01*
X132385714Y-71975000D01*
X132314285Y-72046428D01*
X132242857Y-72189285D01*
X132242857Y-72617857D01*
X132314285Y-72760714D01*
X132385714Y-72832142D01*
X132528571Y-72903571D01*
X132814285Y-72903571D01*
X132957142Y-72832142D01*
X131385714Y-72903571D02*
X131528571Y-72832142D01*
X131599999Y-72689285D01*
X131599999Y-71403571D01*
X130242857Y-72832142D02*
X130385714Y-72903571D01*
X130671428Y-72903571D01*
X130814285Y-72832142D01*
X130885714Y-72689285D01*
X130885714Y-72117857D01*
X130814285Y-71975000D01*
X130671428Y-71903571D01*
X130385714Y-71903571D01*
X130242857Y-71975000D01*
X130171428Y-72117857D01*
X130171428Y-72260714D01*
X130885714Y-72403571D01*
X128385714Y-72903571D02*
X128385714Y-71403571D01*
X127885714Y-72475000D01*
X127385714Y-71403571D01*
X127385714Y-72903571D01*
X126028571Y-71903571D02*
X126028571Y-72903571D01*
X126671428Y-71903571D02*
X126671428Y-72689285D01*
X126599999Y-72832142D01*
X126457142Y-72903571D01*
X126242857Y-72903571D01*
X126099999Y-72832142D01*
X126028571Y-72760714D01*
X125100000Y-72903571D02*
X125242857Y-72832142D01*
X125314285Y-72689285D01*
X125314285Y-71403571D01*
X124742857Y-71903571D02*
X124171428Y-71903571D01*
X124528571Y-71403571D02*
X124528571Y-72689285D01*
X124457142Y-72832142D01*
X124314285Y-72903571D01*
X124171428Y-72903571D01*
X123671428Y-72903571D02*
X123671428Y-71903571D01*
X123671428Y-71403571D02*
X123742857Y-71475000D01*
X123671428Y-71546428D01*
X123600000Y-71475000D01*
X123671428Y-71403571D01*
X123671428Y-71546428D01*
X123100000Y-71903571D02*
X122742857Y-72903571D01*
X122385714Y-71903571D01*
X121814285Y-72903571D02*
X121814285Y-71903571D01*
X121814285Y-71403571D02*
X121885714Y-71475000D01*
X121814285Y-71546428D01*
X121742857Y-71475000D01*
X121814285Y-71403571D01*
X121814285Y-71546428D01*
X121100000Y-72903571D02*
X121100000Y-71403571D01*
X121100000Y-71975000D02*
X120957142Y-71903571D01*
X120671428Y-71903571D01*
X120528571Y-71975000D01*
X120457142Y-72046428D01*
X120385714Y-72189285D01*
X120385714Y-72617857D01*
X120457142Y-72760714D01*
X120528571Y-72832142D01*
X120671428Y-72903571D01*
X120957142Y-72903571D01*
X121100000Y-72832142D01*
X119742857Y-72903571D02*
X119742857Y-71903571D01*
X119742857Y-72189285D02*
X119671428Y-72046428D01*
X119600000Y-71975000D01*
X119457142Y-71903571D01*
X119314285Y-71903571D01*
X118171428Y-72903571D02*
X118171428Y-72117857D01*
X118242857Y-71975000D01*
X118385714Y-71903571D01*
X118671428Y-71903571D01*
X118814285Y-71975000D01*
X118171428Y-72832142D02*
X118314285Y-72903571D01*
X118671428Y-72903571D01*
X118814285Y-72832142D01*
X118885714Y-72689285D01*
X118885714Y-72546428D01*
X118814285Y-72403571D01*
X118671428Y-72332142D01*
X118314285Y-72332142D01*
X118171428Y-72260714D01*
X117671428Y-71903571D02*
X117099999Y-71903571D01*
X117457142Y-71403571D02*
X117457142Y-72689285D01*
X117385714Y-72832142D01*
X117242857Y-72903571D01*
X117099999Y-72903571D01*
X116385714Y-72903571D02*
X116528571Y-72832142D01*
X116599999Y-72760714D01*
X116671428Y-72617857D01*
X116671428Y-72189285D01*
X116599999Y-72046428D01*
X116528571Y-71975000D01*
X116385714Y-71903571D01*
X116171428Y-71903571D01*
X116028571Y-71975000D01*
X115957142Y-72046428D01*
X115885714Y-72189285D01*
X115885714Y-72617857D01*
X115957142Y-72760714D01*
X116028571Y-72832142D01*
X116171428Y-72903571D01*
X116385714Y-72903571D01*
X115242857Y-72903571D02*
X115242857Y-71903571D01*
X115242857Y-72189285D02*
X115171428Y-72046428D01*
X115099999Y-71975000D01*
X114957142Y-71903571D01*
X114814285Y-71903571D01*
X131564285Y-75453571D02*
X132278571Y-75453571D01*
X132278571Y-73953571D01*
X131064285Y-74667857D02*
X130564285Y-74667857D01*
X130350000Y-75453571D02*
X131064285Y-75453571D01*
X131064285Y-73953571D01*
X130350000Y-73953571D01*
X129707142Y-75453571D02*
X129707142Y-73953571D01*
X129350000Y-73953571D01*
X129135714Y-74025000D01*
X128992857Y-74167857D01*
X128921428Y-74310714D01*
X128850000Y-74596428D01*
X128850000Y-74810714D01*
X128921428Y-75096428D01*
X128992857Y-75239285D01*
X129135714Y-75382142D01*
X129350000Y-75453571D01*
X129707142Y-75453571D01*
X126207142Y-75310714D02*
X126278571Y-75382142D01*
X126492857Y-75453571D01*
X126635714Y-75453571D01*
X126850000Y-75382142D01*
X126992857Y-75239285D01*
X127064285Y-75096428D01*
X127135714Y-74810714D01*
X127135714Y-74596428D01*
X127064285Y-74310714D01*
X126992857Y-74167857D01*
X126850000Y-74025000D01*
X126635714Y-73953571D01*
X126492857Y-73953571D01*
X126278571Y-74025000D01*
X126207142Y-74096428D01*
X125564285Y-75453571D02*
X125564285Y-74453571D01*
X125564285Y-73953571D02*
X125635714Y-74025000D01*
X125564285Y-74096428D01*
X125492857Y-74025000D01*
X125564285Y-73953571D01*
X125564285Y-74096428D01*
X124850000Y-75453571D02*
X124850000Y-74453571D01*
X124850000Y-74739285D02*
X124778571Y-74596428D01*
X124707142Y-74525000D01*
X124564285Y-74453571D01*
X124421428Y-74453571D01*
X123278571Y-75382142D02*
X123421428Y-75453571D01*
X123707142Y-75453571D01*
X123850000Y-75382142D01*
X123921428Y-75310714D01*
X123992857Y-75167857D01*
X123992857Y-74739285D01*
X123921428Y-74596428D01*
X123850000Y-74525000D01*
X123707142Y-74453571D01*
X123421428Y-74453571D01*
X123278571Y-74525000D01*
X121992857Y-74453571D02*
X121992857Y-75453571D01*
X122635714Y-74453571D02*
X122635714Y-75239285D01*
X122564285Y-75382142D01*
X122421428Y-75453571D01*
X122207142Y-75453571D01*
X122064285Y-75382142D01*
X121992857Y-75310714D01*
X121278571Y-75453571D02*
X121278571Y-74453571D01*
X121278571Y-73953571D02*
X121350000Y-74025000D01*
X121278571Y-74096428D01*
X121207142Y-74025000D01*
X121278571Y-73953571D01*
X121278571Y-74096428D01*
X120778571Y-74453571D02*
X120207142Y-74453571D01*
X120564285Y-73953571D02*
X120564285Y-75239285D01*
X120492857Y-75382142D01*
X120350000Y-75453571D01*
X120207142Y-75453571D01*
D11*
G04 #@! TO.C,BT1*
X128900000Y-90650000D02*
X123900000Y-90650000D01*
X123350000Y-90100000D02*
G75*
G03X123900000Y-90650000I550000J0D01*
G01*
X129450000Y-90100000D02*
G75*
G02X128900000Y-90650000I-550000J0D01*
G01*
X123350000Y-90100000D02*
X123350000Y-87650000D01*
X129450000Y-87650000D02*
X129450000Y-90100000D01*
X129943485Y-86945231D02*
G75*
G03X129450000Y-87650000I256515J-704769D01*
G01*
X122856515Y-86945231D02*
G75*
G02X123350000Y-87650000I-256515J-704769D01*
G01*
X126384769Y-59400262D02*
G75*
G02X129920000Y-86950000I15231J-13999738D01*
G01*
X126415231Y-59400262D02*
G75*
G03X122880000Y-86950000I-15231J-13999738D01*
G01*
G04 #@! TO.C,R1*
X146500000Y-55820000D02*
X146500000Y-56710000D01*
X146500000Y-64020000D02*
X146500000Y-63130000D01*
X147810000Y-56710000D02*
X147810000Y-63130000D01*
X145190000Y-56710000D02*
X147810000Y-56710000D01*
X145190000Y-63130000D02*
X145190000Y-56710000D01*
X147810000Y-63130000D02*
X145190000Y-63130000D01*
G04 #@! TO.C,R2*
X142000000Y-55820000D02*
X142000000Y-56710000D01*
X142000000Y-64020000D02*
X142000000Y-63130000D01*
X143310000Y-56710000D02*
X143310000Y-63130000D01*
X140690000Y-56710000D02*
X143310000Y-56710000D01*
X140690000Y-63130000D02*
X140690000Y-56710000D01*
X143310000Y-63130000D02*
X140690000Y-63130000D01*
G04 #@! TO.C,R3*
X111810000Y-63130000D02*
X109190000Y-63130000D01*
X109190000Y-63130000D02*
X109190000Y-56710000D01*
X109190000Y-56710000D02*
X111810000Y-56710000D01*
X111810000Y-56710000D02*
X111810000Y-63130000D01*
X110500000Y-64020000D02*
X110500000Y-63130000D01*
X110500000Y-55820000D02*
X110500000Y-56710000D01*
G04 #@! TO.C,R4*
X107310000Y-63130000D02*
X104690000Y-63130000D01*
X104690000Y-63130000D02*
X104690000Y-56710000D01*
X104690000Y-56710000D02*
X107310000Y-56710000D01*
X107310000Y-56710000D02*
X107310000Y-63130000D01*
X106000000Y-64020000D02*
X106000000Y-63130000D01*
X106000000Y-55820000D02*
X106000000Y-56710000D01*
G04 #@! TO.C,C1*
X139150000Y-50650000D02*
X139150000Y-49350000D01*
X138550000Y-50000000D02*
X139750000Y-50000000D01*
X144311000Y-50354000D02*
X144311000Y-49646000D01*
X144271000Y-50559000D02*
X144271000Y-49441000D01*
X144231000Y-50707000D02*
X144231000Y-49293000D01*
X144191000Y-50829000D02*
X144191000Y-49171000D01*
X144151000Y-50934000D02*
X144151000Y-49066000D01*
X144111000Y-51028000D02*
X144111000Y-48972000D01*
X144071000Y-51112000D02*
X144071000Y-48888000D01*
X144031000Y-51189000D02*
X144031000Y-48811000D01*
X143991000Y-51261000D02*
X143991000Y-48739000D01*
X143951000Y-51327000D02*
X143951000Y-48673000D01*
X143911000Y-51390000D02*
X143911000Y-48610000D01*
X143871000Y-51448000D02*
X143871000Y-48552000D01*
X143831000Y-51504000D02*
X143831000Y-48496000D01*
X143791000Y-51556000D02*
X143791000Y-48444000D01*
X143751000Y-51606000D02*
X143751000Y-48394000D01*
X143711000Y-49020000D02*
X143711000Y-48346000D01*
X143711000Y-51654000D02*
X143711000Y-50980000D01*
X143671000Y-49020000D02*
X143671000Y-48301000D01*
X143671000Y-51699000D02*
X143671000Y-50980000D01*
X143631000Y-49020000D02*
X143631000Y-48258000D01*
X143631000Y-51742000D02*
X143631000Y-50980000D01*
X143591000Y-49020000D02*
X143591000Y-48217000D01*
X143591000Y-51783000D02*
X143591000Y-50980000D01*
X143551000Y-49020000D02*
X143551000Y-48177000D01*
X143551000Y-51823000D02*
X143551000Y-50980000D01*
X143511000Y-49020000D02*
X143511000Y-48139000D01*
X143511000Y-51861000D02*
X143511000Y-50980000D01*
X143471000Y-49020000D02*
X143471000Y-48103000D01*
X143471000Y-51897000D02*
X143471000Y-50980000D01*
X143431000Y-49020000D02*
X143431000Y-48068000D01*
X143431000Y-51932000D02*
X143431000Y-50980000D01*
X143391000Y-49020000D02*
X143391000Y-48035000D01*
X143391000Y-51965000D02*
X143391000Y-50980000D01*
X143351000Y-49020000D02*
X143351000Y-48003000D01*
X143351000Y-51997000D02*
X143351000Y-50980000D01*
X143311000Y-49020000D02*
X143311000Y-47972000D01*
X143311000Y-52028000D02*
X143311000Y-50980000D01*
X143271000Y-49020000D02*
X143271000Y-47942000D01*
X143271000Y-52058000D02*
X143271000Y-50980000D01*
X143231000Y-49020000D02*
X143231000Y-47914000D01*
X143231000Y-52086000D02*
X143231000Y-50980000D01*
X143191000Y-49020000D02*
X143191000Y-47887000D01*
X143191000Y-52113000D02*
X143191000Y-50980000D01*
X143151000Y-49020000D02*
X143151000Y-47860000D01*
X143151000Y-52140000D02*
X143151000Y-50980000D01*
X143111000Y-49020000D02*
X143111000Y-47835000D01*
X143111000Y-52165000D02*
X143111000Y-50980000D01*
X143071000Y-49020000D02*
X143071000Y-47811000D01*
X143071000Y-52189000D02*
X143071000Y-50980000D01*
X143031000Y-49020000D02*
X143031000Y-47788000D01*
X143031000Y-52212000D02*
X143031000Y-50980000D01*
X142991000Y-49020000D02*
X142991000Y-47766000D01*
X142991000Y-52234000D02*
X142991000Y-50980000D01*
X142951000Y-49020000D02*
X142951000Y-47744000D01*
X142951000Y-52256000D02*
X142951000Y-50980000D01*
X142911000Y-49020000D02*
X142911000Y-47724000D01*
X142911000Y-52276000D02*
X142911000Y-50980000D01*
X142871000Y-49020000D02*
X142871000Y-47704000D01*
X142871000Y-52296000D02*
X142871000Y-50980000D01*
X142831000Y-49020000D02*
X142831000Y-47685000D01*
X142831000Y-52315000D02*
X142831000Y-50980000D01*
X142791000Y-49020000D02*
X142791000Y-47667000D01*
X142791000Y-52333000D02*
X142791000Y-50980000D01*
X142751000Y-49020000D02*
X142751000Y-47650000D01*
X142751000Y-52350000D02*
X142751000Y-50980000D01*
X142711000Y-49020000D02*
X142711000Y-47634000D01*
X142711000Y-52366000D02*
X142711000Y-50980000D01*
X142671000Y-49020000D02*
X142671000Y-47618000D01*
X142671000Y-52382000D02*
X142671000Y-50980000D01*
X142631000Y-49020000D02*
X142631000Y-47604000D01*
X142631000Y-52396000D02*
X142631000Y-50980000D01*
X142591000Y-49020000D02*
X142591000Y-47590000D01*
X142591000Y-52410000D02*
X142591000Y-50980000D01*
X142551000Y-49020000D02*
X142551000Y-47576000D01*
X142551000Y-52424000D02*
X142551000Y-50980000D01*
X142511000Y-49020000D02*
X142511000Y-47564000D01*
X142511000Y-52436000D02*
X142511000Y-50980000D01*
X142471000Y-49020000D02*
X142471000Y-47552000D01*
X142471000Y-52448000D02*
X142471000Y-50980000D01*
X142430000Y-49020000D02*
X142430000Y-47540000D01*
X142430000Y-52460000D02*
X142430000Y-50980000D01*
X142390000Y-49020000D02*
X142390000Y-47530000D01*
X142390000Y-52470000D02*
X142390000Y-50980000D01*
X142350000Y-49020000D02*
X142350000Y-47520000D01*
X142350000Y-52480000D02*
X142350000Y-50980000D01*
X142310000Y-49020000D02*
X142310000Y-47511000D01*
X142310000Y-52489000D02*
X142310000Y-50980000D01*
X142270000Y-49020000D02*
X142270000Y-47502000D01*
X142270000Y-52498000D02*
X142270000Y-50980000D01*
X142230000Y-49020000D02*
X142230000Y-47494000D01*
X142230000Y-52506000D02*
X142230000Y-50980000D01*
X142190000Y-49020000D02*
X142190000Y-47487000D01*
X142190000Y-52513000D02*
X142190000Y-50980000D01*
X142150000Y-49020000D02*
X142150000Y-47481000D01*
X142150000Y-52519000D02*
X142150000Y-50980000D01*
X142110000Y-49020000D02*
X142110000Y-47475000D01*
X142110000Y-52525000D02*
X142110000Y-50980000D01*
X142070000Y-49020000D02*
X142070000Y-47469000D01*
X142070000Y-52531000D02*
X142070000Y-50980000D01*
X142030000Y-49020000D02*
X142030000Y-47465000D01*
X142030000Y-52535000D02*
X142030000Y-50980000D01*
X141990000Y-49020000D02*
X141990000Y-47461000D01*
X141990000Y-52539000D02*
X141990000Y-50980000D01*
X141950000Y-49020000D02*
X141950000Y-47457000D01*
X141950000Y-52543000D02*
X141950000Y-50980000D01*
X141910000Y-49020000D02*
X141910000Y-47454000D01*
X141910000Y-52546000D02*
X141910000Y-50980000D01*
X141870000Y-49020000D02*
X141870000Y-47452000D01*
X141870000Y-52548000D02*
X141870000Y-50980000D01*
X141830000Y-49020000D02*
X141830000Y-47451000D01*
X141830000Y-52549000D02*
X141830000Y-50980000D01*
X141790000Y-49020000D02*
X141790000Y-47450000D01*
X141790000Y-52550000D02*
X141790000Y-50980000D01*
X141750000Y-52550000D02*
X141750000Y-47450000D01*
X144055722Y-48820277D02*
G75*
G02X144055580Y-51180000I-2305722J-1179723D01*
G01*
X144055722Y-48820277D02*
G75*
G03X139444420Y-48820000I-2305722J-1179723D01*
G01*
X144055722Y-51179723D02*
G75*
G02X139444420Y-51180000I-2305722J1179723D01*
G01*
G04 #@! TO.C,C2*
X108444278Y-48820277D02*
G75*
G02X113055580Y-48820000I2305722J-1179723D01*
G01*
X108444278Y-51179723D02*
G75*
G03X113055580Y-51180000I2305722J1179723D01*
G01*
X108444278Y-51179723D02*
G75*
G02X108444420Y-48820000I2305722J1179723D01*
G01*
X110750000Y-47450000D02*
X110750000Y-52550000D01*
X110710000Y-47450000D02*
X110710000Y-49020000D01*
X110710000Y-50980000D02*
X110710000Y-52550000D01*
X110670000Y-47451000D02*
X110670000Y-49020000D01*
X110670000Y-50980000D02*
X110670000Y-52549000D01*
X110630000Y-47452000D02*
X110630000Y-49020000D01*
X110630000Y-50980000D02*
X110630000Y-52548000D01*
X110590000Y-47454000D02*
X110590000Y-49020000D01*
X110590000Y-50980000D02*
X110590000Y-52546000D01*
X110550000Y-47457000D02*
X110550000Y-49020000D01*
X110550000Y-50980000D02*
X110550000Y-52543000D01*
X110510000Y-47461000D02*
X110510000Y-49020000D01*
X110510000Y-50980000D02*
X110510000Y-52539000D01*
X110470000Y-47465000D02*
X110470000Y-49020000D01*
X110470000Y-50980000D02*
X110470000Y-52535000D01*
X110430000Y-47469000D02*
X110430000Y-49020000D01*
X110430000Y-50980000D02*
X110430000Y-52531000D01*
X110390000Y-47475000D02*
X110390000Y-49020000D01*
X110390000Y-50980000D02*
X110390000Y-52525000D01*
X110350000Y-47481000D02*
X110350000Y-49020000D01*
X110350000Y-50980000D02*
X110350000Y-52519000D01*
X110310000Y-47487000D02*
X110310000Y-49020000D01*
X110310000Y-50980000D02*
X110310000Y-52513000D01*
X110270000Y-47494000D02*
X110270000Y-49020000D01*
X110270000Y-50980000D02*
X110270000Y-52506000D01*
X110230000Y-47502000D02*
X110230000Y-49020000D01*
X110230000Y-50980000D02*
X110230000Y-52498000D01*
X110190000Y-47511000D02*
X110190000Y-49020000D01*
X110190000Y-50980000D02*
X110190000Y-52489000D01*
X110150000Y-47520000D02*
X110150000Y-49020000D01*
X110150000Y-50980000D02*
X110150000Y-52480000D01*
X110110000Y-47530000D02*
X110110000Y-49020000D01*
X110110000Y-50980000D02*
X110110000Y-52470000D01*
X110070000Y-47540000D02*
X110070000Y-49020000D01*
X110070000Y-50980000D02*
X110070000Y-52460000D01*
X110029000Y-47552000D02*
X110029000Y-49020000D01*
X110029000Y-50980000D02*
X110029000Y-52448000D01*
X109989000Y-47564000D02*
X109989000Y-49020000D01*
X109989000Y-50980000D02*
X109989000Y-52436000D01*
X109949000Y-47576000D02*
X109949000Y-49020000D01*
X109949000Y-50980000D02*
X109949000Y-52424000D01*
X109909000Y-47590000D02*
X109909000Y-49020000D01*
X109909000Y-50980000D02*
X109909000Y-52410000D01*
X109869000Y-47604000D02*
X109869000Y-49020000D01*
X109869000Y-50980000D02*
X109869000Y-52396000D01*
X109829000Y-47618000D02*
X109829000Y-49020000D01*
X109829000Y-50980000D02*
X109829000Y-52382000D01*
X109789000Y-47634000D02*
X109789000Y-49020000D01*
X109789000Y-50980000D02*
X109789000Y-52366000D01*
X109749000Y-47650000D02*
X109749000Y-49020000D01*
X109749000Y-50980000D02*
X109749000Y-52350000D01*
X109709000Y-47667000D02*
X109709000Y-49020000D01*
X109709000Y-50980000D02*
X109709000Y-52333000D01*
X109669000Y-47685000D02*
X109669000Y-49020000D01*
X109669000Y-50980000D02*
X109669000Y-52315000D01*
X109629000Y-47704000D02*
X109629000Y-49020000D01*
X109629000Y-50980000D02*
X109629000Y-52296000D01*
X109589000Y-47724000D02*
X109589000Y-49020000D01*
X109589000Y-50980000D02*
X109589000Y-52276000D01*
X109549000Y-47744000D02*
X109549000Y-49020000D01*
X109549000Y-50980000D02*
X109549000Y-52256000D01*
X109509000Y-47766000D02*
X109509000Y-49020000D01*
X109509000Y-50980000D02*
X109509000Y-52234000D01*
X109469000Y-47788000D02*
X109469000Y-49020000D01*
X109469000Y-50980000D02*
X109469000Y-52212000D01*
X109429000Y-47811000D02*
X109429000Y-49020000D01*
X109429000Y-50980000D02*
X109429000Y-52189000D01*
X109389000Y-47835000D02*
X109389000Y-49020000D01*
X109389000Y-50980000D02*
X109389000Y-52165000D01*
X109349000Y-47860000D02*
X109349000Y-49020000D01*
X109349000Y-50980000D02*
X109349000Y-52140000D01*
X109309000Y-47887000D02*
X109309000Y-49020000D01*
X109309000Y-50980000D02*
X109309000Y-52113000D01*
X109269000Y-47914000D02*
X109269000Y-49020000D01*
X109269000Y-50980000D02*
X109269000Y-52086000D01*
X109229000Y-47942000D02*
X109229000Y-49020000D01*
X109229000Y-50980000D02*
X109229000Y-52058000D01*
X109189000Y-47972000D02*
X109189000Y-49020000D01*
X109189000Y-50980000D02*
X109189000Y-52028000D01*
X109149000Y-48003000D02*
X109149000Y-49020000D01*
X109149000Y-50980000D02*
X109149000Y-51997000D01*
X109109000Y-48035000D02*
X109109000Y-49020000D01*
X109109000Y-50980000D02*
X109109000Y-51965000D01*
X109069000Y-48068000D02*
X109069000Y-49020000D01*
X109069000Y-50980000D02*
X109069000Y-51932000D01*
X109029000Y-48103000D02*
X109029000Y-49020000D01*
X109029000Y-50980000D02*
X109029000Y-51897000D01*
X108989000Y-48139000D02*
X108989000Y-49020000D01*
X108989000Y-50980000D02*
X108989000Y-51861000D01*
X108949000Y-48177000D02*
X108949000Y-49020000D01*
X108949000Y-50980000D02*
X108949000Y-51823000D01*
X108909000Y-48217000D02*
X108909000Y-49020000D01*
X108909000Y-50980000D02*
X108909000Y-51783000D01*
X108869000Y-48258000D02*
X108869000Y-49020000D01*
X108869000Y-50980000D02*
X108869000Y-51742000D01*
X108829000Y-48301000D02*
X108829000Y-49020000D01*
X108829000Y-50980000D02*
X108829000Y-51699000D01*
X108789000Y-48346000D02*
X108789000Y-49020000D01*
X108789000Y-50980000D02*
X108789000Y-51654000D01*
X108749000Y-48394000D02*
X108749000Y-51606000D01*
X108709000Y-48444000D02*
X108709000Y-51556000D01*
X108669000Y-48496000D02*
X108669000Y-51504000D01*
X108629000Y-48552000D02*
X108629000Y-51448000D01*
X108589000Y-48610000D02*
X108589000Y-51390000D01*
X108549000Y-48673000D02*
X108549000Y-51327000D01*
X108509000Y-48739000D02*
X108509000Y-51261000D01*
X108469000Y-48811000D02*
X108469000Y-51189000D01*
X108429000Y-48888000D02*
X108429000Y-51112000D01*
X108389000Y-48972000D02*
X108389000Y-51028000D01*
X108349000Y-49066000D02*
X108349000Y-50934000D01*
X108309000Y-49171000D02*
X108309000Y-50829000D01*
X108269000Y-49293000D02*
X108269000Y-50707000D01*
X108229000Y-49441000D02*
X108229000Y-50559000D01*
X108189000Y-49646000D02*
X108189000Y-50354000D01*
X113950000Y-50000000D02*
X112750000Y-50000000D01*
X113350000Y-49350000D02*
X113350000Y-50650000D01*
D12*
G04 #@! TO.C,SW1*
X103950000Y-35000000D02*
X103950000Y-32700000D01*
X103950000Y-41300000D02*
X103950000Y-39100000D01*
X108550000Y-41300000D02*
X108550000Y-32700000D01*
G04 #@! TO.C,BT1*
X130828571Y-89064285D02*
X130876190Y-89207142D01*
X130923809Y-89254761D01*
X131019047Y-89302380D01*
X131161904Y-89302380D01*
X131257142Y-89254761D01*
X131304761Y-89207142D01*
X131352380Y-89111904D01*
X131352380Y-88730952D01*
X130352380Y-88730952D01*
X130352380Y-89064285D01*
X130400000Y-89159523D01*
X130447619Y-89207142D01*
X130542857Y-89254761D01*
X130638095Y-89254761D01*
X130733333Y-89207142D01*
X130780952Y-89159523D01*
X130828571Y-89064285D01*
X130828571Y-88730952D01*
X130352380Y-89588095D02*
X130352380Y-90159523D01*
X131352380Y-89873809D02*
X130352380Y-89873809D01*
X131352380Y-91016666D02*
X131352380Y-90445238D01*
X131352380Y-90730952D02*
X130352380Y-90730952D01*
X130495238Y-90635714D01*
X130590476Y-90540476D01*
X130638095Y-90445238D01*
X126971428Y-85957142D02*
X125828571Y-85957142D01*
X126400000Y-86528571D02*
X126400000Y-85385714D01*
G04 #@! TO.C,R1*
X149262380Y-59753333D02*
X148786190Y-59420000D01*
X149262380Y-59181904D02*
X148262380Y-59181904D01*
X148262380Y-59562857D01*
X148310000Y-59658095D01*
X148357619Y-59705714D01*
X148452857Y-59753333D01*
X148595714Y-59753333D01*
X148690952Y-59705714D01*
X148738571Y-59658095D01*
X148786190Y-59562857D01*
X148786190Y-59181904D01*
X149262380Y-60705714D02*
X149262380Y-60134285D01*
X149262380Y-60420000D02*
X148262380Y-60420000D01*
X148405238Y-60324761D01*
X148500476Y-60229523D01*
X148548095Y-60134285D01*
X146952380Y-59880952D02*
X146952380Y-59309523D01*
X146952380Y-59595238D02*
X145952380Y-59595238D01*
X146095238Y-59500000D01*
X146190476Y-59404761D01*
X146238095Y-59309523D01*
X146952380Y-60309523D02*
X145952380Y-60309523D01*
X146571428Y-60404761D02*
X146952380Y-60690476D01*
X146285714Y-60690476D02*
X146666666Y-60309523D01*
G04 #@! TO.C,R2*
X144762380Y-59753333D02*
X144286190Y-59420000D01*
X144762380Y-59181904D02*
X143762380Y-59181904D01*
X143762380Y-59562857D01*
X143810000Y-59658095D01*
X143857619Y-59705714D01*
X143952857Y-59753333D01*
X144095714Y-59753333D01*
X144190952Y-59705714D01*
X144238571Y-59658095D01*
X144286190Y-59562857D01*
X144286190Y-59181904D01*
X143857619Y-60134285D02*
X143810000Y-60181904D01*
X143762380Y-60277142D01*
X143762380Y-60515238D01*
X143810000Y-60610476D01*
X143857619Y-60658095D01*
X143952857Y-60705714D01*
X144048095Y-60705714D01*
X144190952Y-60658095D01*
X144762380Y-60086666D01*
X144762380Y-60705714D01*
X141452380Y-59833333D02*
X141452380Y-59357142D01*
X141928571Y-59309523D01*
X141880952Y-59357142D01*
X141833333Y-59452380D01*
X141833333Y-59690476D01*
X141880952Y-59785714D01*
X141928571Y-59833333D01*
X142023809Y-59880952D01*
X142261904Y-59880952D01*
X142357142Y-59833333D01*
X142404761Y-59785714D01*
X142452380Y-59690476D01*
X142452380Y-59452380D01*
X142404761Y-59357142D01*
X142357142Y-59309523D01*
X142452380Y-60309523D02*
X141452380Y-60309523D01*
X142071428Y-60404761D02*
X142452380Y-60690476D01*
X141785714Y-60690476D02*
X142166666Y-60309523D01*
G04 #@! TO.C,R3*
X113262380Y-59753333D02*
X112786190Y-59420000D01*
X113262380Y-59181904D02*
X112262380Y-59181904D01*
X112262380Y-59562857D01*
X112310000Y-59658095D01*
X112357619Y-59705714D01*
X112452857Y-59753333D01*
X112595714Y-59753333D01*
X112690952Y-59705714D01*
X112738571Y-59658095D01*
X112786190Y-59562857D01*
X112786190Y-59181904D01*
X112262380Y-60086666D02*
X112262380Y-60705714D01*
X112643333Y-60372380D01*
X112643333Y-60515238D01*
X112690952Y-60610476D01*
X112738571Y-60658095D01*
X112833809Y-60705714D01*
X113071904Y-60705714D01*
X113167142Y-60658095D01*
X113214761Y-60610476D01*
X113262380Y-60515238D01*
X113262380Y-60229523D01*
X113214761Y-60134285D01*
X113167142Y-60086666D01*
X109952380Y-59833333D02*
X109952380Y-59357142D01*
X110428571Y-59309523D01*
X110380952Y-59357142D01*
X110333333Y-59452380D01*
X110333333Y-59690476D01*
X110380952Y-59785714D01*
X110428571Y-59833333D01*
X110523809Y-59880952D01*
X110761904Y-59880952D01*
X110857142Y-59833333D01*
X110904761Y-59785714D01*
X110952380Y-59690476D01*
X110952380Y-59452380D01*
X110904761Y-59357142D01*
X110857142Y-59309523D01*
X110952380Y-60309523D02*
X109952380Y-60309523D01*
X110571428Y-60404761D02*
X110952380Y-60690476D01*
X110285714Y-60690476D02*
X110666666Y-60309523D01*
G04 #@! TO.C,R4*
X108762380Y-59753333D02*
X108286190Y-59420000D01*
X108762380Y-59181904D02*
X107762380Y-59181904D01*
X107762380Y-59562857D01*
X107810000Y-59658095D01*
X107857619Y-59705714D01*
X107952857Y-59753333D01*
X108095714Y-59753333D01*
X108190952Y-59705714D01*
X108238571Y-59658095D01*
X108286190Y-59562857D01*
X108286190Y-59181904D01*
X108095714Y-60610476D02*
X108762380Y-60610476D01*
X107714761Y-60372380D02*
X108429047Y-60134285D01*
X108429047Y-60753333D01*
X106452380Y-59880952D02*
X106452380Y-59309523D01*
X106452380Y-59595238D02*
X105452380Y-59595238D01*
X105595238Y-59500000D01*
X105690476Y-59404761D01*
X105738095Y-59309523D01*
X106452380Y-60309523D02*
X105452380Y-60309523D01*
X106071428Y-60404761D02*
X106452380Y-60690476D01*
X105785714Y-60690476D02*
X106166666Y-60309523D01*
G04 #@! TO.C,C1*
X141916666Y-46607142D02*
X141964285Y-46654761D01*
X142107142Y-46702380D01*
X142202380Y-46702380D01*
X142345238Y-46654761D01*
X142440476Y-46559523D01*
X142488095Y-46464285D01*
X142535714Y-46273809D01*
X142535714Y-46130952D01*
X142488095Y-45940476D01*
X142440476Y-45845238D01*
X142345238Y-45750000D01*
X142202380Y-45702380D01*
X142107142Y-45702380D01*
X141964285Y-45750000D01*
X141916666Y-45797619D01*
X140964285Y-46702380D02*
X141535714Y-46702380D01*
X141250000Y-46702380D02*
X141250000Y-45702380D01*
X141345238Y-45845238D01*
X141440476Y-45940476D01*
X141535714Y-45988095D01*
G04 #@! TO.C,C2*
X110916666Y-46607142D02*
X110964285Y-46654761D01*
X111107142Y-46702380D01*
X111202380Y-46702380D01*
X111345238Y-46654761D01*
X111440476Y-46559523D01*
X111488095Y-46464285D01*
X111535714Y-46273809D01*
X111535714Y-46130952D01*
X111488095Y-45940476D01*
X111440476Y-45845238D01*
X111345238Y-45750000D01*
X111202380Y-45702380D01*
X111107142Y-45702380D01*
X110964285Y-45750000D01*
X110916666Y-45797619D01*
X110535714Y-45797619D02*
X110488095Y-45750000D01*
X110392857Y-45702380D01*
X110154761Y-45702380D01*
X110059523Y-45750000D01*
X110011904Y-45797619D01*
X109964285Y-45892857D01*
X109964285Y-45988095D01*
X110011904Y-46130952D01*
X110583333Y-46702380D01*
X109964285Y-46702380D01*
G04 #@! TO.C,Solder Pin Here*
X132083333Y-41154761D02*
X131940476Y-41202380D01*
X131702380Y-41202380D01*
X131607142Y-41154761D01*
X131559523Y-41107142D01*
X131511904Y-41011904D01*
X131511904Y-40916666D01*
X131559523Y-40821428D01*
X131607142Y-40773809D01*
X131702380Y-40726190D01*
X131892857Y-40678571D01*
X131988095Y-40630952D01*
X132035714Y-40583333D01*
X132083333Y-40488095D01*
X132083333Y-40392857D01*
X132035714Y-40297619D01*
X131988095Y-40250000D01*
X131892857Y-40202380D01*
X131654761Y-40202380D01*
X131511904Y-40250000D01*
X130940476Y-41202380D02*
X131035714Y-41154761D01*
X131083333Y-41107142D01*
X131130952Y-41011904D01*
X131130952Y-40726190D01*
X131083333Y-40630952D01*
X131035714Y-40583333D01*
X130940476Y-40535714D01*
X130797619Y-40535714D01*
X130702380Y-40583333D01*
X130654761Y-40630952D01*
X130607142Y-40726190D01*
X130607142Y-41011904D01*
X130654761Y-41107142D01*
X130702380Y-41154761D01*
X130797619Y-41202380D01*
X130940476Y-41202380D01*
X130035714Y-41202380D02*
X130130952Y-41154761D01*
X130178571Y-41059523D01*
X130178571Y-40202380D01*
X129226190Y-41202380D02*
X129226190Y-40202380D01*
X129226190Y-41154761D02*
X129321428Y-41202380D01*
X129511904Y-41202380D01*
X129607142Y-41154761D01*
X129654761Y-41107142D01*
X129702380Y-41011904D01*
X129702380Y-40726190D01*
X129654761Y-40630952D01*
X129607142Y-40583333D01*
X129511904Y-40535714D01*
X129321428Y-40535714D01*
X129226190Y-40583333D01*
X128369047Y-41154761D02*
X128464285Y-41202380D01*
X128654761Y-41202380D01*
X128750000Y-41154761D01*
X128797619Y-41059523D01*
X128797619Y-40678571D01*
X128750000Y-40583333D01*
X128654761Y-40535714D01*
X128464285Y-40535714D01*
X128369047Y-40583333D01*
X128321428Y-40678571D01*
X128321428Y-40773809D01*
X128797619Y-40869047D01*
X127892857Y-41202380D02*
X127892857Y-40535714D01*
X127892857Y-40726190D02*
X127845238Y-40630952D01*
X127797619Y-40583333D01*
X127702380Y-40535714D01*
X127607142Y-40535714D01*
X126511904Y-41202380D02*
X126511904Y-40202380D01*
X126130952Y-40202380D01*
X126035714Y-40250000D01*
X125988095Y-40297619D01*
X125940476Y-40392857D01*
X125940476Y-40535714D01*
X125988095Y-40630952D01*
X126035714Y-40678571D01*
X126130952Y-40726190D01*
X126511904Y-40726190D01*
X125511904Y-41202380D02*
X125511904Y-40535714D01*
X125511904Y-40202380D02*
X125559523Y-40250000D01*
X125511904Y-40297619D01*
X125464285Y-40250000D01*
X125511904Y-40202380D01*
X125511904Y-40297619D01*
X125035714Y-40535714D02*
X125035714Y-41202380D01*
X125035714Y-40630952D02*
X124988095Y-40583333D01*
X124892857Y-40535714D01*
X124750000Y-40535714D01*
X124654761Y-40583333D01*
X124607142Y-40678571D01*
X124607142Y-41202380D01*
X123369047Y-41202380D02*
X123369047Y-40202380D01*
X123369047Y-40678571D02*
X122797619Y-40678571D01*
X122797619Y-41202380D02*
X122797619Y-40202380D01*
X121940476Y-41154761D02*
X122035714Y-41202380D01*
X122226190Y-41202380D01*
X122321428Y-41154761D01*
X122369047Y-41059523D01*
X122369047Y-40678571D01*
X122321428Y-40583333D01*
X122226190Y-40535714D01*
X122035714Y-40535714D01*
X121940476Y-40583333D01*
X121892857Y-40678571D01*
X121892857Y-40773809D01*
X122369047Y-40869047D01*
X121464285Y-41202380D02*
X121464285Y-40535714D01*
X121464285Y-40726190D02*
X121416666Y-40630952D01*
X121369047Y-40583333D01*
X121273809Y-40535714D01*
X121178571Y-40535714D01*
X120464285Y-41154761D02*
X120559523Y-41202380D01*
X120750000Y-41202380D01*
X120845238Y-41154761D01*
X120892857Y-41059523D01*
X120892857Y-40678571D01*
X120845238Y-40583333D01*
X120750000Y-40535714D01*
X120559523Y-40535714D01*
X120464285Y-40583333D01*
X120416666Y-40678571D01*
X120416666Y-40773809D01*
X120892857Y-40869047D01*
G04 #@! TO.C,SW1*
X110254761Y-36266666D02*
X110302380Y-36409523D01*
X110302380Y-36647619D01*
X110254761Y-36742857D01*
X110207142Y-36790476D01*
X110111904Y-36838095D01*
X110016666Y-36838095D01*
X109921428Y-36790476D01*
X109873809Y-36742857D01*
X109826190Y-36647619D01*
X109778571Y-36457142D01*
X109730952Y-36361904D01*
X109683333Y-36314285D01*
X109588095Y-36266666D01*
X109492857Y-36266666D01*
X109397619Y-36314285D01*
X109350000Y-36361904D01*
X109302380Y-36457142D01*
X109302380Y-36695238D01*
X109350000Y-36838095D01*
X109302380Y-37171428D02*
X110302380Y-37409523D01*
X109588095Y-37600000D01*
X110302380Y-37790476D01*
X109302380Y-38028571D01*
X110302380Y-38933333D02*
X110302380Y-38361904D01*
X110302380Y-38647619D02*
X109302380Y-38647619D01*
X109445238Y-38552380D01*
X109540476Y-38457142D01*
X109588095Y-38361904D01*
G04 #@! TD*
M02*
