  0
SECTION
  2
HEADER
  9
$ACADVER
  1
AC1014
  9
$HANDSEED
  5
FFFF
  9
$MEASUREMENT
 70
     1
  0
ENDSEC
  0
SECTION
  2
TABLES
  0
TABLE
  2
VPORT
  5
8
330
0
100
AcDbSymbolTable
 70
     4
  0
VPORT
  5
2E
330
8
100
AcDbSymbolTableRecord
100
AcDbViewportTableRecord
  2
*ACTIVE
 70
     0
 10
0.0
 20
0.0
 11
1.0
 21
1.0
 12
210.0
 22
148.5
 13
0.0
 23
0.0
 14
10.0
 24
10.0
 15
10.0
 25
10.0
 16
0.0
 26
0.0
 36
1.0
 17
0.0
 27
0.0
 37
0.0
 40
341.0
 41
1.24
 42
50.0
 43
0.0
 44
0.0
 50
0.0
 51
0.0
 71
     0
 72
   100
 73
     1
 74
     3
 75
     0
 76
     0
 77
     0
 78
     0
  0
ENDTAB
  0
TABLE
  2
LTYPE
  5
5
330
0
100
AcDbSymbolTable
 70
     1
  0
LTYPE
  5
14
330
5
100
AcDbSymbolTableRecord
100
AcDbLinetypeTableRecord
  2
BYBLOCK
 70
     0
  3

 72
    65
 73
     0
 40
0.0
  0
LTYPE
  5
15
330
5
100
AcDbSymbolTableRecord
100
AcDbLinetypeTableRecord
  2
BYLAYER
 70
     0
  3

 72
    65
 73
     0
 40
0.0
  0
LTYPE
  5
16
330
5
100
AcDbSymbolTableRecord
100
AcDbLinetypeTableRecord
  2
CONTINUOUS
 70
     0
  3
Solid line
 72
    65
 73
     0
 40
0.0
  0
ENDTAB
  0
TABLE
  2
LAYER
  5
2
100
AcDbSymbolTable
 70
4
  0
LAYER
  5
50
100
AcDbSymbolTableRecord
100
AcDbLayerTableRecord
  2
0
 70
0
  6
CONTINUOUS
  0
LAYER
  5
51
100
AcDbSymbolTableRecord
100
AcDbLayerTableRecord
  2
Outline
 70
0
  6
CONTINUOUS
  0
LAYER
  5
52
100
AcDbSymbolTableRecord
100
AcDbLayerTableRecord
  2
Black
 70
0
  6
CONTINUOUS
  0
LAYER
  5
53
100
AcDbSymbolTableRecord
100
AcDbLayerTableRecord
  2
Silkscreen
 70
0
  6
CONTINUOUS
  0
ENDTAB
  0
TABLE
  2
STYLE
  5
3
330
0
100
AcDbSymbolTable
 70
     1
  0
STYLE
  5
11
330
3
100
AcDbSymbolTableRecord
100
AcDbTextStyleTableRecord
  2
STANDARD
 70
     0
 40
0.0
 41
1.0
 50
0.0
 71
     0
 42
2.5
  3
txt
  4

  0
ENDTAB
  0
TABLE
  2
VIEW
  5
6
330
0
100
AcDbSymbolTable
 70
     0
  0
ENDTAB
  0
TABLE
  2
UCS
  5
7
330
0
100
AcDbSymbolTable
 70
     0
  0
ENDTAB
  0
TABLE
  2
APPID
  5
9
330
0
100
AcDbSymbolTable
 70
     2
  0
APPID
  5
12
330
9
100
AcDbSymbolTableRecord
100
AcDbRegAppTableRecord
  2
ACAD
 70
     0
  0
ENDTAB
  0
TABLE
  2
DIMSTYLE
  5
A
330
0
100
AcDbSymbolTable
 70
     1
  0
DIMSTYLE
105
27
330
A
100
AcDbSymbolTableRecord
100
AcDbDimStyleTableRecord
  2
ISO-25
 70
     0
  3

  4

  5

  6

  7

 40
1.0
 41
2.5
 42
0.625
 43
3.75
 44
1.25
 45
0.0
 46
0.0
 47
0.0
 48
0.0
140
2.5
141
2.5
142
0.0
143
0.03937007874016
144
1.0
145
0.0
146
1.0
147
0.625
 71
     0
 72
     0
 73
     0
 74
     0
 75
     0
 76
     0
 77
     1
 78
     8
170
     0
171
     3
172
     1
173
     0
174
     0
175
     0
176
     0
177
     0
178
     0
270
     2
271
     2
272
     2
273
     2
274
     3
340
11
275
     0
280
     0
281
     0
282
     0
283
     0
284
     8
285
     0
286
     0
287
     3
288
     0
  0
ENDTAB
  0
TABLE
  2
BLOCK_RECORD
  5
1
330
0
100
AcDbSymbolTable
 70
     1
  0
BLOCK_RECORD
  5
1F
330
1
100
AcDbSymbolTableRecord
100
AcDbBlockTableRecord
  2
*MODEL_SPACE
  0
BLOCK_RECORD
  5
1B
330
1
100
AcDbSymbolTableRecord
100
AcDbBlockTableRecord
  2
*PAPER_SPACE
  0
ENDTAB
  0
ENDSEC
  0
SECTION
  2
BLOCKS
  0
BLOCK
  5
20
330
1F
100
AcDbEntity
  8
0
100
AcDbBlockBegin
  2
*MODEL_SPACE
 70
     0
 10
0.0
 20
0.0
 30
0.0
  3
*MODEL_SPACE
  1

  0
ENDBLK
  5
21
330
1F
100
AcDbEntity
  8
0
100
AcDbBlockEnd
  0
BLOCK
  5
1C
330
1B
100
AcDbEntity
 67
     1
  8
0
100
AcDbBlockBegin
  2
*PAPER_SPACE
  1

  0
ENDBLK
  5
1D
330
1B
100
AcDbEntity
 67
     1
  8
0
100
AcDbBlockEnd
  0
ENDSEC
  0
SECTION
  2
ENTITIES
  0
LWPOLYLINE
  5
100
100
AcDbEntity
  8
Silkscreen
 62
7
100
AcDbPolyline
 90
1568
 70
1
 10
75.425613
 20
175.249070
 30
0.0
 10
75.322405
 20
175.223870
 30
0.0
 10
75.200298
 20
175.174170
 30
0.0
 10
75.060128
 20
175.100670
 30
0.0
 10
74.902723
 20
175.004270
 30
0.0
 10
74.728915
 20
174.885750
 30
0.0
 10
74.539530
 20
174.745970
 30
0.0
 10
74.335402
 20
174.585790
 30
0.0
 10
74.117356
 20
174.406040
 30
0.0
 10
73.886225
 20
174.207570
 30
0.0
 10
73.642837
 20
173.991200
 30
0.0
 10
73.388022
 20
173.757790
 30
0.0
 10
73.122609
 20
173.508160
 30
0.0
 10
72.847428
 20
173.243160
 30
0.0
 10
72.563308
 20
172.963620
 30
0.0
 10
72.271080
 20
172.670400
 30
0.0
 10
71.971572
 20
172.364320
 30
0.0
 10
71.665615
 20
172.046220
 30
0.0
 10
71.354038
 20
171.716950
 30
0.0
 10
71.037669
 20
171.377350
 30
0.0
 10
70.717340
 20
171.028250
 30
0.0
 10
70.393879
 20
170.670480
 30
0.0
 10
70.068116
 20
170.304910
 30
0.0
 10
69.740881
 20
169.932360
 30
0.0
 10
69.413003
 20
169.553670
 30
0.0
 10
69.085312
 20
169.169670
 30
0.0
 10
68.758636
 20
168.781220
 30
0.0
 10
68.433807
 20
168.389140
 30
0.0
 10
68.111654
 20
167.994290
 30
0.0
 10
67.793005
 20
167.597480
 30
0.0
 10
67.478691
 20
167.199580
 30
0.0
 10
67.169541
 20
166.801410
 30
0.0
 10
66.866384
 20
166.403820
 30
0.0
 10
66.761384
 20
166.264790
 30
0.0
 10
66.656384
 20
166.125780
 30
0.0
 10
66.551385
 20
165.986750
 30
0.0
 10
66.446385
 20
165.847720
 30
0.0
 10
66.341385
 20
165.708710
 30
0.0
 10
66.236385
 20
165.569680
 30
0.0
 10
66.131386
 20
165.430650
 30
0.0
 10
66.026386
 20
165.291640
 30
0.0
 10
65.921386
 20
165.152610
 30
0.0
 10
65.816386
 20
165.013580
 30
0.0
 10
65.711386
 20
164.874570
 30
0.0
 10
65.606387
 20
164.735540
 30
0.0
 10
65.501387
 20
164.596510
 30
0.0
 10
65.396387
 20
164.457500
 30
0.0
 10
65.291387
 20
164.318470
 30
0.0
 10
65.186387
 20
164.179440
 30
0.0
 10
65.081388
 20
164.040430
 30
0.0
 10
64.976388
 20
163.901400
 30
0.0
 10
64.871388
 20
163.762370
 30
0.0
 10
64.766388
 20
163.623360
 30
0.0
 10
64.661388
 20
163.484330
 30
0.0
 10
64.556389
 20
163.345310
 30
0.0
 10
64.451389
 20
163.206290
 30
0.0
 10
64.346389
 20
163.067260
 30
0.0
 10
64.241389
 20
162.928240
 30
0.0
 10
64.136389
 20
162.789220
 30
0.0
 10
64.031390
 20
162.650190
 30
0.0
 10
63.926390
 20
162.511170
 30
0.0
 10
63.821390
 20
162.372150
 30
0.0
 10
63.716390
 20
162.233120
 30
0.0
 10
63.611391
 20
162.094100
 30
0.0
 10
63.506391
 20
161.955080
 30
0.0
 10
63.344772
 20
161.955080
 30
0.0
 10
63.183076
 20
161.955080
 30
0.0
 10
63.021380
 20
161.955080
 30
0.0
 10
62.859684
 20
161.955080
 30
0.0
 10
62.697989
 20
161.955080
 30
0.0
 10
62.536293
 20
161.955080
 30
0.0
 10
62.374598
 20
161.955080
 30
0.0
 10
62.212902
 20
161.955080
 30
0.0
 10
62.051207
 20
161.955080
 30
0.0
 10
61.889511
 20
161.955080
 30
0.0
 10
61.727815
 20
161.955080
 30
0.0
 10
61.566119
 20
161.955080
 30
0.0
 10
61.404424
 20
161.955080
 30
0.0
 10
61.242728
 20
161.955080
 30
0.0
 10
61.081033
 20
161.955080
 30
0.0
 10
60.919338
 20
161.955080
 30
0.0
 10
60.757642
 20
161.955080
 30
0.0
 10
60.595946
 20
161.955080
 30
0.0
 10
60.434250
 20
161.955080
 30
0.0
 10
60.272555
 20
161.955080
 30
0.0
 10
60.110859
 20
161.955080
 30
0.0
 10
59.949163
 20
161.955080
 30
0.0
 10
59.787468
 20
161.955080
 30
0.0
 10
59.625773
 20
161.955080
 30
0.0
 10
59.464077
 20
161.955080
 30
0.0
 10
59.302381
 20
161.955080
 30
0.0
 10
59.140685
 20
161.955080
 30
0.0
 10
58.978990
 20
161.955080
 30
0.0
 10
58.817294
 20
161.955080
 30
0.0
 10
58.655598
 20
161.955080
 30
0.0
 10
58.493904
 20
161.955080
 30
0.0
 10
58.332208
 20
161.955080
 30
0.0
 10
58.170512
 20
161.955080
 30
0.0
 10
58.008816
 20
161.955080
 30
0.0
 10
57.847120
 20
161.955080
 30
0.0
 10
57.685424
 20
161.955080
 30
0.0
 10
57.523728
 20
161.955080
 30
0.0
 10
57.362032
 20
161.955080
 30
0.0
 10
57.200337
 20
161.955080
 30
0.0
 10
57.038642
 20
161.955080
 30
0.0
 10
56.876946
 20
161.955080
 30
0.0
 10
56.715250
 20
161.955080
 30
0.0
 10
56.553554
 20
161.955080
 30
0.0
 10
56.391858
 20
161.955080
 30
0.0
 10
56.230162
 20
161.955080
 30
0.0
 10
56.068466
 20
161.955080
 30
0.0
 10
55.906771
 20
161.955080
 30
0.0
 10
55.745075
 20
161.955080
 30
0.0
 10
55.583379
 20
161.955080
 30
0.0
 10
55.421683
 20
161.955080
 30
0.0
 10
55.259988
 20
161.955080
 30
0.0
 10
55.098292
 20
161.955080
 30
0.0
 10
54.936596
 20
161.955080
 30
0.0
 10
54.774900
 20
161.955080
 30
0.0
 10
54.613205
 20
161.955080
 30
0.0
 10
54.451509
 20
161.955080
 30
0.0
 10
54.289813
 20
161.955080
 30
0.0
 10
54.128117
 20
161.955080
 30
0.0
 10
53.966421
 20
161.955080
 30
0.0
 10
53.804725
 20
161.955080
 30
0.0
 10
53.643029
 20
161.955080
 30
0.0
 10
53.481334
 20
161.955080
 30
0.0
 10
53.319638
 20
161.955080
 30
0.0
 10
53.157943
 20
161.955080
 30
0.0
 10
53.054081
 20
162.094000
 30
0.0
 10
52.950219
 20
162.232930
 30
0.0
 10
52.846357
 20
162.371870
 30
0.0
 10
52.742496
 20
162.510790
 30
0.0
 10
52.638634
 20
162.649720
 30
0.0
 10
52.534772
 20
162.788650
 30
0.0
 10
52.430911
 20
162.927570
 30
0.0
 10
52.327049
 20
163.066500
 30
0.0
 10
52.223187
 20
163.205440
 30
0.0
 10
52.119326
 20
163.344360
 30
0.0
 10
52.015464
 20
163.483290
 30
0.0
 10
51.911602
 20
163.622220
 30
0.0
 10
51.807741
 20
163.761150
 30
0.0
 10
51.703879
 20
163.900070
 30
0.0
 10
51.600017
 20
164.039010
 30
0.0
 10
51.496155
 20
164.177940
 30
0.0
 10
51.392294
 20
164.316860
 30
0.0
 10
51.288432
 20
164.455790
 30
0.0
 10
51.184570
 20
164.594720
 30
0.0
 10
51.080709
 20
164.733640
 30
0.0
 10
50.976847
 20
164.872580
 30
0.0
 10
50.872985
 20
165.011510
 30
0.0
 10
50.769124
 20
165.150430
 30
0.0
 10
50.665262
 20
165.289360
 30
0.0
 10
50.561400
 20
165.428290
 30
0.0
 10
50.457538
 20
165.567220
 30
0.0
 10
50.353677
 20
165.706150
 30
0.0
 10
50.249815
 20
165.845080
 30
0.0
 10
50.145953
 20
165.984010
 30
0.0
 10
50.042092
 20
166.122930
 30
0.0
 10
49.938230
 20
166.261860
 30
0.0
 10
49.834368
 20
166.400790
 30
0.0
 10
49.510346
 20
166.829760
 30
0.0
 10
49.179817
 20
167.258740
 30
0.0
 10
48.843766
 20
167.686730
 30
0.0
 10
48.503180
 20
168.112730
 30
0.0
 10
48.159042
 20
168.535750
 30
0.0
 10
47.812340
 20
168.954800
 30
0.0
 10
47.464060
 20
169.368860
 30
0.0
 10
47.115187
 20
169.776970
 30
0.0
 10
46.766705
 20
170.178120
 30
0.0
 10
46.419603
 20
170.571300
 30
0.0
 10
46.074864
 20
170.955550
 30
0.0
 10
45.733474
 20
171.329830
 30
0.0
 10
45.396420
 20
171.693180
 30
0.0
 10
45.064687
 20
172.044590
 30
0.0
 10
44.739261
 20
172.383060
 30
0.0
 10
44.421126
 20
172.707600
 30
0.0
 10
44.111271
 20
173.017230
 30
0.0
 10
43.810679
 20
173.310930
 30
0.0
 10
43.520336
 20
173.587720
 30
0.0
 10
43.241229
 20
173.846600
 30
0.0
 10
42.974341
 20
174.086570
 30
0.0
 10
42.720661
 20
174.306640
 30
0.0
 10
42.481173
 20
174.505820
 30
0.0
 10
42.256863
 20
174.683110
 30
0.0
 10
42.048717
 20
174.837510
 30
0.0
 10
41.857720
 20
174.968040
 30
0.0
 10
41.684858
 20
175.073680
 30
0.0
 10
41.531117
 20
175.153480
 30
0.0
 10
41.397482
 20
175.206380
 30
0.0
 10
41.284939
 20
175.231480
 30
0.0
 10
41.194469
 20
175.227480
 30
0.0
 10
41.127069
 20
175.193880
 30
0.0
 10
41.111909
 20
175.175280
 30
0.0
 10
41.100829
 20
175.150180
 30
0.0
 10
41.093729
 20
175.118780
 30
0.0
 10
41.090529
 20
175.081280
 30
0.0
 10
41.091256
 20
175.037780
 30
0.0
 10
41.095756
 20
174.988480
 30
0.0
 10
41.103956
 20
174.933580
 30
0.0
 10
41.115816
 20
174.873280
 30
0.0
 10
41.131236
 20
174.807680
 30
0.0
 10
41.150136
 20
174.737080
 30
0.0
 10
41.172456
 20
174.661580
 30
0.0
 10
41.198116
 20
174.581480
 30
0.0
 10
41.227036
 20
174.496880
 30
0.0
 10
41.259136
 20
174.407980
 30
0.0
 10
41.294356
 20
174.314880
 30
0.0
 10
41.332606
 20
174.217980
 30
0.0
 10
41.373816
 20
174.117340
 30
0.0
 10
41.417916
 20
174.013120
 30
0.0
 10
41.464826
 20
173.905530
 30
0.0
 10
41.514476
 20
173.794760
 30
0.0
 10
41.566796
 20
173.680980
 30
0.0
 10
41.621696
 20
173.564400
 30
0.0
 10
41.679116
 20
173.445190
 30
0.0
 10
41.738976
 20
173.323560
 30
0.0
 10
41.801196
 20
173.199670
 30
0.0
 10
41.865706
 20
173.073720
 30
0.0
 10
41.932436
 20
172.945880
 30
0.0
 10
42.001296
 20
172.816360
 30
0.0
 10
42.072216
 20
172.685340
 30
0.0
 10
42.145126
 20
172.553000
 30
0.0
 10
42.219956
 20
172.419520
 30
0.0
 10
42.296626
 20
172.285090
 30
0.0
 10
42.504429
 20
171.915310
 30
0.0
 10
42.705719
 20
171.540030
 30
0.0
 10
42.900344
 20
171.159920
 30
0.0
 10
43.088152
 20
170.775610
 30
0.0
 10
43.268989
 20
170.387750
 30
0.0
 10
43.442702
 20
169.997010
 30
0.0
 10
43.609141
 20
169.604020
 30
0.0
 10
43.768152
 20
169.209420
 30
0.0
 10
43.919583
 20
168.813880
 30
0.0
 10
44.063280
 20
168.418040
 30
0.0
 10
44.199093
 20
168.022550
 30
0.0
 10
44.326867
 20
167.628050
 30
0.0
 10
44.446450
 20
167.235210
 30
0.0
 10
44.557692
 20
166.844660
 30
0.0
 10
44.660436
 20
166.457070
 30
0.0
 10
44.754526
 20
166.073060
 30
0.0
 10
44.839816
 20
165.693300
 30
0.0
 10
44.916166
 20
165.318440
 30
0.0
 10
44.983406
 20
164.949100
 30
0.0
 10
45.041386
 20
164.585980
 30
0.0
 10
45.089956
 20
164.229680
 30
0.0
 10
45.128966
 20
163.880870
 30
0.0
 10
45.158246
 20
163.540200
 30
0.0
 10
45.177666
 20
163.208330
 30
0.0
 10
45.187066
 20
162.885880
 30
0.0
 10
45.186294
 20
162.573530
 30
0.0
 10
45.175194
 20
162.271910
 30
0.0
 10
45.153624
 20
161.981680
 30
0.0
 10
45.121424
 20
161.703470
 30
0.0
 10
45.078434
 20
161.437940
 30
0.0
 10
45.024514
 20
161.185760
 30
0.0
 10
44.959494
 20
160.947540
 30
0.0
 10
44.903984
 20
160.781450
 30
0.0
 10
44.838114
 20
160.611790
 30
0.0
 10
44.762354
 20
160.439050
 30
0.0
 10
44.677164
 20
160.263710
 30
0.0
 10
44.583004
 20
160.086220
 30
0.0
 10
44.480354
 20
159.907090
 30
0.0
 10
44.369666
 20
159.726760
 30
0.0
 10
44.251406
 20
159.545730
 30
0.0
 10
44.126040
 20
159.364460
 30
0.0
 10
43.994032
 20
159.183440
 30
0.0
 10
43.855845
 20
159.003150
 30
0.0
 10
43.711944
 20
158.824030
 30
0.0
 10
43.562794
 20
158.646600
 30
0.0
 10
43.408858
 20
158.471300
 30
0.0
 10
43.250601
 20
158.298630
 30
0.0
 10
43.088487
 20
158.129060
 30
0.0
 10
42.922981
 20
157.963050
 30
0.0
 10
42.754547
 20
157.801100
 30
0.0
 10
42.583649
 20
157.643660
 30
0.0
 10
42.410751
 20
157.491220
 30
0.0
 10
42.236318
 20
157.344260
 30
0.0
 10
42.060814
 20
157.203250
 30
0.0
 10
41.884703
 20
157.068660
 30
0.0
 10
41.708449
 20
156.940970
 30
0.0
 10
41.532518
 20
156.820650
 30
0.0
 10
41.357372
 20
156.708190
 30
0.0
 10
41.183477
 20
156.604070
 30
0.0
 10
41.011297
 20
156.508670
 30
0.0
 10
40.841295
 20
156.422570
 30
0.0
 10
40.673936
 20
156.346270
 30
0.0
 10
40.509686
 20
156.280170
 30
0.0
 10
40.349006
 20
156.224870
 30
0.0
 10
40.319786
 20
156.213170
 30
0.0
 10
40.290456
 20
156.196570
 30
0.0
 10
40.261066
 20
156.175070
 30
0.0
 10
40.231666
 20
156.148870
 30
0.0
 10
40.202296
 20
156.118070
 30
0.0
 10
40.173006
 20
156.082870
 30
0.0
 10
40.143856
 20
156.043370
 30
0.0
 10
40.114886
 20
155.999770
 30
0.0
 10
40.086136
 20
155.952170
 30
0.0
 10
40.057666
 20
155.900670
 30
0.0
 10
40.029516
 20
155.845470
 30
0.0
 10
40.001736
 20
155.786570
 30
0.0
 10
39.974376
 20
155.724270
 30
0.0
 10
39.947496
 20
155.658570
 30
0.0
 10
39.921126
 20
155.589770
 30
0.0
 10
39.895316
 20
155.517870
 30
0.0
 10
39.870116
 20
155.443070
 30
0.0
 10
39.845586
 20
155.365470
 30
0.0
 10
39.821756
 20
155.285270
 30
0.0
 10
39.798686
 20
155.202670
 30
0.0
 10
39.776416
 20
155.117670
 30
0.0
 10
39.755006
 20
155.030370
 30
0.0
 10
39.734496
 20
154.941170
 30
0.0
 10
39.714936
 20
154.849870
 30
0.0
 10
39.696376
 20
154.756870
 30
0.0
 10
39.678866
 20
154.662170
 30
0.0
 10
39.662446
 20
154.565970
 30
0.0
 10
39.647166
 20
154.468370
 30
0.0
 10
39.633076
 20
154.369570
 30
0.0
 10
39.620216
 20
154.269670
 30
0.0
 10
39.608646
 20
154.168720
 30
0.0
 10
39.598426
 20
154.066930
 30
0.0
 10
39.592626
 20
154.005030
 30
0.0
 10
39.586826
 20
153.943130
 30
0.0
 10
39.581026
 20
153.881230
 30
0.0
 10
39.575226
 20
153.819330
 30
0.0
 10
39.569426
 20
153.757530
 30
0.0
 10
39.563626
 20
153.695630
 30
0.0
 10
39.557826
 20
153.633730
 30
0.0
 10
39.552026
 20
153.571830
 30
0.0
 10
39.546226
 20
153.510030
 30
0.0
 10
39.540426
 20
153.448130
 30
0.0
 10
39.534626
 20
153.386230
 30
0.0
 10
39.528826
 20
153.324330
 30
0.0
 10
39.523026
 20
153.262430
 30
0.0
 10
39.517226
 20
153.200530
 30
0.0
 10
39.511426
 20
153.138630
 30
0.0
 10
39.505626
 20
153.076730
 30
0.0
 10
39.499826
 20
153.014930
 30
0.0
 10
39.494026
 20
152.953030
 30
0.0
 10
39.488226
 20
152.891130
 30
0.0
 10
39.482426
 20
152.829230
 30
0.0
 10
39.476626
 20
152.767430
 30
0.0
 10
39.470826
 20
152.705530
 30
0.0
 10
39.465026
 20
152.643630
 30
0.0
 10
39.459226
 20
152.581730
 30
0.0
 10
39.453426
 20
152.519830
 30
0.0
 10
39.447626
 20
152.457930
 30
0.0
 10
39.441826
 20
152.396030
 30
0.0
 10
39.436026
 20
152.334130
 30
0.0
 10
39.430226
 20
152.272330
 30
0.0
 10
39.424426
 20
152.210430
 30
0.0
 10
39.418626
 20
152.148530
 30
0.0
 10
39.412826
 20
152.086630
 30
0.0
 10
39.549501
 20
152.055030
 30
0.0
 10
39.686176
 20
152.023430
 30
0.0
 10
39.822849
 20
151.991830
 30
0.0
 10
39.959524
 20
151.960230
 30
0.0
 10
40.096199
 20
151.928630
 30
0.0
 10
40.232872
 20
151.897030
 30
0.0
 10
40.369547
 20
151.865430
 30
0.0
 10
40.506221
 20
151.833830
 30
0.0
 10
40.642895
 20
151.802230
 30
0.0
 10
40.779570
 20
151.770630
 30
0.0
 10
40.916244
 20
151.739030
 30
0.0
 10
41.052919
 20
151.707430
 30
0.0
 10
41.189593
 20
151.675830
 30
0.0
 10
41.326267
 20
151.644230
 30
0.0
 10
41.462942
 20
151.612630
 30
0.0
 10
41.599616
 20
151.581030
 30
0.0
 10
41.736290
 20
151.549430
 30
0.0
 10
41.872965
 20
151.517830
 30
0.0
 10
42.009640
 20
151.486230
 30
0.0
 10
42.146313
 20
151.454630
 30
0.0
 10
42.282988
 20
151.423030
 30
0.0
 10
42.419662
 20
151.391430
 30
0.0
 10
42.556336
 20
151.359830
 30
0.0
 10
42.693011
 20
151.328230
 30
0.0
 10
42.829685
 20
151.296630
 30
0.0
 10
42.966359
 20
151.265030
 30
0.0
 10
43.103034
 20
151.233430
 30
0.0
 10
43.239708
 20
151.201830
 30
0.0
 10
43.376383
 20
151.170230
 30
0.0
 10
43.513057
 20
151.138630
 30
0.0
 10
43.649731
 20
151.107030
 30
0.0
 10
43.786406
 20
151.075430
 30
0.0
 10
44.291312
 20
150.955920
 30
0.0
 10
44.787450
 20
150.832930
 30
0.0
 10
45.274591
 20
150.706590
 30
0.0
 10
45.752506
 20
150.576980
 30
0.0
 10
46.220966
 20
150.444230
 30
0.0
 10
46.679741
 20
150.308430
 30
0.0
 10
47.128605
 20
150.169710
 30
0.0
 10
47.567328
 20
150.028150
 30
0.0
 10
47.995680
 20
149.883880
 30
0.0
 10
48.413434
 20
149.737000
 30
0.0
 10
48.820360
 20
149.587620
 30
0.0
 10
49.216230
 20
149.435830
 30
0.0
 10
49.600816
 20
149.281760
 30
0.0
 10
49.973886
 20
149.125510
 30
0.0
 10
50.335216
 20
148.967190
 30
0.0
 10
50.684573
 20
148.806900
 30
0.0
 10
51.021730
 20
148.644760
 30
0.0
 10
51.346459
 20
148.480860
 30
0.0
 10
51.658530
 20
148.315320
 30
0.0
 10
51.957715
 20
148.148250
 30
0.0
 10
52.243785
 20
147.979750
 30
0.0
 10
52.516510
 20
147.809930
 30
0.0
 10
52.775664
 20
147.638890
 30
0.0
 10
53.021016
 20
147.466770
 30
0.0
 10
53.252337
 20
147.293630
 30
0.0
 10
53.469400
 20
147.119600
 30
0.0
 10
53.671976
 20
146.944800
 30
0.0
 10
53.859834
 20
146.769320
 30
0.0
 10
54.032749
 20
146.593280
 30
0.0
 10
54.190489
 20
146.416780
 30
0.0
 10
54.332826
 20
146.239920
 30
0.0
 10
54.459531
 20
146.062830
 30
0.0
 10
54.684249
 20
145.707520
 30
0.0
 10
54.900533
 20
145.325500
 30
0.0
 10
55.108143
 20
144.918710
 30
0.0
 10
55.306844
 20
144.489070
 30
0.0
 10
55.496397
 20
144.038540
 30
0.0
 10
55.676567
 20
143.569050
 30
0.0
 10
55.847115
 20
143.082560
 30
0.0
 10
56.007803
 20
142.581000
 30
0.0
 10
56.158396
 20
142.066320
 30
0.0
 10
56.298656
 20
141.540450
 30
0.0
 10
56.428344
 20
141.005350
 30
0.0
 10
56.547225
 20
140.462940
 30
0.0
 10
56.655061
 20
139.915180
 30
0.0
 10
56.751621
 20
139.364020
 30
0.0
 10
56.836651
 20
138.811390
 30
0.0
 10
56.909931
 20
138.259220
 30
0.0
 10
56.971211
 20
137.709470
 30
0.0
 10
57.020261
 20
137.164090
 30
0.0
 10
57.056841
 20
136.625000
 30
0.0
 10
57.080721
 20
136.094150
 30
0.0
 10
57.091661
 20
135.573510
 30
0.0
 10
57.089461
 20
135.064980
 30
0.0
 10
57.073801
 20
134.570530
 30
0.0
 10
57.044481
 20
134.092090
 30
0.0
 10
57.001271
 20
133.631600
 30
0.0
 10
56.943931
 20
133.191020
 30
0.0
 10
56.872221
 20
132.772270
 30
0.0
 10
56.785901
 20
132.377320
 30
0.0
 10
56.684747
 20
132.008100
 30
0.0
 10
56.568516
 20
131.666540
 30
0.0
 10
56.436970
 20
131.354590
 30
0.0
 10
56.289870
 20
131.074210
 30
0.0
 10
56.197340
 20
130.923480
 30
0.0
 10
56.102330
 20
130.781910
 30
0.0
 10
56.005260
 20
130.649500
 30
0.0
 10
55.906570
 20
130.526290
 30
0.0
 10
55.806680
 20
130.412320
 30
0.0
 10
55.706011
 20
130.307570
 30
0.0
 10
55.604984
 20
130.212170
 30
0.0
 10
55.504031
 20
130.126070
 30
0.0
 10
55.403573
 20
130.049370
 30
0.0
 10
55.304033
 20
129.981970
 30
0.0
 10
55.205843
 20
129.923970
 30
0.0
 10
55.109413
 20
129.875370
 30
0.0
 10
55.015173
 20
129.836270
 30
0.0
 10
54.923553
 20
129.806670
 30
0.0
 10
54.834973
 20
129.786670
 30
0.0
 10
54.749853
 20
129.776170
 30
0.0
 10
54.668623
 20
129.775230
 30
0.0
 10
54.591703
 20
129.783230
 30
0.0
 10
54.519533
 20
129.801530
 30
0.0
 10
54.452523
 20
129.829430
 30
0.0
 10
54.391103
 20
129.867130
 30
0.0
 10
54.335693
 20
129.914530
 30
0.0
 10
54.286713
 20
129.971630
 30
0.0
 10
54.244593
 20
130.038530
 30
0.0
 10
54.209763
 20
130.115330
 30
0.0
 10
54.182643
 20
130.201930
 30
0.0
 10
54.163653
 20
130.298430
 30
0.0
 10
54.153223
 20
130.404810
 30
0.0
 10
54.151723
 20
130.521130
 30
0.0
 10
54.159723
 20
130.647400
 30
0.0
 10
54.177513
 20
130.783670
 30
0.0
 10
54.205553
 20
130.929950
 30
0.0
 10
54.297403
 20
131.373270
 30
0.0
 10
54.379683
 20
131.823960
 30
0.0
 10
54.452533
 20
132.280560
 30
0.0
 10
54.516113
 20
132.741600
 30
0.0
 10
54.570563
 20
133.205630
 30
0.0
 10
54.616033
 20
133.671180
 30
0.0
 10
54.652673
 20
134.136780
 30
0.0
 10
54.680633
 20
134.600960
 30
0.0
 10
54.700053
 20
135.062270
 30
0.0
 10
54.711083
 20
135.519250
 30
0.0
 10
54.713883
 20
135.970420
 30
0.0
 10
54.708583
 20
136.414320
 30
0.0
 10
54.695343
 20
136.849480
 30
0.0
 10
54.674323
 20
137.274450
 30
0.0
 10
54.645653
 20
137.687760
 30
0.0
 10
54.609483
 20
138.087950
 30
0.0
 10
54.565973
 20
138.473540
 30
0.0
 10
54.515263
 20
138.843090
 30
0.0
 10
54.457503
 20
139.195100
 30
0.0
 10
54.392843
 20
139.528140
 30
0.0
 10
54.321423
 20
139.840740
 30
0.0
 10
54.243413
 20
140.131420
 30
0.0
 10
54.158943
 20
140.398730
 30
0.0
 10
54.068163
 20
140.641200
 30
0.0
 10
53.971223
 20
140.857370
 30
0.0
 10
53.868267
 20
141.045750
 30
0.0
 10
53.759454
 20
141.204920
 30
0.0
 10
53.644927
 20
141.333380
 30
0.0
 10
53.524834
 20
141.429680
 30
0.0
 10
53.399325
 20
141.492380
 30
0.0
 10
53.268547
 20
141.519980
 30
0.0
 10
53.132649
 20
141.510980
 30
0.0
 10
52.907877
 20
141.468980
 30
0.0
 10
52.673538
 20
141.430780
 30
0.0
 10
52.430456
 20
141.396580
 30
0.0
 10
52.179454
 20
141.366080
 30
0.0
 10
51.921355
 20
141.339380
 30
0.0
 10
51.656985
 20
141.316480
 30
0.0
 10
51.387166
 20
141.297280
 30
0.0
 10
51.112722
 20
141.281780
 30
0.0
 10
50.834478
 20
141.269880
 30
0.0
 10
50.553258
 20
141.261880
 30
0.0
 10
50.269884
 20
141.256880
 30
0.0
 10
49.985181
 20
141.255880
 30
0.0
 10
49.699974
 20
141.257880
 30
0.0
 10
49.415084
 20
141.262880
 30
0.0
 10
49.131336
 20
141.271880
 30
0.0
 10
48.849555
 20
141.284180
 30
0.0
 10
48.570565
 20
141.299780
 30
0.0
 10
48.295187
 20
141.318680
 30
0.0
 10
48.024248
 20
141.340780
 30
0.0
 10
47.758570
 20
141.366080
 30
0.0
 10
47.498978
 20
141.394380
 30
0.0
 10
47.246295
 20
141.425880
 30
0.0
 10
47.001344
 20
141.460480
 30
0.0
 10
46.764951
 20
141.497980
 30
0.0
 10
46.537938
 20
141.538580
 30
0.0
 10
46.321130
 20
141.581980
 30
0.0
 10
46.115351
 20
141.628380
 30
0.0
 10
45.921423
 20
141.677580
 30
0.0
 10
45.740172
 20
141.729580
 30
0.0
 10
45.572420
 20
141.784380
 30
0.0
 10
45.418992
 20
141.841780
 30
0.0
 10
45.280711
 20
141.901980
 30
0.0
 10
45.101837
 20
141.992580
 30
0.0
 10
44.923256
 20
142.095540
 30
0.0
 10
44.745321
 20
142.210140
 30
0.0
 10
44.568385
 20
142.335860
 30
0.0
 10
44.392801
 20
142.472140
 30
0.0
 10
44.218923
 20
142.618400
 30
0.0
 10
44.047105
 20
142.774070
 30
0.0
 10
43.877698
 20
142.938600
 30
0.0
 10
43.711056
 20
143.111400
 30
0.0
 10
43.547533
 20
143.291920
 30
0.0
 10
43.387482
 20
143.479580
 30
0.0
 10
43.231254
 20
143.673800
 30
0.0
 10
43.079206
 20
143.874030
 30
0.0
 10
42.931687
 20
144.079710
 30
0.0
 10
42.789055
 20
144.290250
 30
0.0
 10
42.651658
 20
144.505080
 30
0.0
 10
42.519853
 20
144.723660
 30
0.0
 10
42.393992
 20
144.945390
 30
0.0
 10
42.274428
 20
145.169720
 30
0.0
 10
42.161514
 20
145.396060
 30
0.0
 10
42.055604
 20
145.623880
 30
0.0
 10
41.957054
 20
145.852580
 30
0.0
 10
41.866204
 20
146.081600
 30
0.0
 10
41.783414
 20
146.310370
 30
0.0
 10
41.709044
 20
146.538320
 30
0.0
 10
41.643444
 20
146.764890
 30
0.0
 10
41.586974
 20
146.989500
 30
0.0
 10
41.539974
 20
147.211600
 30
0.0
 10
41.502804
 20
147.430600
 30
0.0
 10
41.475814
 20
147.645940
 30
0.0
 10
41.459364
 20
147.857060
 30
0.0
 10
41.453764
 20
148.063380
 30
0.0
 10
41.453065
 20
148.143480
 30
0.0
 10
41.450965
 20
148.222480
 30
0.0
 10
41.447565
 20
148.300380
 30
0.0
 10
41.442865
 20
148.377080
 30
0.0
 10
41.436865
 20
148.452480
 30
0.0
 10
41.429565
 20
148.526480
 30
0.0
 10
41.421165
 20
148.598880
 30
0.0
 10
41.411565
 20
148.669680
 30
0.0
 10
41.400805
 20
148.738780
 30
0.0
 10
41.388945
 20
148.806080
 30
0.0
 10
41.376015
 20
148.871380
 30
0.0
 10
41.362055
 20
148.934680
 30
0.0
 10
41.347095
 20
148.995880
 30
0.0
 10
41.331175
 20
149.054880
 30
0.0
 10
41.314315
 20
149.111580
 30
0.0
 10
41.296555
 20
149.165880
 30
0.0
 10
41.277935
 20
149.217580
 30
0.0
 10
41.258495
 20
149.266680
 30
0.0
 10
41.238255
 20
149.313180
 30
0.0
 10
41.217255
 20
149.356780
 30
0.0
 10
41.195525
 20
149.397480
 30
0.0
 10
41.173115
 20
149.435180
 30
0.0
 10
41.150035
 20
149.469780
 30
0.0
 10
41.126335
 20
149.501180
 30
0.0
 10
41.102045
 20
149.529180
 30
0.0
 10
41.077205
 20
149.553880
 30
0.0
 10
41.051835
 20
149.574980
 30
0.0
 10
41.025995
 20
149.592480
 30
0.0
 10
40.999705
 20
149.606280
 30
0.0
 10
40.972995
 20
149.615280
 30
0.0
 10
40.945905
 20
149.621280
 30
0.0
 10
40.918465
 20
149.623280
 30
0.0
 10
40.889865
 20
149.623660
 30
0.0
 10
40.859335
 20
149.624660
 30
0.0
 10
40.826965
 20
149.626660
 30
0.0
 10
40.792845
 20
149.629660
 30
0.0
 10
40.757065
 20
149.632660
 30
0.0
 10
40.719725
 20
149.636660
 30
0.0
 10
40.680915
 20
149.640660
 30
0.0
 10
40.640715
 20
149.645660
 30
0.0
 10
40.599225
 20
149.651660
 30
0.0
 10
40.556535
 20
149.657660
 30
0.0
 10
40.512725
 20
149.664660
 30
0.0
 10
40.467895
 20
149.671660
 30
0.0
 10
40.422135
 20
149.679660
 30
0.0
 10
40.375545
 20
149.687660
 30
0.0
 10
40.328205
 20
149.696660
 30
0.0
 10
40.280205
 20
149.705660
 30
0.0
 10
40.231645
 20
149.716160
 30
0.0
 10
40.182615
 20
149.727060
 30
0.0
 10
40.133195
 20
149.738460
 30
0.0
 10
40.083475
 20
149.750260
 30
0.0
 10
40.033555
 20
149.762360
 30
0.0
 10
39.983525
 20
149.774860
 30
0.0
 10
39.933465
 20
149.787860
 30
0.0
 10
39.883485
 20
149.801160
 30
0.0
 10
39.833665
 20
149.814760
 30
0.0
 10
39.784095
 20
149.828660
 30
0.0
 10
39.734875
 20
149.842860
 30
0.0
 10
39.686085
 20
149.857260
 30
0.0
 10
39.637815
 20
149.871960
 30
0.0
 10
39.590165
 20
149.886960
 30
0.0
 10
39.543205
 20
149.902160
 30
0.0
 10
39.497045
 20
149.917560
 30
0.0
 10
39.397215
 20
149.943960
 30
0.0
 10
39.299145
 20
149.955260
 30
0.0
 10
39.202785
 20
149.951260
 30
0.0
 10
39.108085
 20
149.931660
 30
0.0
 10
39.014975
 20
149.896360
 30
0.0
 10
38.923405
 20
149.845260
 30
0.0
 10
38.833305
 20
149.778160
 30
0.0
 10
38.744635
 20
149.694960
 30
0.0
 10
38.657335
 20
149.595360
 30
0.0
 10
38.571355
 20
149.479260
 30
0.0
 10
38.486635
 20
149.346500
 30
0.0
 10
38.403115
 20
149.196920
 30
0.0
 10
38.320745
 20
149.030370
 30
0.0
 10
38.239465
 20
148.846690
 30
0.0
 10
38.159215
 20
148.645700
 30
0.0
 10
38.079935
 20
148.427260
 30
0.0
 10
38.001585
 20
148.191190
 30
0.0
 10
37.924095
 20
147.937340
 30
0.0
 10
37.847425
 20
147.665530
 30
0.0
 10
37.771505
 20
147.375640
 30
0.0
 10
37.696285
 20
147.067460
 30
0.0
 10
37.621705
 20
146.740860
 30
0.0
 10
37.547715
 20
146.395670
 30
0.0
 10
37.474265
 20
146.031740
 30
0.0
 10
37.401295
 20
145.648880
 30
0.0
 10
37.328745
 20
145.246940
 30
0.0
 10
37.256545
 20
144.825790
 30
0.0
 10
37.184655
 20
144.385220
 30
0.0
 10
37.113015
 20
143.925090
 30
0.0
 10
37.041575
 20
143.445250
 30
0.0
 10
36.970275
 20
142.945530
 30
0.0
 10
36.899055
 20
142.425760
 30
0.0
 10
36.833525
 20
141.923720
 30
0.0
 10
36.775775
 20
141.446550
 30
0.0
 10
36.726475
 20
140.992850
 30
0.0
 10
36.686295
 20
140.561200
 30
0.0
 10
36.655895
 20
140.150180
 30
0.0
 10
36.635945
 20
139.758380
 30
0.0
 10
36.627045
 20
139.384390
 30
0.0
 10
36.630045
 20
139.026790
 30
0.0
 10
36.645465
 20
138.684170
 30
0.0
 10
36.674015
 20
138.355120
 30
0.0
 10
36.716355
 20
138.038210
 30
0.0
 10
36.773165
 20
137.732030
 30
0.0
 10
36.845105
 20
137.435190
 30
0.0
 10
36.932855
 20
137.146240
 30
0.0
 10
37.037075
 20
136.863790
 30
0.0
 10
37.158442
 20
136.586410
 30
0.0
 10
37.297621
 20
136.312710
 30
0.0
 10
37.455278
 20
136.041250
 30
0.0
 10
37.632087
 20
135.770630
 30
0.0
 10
37.828714
 20
135.499430
 30
0.0
 10
38.045827
 20
135.226240
 30
0.0
 10
38.284098
 20
134.949640
 30
0.0
 10
38.544194
 20
134.668230
 30
0.0
 10
38.826784
 20
134.380570
 30
0.0
 10
39.132538
 20
134.085270
 30
0.0
 10
39.462125
 20
133.780900
 30
0.0
 10
39.816213
 20
133.466060
 30
0.0
 10
40.195473
 20
133.139320
 30
0.0
 10
40.600571
 20
132.799280
 30
0.0
 10
41.032178
 20
132.444530
 30
0.0
 10
41.490963
 20
132.073630
 30
0.0
 10
41.977594
 20
131.685200
 30
0.0
 10
42.374572
 20
131.369430
 30
0.0
 10
42.748836
 20
131.070340
 30
0.0
 10
43.101397
 20
130.786650
 30
0.0
 10
43.433268
 20
130.517070
 30
0.0
 10
43.745462
 20
130.260290
 30
0.0
 10
44.038992
 20
130.015030
 30
0.0
 10
44.314869
 20
129.780010
 30
0.0
 10
44.574107
 20
129.553930
 30
0.0
 10
44.817719
 20
129.335510
 30
0.0
 10
45.046715
 20
129.123450
 30
0.0
 10
45.262110
 20
128.916450
 30
0.0
 10
45.464915
 20
128.713240
 30
0.0
 10
45.656145
 20
128.512510
 30
0.0
 10
45.836809
 20
128.313000
 30
0.0
 10
46.007922
 20
128.113380
 30
0.0
 10
46.170496
 20
127.912390
 30
0.0
 10
46.325544
 20
127.708720
 30
0.0
 10
46.474077
 20
127.501110
 30
0.0
 10
46.617109
 20
127.288230
 30
0.0
 10
46.755652
 20
127.068820
 30
0.0
 10
46.890718
 20
126.841570
 30
0.0
 10
47.023321
 20
126.605200
 30
0.0
 10
47.154473
 20
126.358420
 30
0.0
 10
47.285186
 20
126.099930
 30
0.0
 10
47.416473
 20
125.828450
 30
0.0
 10
47.549346
 20
125.542700
 30
0.0
 10
47.684819
 20
125.241370
 30
0.0
 10
47.823902
 20
124.923170
 30
0.0
 10
47.967610
 20
124.586820
 30
0.0
 10
48.116954
 20
124.231030
 30
0.0
 10
48.272947
 20
123.854500
 30
0.0
 10
48.436603
 20
123.455950
 30
0.0
 10
48.534233
 20
123.219500
 30
0.0
 10
48.633123
 20
122.984060
 30
0.0
 10
48.733083
 20
122.749970
 30
0.0
 10
48.833942
 20
122.517580
 30
0.0
 10
48.935506
 20
122.287230
 30
0.0
 10
49.037598
 20
122.059250
 30
0.0
 10
49.140037
 20
121.834010
 30
0.0
 10
49.242644
 20
121.611840
 30
0.0
 10
49.345231
 20
121.393080
 30
0.0
 10
49.447617
 20
121.178080
 30
0.0
 10
49.549624
 20
120.967180
 30
0.0
 10
49.651062
 20
120.760730
 30
0.0
 10
49.751752
 20
120.559050
 30
0.0
 10
49.851512
 20
120.362520
 30
0.0
 10
49.950162
 20
120.171470
 30
0.0
 10
50.047522
 20
119.986220
 30
0.0
 10
50.143402
 20
119.807150
 30
0.0
 10
50.237622
 20
119.634570
 30
0.0
 10
50.330012
 20
119.468850
 30
0.0
 10
50.420362
 20
119.310330
 30
0.0
 10
50.508512
 20
119.159340
 30
0.0
 10
50.594282
 20
119.016230
 30
0.0
 10
50.677482
 20
118.881340
 30
0.0
 10
50.757932
 20
118.755040
 30
0.0
 10
50.835442
 20
118.637620
 30
0.0
 10
50.909842
 20
118.529480
 30
0.0
 10
50.980942
 20
118.430980
 30
0.0
 10
51.048552
 20
118.342380
 30
0.0
 10
51.112502
 20
118.264080
 30
0.0
 10
51.172612
 20
118.196480
 30
0.0
 10
51.228692
 20
118.139780
 30
0.0
 10
51.280562
 20
118.094380
 30
0.0
 10
51.579891
 20
117.865180
 30
0.0
 10
51.888307
 20
117.647390
 30
0.0
 10
52.205322
 20
117.441060
 30
0.0
 10
52.530447
 20
117.246240
 30
0.0
 10
52.863197
 20
117.063010
 30
0.0
 10
53.203080
 20
116.891410
 30
0.0
 10
53.549613
 20
116.731510
 30
0.0
 10
53.902306
 20
116.583340
 30
0.0
 10
54.260671
 20
116.447010
 30
0.0
 10
54.624220
 20
116.322520
 30
0.0
 10
54.992467
 20
116.209970
 30
0.0
 10
55.364922
 20
116.109430
 30
0.0
 10
55.741099
 20
116.020930
 30
0.0
 10
56.120509
 20
115.944530
 30
0.0
 10
56.502667
 20
115.880230
 30
0.0
 10
56.887082
 20
115.828130
 30
0.0
 10
57.273267
 20
115.788330
 30
0.0
 10
57.660735
 20
115.760930
 30
0.0
 10
58.048999
 20
115.745830
 30
0.0
 10
58.437569
 20
115.743830
 30
0.0
 10
58.825960
 20
115.752830
 30
0.0
 10
59.213683
 20
115.775230
 30
0.0
 10
59.600248
 20
115.810330
 30
0.0
 10
59.985172
 20
115.858030
 30
0.0
 10
60.367963
 20
115.918530
 30
0.0
 10
60.748135
 20
115.991730
 30
0.0
 10
61.125201
 20
116.077830
 30
0.0
 10
61.498672
 20
116.176930
 30
0.0
 10
61.868061
 20
116.288950
 30
0.0
 10
62.232880
 20
116.413990
 30
0.0
 10
62.592641
 20
116.552130
 30
0.0
 10
62.946856
 20
116.703410
 30
0.0
 10
63.214550
 20
116.824470
 30
0.0
 10
63.467410
 20
116.940810
 30
0.0
 10
63.706259
 20
117.053490
 30
0.0
 10
63.931919
 20
117.163550
 30
0.0
 10
64.145213
 20
117.272020
 30
0.0
 10
64.346966
 20
117.379980
 30
0.0
 10
64.537997
 20
117.488440
 30
0.0
 10
64.719131
 20
117.598470
 30
0.0
 10
64.891190
 20
117.711100
 30
0.0
 10
65.054997
 20
117.827370
 30
0.0
 10
65.211375
 20
117.948340
 30
0.0
 10
65.361147
 20
118.075040
 30
0.0
 10
65.505133
 20
118.208540
 30
0.0
 10
65.644159
 20
118.349860
 30
0.0
 10
65.779047
 20
118.500060
 30
0.0
 10
65.910619
 20
118.660170
 30
0.0
 10
66.039698
 20
118.831240
 30
0.0
 10
66.167105
 20
119.014330
 30
0.0
 10
66.293667
 20
119.210470
 30
0.0
 10
66.420202
 20
119.420700
 30
0.0
 10
66.547536
 20
119.646090
 30
0.0
 10
66.676489
 20
119.887660
 30
0.0
 10
66.807886
 20
120.146470
 30
0.0
 10
66.942549
 20
120.423560
 30
0.0
 10
67.081301
 20
120.719960
 30
0.0
 10
67.224965
 20
121.036740
 30
0.0
 10
67.374362
 20
121.374930
 30
0.0
 10
67.530315
 20
121.735580
 30
0.0
 10
67.693649
 20
122.119730
 30
0.0
 10
67.865184
 20
122.528430
 30
0.0
 10
68.045745
 20
122.962730
 30
0.0
 10
68.236153
 20
123.423660
 30
0.0
 10
68.391252
 20
123.798410
 30
0.0
 10
68.539796
 20
124.153290
 30
0.0
 10
68.682821
 20
124.489600
 30
0.0
 10
68.821360
 20
124.808620
 30
0.0
 10
68.956446
 20
125.111670
 30
0.0
 10
69.089113
 20
125.400010
 30
0.0
 10
69.220396
 20
125.674960
 30
0.0
 10
69.351326
 20
125.937780
 30
0.0
 10
69.482940
 20
126.189790
 30
0.0
 10
69.616267
 20
126.432260
 30
0.0
 10
69.752344
 20
126.666500
 30
0.0
 10
69.892205
 20
126.893780
 30
0.0
 10
70.036881
 20
127.115420
 30
0.0
 10
70.187408
 20
127.332690
 30
0.0
 10
70.344818
 20
127.546890
 30
0.0
 10
70.510145
 20
127.759310
 30
0.0
 10
70.684423
 20
127.971240
 30
0.0
 10
70.868686
 20
128.183980
 30
0.0
 10
71.063967
 20
128.398810
 30
0.0
 10
71.271300
 20
128.617030
 30
0.0
 10
71.491718
 20
128.839920
 30
0.0
 10
71.726255
 20
129.068790
 30
0.0
 10
71.975945
 20
129.304910
 30
0.0
 10
72.241822
 20
129.549590
 30
0.0
 10
72.524918
 20
129.804120
 30
0.0
 10
72.826266
 20
130.069780
 30
0.0
 10
73.146903
 20
130.347870
 30
0.0
 10
73.487860
 20
130.639690
 30
0.0
 10
73.850172
 20
130.946510
 30
0.0
 10
74.234871
 20
131.269630
 30
0.0
 10
74.642992
 20
131.610350
 30
0.0
 10
75.075568
 20
131.969960
 30
0.0
 10
75.162948
 20
132.050060
 30
0.0
 10
75.250328
 20
132.130160
 30
0.0
 10
75.337708
 20
132.210260
 30
0.0
 10
75.425088
 20
132.290360
 30
0.0
 10
75.512468
 20
132.370460
 30
0.0
 10
75.599848
 20
132.450560
 30
0.0
 10
75.687228
 20
132.530660
 30
0.0
 10
75.774608
 20
132.610760
 30
0.0
 10
75.861988
 20
132.690860
 30
0.0
 10
75.949368
 20
132.770960
 30
0.0
 10
76.036748
 20
132.851060
 30
0.0
 10
76.124128
 20
132.931160
 30
0.0
 10
76.211508
 20
133.011260
 30
0.0
 10
76.298888
 20
133.091360
 30
0.0
 10
76.386268
 20
133.171460
 30
0.0
 10
76.473648
 20
133.251560
 30
0.0
 10
76.561028
 20
133.331660
 30
0.0
 10
76.648408
 20
133.411760
 30
0.0
 10
76.735788
 20
133.491860
 30
0.0
 10
76.823168
 20
133.571960
 30
0.0
 10
76.910548
 20
133.652060
 30
0.0
 10
76.997928
 20
133.732160
 30
0.0
 10
77.085308
 20
133.812260
 30
0.0
 10
77.172688
 20
133.892360
 30
0.0
 10
77.260068
 20
133.972460
 30
0.0
 10
77.347448
 20
134.052560
 30
0.0
 10
77.434828
 20
134.132660
 30
0.0
 10
77.522208
 20
134.212760
 30
0.0
 10
77.609588
 20
134.292860
 30
0.0
 10
77.696968
 20
134.372960
 30
0.0
 10
77.784348
 20
134.453060
 30
0.0
 10
77.871728
 20
134.533160
 30
0.0
 10
77.910588
 20
134.572660
 30
0.0
 10
77.949448
 20
134.612260
 30
0.0
 10
77.988308
 20
134.651860
 30
0.0
 10
78.027168
 20
134.691360
 30
0.0
 10
78.066028
 20
134.730960
 30
0.0
 10
78.104888
 20
134.770560
 30
0.0
 10
78.143748
 20
134.810060
 30
0.0
 10
78.182608
 20
134.849660
 30
0.0
 10
78.221468
 20
134.889260
 30
0.0
 10
78.260328
 20
134.928760
 30
0.0
 10
78.299188
 20
134.968360
 30
0.0
 10
78.338048
 20
135.007960
 30
0.0
 10
78.376908
 20
135.047460
 30
0.0
 10
78.415768
 20
135.087060
 30
0.0
 10
78.454628
 20
135.126660
 30
0.0
 10
78.493488
 20
135.166160
 30
0.0
 10
78.532348
 20
135.205760
 30
0.0
 10
78.571208
 20
135.245360
 30
0.0
 10
78.610068
 20
135.284860
 30
0.0
 10
78.648928
 20
135.324460
 30
0.0
 10
78.687788
 20
135.363960
 30
0.0
 10
78.726648
 20
135.403560
 30
0.0
 10
78.765508
 20
135.443160
 30
0.0
 10
78.804368
 20
135.482660
 30
0.0
 10
78.843228
 20
135.522160
 30
0.0
 10
78.882088
 20
135.561760
 30
0.0
 10
78.920948
 20
135.601260
 30
0.0
 10
78.959808
 20
135.640860
 30
0.0
 10
78.998668
 20
135.680460
 30
0.0
 10
79.037528
 20
135.719960
 30
0.0
 10
79.076388
 20
135.759560
 30
0.0
 10
79.115248
 20
135.799160
 30
0.0
 10
79.138448
 20
135.835660
 30
0.0
 10
79.161658
 20
135.872160
 30
0.0
 10
79.184858
 20
135.908660
 30
0.0
 10
79.208068
 20
135.945160
 30
0.0
 10
79.231268
 20
135.981660
 30
0.0
 10
79.254468
 20
136.018160
 30
0.0
 10
79.277668
 20
136.054660
 30
0.0
 10
79.300878
 20
136.091160
 30
0.0
 10
79.324078
 20
136.127660
 30
0.0
 10
79.347288
 20
136.164160
 30
0.0
 10
79.370488
 20
136.200660
 30
0.0
 10
79.393698
 20
136.237160
 30
0.0
 10
79.416898
 20
136.273660
 30
0.0
 10
79.440098
 20
136.310160
 30
0.0
 10
79.463298
 20
136.346660
 30
0.0
 10
79.486498
 20
136.383160
 30
0.0
 10
79.509698
 20
136.419660
 30
0.0
 10
79.532908
 20
136.456160
 30
0.0
 10
79.556108
 20
136.492660
 30
0.0
 10
79.579318
 20
136.529160
 30
0.0
 10
79.602518
 20
136.565660
 30
0.0
 10
79.625728
 20
136.602160
 30
0.0
 10
79.648928
 20
136.638660
 30
0.0
 10
79.672128
 20
136.675160
 30
0.0
 10
79.695338
 20
136.711660
 30
0.0
 10
79.718538
 20
136.748160
 30
0.0
 10
79.741748
 20
136.784660
 30
0.0
 10
79.764948
 20
136.821160
 30
0.0
 10
79.788158
 20
136.857660
 30
0.0
 10
79.811358
 20
136.894160
 30
0.0
 10
79.834558
 20
136.930660
 30
0.0
 10
79.857758
 20
136.967160
 30
0.0
 10
79.865858
 20
137.012060
 30
0.0
 10
79.873958
 20
137.056960
 30
0.0
 10
79.882058
 20
137.101860
 30
0.0
 10
79.890158
 20
137.146760
 30
0.0
 10
79.898258
 20
137.191660
 30
0.0
 10
79.906358
 20
137.236560
 30
0.0
 10
79.914458
 20
137.281460
 30
0.0
 10
79.922558
 20
137.326360
 30
0.0
 10
79.930658
 20
137.371260
 30
0.0
 10
79.938758
 20
137.416160
 30
0.0
 10
79.946858
 20
137.461060
 30
0.0
 10
79.954958
 20
137.505960
 30
0.0
 10
79.963058
 20
137.550860
 30
0.0
 10
79.971158
 20
137.595760
 30
0.0
 10
79.979258
 20
137.640660
 30
0.0
 10
79.987358
 20
137.685560
 30
0.0
 10
79.995458
 20
137.730460
 30
0.0
 10
80.003558
 20
137.775360
 30
0.0
 10
80.011658
 20
137.820260
 30
0.0
 10
80.019758
 20
137.865160
 30
0.0
 10
80.027858
 20
137.910060
 30
0.0
 10
80.035958
 20
137.954960
 30
0.0
 10
80.044058
 20
137.999860
 30
0.0
 10
80.052158
 20
138.044760
 30
0.0
 10
80.060258
 20
138.089660
 30
0.0
 10
80.068358
 20
138.134560
 30
0.0
 10
80.076458
 20
138.179460
 30
0.0
 10
80.084558
 20
138.224360
 30
0.0
 10
80.092658
 20
138.269260
 30
0.0
 10
80.100758
 20
138.314160
 30
0.0
 10
80.108858
 20
138.359060
 30
0.0
 10
80.116958
 20
138.403960
 30
0.0
 10
80.106418
 20
138.491860
 30
0.0
 10
80.095878
 20
138.579760
 30
0.0
 10
80.085338
 20
138.667660
 30
0.0
 10
80.074798
 20
138.755560
 30
0.0
 10
80.064258
 20
138.843460
 30
0.0
 10
80.053718
 20
138.931360
 30
0.0
 10
80.043178
 20
139.019260
 30
0.0
 10
80.032638
 20
139.107160
 30
0.0
 10
80.022098
 20
139.195060
 30
0.0
 10
80.011558
 20
139.282960
 30
0.0
 10
80.001018
 20
139.370860
 30
0.0
 10
79.990478
 20
139.458760
 30
0.0
 10
79.979938
 20
139.546660
 30
0.0
 10
79.969398
 20
139.634560
 30
0.0
 10
79.958858
 20
139.722460
 30
0.0
 10
79.948318
 20
139.810360
 30
0.0
 10
79.937778
 20
139.898260
 30
0.0
 10
79.927238
 20
139.986160
 30
0.0
 10
79.916698
 20
140.074060
 30
0.0
 10
79.906158
 20
140.161960
 30
0.0
 10
79.895618
 20
140.249860
 30
0.0
 10
79.885078
 20
140.337760
 30
0.0
 10
79.874538
 20
140.425660
 30
0.0
 10
79.863998
 20
140.513560
 30
0.0
 10
79.853458
 20
140.601460
 30
0.0
 10
79.842918
 20
140.689360
 30
0.0
 10
79.832378
 20
140.777260
 30
0.0
 10
79.821838
 20
140.865160
 30
0.0
 10
79.811298
 20
140.953060
 30
0.0
 10
79.800758
 20
141.040960
 30
0.0
 10
79.790218
 20
141.128860
 30
0.0
 10
79.779678
 20
141.216760
 30
0.0
 10
79.752088
 20
141.606540
 30
0.0
 10
79.721438
 20
141.993470
 30
0.0
 10
79.687808
 20
142.377110
 30
0.0
 10
79.651308
 20
142.757010
 30
0.0
 10
79.612028
 20
143.132700
 30
0.0
 10
79.570058
 20
143.503770
 30
0.0
 10
79.525498
 20
143.869730
 30
0.0
 10
79.478458
 20
144.230140
 30
0.0
 10
79.429028
 20
144.584580
 30
0.0
 10
79.377308
 20
144.932570
 30
0.0
 10
79.323398
 20
145.273680
 30
0.0
 10
79.267388
 20
145.607440
 30
0.0
 10
79.209378
 20
145.933420
 30
0.0
 10
79.149468
 20
146.251170
 30
0.0
 10
79.087748
 20
146.560220
 30
0.0
 10
79.024318
 20
146.860140
 30
0.0
 10
78.959288
 20
147.150490
 30
0.0
 10
78.892738
 20
147.430780
 30
0.0
 10
78.824778
 20
147.700610
 30
0.0
 10
78.755508
 20
147.959500
 30
0.0
 10
78.685018
 20
148.207010
 30
0.0
 10
78.613398
 20
148.442690
 30
0.0
 10
78.540758
 20
148.666090
 30
0.0
 10
78.467188
 20
148.876750
 30
0.0
 10
78.392798
 20
149.074260
 30
0.0
 10
78.317688
 20
149.258120
 30
0.0
 10
78.241938
 20
149.427910
 30
0.0
 10
78.165658
 20
149.583170
 30
0.0
 10
78.088928
 20
149.723460
 30
0.0
 10
78.011868
 20
149.848340
 30
0.0
 10
77.934558
 20
149.957330
 30
0.0
 10
77.857108
 20
150.049930
 30
0.0
 10
77.847308
 20
150.057930
 30
0.0
 10
77.834458
 20
150.064930
 30
0.0
 10
77.818678
 20
150.070930
 30
0.0
 10
77.800078
 20
150.075930
 30
0.0
 10
77.778728
 20
150.079930
 30
0.0
 10
77.754728
 20
150.083930
 30
0.0
 10
77.728148
 20
150.086930
 30
0.0
 10
77.699098
 20
150.088930
 30
0.0
 10
77.667658
 20
150.089880
 30
0.0
 10
77.633908
 20
150.089930
 30
0.0
 10
77.597928
 20
150.089080
 30
0.0
 10
77.559818
 20
150.087080
 30
0.0
 10
77.519678
 20
150.085080
 30
0.0
 10
77.477578
 20
150.082080
 30
0.0
 10
77.433618
 20
150.078080
 30
0.0
 10
77.387868
 20
150.073080
 30
0.0
 10
77.340438
 20
150.067080
 30
0.0
 10
77.291408
 20
150.061080
 30
0.0
 10
77.240858
 20
150.054080
 30
0.0
 10
77.188888
 20
150.046080
 30
0.0
 10
77.135578
 20
150.037080
 30
0.0
 10
77.081018
 20
150.028080
 30
0.0
 10
77.025278
 20
150.017280
 30
0.0
 10
76.968468
 20
150.005780
 30
0.0
 10
76.910678
 20
149.993580
 30
0.0
 10
76.851978
 20
149.980580
 30
0.0
 10
76.792468
 20
149.966880
 30
0.0
 10
76.732248
 20
149.952480
 30
0.0
 10
76.671378
 20
149.937380
 30
0.0
 10
76.609968
 20
149.921580
 30
0.0
 10
76.548098
 20
149.905180
 30
0.0
 10
76.485848
 20
149.888080
 30
0.0
 10
76.406068
 20
149.864480
 30
0.0
 10
76.329318
 20
149.839180
 30
0.0
 10
76.255588
 20
149.812080
 30
0.0
 10
76.184818
 20
149.783180
 30
0.0
 10
76.116988
 20
149.752380
 30
0.0
 10
76.052068
 20
149.719680
 30
0.0
 10
75.990008
 20
149.684980
 30
0.0
 10
75.930788
 20
149.648180
 30
0.0
 10
75.874378
 20
149.609380
 30
0.0
 10
75.820738
 20
149.568380
 30
0.0
 10
75.769838
 20
149.525280
 30
0.0
 10
75.721648
 20
149.479880
 30
0.0
 10
75.676128
 20
149.432180
 30
0.0
 10
75.633248
 20
149.382080
 30
0.0
 10
75.592968
 20
149.329680
 30
0.0
 10
75.555258
 20
149.274780
 30
0.0
 10
75.520108
 20
149.217480
 30
0.0
 10
75.487448
 20
149.157580
 30
0.0
 10
75.457268
 20
149.095080
 30
0.0
 10
75.429528
 20
149.029980
 30
0.0
 10
75.404208
 20
148.962080
 30
0.0
 10
75.381258
 20
148.891480
 30
0.0
 10
75.360648
 20
148.818080
 30
0.0
 10
75.342348
 20
148.741780
 30
0.0
 10
75.326328
 20
148.662680
 30
0.0
 10
75.312548
 20
148.580580
 30
0.0
 10
75.300978
 20
148.495480
 30
0.0
 10
75.291578
 20
148.407280
 30
0.0
 10
75.284278
 20
148.315980
 30
0.0
 10
75.279078
 20
148.221580
 30
0.0
 10
75.275978
 20
148.123880
 30
0.0
 10
75.274978
 20
148.022930
 30
0.0
 10
75.269378
 20
147.819400
 30
0.0
 10
75.252848
 20
147.610900
 30
0.0
 10
75.225728
 20
147.397990
 30
0.0
 10
75.188378
 20
147.181260
 30
0.0
 10
75.141158
 20
146.961280
 30
0.0
 10
75.084428
 20
146.738620
 30
0.0
 10
75.018558
 20
146.513870
 30
0.0
 10
74.943898
 20
146.287590
 30
0.0
 10
74.860808
 20
146.060370
 30
0.0
 10
74.769648
 20
145.832770
 30
0.0
 10
74.670768
 20
145.605380
 30
0.0
 10
74.564537
 20
145.378770
 30
0.0
 10
74.451313
 20
145.153510
 30
0.0
 10
74.331455
 20
144.930180
 30
0.0
 10
74.205324
 20
144.709370
 30
0.0
 10
74.073277
 20
144.491620
 30
0.0
 10
73.935673
 20
144.277550
 30
0.0
 10
73.792874
 20
144.067690
 30
0.0
 10
73.645237
 20
143.862660
 30
0.0
 10
73.493122
 20
143.663010
 30
0.0
 10
73.336889
 20
143.469310
 30
0.0
 10
73.176896
 20
143.282150
 30
0.0
 10
73.013504
 20
143.102100
 30
0.0
 10
72.847070
 20
142.929750
 30
0.0
 10
72.677955
 20
142.765650
 30
0.0
 10
72.506519
 20
142.610380
 30
0.0
 10
72.333119
 20
142.464540
 30
0.0
 10
72.158116
 20
142.328680
 30
0.0
 10
71.981869
 20
142.203390
 30
0.0
 10
71.804737
 20
142.089240
 30
0.0
 10
71.627080
 20
141.986810
 30
0.0
 10
71.449255
 20
141.896710
 30
0.0
 10
71.311004
 20
141.836510
 30
0.0
 10
71.157502
 20
141.779110
 30
0.0
 10
70.989582
 20
141.724410
 30
0.0
 10
70.808082
 20
141.672410
 30
0.0
 10
70.613839
 20
141.623210
 30
0.0
 10
70.407688
 20
141.576810
 30
0.0
 10
70.190466
 20
141.533410
 30
0.0
 10
69.963007
 20
141.492810
 30
0.0
 10
69.726150
 20
141.455210
 30
0.0
 10
69.480731
 20
141.420610
 30
0.0
 10
69.227584
 20
141.389110
 30
0.0
 10
68.967547
 20
141.360610
 30
0.0
 10
68.701456
 20
141.335310
 30
0.0
 10
68.430147
 20
141.313210
 30
0.0
 10
68.154455
 20
141.294310
 30
0.0
 10
67.875219
 20
141.278710
 30
0.0
 10
67.593273
 20
141.266410
 30
0.0
 10
67.309453
 20
141.257410
 30
0.0
 10
67.024596
 20
141.252410
 30
0.0
 10
66.739540
 20
141.250410
 30
0.0
 10
66.455117
 20
141.251410
 30
0.0
 10
66.172167
 20
141.256410
 30
0.0
 10
65.891524
 20
141.264410
 30
0.0
 10
65.614026
 20
141.276310
 30
0.0
 10
65.340507
 20
141.291810
 30
0.0
 10
65.071805
 20
141.311010
 30
0.0
 10
64.808755
 20
141.333910
 30
0.0
 10
64.552195
 20
141.360610
 30
0.0
 10
64.302958
 20
141.391110
 30
0.0
 10
64.061884
 20
141.425410
 30
0.0
 10
63.829807
 20
141.463610
 30
0.0
 10
63.607563
 20
141.505710
 30
0.0
 10
63.467265
 20
141.516210
 30
0.0
 10
63.332369
 20
141.490510
 30
0.0
 10
63.203019
 20
141.429910
 30
0.0
 10
63.079363
 20
141.336010
 30
0.0
 10
62.961546
 20
141.210140
 30
0.0
 10
62.849715
 20
141.053720
 30
0.0
 10
62.744014
 20
140.868200
 30
0.0
 10
62.644584
 20
140.655000
 30
0.0
 10
62.551584
 20
140.415520
 30
0.0
 10
62.465154
 20
140.151190
 30
0.0
 10
62.385434
 20
139.863440
 30
0.0
 10
62.312574
 20
139.553670
 30
0.0
 10
62.246724
 20
139.223330
 30
0.0
 10
62.188024
 20
138.873810
 30
0.0
 10
62.136634
 20
138.506550
 30
0.0
 10
62.092684
 20
138.122970
 30
0.0
 10
62.056314
 20
137.724480
 30
0.0
 10
62.027694
 20
137.312500
 30
0.0
 10
62.006954
 20
136.888460
 30
0.0
 10
61.994234
 20
136.453780
 30
0.0
 10
61.989734
 20
136.009900
 30
0.0
 10
61.993534
 20
135.558190
 30
0.0
 10
62.005774
 20
135.100120
 30
0.0
 10
62.026624
 20
134.637080
 30
0.0
 10
62.056244
 20
134.170500
 30
0.0
 10
62.094764
 20
133.701810
 30
0.0
 10
62.142334
 20
133.232420
 30
0.0
 10
62.199104
 20
132.763750
 30
0.0
 10
62.265214
 20
132.297230
 30
0.0
 10
62.340814
 20
131.834270
 30
0.0
 10
62.426044
 20
131.376300
 30
0.0
 10
62.521054
 20
130.924730
 30
0.0
 10
62.549524
 20
130.778430
 30
0.0
 10
62.567704
 20
130.642150
 30
0.0
 10
62.576004
 20
130.515850
 30
0.0
 10
62.574804
 20
130.399520
 30
0.0
 10
62.564684
 20
130.293130
 30
0.0
 10
62.545934
 20
130.196630
 30
0.0
 10
62.519024
 20
130.110030
 30
0.0
 10
62.484374
 20
130.033330
 30
0.0
 10
62.442414
 20
129.966430
 30
0.0
 10
62.393564
 20
129.909330
 30
0.0
 10
62.338254
 20
129.861930
 30
0.0
 10
62.276904
 20
129.824330
 30
0.0
 10
62.209944
 20
129.796330
 30
0.0
 10
62.137804
 20
129.778030
 30
0.0
 10
62.060904
 20
129.770030
 30
0.0
 10
61.979674
 20
129.770960
 30
0.0
 10
61.894544
 20
129.781460
 30
0.0
 10
61.805944
 20
129.801460
 30
0.0
 10
61.714284
 20
129.831060
 30
0.0
 10
61.620004
 20
129.870160
 30
0.0
 10
61.523514
 20
129.918760
 30
0.0
 10
61.425254
 20
129.976760
 30
0.0
 10
61.325654
 20
130.044160
 30
0.0
 10
61.225133
 20
130.120960
 30
0.0
 10
61.124116
 20
130.207060
 30
0.0
 10
61.023036
 20
130.302560
 30
0.0
 10
60.922315
 20
130.407310
 30
0.0
 10
60.822375
 20
130.521290
 30
0.0
 10
60.723645
 20
130.644500
 30
0.0
 10
60.626555
 20
130.776900
 30
0.0
 10
60.531525
 20
130.918480
 30
0.0
 10
60.438995
 20
131.069190
 30
0.0
 10
60.296554
 20
131.339930
 30
0.0
 10
60.168635
 20
131.640720
 30
0.0
 10
60.055044
 20
131.969800
 30
0.0
 10
59.955584
 20
132.325420
 30
0.0
 10
59.870054
 20
132.705830
 30
0.0
 10
59.798254
 20
133.109270
 30
0.0
 10
59.740004
 20
133.534010
 30
0.0
 10
59.695094
 20
133.978280
 30
0.0
 10
59.663334
 20
134.440340
 30
0.0
 10
59.644524
 20
134.918420
 30
0.0
 10
59.638424
 20
135.410790
 30
0.0
 10
59.644924
 20
135.915690
 30
0.0
 10
59.663774
 20
136.431350
 30
0.0
 10
59.694784
 20
136.956040
 30
0.0
 10
59.737774
 20
137.488010
 30
0.0
 10
59.792534
 20
138.025490
 30
0.0
 10
59.858854
 20
138.566740
 30
0.0
 10
59.936554
 20
139.110010
 30
0.0
 10
60.025434
 20
139.653550
 30
0.0
 10
60.125304
 20
140.195600
 30
0.0
 10
60.235951
 20
140.734400
 30
0.0
 10
60.357188
 20
141.268220
 30
0.0
 10
60.488817
 20
141.795300
 30
0.0
 10
60.630641
 20
142.313870
 30
0.0
 10
60.782465
 20
142.822210
 30
0.0
 10
60.944090
 20
143.318530
 30
0.0
 10
61.115321
 20
143.801110
 30
0.0
 10
61.295961
 20
144.268200
 30
0.0
 10
61.485812
 20
144.718020
 30
0.0
 10
61.684679
 20
145.148840
 30
0.0
 10
61.892365
 20
145.558900
 30
0.0
 10
62.108672
 20
145.946450
 30
0.0
 10
62.218916
 20
146.118910
 30
0.0
 10
62.347545
 20
146.292300
 30
0.0
 10
62.494193
 20
146.466450
 30
0.0
 10
62.658493
 20
146.641190
 30
0.0
 10
62.840083
 20
146.816340
 30
0.0
 10
63.038596
 20
146.991720
 30
0.0
 10
63.253666
 20
147.167190
 30
0.0
 10
63.484931
 20
147.342540
 30
0.0
 10
63.732021
 20
147.517620
 30
0.0
 10
63.994576
 20
147.692240
 30
0.0
 10
64.272227
 20
147.866240
 30
0.0
 10
64.564608
 20
148.039450
 30
0.0
 10
64.871359
 20
148.211690
 30
0.0
 10
65.192109
 20
148.382790
 30
0.0
 10
65.526497
 20
148.552570
 30
0.0
 10
65.874154
 20
148.720870
 30
0.0
 10
66.234718
 20
148.887500
 30
0.0
 10
66.607823
 20
149.052310
 30
0.0
 10
66.993104
 20
149.215110
 30
0.0
 10
67.390194
 20
149.375720
 30
0.0
 10
67.798728
 20
149.534000
 30
0.0
 10
68.218344
 20
149.689740
 30
0.0
 10
68.648674
 20
149.842800
 30
0.0
 10
69.089352
 20
149.992980
 30
0.0
 10
69.540015
 20
150.140120
 30
0.0
 10
70.000296
 20
150.284050
 30
0.0
 10
70.469832
 20
150.424580
 30
0.0
 10
70.948255
 20
150.561570
 30
0.0
 10
71.435203
 20
150.694820
 30
0.0
 10
71.930308
 20
150.824150
 30
0.0
 10
72.433206
 20
150.949410
 30
0.0
 10
72.943531
 20
151.070430
 30
0.0
 10
73.080170
 20
151.102030
 30
0.0
 10
73.216808
 20
151.133630
 30
0.0
 10
73.353447
 20
151.165230
 30
0.0
 10
73.490086
 20
151.196830
 30
0.0
 10
73.626725
 20
151.228430
 30
0.0
 10
73.763364
 20
151.260030
 30
0.0
 10
73.900003
 20
151.291630
 30
0.0
 10
74.036641
 20
151.323230
 30
0.0
 10
74.173280
 20
151.354830
 30
0.0
 10
74.309919
 20
151.386430
 30
0.0
 10
74.446558
 20
151.418030
 30
0.0
 10
74.583197
 20
151.449630
 30
0.0
 10
74.719835
 20
151.481230
 30
0.0
 10
74.856474
 20
151.512830
 30
0.0
 10
74.993113
 20
151.544430
 30
0.0
 10
75.129752
 20
151.576030
 30
0.0
 10
75.266391
 20
151.607630
 30
0.0
 10
75.403030
 20
151.639230
 30
0.0
 10
75.539668
 20
151.670830
 30
0.0
 10
75.676307
 20
151.702430
 30
0.0
 10
75.812946
 20
151.734030
 30
0.0
 10
75.949585
 20
151.765630
 30
0.0
 10
76.086224
 20
151.797230
 30
0.0
 10
76.222863
 20
151.828830
 30
0.0
 10
76.359501
 20
151.860430
 30
0.0
 10
76.496140
 20
151.892030
 30
0.0
 10
76.632779
 20
151.923630
 30
0.0
 10
76.769418
 20
151.955230
 30
0.0
 10
76.906057
 20
151.986830
 30
0.0
 10
77.042696
 20
152.018430
 30
0.0
 10
77.179335
 20
152.050030
 30
0.0
 10
77.315974
 20
152.081630
 30
0.0
 10
77.310174
 20
152.143530
 30
0.0
 10
77.304374
 20
152.205430
 30
0.0
 10
77.298574
 20
152.267230
 30
0.0
 10
77.292774
 20
152.329130
 30
0.0
 10
77.286974
 20
152.391030
 30
0.0
 10
77.281174
 20
152.452930
 30
0.0
 10
77.275374
 20
152.514730
 30
0.0
 10
77.269574
 20
152.576630
 30
0.0
 10
77.263774
 20
152.638530
 30
0.0
 10
77.257974
 20
152.700430
 30
0.0
 10
77.252174
 20
152.762330
 30
0.0
 10
77.246374
 20
152.824230
 30
0.0
 10
77.240574
 20
152.886130
 30
0.0
 10
77.234774
 20
152.948030
 30
0.0
 10
77.228974
 20
153.009930
 30
0.0
 10
77.223174
 20
153.071730
 30
0.0
 10
77.217374
 20
153.133630
 30
0.0
 10
77.211574
 20
153.195530
 30
0.0
 10
77.205774
 20
153.257430
 30
0.0
 10
77.199974
 20
153.319230
 30
0.0
 10
77.194174
 20
153.381130
 30
0.0
 10
77.188374
 20
153.443030
 30
0.0
 10
77.182574
 20
153.504930
 30
0.0
 10
77.176774
 20
153.566730
 30
0.0
 10
77.170974
 20
153.628630
 30
0.0
 10
77.165174
 20
153.690530
 30
0.0
 10
77.159374
 20
153.752430
 30
0.0
 10
77.153574
 20
153.814330
 30
0.0
 10
77.147774
 20
153.876230
 30
0.0
 10
77.141974
 20
153.938130
 30
0.0
 10
77.136174
 20
154.000030
 30
0.0
 10
77.130374
 20
154.061830
 30
0.0
 10
77.120154
 20
154.163520
 30
0.0
 10
77.108594
 20
154.264480
 30
0.0
 10
77.095734
 20
154.364380
 30
0.0
 10
77.081644
 20
154.463180
 30
0.0
 10
77.066364
 20
154.560780
 30
0.0
 10
77.049944
 20
154.656980
 30
0.0
 10
77.032434
 20
154.751680
 30
0.0
 10
77.013864
 20
154.844780
 30
0.0
 10
76.994304
 20
154.936080
 30
0.0
 10
76.973794
 20
155.025380
 30
0.0
 10
76.952384
 20
155.112680
 30
0.0
 10
76.930114
 20
155.197680
 30
0.0
 10
76.907044
 20
155.280280
 30
0.0
 10
76.883214
 20
155.360480
 30
0.0
 10
76.858684
 20
155.438080
 30
0.0
 10
76.833484
 20
155.512880
 30
0.0
 10
76.807674
 20
155.584780
 30
0.0
 10
76.781294
 20
155.653580
 30
0.0
 10
76.754404
 20
155.719280
 30
0.0
 10
76.727044
 20
155.781680
 30
0.0
 10
76.699264
 20
155.840580
 30
0.0
 10
76.671114
 20
155.895780
 30
0.0
 10
76.642644
 20
155.947280
 30
0.0
 10
76.613894
 20
155.994880
 30
0.0
 10
76.584914
 20
156.038480
 30
0.0
 10
76.555754
 20
156.077980
 30
0.0
 10
76.526474
 20
156.113180
 30
0.0
 10
76.497104
 20
156.143980
 30
0.0
 10
76.467704
 20
156.170180
 30
0.0
 10
76.438314
 20
156.191680
 30
0.0
 10
76.408984
 20
156.208280
 30
0.0
 10
76.379774
 20
156.219980
 30
0.0
 10
76.224302
 20
156.273680
 30
0.0
 10
76.064565
 20
156.338180
 30
0.0
 10
75.901055
 20
156.412980
 30
0.0
 10
75.734261
 20
156.497680
 30
0.0
 10
75.564673
 20
156.591680
 30
0.0
 10
75.392785
 20
156.694530
 30
0.0
 10
75.219085
 20
156.805790
 30
0.0
 10
75.044066
 20
156.924920
 30
0.0
 10
74.868218
 20
157.051450
 30
0.0
 10
74.692030
 20
157.184870
 30
0.0
 10
74.515996
 20
157.324690
 30
0.0
 10
74.340604
 20
157.470430
 30
0.0
 10
74.166347
 20
157.621610
 30
0.0
 10
73.993715
 20
157.777710
 30
0.0
 10
73.823199
 20
157.938260
 30
0.0
 10
73.655289
 20
158.102760
 30
0.0
 10
73.490477
 20
158.270740
 30
0.0
 10
73.329253
 20
158.441670
 30
0.0
 10
73.172108
 20
158.615090
 30
0.0
 10
73.019532
 20
158.790510
 30
0.0
 10
72.872017
 20
158.967420
 30
0.0
 10
72.730055
 20
159.145350
 30
0.0
 10
72.594135
 20
159.323790
 30
0.0
 10
72.464747
 20
159.502270
 30
0.0
 10
72.342383
 20
159.680290
 30
0.0
 10
72.227534
 20
159.857360
 30
0.0
 10
72.120691
 20
160.032970
 30
0.0
 10
72.022341
 20
160.206670
 30
0.0
 10
71.932981
 20
160.377930
 30
0.0
 10
71.853101
 20
160.546280
 30
0.0
 10
71.783191
 20
160.711230
 30
0.0
 10
71.723741
 20
160.872290
 30
0.0
 10
71.649691
 20
161.108800
 30
0.0
 10
71.585631
 20
161.353330
 30
0.0
 10
71.531531
 20
161.605760
 30
0.0
 10
71.487351
 20
161.865940
 30
0.0
 10
71.453051
 20
162.133700
 30
0.0
 10
71.428601
 20
162.408920
 30
0.0
 10
71.413971
 20
162.691420
 30
0.0
 10
71.409171
 20
162.981080
 30
0.0
 10
71.414171
 20
163.277720
 30
0.0
 10
71.428811
 20
163.581210
 30
0.0
 10
71.453131
 20
163.891410
 30
0.0
 10
71.487101
 20
164.208150
 30
0.0
 10
71.530701
 20
164.531280
 30
0.0
 10
71.583871
 20
164.860660
 30
0.0
 10
71.646591
 20
165.196150
 30
0.0
 10
71.718841
 20
165.537590
 30
0.0
 10
71.800571
 20
165.884820
 30
0.0
 10
71.891751
 20
166.237720
 30
0.0
 10
71.992346
 20
166.596110
 30
0.0
 10
72.102328
 20
166.959860
 30
0.0
 10
72.221661
 20
167.328810
 30
0.0
 10
72.350310
 20
167.702820
 30
0.0
 10
72.488243
 20
168.081740
 30
0.0
 10
72.635426
 20
168.465400
 30
0.0
 10
72.791825
 20
168.853680
 30
0.0
 10
72.957409
 20
169.246420
 30
0.0
 10
73.132141
 20
169.643470
 30
0.0
 10
73.315989
 20
170.044680
 30
0.0
 10
73.508920
 20
170.449890
 30
0.0
 10
73.710899
 20
170.858960
 30
0.0
 10
73.921894
 20
171.271750
 30
0.0
 10
74.141872
 20
171.688110
 30
0.0
 10
74.230902
 20
171.855060
 30
0.0
 10
74.318012
 20
172.020610
 30
0.0
 10
74.403092
 20
172.184510
 30
0.0
 10
74.486062
 20
172.346560
 30
0.0
 10
74.566812
 20
172.506510
 30
0.0
 10
74.645262
 20
172.664150
 30
0.0
 10
74.721322
 20
172.819250
 30
0.0
 10
74.794912
 20
172.971580
 30
0.0
 10
74.865912
 20
173.120920
 30
0.0
 10
74.934252
 20
173.267040
 30
0.0
 10
74.999832
 20
173.409720
 30
0.0
 10
75.062562
 20
173.548730
 30
0.0
 10
75.122342
 20
173.683840
 30
0.0
 10
75.179092
 20
173.814840
 30
0.0
 10
75.232722
 20
173.941480
 30
0.0
 10
75.283122
 20
174.063560
 30
0.0
 10
75.330212
 20
174.180840
 30
0.0
 10
75.373902
 20
174.293090
 30
0.0
 10
75.414102
 20
174.400090
 30
0.0
 10
75.450722
 20
174.501680
 30
0.0
 10
75.483652
 20
174.597480
 30
0.0
 10
75.512822
 20
174.687380
 30
0.0
 10
75.538122
 20
174.771180
 30
0.0
 10
75.559472
 20
174.848580
 30
0.0
 10
75.576772
 20
174.919380
 30
0.0
 10
75.589942
 20
174.983380
 30
0.0
 10
75.598942
 20
175.040280
 30
0.0
 10
75.603542
 20
175.089880
 30
0.0
 10
75.603749
 20
175.131980
 30
0.0
 10
75.599449
 20
175.166380
 30
0.0
 10
75.590549
 20
175.192780
 30
0.0
 10
75.576969
 20
175.210980
 30
0.0
 10
75.573569
 20
175.213980
 30
0.0
 10
75.570069
 20
175.216980
 30
0.0
 10
75.566469
 20
175.218980
 30
0.0
 10
75.562769
 20
175.220980
 30
0.0
 10
75.559069
 20
175.222980
 30
0.0
 10
75.555269
 20
175.224980
 30
0.0
 10
75.551369
 20
175.226980
 30
0.0
 10
75.547369
 20
175.228980
 30
0.0
 10
75.543269
 20
175.230980
 30
0.0
 10
75.539069
 20
175.232980
 30
0.0
 10
75.534769
 20
175.234980
 30
0.0
 10
75.530369
 20
175.235980
 30
0.0
 10
75.525869
 20
175.236980
 30
0.0
 10
75.521269
 20
175.237980
 30
0.0
 10
75.516669
 20
175.238980
 30
0.0
 10
75.511969
 20
175.239980
 30
0.0
 10
75.507169
 20
175.240950
 30
0.0
 10
75.502169
 20
175.241810
 30
0.0
 10
75.497069
 20
175.242550
 30
0.0
 10
75.491869
 20
175.243180
 30
0.0
 10
75.486569
 20
175.243690
 30
0.0
 10
75.481269
 20
175.244080
 30
0.0
 10
75.475869
 20
175.244360
 30
0.0
 10
75.470369
 20
175.244510
 30
0.0
 10
75.464769
 20
175.244570
 30
0.0
 10
75.459069
 20
175.244490
 30
0.0
 10
75.453269
 20
175.244310
 30
0.0
 10
75.447469
 20
175.244010
 30
0.0
 10
75.441569
 20
175.243590
 30
0.0
 10
75.435569
 20
175.243060
 30
0.0
 10
75.429469
 20
175.242420
 30
0.0
 10
75.423269
 20
175.241650
 30
0.0
 10
75.423269
 20
175.241650
 30
0.0
 10
75.423268
 20
175.241640
 30
0.0
 10
75.423268
 20
175.241640
 30
0.0
 10
75.423268
 20
175.241640
 30
0.0
 10
75.423267
 20
175.241630
 30
0.0
 10
75.423267
 20
175.241630
 30
0.0
 10
75.423266
 20
175.241620
 30
0.0
 10
75.423266
 20
175.241620
 30
0.0
 10
75.423266
 20
175.241610
 30
0.0
 10
75.423265
 20
175.241610
 30
0.0
 10
75.423265
 20
175.241600
 30
0.0
 10
75.423264
 20
175.241600
 30
0.0
 10
75.423264
 20
175.241580
 30
0.0
 10
75.423264
 20
175.241580
 30
0.0
 10
75.423263
 20
175.241580
 30
0.0
 10
75.423263
 20
175.241570
 30
0.0
 10
75.423262
 20
175.241570
 30
0.0
 10
75.423262
 20
175.241560
 30
0.0
 10
75.423262
 20
175.241560
 30
0.0
 10
75.423261
 20
175.241550
 30
0.0
 10
75.423261
 20
175.241550
 30
0.0
 10
75.423260
 20
175.241540
 30
0.0
 10
75.423260
 20
175.241540
 30
0.0
 10
75.423260
 20
175.241530
 30
0.0
 10
75.423259
 20
175.241530
 30
0.0
 10
75.423259
 20
175.241520
 30
0.0
 10
75.423257
 20
175.241520
 30
0.0
 10
75.423257
 20
175.241520
 30
0.0
 10
75.423257
 20
175.241510
 30
0.0
 10
75.423256
 20
175.241510
 30
0.0
 10
75.423256
 20
175.241500
 30
0.0
  0
LWPOLYLINE
  5
101
100
AcDbEntity
  8
Silkscreen
 62
7
100
AcDbPolyline
 90
224
 70
1
 10
77.217183
 20
172.487910
 30
0.0
 10
77.215283
 20
172.488260
 30
0.0
 10
77.213283
 20
172.488600
 30
0.0
 10
77.211283
 20
172.488900
 30
0.0
 10
77.209283
 20
172.489190
 30
0.0
 10
77.207283
 20
172.489440
 30
0.0
 10
77.205283
 20
172.489670
 30
0.0
 10
77.203283
 20
172.489880
 30
0.0
 10
77.201283
 20
172.490060
 30
0.0
 10
77.199283
 20
172.490220
 30
0.0
 10
77.197283
 20
172.490360
 30
0.0
 10
77.195283
 20
172.490460
 30
0.0
 10
77.193283
 20
172.490540
 30
0.0
 10
77.191283
 20
172.490590
 30
0.0
 10
77.189283
 20
172.490620
 30
0.0
 10
77.187283
 20
172.490610
 30
0.0
 10
77.185283
 20
172.490580
 30
0.0
 10
77.183283
 20
172.490520
 30
0.0
 10
77.181283
 20
172.490430
 30
0.0
 10
77.179283
 20
172.490310
 30
0.0
 10
77.177283
 20
172.490170
 30
0.0
 10
77.175183
 20
172.489990
 30
0.0
 10
77.173083
 20
172.489790
 30
0.0
 10
77.170983
 20
172.489540
 30
0.0
 10
77.168883
 20
172.489280
 30
0.0
 10
77.166783
 20
172.488980
 30
0.0
 10
77.164683
 20
172.488650
 30
0.0
 10
77.162583
 20
172.488280
 30
0.0
 10
77.160483
 20
172.487890
 30
0.0
 10
77.158383
 20
172.487460
 30
0.0
 10
77.156283
 20
172.486990
 30
0.0
 10
77.154183
 20
172.486500
 30
0.0
 10
77.152083
 20
172.485970
 30
0.0
 10
77.130303
 20
172.478970
 30
0.0
 10
77.107913
 20
172.468470
 30
0.0
 10
77.084873
 20
172.454770
 30
0.0
 10
77.061143
 20
172.437770
 30
0.0
 10
77.036663
 20
172.417470
 30
0.0
 10
77.011403
 20
172.393770
 30
0.0
 10
76.985303
 20
172.366670
 30
0.0
 10
76.958323
 20
172.336070
 30
0.0
 10
76.930423
 20
172.302070
 30
0.0
 10
76.901543
 20
172.264570
 30
0.0
 10
76.871633
 20
172.223470
 30
0.0
 10
76.840663
 20
172.178770
 30
0.0
 10
76.808573
 20
172.130470
 30
0.0
 10
76.775323
 20
172.078470
 30
0.0
 10
76.740873
 20
172.022870
 30
0.0
 10
76.705173
 20
171.963570
 30
0.0
 10
76.668163
 20
171.900470
 30
0.0
 10
76.629813
 20
171.833570
 30
0.0
 10
76.590063
 20
171.762870
 30
0.0
 10
76.548883
 20
171.688370
 30
0.0
 10
76.506213
 20
171.609970
 30
0.0
 10
76.462003
 20
171.527670
 30
0.0
 10
76.416213
 20
171.441370
 30
0.0
 10
76.368803
 20
171.351070
 30
0.0
 10
76.319713
 20
171.256770
 30
0.0
 10
76.268913
 20
171.158470
 30
0.0
 10
76.216353
 20
171.056050
 30
0.0
 10
76.161973
 20
170.949520
 30
0.0
 10
76.105743
 20
170.838840
 30
0.0
 10
76.047603
 20
170.723960
 30
0.0
 10
75.987513
 20
170.604890
 30
0.0
 10
75.925423
 20
170.481550
 30
0.0
 10
75.675983
 20
169.973880
 30
0.0
 10
75.441493
 20
169.472780
 30
0.0
 10
75.221965
 20
168.978580
 30
0.0
 10
75.017416
 20
168.491620
 30
0.0
 10
74.827859
 20
168.012230
 30
0.0
 10
74.653307
 20
167.540740
 30
0.0
 10
74.493778
 20
167.077500
 30
0.0
 10
74.349284
 20
166.622810
 30
0.0
 10
74.219841
 20
166.177020
 30
0.0
 10
74.105462
 20
165.740480
 30
0.0
 10
74.006162
 20
165.313480
 30
0.0
 10
73.921952
 20
164.896390
 30
0.0
 10
73.852852
 20
164.489530
 30
0.0
 10
73.798872
 20
164.093230
 30
0.0
 10
73.760042
 20
163.707830
 30
0.0
 10
73.736352
 20
163.333650
 30
0.0
 10
73.727852
 20
162.971040
 30
0.0
 10
73.734452
 20
162.620310
 30
0.0
 10
73.756312
 20
162.281810
 30
0.0
 10
73.793382
 20
161.955870
 30
0.0
 10
73.845682
 20
161.642810
 30
0.0
 10
73.913222
 20
161.342990
 30
0.0
 10
73.996012
 20
161.056700
 30
0.0
 10
74.094072
 20
160.784310
 30
0.0
 10
74.207411
 20
160.526140
 30
0.0
 10
74.336049
 20
160.282520
 30
0.0
 10
74.479998
 20
160.053790
 30
0.0
 10
74.639274
 20
159.840270
 30
0.0
 10
74.813891
 20
159.642300
 30
0.0
 10
75.003863
 20
159.460210
 30
0.0
 10
75.209207
 20
159.294340
 30
0.0
 10
75.429934
 20
159.145010
 30
0.0
 10
75.590551
 20
159.046610
 30
0.0
 10
75.742464
 20
158.955110
 30
0.0
 10
75.885991
 20
158.870610
 30
0.0
 10
76.021447
 20
158.793210
 30
0.0
 10
76.149153
 20
158.723110
 30
0.0
 10
76.269424
 20
158.660310
 30
0.0
 10
76.382579
 20
158.605010
 30
0.0
 10
76.488935
 20
158.557310
 30
0.0
 10
76.588815
 20
158.517310
 30
0.0
 10
76.682525
 20
158.485110
 30
0.0
 10
76.770395
 20
158.460810
 30
0.0
 10
76.852725
 20
158.444510
 30
0.0
 10
76.929855
 20
158.436510
 30
0.0
 10
77.002085
 20
158.436480
 30
0.0
 10
77.069735
 20
158.444480
 30
0.0
 10
77.133135
 20
158.461280
 30
0.0
 10
77.192585
 20
158.486580
 30
0.0
 10
77.248415
 20
158.520480
 30
0.0
 10
77.300935
 20
158.563180
 30
0.0
 10
77.350475
 20
158.614680
 30
0.0
 10
77.397335
 20
158.675280
 30
0.0
 10
77.441845
 20
158.744980
 30
0.0
 10
77.484325
 20
158.823780
 30
0.0
 10
77.525085
 20
158.911880
 30
0.0
 10
77.564445
 20
159.009480
 30
0.0
 10
77.602715
 20
159.116550
 30
0.0
 10
77.640225
 20
159.233260
 30
0.0
 10
77.677285
 20
159.359710
 30
0.0
 10
77.714225
 20
159.496000
 30
0.0
 10
77.751335
 20
159.642260
 30
0.0
 10
77.788955
 20
159.798580
 30
0.0
 10
77.827395
 20
159.965080
 30
0.0
 10
77.871495
 20
160.184030
 30
0.0
 10
77.911995
 20
160.434930
 30
0.0
 10
77.948935
 20
160.715540
 30
0.0
 10
77.982335
 20
161.023600
 30
0.0
 10
78.012245
 20
161.356900
 30
0.0
 10
78.038695
 20
161.713200
 30
0.0
 10
78.061735
 20
162.090260
 30
0.0
 10
78.081375
 20
162.485820
 30
0.0
 10
78.097675
 20
162.897670
 30
0.0
 10
78.110665
 20
163.323560
 30
0.0
 10
78.120365
 20
163.761260
 30
0.0
 10
78.126865
 20
164.208520
 30
0.0
 10
78.130165
 20
164.663100
 30
0.0
 10
78.130288
 20
165.122780
 30
0.0
 10
78.127288
 20
165.585300
 30
0.0
 10
78.121188
 20
166.048440
 30
0.0
 10
78.111988
 20
166.509960
 30
0.0
 10
78.099828
 20
166.967610
 30
0.0
 10
78.084698
 20
167.419170
 30
0.0
 10
78.066628
 20
167.862380
 30
0.0
 10
78.045648
 20
168.295020
 30
0.0
 10
78.021798
 20
168.714850
 30
0.0
 10
77.995118
 20
169.119620
 30
0.0
 10
77.965648
 20
169.507110
 30
0.0
 10
77.933418
 20
169.875060
 30
0.0
 10
77.898468
 20
170.221250
 30
0.0
 10
77.860838
 20
170.543440
 30
0.0
 10
77.820558
 20
170.839370
 30
0.0
 10
77.777668
 20
171.106850
 30
0.0
 10
77.732208
 20
171.343590
 30
0.0
 10
77.684208
 20
171.547380
 30
0.0
 10
77.633708
 20
171.715980
 30
0.0
 10
77.618858
 20
171.758980
 30
0.0
 10
77.604278
 20
171.800780
 30
0.0
 10
77.589948
 20
171.841580
 30
0.0
 10
77.575848
 20
171.881180
 30
0.0
 10
77.561968
 20
171.919680
 30
0.0
 10
77.548298
 20
171.956980
 30
0.0
 10
77.534818
 20
171.993180
 30
0.0
 10
77.521518
 20
172.028180
 30
0.0
 10
77.508378
 20
172.061980
 30
0.0
 10
77.495398
 20
172.094580
 30
0.0
 10
77.482538
 20
172.125980
 30
0.0
 10
77.469798
 20
172.156180
 30
0.0
 10
77.457168
 20
172.185180
 30
0.0
 10
77.444618
 20
172.212880
 30
0.0
 10
77.432138
 20
172.239280
 30
0.0
 10
77.419728
 20
172.264480
 30
0.0
 10
77.407358
 20
172.288380
 30
0.0
 10
77.395018
 20
172.311080
 30
0.0
 10
77.382688
 20
172.332480
 30
0.0
 10
77.370358
 20
172.352580
 30
0.0
 10
77.358008
 20
172.371280
 30
0.0
 10
77.345628
 20
172.388780
 30
0.0
 10
77.333208
 20
172.404880
 30
0.0
 10
77.320718
 20
172.419680
 30
0.0
 10
77.308158
 20
172.433080
 30
0.0
 10
77.295498
 20
172.445080
 30
0.0
 10
77.282738
 20
172.455680
 30
0.0
 10
77.269858
 20
172.464680
 30
0.0
 10
77.256848
 20
172.471680
 30
0.0
 10
77.243688
 20
172.477680
 30
0.0
 10
77.230358
 20
172.482680
 30
0.0
 10
77.216848
 20
172.485680
 30
0.0
 10
77.216848
 20
172.485670
 30
0.0
 10
77.216849
 20
172.485670
 30
0.0
 10
77.216849
 20
172.485670
 30
0.0
 10
77.216849
 20
172.485670
 30
0.0
 10
77.216849
 20
172.485670
 30
0.0
 10
77.216849
 20
172.485670
 30
0.0
 10
77.216850
 20
172.485660
 30
0.0
 10
77.216850
 20
172.485660
 30
0.0
 10
77.216850
 20
172.485660
 30
0.0
 10
77.216850
 20
172.485660
 30
0.0
 10
77.216851
 20
172.485660
 30
0.0
 10
77.216851
 20
172.485640
 30
0.0
 10
77.216851
 20
172.485640
 30
0.0
 10
77.216851
 20
172.485640
 30
0.0
 10
77.216852
 20
172.485640
 30
0.0
 10
77.216852
 20
172.485640
 30
0.0
 10
77.216852
 20
172.485640
 30
0.0
 10
77.216852
 20
172.485630
 30
0.0
 10
77.216852
 20
172.485630
 30
0.0
 10
77.216853
 20
172.485630
 30
0.0
 10
77.216853
 20
172.485630
 30
0.0
 10
77.216853
 20
172.485630
 30
0.0
 10
77.216853
 20
172.485630
 30
0.0
 10
77.216854
 20
172.485620
 30
0.0
 10
77.216854
 20
172.485620
 30
0.0
 10
77.216854
 20
172.485620
 30
0.0
 10
77.216854
 20
172.485620
 30
0.0
 10
77.216855
 20
172.485620
 30
0.0
 10
77.216855
 20
172.485620
 30
0.0
 10
77.216855
 20
172.485610
 30
0.0
 10
77.216855
 20
172.485610
 30
0.0
  0
LWPOLYLINE
  5
102
100
AcDbEntity
  8
Silkscreen
 62
7
100
AcDbPolyline
 90
192
 70
1
 10
39.468868
 20
172.303270
 30
0.0
 10
39.453128
 20
172.305270
 30
0.0
 10
39.437688
 20
172.305740
 30
0.0
 10
39.422548
 20
172.304740
 30
0.0
 10
39.407688
 20
172.302740
 30
0.0
 10
39.393098
 20
172.298740
 30
0.0
 10
39.378768
 20
172.293740
 30
0.0
 10
39.364678
 20
172.286740
 30
0.0
 10
39.350818
 20
172.278740
 30
0.0
 10
39.337168
 20
172.269740
 30
0.0
 10
39.323718
 20
172.258540
 30
0.0
 10
39.310458
 20
172.246040
 30
0.0
 10
39.297378
 20
172.232140
 30
0.0
 10
39.284458
 20
172.216840
 30
0.0
 10
39.271698
 20
172.200240
 30
0.0
 10
39.259058
 20
172.182240
 30
0.0
 10
39.246548
 20
172.162940
 30
0.0
 10
39.234148
 20
172.142240
 30
0.0
 10
39.221838
 20
172.120340
 30
0.0
 10
39.209618
 20
172.097140
 30
0.0
 10
39.197458
 20
172.072640
 30
0.0
 10
39.185348
 20
172.046940
 30
0.0
 10
39.173288
 20
172.019940
 30
0.0
 10
39.161258
 20
171.991740
 30
0.0
 10
39.149238
 20
171.962240
 30
0.0
 10
39.137218
 20
171.931540
 30
0.0
 10
39.125188
 20
171.899740
 30
0.0
 10
39.113128
 20
171.866740
 30
0.0
 10
39.101028
 20
171.832640
 30
0.0
 10
39.088878
 20
171.797340
 30
0.0
 10
39.076668
 20
171.760840
 30
0.0
 10
39.064368
 20
171.723240
 30
0.0
 10
39.051978
 20
171.684540
 30
0.0
 10
39.004808
 20
171.513570
 30
0.0
 10
38.960098
 20
171.307390
 30
0.0
 10
38.917868
 20
171.068260
 30
0.0
 10
38.878148
 20
170.798440
 30
0.0
 10
38.840968
 20
170.500200
 30
0.0
 10
38.806358
 20
170.175800
 30
0.0
 10
38.774338
 20
169.827490
 30
0.0
 10
38.744948
 20
169.457530
 30
0.0
 10
38.718208
 20
169.068200
 30
0.0
 10
38.694158
 20
168.661750
 30
0.0
 10
38.672828
 20
168.240460
 30
0.0
 10
38.654238
 20
167.806560
 30
0.0
 10
38.638418
 20
167.362330
 30
0.0
 10
38.625398
 20
166.910020
 30
0.0
 10
38.615178
 20
166.451920
 30
0.0
 10
38.607778
 20
165.990260
 30
0.0
 10
38.603378
 20
165.527310
 30
0.0
 10
38.601778
 20
165.065350
 30
0.0
 10
38.603178
 20
164.606610
 30
0.0
 10
38.607578
 20
164.153390
 30
0.0
 10
38.614978
 20
163.707920
 30
0.0
 10
38.625408
 20
163.272470
 30
0.0
 10
38.638888
 20
162.849300
 30
0.0
 10
38.655458
 20
162.440680
 30
0.0
 10
38.675138
 20
162.048870
 30
0.0
 10
38.697978
 20
161.676120
 30
0.0
 10
38.723988
 20
161.324710
 30
0.0
 10
38.753198
 20
160.996880
 30
0.0
 10
38.785648
 20
160.694920
 30
0.0
 10
38.821348
 20
160.421060
 30
0.0
 10
38.860348
 20
160.177590
 30
0.0
 10
38.902668
 20
159.966750
 30
0.0
 10
38.942308
 20
159.796530
 30
0.0
 10
38.981788
 20
159.636740
 30
0.0
 10
39.021388
 20
159.487300
 30
0.0
 10
39.061398
 20
159.348140
 30
0.0
 10
39.102108
 20
159.219200
 30
0.0
 10
39.143818
 20
159.100400
 30
0.0
 10
39.186808
 20
158.991670
 30
0.0
 10
39.231388
 20
158.892970
 30
0.0
 10
39.277838
 20
158.804270
 30
0.0
 10
39.326458
 20
158.725370
 30
0.0
 10
39.377538
 20
158.656270
 30
0.0
 10
39.431368
 20
158.596870
 30
0.0
 10
39.488238
 20
158.547170
 30
0.0
 10
39.548448
 20
158.507070
 30
0.0
 10
39.612288
 20
158.476470
 30
0.0
 10
39.680048
 20
158.455270
 30
0.0
 10
39.752018
 20
158.443470
 30
0.0
 10
39.828488
 20
158.441470
 30
0.0
 10
39.909758
 20
158.447470
 30
0.0
 10
39.996118
 20
158.463370
 30
0.0
 10
40.087858
 20
158.488470
 30
0.0
 10
40.185278
 20
158.522570
 30
0.0
 10
40.288665
 20
158.565670
 30
0.0
 10
40.398311
 20
158.617670
 30
0.0
 10
40.514509
 20
158.678470
 30
0.0
 10
40.637551
 20
158.747970
 30
0.0
 10
40.767729
 20
158.826270
 30
0.0
 10
40.905336
 20
158.913070
 30
0.0
 10
41.050663
 20
159.008570
 30
0.0
 10
41.204005
 20
159.112470
 30
0.0
 10
41.365652
 20
159.224800
 30
0.0
 10
41.535897
 20
159.345480
 30
0.0
 10
41.718649
 20
159.489390
 30
0.0
 10
41.888543
 20
159.650330
 30
0.0
 10
42.045605
 20
159.827740
 30
0.0
 10
42.189854
 20
160.021050
 30
0.0
 10
42.321315
 20
160.229750
 30
0.0
 10
42.440009
 20
160.453260
 30
0.0
 10
42.545961
 20
160.691010
 30
0.0
 10
42.639191
 20
160.942490
 30
0.0
 10
42.719721
 20
161.207130
 30
0.0
 10
42.787571
 20
161.484370
 30
0.0
 10
42.842781
 20
161.773660
 30
0.0
 10
42.885351
 20
162.074450
 30
0.0
 10
42.915311
 20
162.386190
 30
0.0
 10
42.932691
 20
162.708340
 30
0.0
 10
42.937491
 20
163.040320
 30
0.0
 10
42.929791
 20
163.381610
 30
0.0
 10
42.909551
 20
163.731630
 30
0.0
 10
42.876811
 20
164.089850
 30
0.0
 10
42.831601
 20
164.455690
 30
0.0
 10
42.773941
 20
164.828630
 30
0.0
 10
42.703851
 20
165.208100
 30
0.0
 10
42.621351
 20
165.593550
 30
0.0
 10
42.526471
 20
165.984430
 30
0.0
 10
42.419232
 20
166.380190
 30
0.0
 10
42.299655
 20
166.780270
 30
0.0
 10
42.167764
 20
167.184130
 30
0.0
 10
42.023580
 20
167.591210
 30
0.0
 10
41.867126
 20
168.000950
 30
0.0
 10
41.698424
 20
168.412820
 30
0.0
 10
41.517499
 20
168.826250
 30
0.0
 10
41.324370
 20
169.240690
 30
0.0
 10
41.119062
 20
169.655600
 30
0.0
 10
41.033152
 20
169.823970
 30
0.0
 10
40.950092
 20
169.986210
 30
0.0
 10
40.869812
 20
170.142380
 30
0.0
 10
40.792242
 20
170.292550
 30
0.0
 10
40.717332
 20
170.436760
 30
0.0
 10
40.645012
 20
170.575090
 30
0.0
 10
40.575222
 20
170.707600
 30
0.0
 10
40.507892
 20
170.834330
 30
0.0
 10
40.442962
 20
170.955360
 30
0.0
 10
40.380382
 20
171.070750
 30
0.0
 10
40.320072
 20
171.180570
 30
0.0
 10
40.261992
 20
171.284890
 30
0.0
 10
40.206062
 20
171.383690
 30
0.0
 10
40.152212
 20
171.477190
 30
0.0
 10
40.100402
 20
171.565290
 30
0.0
 10
40.050542
 20
171.648090
 30
0.0
 10
40.002582
 20
171.725690
 30
0.0
 10
39.956472
 20
171.798090
 30
0.0
 10
39.912132
 20
171.865390
 30
0.0
 10
39.869502
 20
171.927690
 30
0.0
 10
39.828522
 20
171.984990
 30
0.0
 10
39.789132
 20
172.037490
 30
0.0
 10
39.751272
 20
172.085090
 30
0.0
 10
39.714862
 20
172.127890
 30
0.0
 10
39.679852
 20
172.165890
 30
0.0
 10
39.646182
 20
172.199290
 30
0.0
 10
39.613792
 20
172.228090
 30
0.0
 10
39.582612
 20
172.252290
 30
0.0
 10
39.552572
 20
172.272090
 30
0.0
 10
39.523612
 20
172.287490
 30
0.0
 10
39.495672
 20
172.298490
 30
0.0
 10
39.468702
 20
172.304490
 30
0.0
 10
39.468702
 20
172.304490
 30
0.0
 10
39.468702
 20
172.304490
 30
0.0
 10
39.468702
 20
172.304490
 30
0.0
 10
39.468702
 20
172.304490
 30
0.0
 10
39.468703
 20
172.304490
 30
0.0
 10
39.468703
 20
172.304490
 30
0.0
 10
39.468703
 20
172.304490
 30
0.0
 10
39.468703
 20
172.304490
 30
0.0
 10
39.468703
 20
172.304490
 30
0.0
 10
39.468703
 20
172.304490
 30
0.0
 10
39.468704
 20
172.304490
 30
0.0
 10
39.468704
 20
172.304490
 30
0.0
 10
39.468704
 20
172.304490
 30
0.0
 10
39.468704
 20
172.304490
 30
0.0
 10
39.468704
 20
172.304490
 30
0.0
 10
39.468704
 20
172.304490
 30
0.0
 10
39.468705
 20
172.304490
 30
0.0
 10
39.468705
 20
172.304490
 30
0.0
 10
39.468705
 20
172.304490
 30
0.0
 10
39.468705
 20
172.304490
 30
0.0
 10
39.468705
 20
172.304490
 30
0.0
 10
39.468706
 20
172.304490
 30
0.0
 10
39.468706
 20
172.304490
 30
0.0
 10
39.468706
 20
172.304490
 30
0.0
 10
39.468706
 20
172.304490
 30
0.0
 10
39.468706
 20
172.304490
 30
0.0
 10
39.468706
 20
172.304490
 30
0.0
 10
39.468707
 20
172.304490
 30
0.0
 10
39.468707
 20
172.304490
 30
0.0
 10
39.468707
 20
172.304490
 30
0.0
 10
39.468707
 20
172.304490
 30
0.0
  0
LWPOLYLINE
  5
103
100
AcDbEntity
  8
Silkscreen
 62
7
100
AcDbPolyline
 90
320
 70
1
 10
72.981417
 20
148.970010
 30
0.0
 10
72.971917
 20
148.971010
 30
0.0
 10
72.962117
 20
148.972010
 30
0.0
 10
72.952107
 20
148.972950
 30
0.0
 10
72.941887
 20
148.973610
 30
0.0
 10
72.931347
 20
148.974000
 30
0.0
 10
72.920607
 20
148.974120
 30
0.0
 10
72.909627
 20
148.973980
 30
0.0
 10
72.898407
 20
148.973570
 30
0.0
 10
72.886937
 20
148.972910
 30
0.0
 10
72.875217
 20
148.971980
 30
0.0
 10
72.863257
 20
148.970980
 30
0.0
 10
72.851047
 20
148.969980
 30
0.0
 10
72.838587
 20
148.967980
 30
0.0
 10
72.825877
 20
148.965980
 30
0.0
 10
72.812927
 20
148.963980
 30
0.0
 10
72.799727
 20
148.961980
 30
0.0
 10
72.786267
 20
148.959980
 30
0.0
 10
72.772567
 20
148.956980
 30
0.0
 10
72.758617
 20
148.953980
 30
0.0
 10
72.744407
 20
148.950980
 30
0.0
 10
72.729947
 20
148.947980
 30
0.0
 10
72.715247
 20
148.943980
 30
0.0
 10
72.700297
 20
148.939980
 30
0.0
 10
72.685087
 20
148.935980
 30
0.0
 10
72.669627
 20
148.931980
 30
0.0
 10
72.653907
 20
148.927980
 30
0.0
 10
72.637927
 20
148.922980
 30
0.0
 10
72.621697
 20
148.917980
 30
0.0
 10
72.605217
 20
148.912980
 30
0.0
 10
72.588487
 20
148.907980
 30
0.0
 10
72.571487
 20
148.902980
 30
0.0
 10
72.554237
 20
148.897980
 30
0.0
 10
72.508937
 20
148.882880
 30
0.0
 10
72.462937
 20
148.867980
 30
0.0
 10
72.416327
 20
148.853280
 30
0.0
 10
72.369207
 20
148.838880
 30
0.0
 10
72.321647
 20
148.824680
 30
0.0
 10
72.273737
 20
148.810780
 30
0.0
 10
72.225567
 20
148.797080
 30
0.0
 10
72.177227
 20
148.783680
 30
0.0
 10
72.128807
 20
148.770580
 30
0.0
 10
72.080397
 20
148.757880
 30
0.0
 10
72.032067
 20
148.745580
 30
0.0
 10
71.983917
 20
148.733580
 30
0.0
 10
71.936047
 20
148.721980
 30
0.0
 10
71.888517
 20
148.710780
 30
0.0
 10
71.841437
 20
148.700080
 30
0.0
 10
71.794877
 20
148.689580
 30
0.0
 10
71.748947
 20
148.680580
 30
0.0
 10
71.703707
 20
148.671580
 30
0.0
 10
71.659257
 20
148.663580
 30
0.0
 10
71.615697
 20
148.655580
 30
0.0
 10
71.573097
 20
148.648580
 30
0.0
 10
71.531547
 20
148.641580
 30
0.0
 10
71.491137
 20
148.635580
 30
0.0
 10
71.451957
 20
148.629580
 30
0.0
 10
71.414097
 20
148.624580
 30
0.0
 10
71.377637
 20
148.620580
 30
0.0
 10
71.342657
 20
148.616580
 30
0.0
 10
71.309267
 20
148.613580
 30
0.0
 10
71.277537
 20
148.611580
 30
0.0
 10
71.247557
 20
148.609580
 30
0.0
 10
71.219417
 20
148.608580
 30
0.0
 10
71.193207
 20
148.608190
 30
0.0
 10
71.167617
 20
148.606190
 30
0.0
 10
71.141347
 20
148.600190
 30
0.0
 10
71.114437
 20
148.589690
 30
0.0
 10
71.086947
 20
148.575790
 30
0.0
 10
71.058937
 20
148.558090
 30
0.0
 10
71.030467
 20
148.536790
 30
0.0
 10
71.001587
 20
148.511890
 30
0.0
 10
70.972347
 20
148.483690
 30
0.0
 10
70.942807
 20
148.452090
 30
0.0
 10
70.913027
 20
148.417190
 30
0.0
 10
70.883067
 20
148.379190
 30
0.0
 10
70.852977
 20
148.338090
 30
0.0
 10
70.822817
 20
148.294190
 30
0.0
 10
70.792647
 20
148.247290
 30
0.0
 10
70.762517
 20
148.197690
 30
0.0
 10
70.732487
 20
148.145490
 30
0.0
 10
70.702607
 20
148.090690
 30
0.0
 10
70.672947
 20
148.033490
 30
0.0
 10
70.643557
 20
147.973990
 30
0.0
 10
70.614497
 20
147.912190
 30
0.0
 10
70.585817
 20
147.848290
 30
0.0
 10
70.557577
 20
147.782290
 30
0.0
 10
70.529827
 20
147.714390
 30
0.0
 10
70.502627
 20
147.644790
 30
0.0
 10
70.476037
 20
147.573390
 30
0.0
 10
70.450117
 20
147.500390
 30
0.0
 10
70.424907
 20
147.425790
 30
0.0
 10
70.400477
 20
147.349790
 30
0.0
 10
70.376887
 20
147.272490
 30
0.0
 10
70.354177
 20
147.193990
 30
0.0
 10
70.332417
 20
147.114290
 30
0.0
 10
70.311657
 20
147.033590
 30
0.0
 10
70.258027
 20
146.841570
 30
0.0
 10
70.194827
 20
146.656250
 30
0.0
 10
70.122507
 20
146.477860
 30
0.0
 10
70.041517
 20
146.306550
 30
0.0
 10
69.952277
 20
146.142550
 30
0.0
 10
69.855267
 20
145.986030
 30
0.0
 10
69.750910
 20
145.837200
 30
0.0
 10
69.639653
 20
145.696250
 30
0.0
 10
69.521946
 20
145.563360
 30
0.0
 10
69.398231
 20
145.438740
 30
0.0
 10
69.268955
 20
145.322580
 30
0.0
 10
69.134562
 20
145.215080
 30
0.0
 10
68.995497
 20
145.116480
 30
0.0
 10
68.852206
 20
145.026880
 30
0.0
 10
68.705133
 20
144.946480
 30
0.0
 10
68.554724
 20
144.875580
 30
0.0
 10
68.401425
 20
144.814280
 30
0.0
 10
68.245679
 20
144.762780
 30
0.0
 10
68.087933
 20
144.721280
 30
0.0
 10
67.928631
 20
144.689980
 30
0.0
 10
67.768218
 20
144.669080
 30
0.0
 10
67.607139
 20
144.658580
 30
0.0
 10
67.445840
 20
144.659050
 30
0.0
 10
67.284765
 20
144.670550
 30
0.0
 10
67.124360
 20
144.693250
 30
0.0
 10
66.965071
 20
144.727250
 30
0.0
 10
66.807341
 20
144.772750
 30
0.0
 10
66.651616
 20
144.830050
 30
0.0
 10
66.498342
 20
144.899250
 30
0.0
 10
66.347963
 20
144.980650
 30
0.0
 10
66.200923
 20
145.074350
 30
0.0
 10
66.057669
 20
145.180600
 30
0.0
 10
65.982219
 20
145.239900
 30
0.0
 10
65.909119
 20
145.295700
 30
0.0
 10
65.838259
 20
145.348100
 30
0.0
 10
65.769539
 20
145.397000
 30
0.0
 10
65.702859
 20
145.442500
 30
0.0
 10
65.638129
 20
145.484500
 30
0.0
 10
65.575229
 20
145.523200
 30
0.0
 10
65.514069
 20
145.558400
 30
0.0
 10
65.454549
 20
145.590200
 30
0.0
 10
65.396569
 20
145.618700
 30
0.0
 10
65.340019
 20
145.643800
 30
0.0
 10
65.284809
 20
145.665500
 30
0.0
 10
65.230829
 20
145.683800
 30
0.0
 10
65.177989
 20
145.698900
 30
0.0
 10
65.126179
 20
145.710600
 30
0.0
 10
65.075299
 20
145.718600
 30
0.0
 10
65.025259
 20
145.723600
 30
0.0
 10
64.975949
 20
145.725600
 30
0.0
 10
64.927269
 20
145.724600
 30
0.0
 10
64.879119
 20
145.720600
 30
0.0
 10
64.831399
 20
145.713600
 30
0.0
 10
64.784009
 20
145.702500
 30
0.0
 10
64.736839
 20
145.688200
 30
0.0
 10
64.689799
 20
145.670700
 30
0.0
 10
64.642789
 20
145.650000
 30
0.0
 10
64.595709
 20
145.626200
 30
0.0
 10
64.548449
 20
145.599200
 30
0.0
 10
64.500909
 20
145.569100
 30
0.0
 10
64.452989
 20
145.535800
 30
0.0
 10
64.404589
 20
145.499500
 30
0.0
 10
64.355609
 20
145.460100
 30
0.0
 10
64.305949
 20
145.417500
 30
0.0
 10
64.214249
 20
145.334800
 30
0.0
 10
64.129469
 20
145.254300
 30
0.0
 10
64.051629
 20
145.175800
 30
0.0
 10
63.980759
 20
145.099400
 30
0.0
 10
63.916879
 20
145.024900
 30
0.0
 10
63.860019
 20
144.952300
 30
0.0
 10
63.810199
 20
144.881500
 30
0.0
 10
63.767449
 20
144.812400
 30
0.0
 10
63.731789
 20
144.744900
 30
0.0
 10
63.703239
 20
144.678900
 30
0.0
 10
63.681829
 20
144.614400
 30
0.0
 10
63.667579
 20
144.551300
 30
0.0
 10
63.660479
 20
144.489500
 30
0.0
 10
63.660640
 20
144.429000
 30
0.0
 10
63.668040
 20
144.369700
 30
0.0
 10
63.682710
 20
144.311400
 30
0.0
 10
63.704660
 20
144.254200
 30
0.0
 10
63.733920
 20
144.197800
 30
0.0
 10
63.770530
 20
144.142400
 30
0.0
 10
63.814510
 20
144.087700
 30
0.0
 10
63.865870
 20
144.033700
 30
0.0
 10
63.924640
 20
143.980400
 30
0.0
 10
63.990850
 20
143.927600
 30
0.0
 10
64.064520
 20
143.875200
 30
0.0
 10
64.145680
 20
143.823300
 30
0.0
 10
64.234350
 20
143.771700
 30
0.0
 10
64.330560
 20
143.720400
 30
0.0
 10
64.434327
 20
143.669200
 30
0.0
 10
64.545682
 20
143.618100
 30
0.0
 10
64.664650
 20
143.567000
 30
0.0
 10
64.791253
 20
143.515800
 30
0.0
 10
64.925517
 20
143.464500
 30
0.0
 10
65.092771
 20
143.407000
 30
0.0
 10
65.268272
 20
143.355600
 30
0.0
 10
65.451385
 20
143.310200
 30
0.0
 10
65.641471
 20
143.270700
 30
0.0
 10
65.837893
 20
143.237100
 30
0.0
 10
66.040010
 20
143.209200
 30
0.0
 10
66.247188
 20
143.187100
 30
0.0
 10
66.458786
 20
143.170600
 30
0.0
 10
66.674166
 20
143.159500
 30
0.0
 10
66.892692
 20
143.154500
 30
0.0
 10
67.113725
 20
143.154340
 30
0.0
 10
67.336626
 20
143.159340
 30
0.0
 10
67.560758
 20
143.169840
 30
0.0
 10
67.785483
 20
143.185340
 30
0.0
 10
68.010163
 20
143.205940
 30
0.0
 10
68.234159
 20
143.231440
 30
0.0
 10
68.456835
 20
143.261940
 30
0.0
 10
68.677550
 20
143.297140
 30
0.0
 10
68.895669
 20
143.337040
 30
0.0
 10
69.110552
 20
143.381740
 30
0.0
 10
69.321562
 20
143.430940
 30
0.0
 10
69.528061
 20
143.484640
 30
0.0
 10
69.729410
 20
143.542840
 30
0.0
 10
69.924973
 20
143.605340
 30
0.0
 10
70.114110
 20
143.672140
 30
0.0
 10
70.296183
 20
143.743040
 30
0.0
 10
70.470555
 20
143.818040
 30
0.0
 10
70.636587
 20
143.897040
 30
0.0
 10
70.793642
 20
143.980040
 30
0.0
 10
70.941081
 20
144.066840
 30
0.0
 10
71.078267
 20
144.157440
 30
0.0
 10
71.204561
 20
144.251740
 30
0.0
 10
71.258221
 20
144.296640
 30
0.0
 10
71.312741
 20
144.346240
 30
0.0
 10
71.368021
 20
144.400540
 30
0.0
 10
71.423941
 20
144.459140
 30
0.0
 10
71.480421
 20
144.521940
 30
0.0
 10
71.537341
 20
144.588840
 30
0.0
 10
71.594601
 20
144.659540
 30
0.0
 10
71.652101
 20
144.733940
 30
0.0
 10
71.709721
 20
144.811840
 30
0.0
 10
71.767371
 20
144.892940
 30
0.0
 10
71.824941
 20
144.977240
 30
0.0
 10
71.882331
 20
145.064540
 30
0.0
 10
71.939431
 20
145.154440
 30
0.0
 10
71.996151
 20
145.246940
 30
0.0
 10
72.052361
 20
145.341740
 30
0.0
 10
72.107981
 20
145.438740
 30
0.0
 10
72.162891
 20
145.537840
 30
0.0
 10
72.216991
 20
145.638690
 30
0.0
 10
72.270171
 20
145.741220
 30
0.0
 10
72.322341
 20
145.845120
 30
0.0
 10
72.373391
 20
145.950290
 30
0.0
 10
72.423211
 20
146.056550
 30
0.0
 10
72.471691
 20
146.163700
 30
0.0
 10
72.518741
 20
146.271540
 30
0.0
 10
72.564251
 20
146.379900
 30
0.0
 10
72.608121
 20
146.488590
 30
0.0
 10
72.650241
 20
146.597440
 30
0.0
 10
72.690511
 20
146.706230
 30
0.0
 10
72.728821
 20
146.814810
 30
0.0
 10
72.765071
 20
146.922980
 30
0.0
 10
72.799151
 20
147.030570
 30
0.0
 10
72.830961
 20
147.137370
 30
0.0
 10
72.865621
 20
147.258340
 30
0.0
 10
72.898471
 20
147.374480
 30
0.0
 10
72.929491
 20
147.485850
 30
0.0
 10
72.958671
 20
147.592520
 30
0.0
 10
72.986011
 20
147.694530
 30
0.0
 10
73.011481
 20
147.792030
 30
0.0
 10
73.035071
 20
147.885130
 30
0.0
 10
73.056781
 20
147.973730
 30
0.0
 10
73.076591
 20
148.058030
 30
0.0
 10
73.094491
 20
148.138130
 30
0.0
 10
73.110481
 20
148.214130
 30
0.0
 10
73.124531
 20
148.286030
 30
0.0
 10
73.136641
 20
148.353930
 30
0.0
 10
73.146761
 20
148.417930
 30
0.0
 10
73.154961
 20
148.478030
 30
0.0
 10
73.161161
 20
148.534330
 30
0.0
 10
73.165361
 20
148.586930
 30
0.0
 10
73.167561
 20
148.635830
 30
0.0
 10
73.167747
 20
148.681130
 30
0.0
 10
73.165947
 20
148.723030
 30
0.0
 10
73.162047
 20
148.761530
 30
0.0
 10
73.156147
 20
148.796730
 30
0.0
 10
73.148147
 20
148.828630
 30
0.0
 10
73.138027
 20
148.857430
 30
0.0
 10
73.125867
 20
148.883030
 30
0.0
 10
73.111607
 20
148.905530
 30
0.0
 10
73.095237
 20
148.925130
 30
0.0
 10
73.076747
 20
148.941930
 30
0.0
 10
73.056117
 20
148.955830
 30
0.0
 10
73.033347
 20
148.967130
 30
0.0
 10
73.008417
 20
148.975130
 30
0.0
 10
72.981317
 20
148.981130
 30
0.0
 10
72.981317
 20
148.981130
 30
0.0
 10
72.981317
 20
148.981130
 30
0.0
 10
72.981317
 20
148.981140
 30
0.0
 10
72.981317
 20
148.981140
 30
0.0
 10
72.981318
 20
148.981140
 30
0.0
 10
72.981318
 20
148.981140
 30
0.0
 10
72.981318
 20
148.981140
 30
0.0
 10
72.981318
 20
148.981140
 30
0.0
 10
72.981318
 20
148.981140
 30
0.0
 10
72.981318
 20
148.981140
 30
0.0
 10
72.981319
 20
148.981150
 30
0.0
 10
72.981319
 20
148.981150
 30
0.0
 10
72.981319
 20
148.981150
 30
0.0
 10
72.981319
 20
148.981150
 30
0.0
 10
72.981319
 20
148.981150
 30
0.0
 10
72.981319
 20
148.981150
 30
0.0
 10
72.981320
 20
148.981150
 30
0.0
 10
72.981320
 20
148.981150
 30
0.0
 10
72.981320
 20
148.981150
 30
0.0
 10
72.981320
 20
148.981160
 30
0.0
 10
72.981320
 20
148.981160
 30
0.0
 10
72.981320
 20
148.981160
 30
0.0
 10
72.981321
 20
148.981160
 30
0.0
 10
72.981321
 20
148.981160
 30
0.0
 10
72.981321
 20
148.981160
 30
0.0
 10
72.981321
 20
148.981160
 30
0.0
 10
72.981321
 20
148.981160
 30
0.0
 10
72.981321
 20
148.981160
 30
0.0
 10
72.981322
 20
148.981170
 30
0.0
 10
72.981322
 20
148.981170
 30
0.0
 10
72.981322
 20
148.981170
 30
0.0
  0
LWPOLYLINE
  5
104
100
AcDbEntity
  8
Silkscreen
 62
7
100
AcDbPolyline
 90
352
 70
1
 10
43.755885
 20
148.968010
 30
0.0
 10
43.728255
 20
148.963010
 30
0.0
 10
43.702605
 20
148.956010
 30
0.0
 10
43.678925
 20
148.945510
 30
0.0
 10
43.657195
 20
148.933010
 30
0.0
 10
43.637405
 20
148.917910
 30
0.0
 10
43.619545
 20
148.900310
 30
0.0
 10
43.603595
 20
148.880010
 30
0.0
 10
43.589525
 20
148.857010
 30
0.0
 10
43.577345
 20
148.831210
 30
0.0
 10
43.567015
 20
148.802510
 30
0.0
 10
43.558615
 20
148.771010
 30
0.0
 10
43.552015
 20
148.736610
 30
0.0
 10
43.547215
 20
148.699110
 30
0.0
 10
43.544115
 20
148.658510
 30
0.0
 10
43.542815
 20
148.614910
 30
0.0
 10
43.543357
 20
148.568010
 30
0.0
 10
43.545657
 20
148.517910
 30
0.0
 10
43.549657
 20
148.464510
 30
0.0
 10
43.555457
 20
148.407710
 30
0.0
 10
43.562957
 20
148.347510
 30
0.0
 10
43.572157
 20
148.283910
 30
0.0
 10
43.583017
 20
148.216710
 30
0.0
 10
43.595547
 20
148.145910
 30
0.0
 10
43.609727
 20
148.071410
 30
0.0
 10
43.625557
 20
147.993210
 30
0.0
 10
43.643007
 20
147.911210
 30
0.0
 10
43.662057
 20
147.825410
 30
0.0
 10
43.682707
 20
147.735710
 30
0.0
 10
43.704927
 20
147.642010
 30
0.0
 10
43.728717
 20
147.544310
 30
0.0
 10
43.754057
 20
147.442610
 30
0.0
 10
43.780927
 20
147.336760
 30
0.0
 10
43.832907
 20
147.141180
 30
0.0
 10
43.887347
 20
146.951070
 30
0.0
 10
43.944297
 20
146.766380
 30
0.0
 10
44.003817
 20
146.587020
 30
0.0
 10
44.065977
 20
146.412910
 30
0.0
 10
44.130837
 20
146.243980
 30
0.0
 10
44.198467
 20
146.080140
 30
0.0
 10
44.268927
 20
145.921320
 30
0.0
 10
44.342267
 20
145.767440
 30
0.0
 10
44.418567
 20
145.618430
 30
0.0
 10
44.497887
 20
145.474210
 30
0.0
 10
44.580297
 20
145.334680
 30
0.0
 10
44.665847
 20
145.199790
 30
0.0
 10
44.754607
 20
145.069440
 30
0.0
 10
44.846637
 20
144.943580
 30
0.0
 10
44.942007
 20
144.822110
 30
0.0
 10
45.040777
 20
144.704960
 30
0.0
 10
45.143005
 20
144.592050
 30
0.0
 10
45.248764
 20
144.483280
 30
0.0
 10
45.358112
 20
144.378640
 30
0.0
 10
45.471115
 20
144.278000
 30
0.0
 10
45.587833
 20
144.181300
 30
0.0
 10
45.708332
 20
144.088300
 30
0.0
 10
45.832674
 20
143.999100
 30
0.0
 10
45.960923
 20
143.913600
 30
0.0
 10
46.093144
 20
143.831800
 30
0.0
 10
46.229397
 20
143.753500
 30
0.0
 10
46.369748
 20
143.678700
 30
0.0
 10
46.514260
 20
143.607300
 30
0.0
 10
46.662996
 20
143.539200
 30
0.0
 10
46.816019
 20
143.474300
 30
0.0
 10
46.973394
 20
143.412600
 30
0.0
 10
47.110565
 20
143.365600
 30
0.0
 10
47.259294
 20
143.323400
 30
0.0
 10
47.418699
 20
143.286100
 30
0.0
 10
47.587898
 20
143.253500
 30
0.0
 10
47.766010
 20
143.225600
 30
0.0
 10
47.952153
 20
143.202200
 30
0.0
 10
48.145445
 20
143.183300
 30
0.0
 10
48.345003
 20
143.168800
 30
0.0
 10
48.549947
 20
143.158300
 30
0.0
 10
48.759393
 20
143.152300
 30
0.0
 10
48.972461
 20
143.150300
 30
0.0
 10
49.188270
 20
143.152300
 30
0.0
 10
49.405935
 20
143.158300
 30
0.0
 10
49.624576
 20
143.168800
 30
0.0
 10
49.843312
 20
143.182900
 30
0.0
 10
50.061259
 20
143.200700
 30
0.0
 10
50.277537
 20
143.222200
 30
0.0
 10
50.491264
 20
143.247400
 30
0.0
 10
50.701556
 20
143.276100
 30
0.0
 10
50.907535
 20
143.308300
 30
0.0
 10
51.108316
 20
143.343800
 30
0.0
 10
51.303017
 20
143.382600
 30
0.0
 10
51.490758
 20
143.424500
 30
0.0
 10
51.670657
 20
143.469600
 30
0.0
 10
51.841831
 20
143.517800
 30
0.0
 10
52.003398
 20
143.568900
 30
0.0
 10
52.154477
 20
143.622900
 30
0.0
 10
52.294186
 20
143.679700
 30
0.0
 10
52.421645
 20
143.739200
 30
0.0
 10
52.535968
 20
143.801400
 30
0.0
 10
52.636279
 20
143.866100
 30
0.0
 10
52.721689
 20
143.933300
 30
0.0
 10
52.721689
 20
143.933330
 30
0.0
 10
52.721689
 20
143.933360
 30
0.0
 10
52.721689
 20
143.933390
 30
0.0
 10
52.721689
 20
143.933430
 30
0.0
 10
52.721689
 20
143.933460
 30
0.0
 10
52.721689
 20
143.933490
 30
0.0
 10
52.721689
 20
143.933520
 30
0.0
 10
52.721689
 20
143.933550
 30
0.0
 10
52.721689
 20
143.933590
 30
0.0
 10
52.721689
 20
143.933630
 30
0.0
 10
52.721689
 20
143.933660
 30
0.0
 10
52.721689
 20
143.933690
 30
0.0
 10
52.721689
 20
143.933720
 30
0.0
 10
52.721689
 20
143.933750
 30
0.0
 10
52.721689
 20
143.933780
 30
0.0
 10
52.721689
 20
143.933820
 30
0.0
 10
52.721689
 20
143.933850
 30
0.0
 10
52.721689
 20
143.933880
 30
0.0
 10
52.721689
 20
143.933910
 30
0.0
 10
52.721689
 20
143.933940
 30
0.0
 10
52.721689
 20
143.933970
 30
0.0
 10
52.721689
 20
143.934010
 30
0.0
 10
52.721689
 20
143.934040
 30
0.0
 10
52.721689
 20
143.934070
 30
0.0
 10
52.721689
 20
143.934100
 30
0.0
 10
52.721689
 20
143.934130
 30
0.0
 10
52.721689
 20
143.934160
 30
0.0
 10
52.721689
 20
143.934210
 30
0.0
 10
52.721689
 20
143.934240
 30
0.0
 10
52.721689
 20
143.934270
 30
0.0
 10
52.721689
 20
143.934300
 30
0.0
 10
52.721689
 20
143.934330
 30
0.0
 10
52.756419
 20
143.966330
 30
0.0
 10
52.788599
 20
143.998930
 30
0.0
 10
52.818239
 20
144.032030
 30
0.0
 10
52.845329
 20
144.065630
 30
0.0
 10
52.869879
 20
144.099830
 30
0.0
 10
52.891879
 20
144.134630
 30
0.0
 10
52.911339
 20
144.169930
 30
0.0
 10
52.928259
 20
144.205730
 30
0.0
 10
52.942629
 20
144.242030
 30
0.0
 10
52.954459
 20
144.278930
 30
0.0
 10
52.963759
 20
144.316330
 30
0.0
 10
52.970459
 20
144.354230
 30
0.0
 10
52.974659
 20
144.392730
 30
0.0
 10
52.976359
 20
144.431730
 30
0.0
 10
52.975490
 20
144.471230
 30
0.0
 10
52.972090
 20
144.511330
 30
0.0
 10
52.966190
 20
144.551830
 30
0.0
 10
52.957690
 20
144.592830
 30
0.0
 10
52.946660
 20
144.634330
 30
0.0
 10
52.933100
 20
144.676330
 30
0.0
 10
52.917000
 20
144.718830
 30
0.0
 10
52.898360
 20
144.761830
 30
0.0
 10
52.877180
 20
144.805330
 30
0.0
 10
52.853470
 20
144.849330
 30
0.0
 10
52.827220
 20
144.893830
 30
0.0
 10
52.798430
 20
144.938830
 30
0.0
 10
52.767110
 20
144.984230
 30
0.0
 10
52.733250
 20
145.030230
 30
0.0
 10
52.696850
 20
145.076630
 30
0.0
 10
52.657920
 20
145.123530
 30
0.0
 10
52.616460
 20
145.170830
 30
0.0
 10
52.572470
 20
145.218630
 30
0.0
 10
52.512880
 20
145.281130
 30
0.0
 10
52.455480
 20
145.339630
 30
0.0
 10
52.400010
 20
145.394030
 30
0.0
 10
52.346220
 20
145.444430
 30
0.0
 10
52.293860
 20
145.490730
 30
0.0
 10
52.242660
 20
145.532930
 30
0.0
 10
52.192370
 20
145.571130
 30
0.0
 10
52.142730
 20
145.605230
 30
0.0
 10
52.093490
 20
145.635230
 30
0.0
 10
52.044380
 20
145.661230
 30
0.0
 10
51.995160
 20
145.683130
 30
0.0
 10
51.945560
 20
145.701030
 30
0.0
 10
51.895330
 20
145.714830
 30
0.0
 10
51.844210
 20
145.723830
 30
0.0
 10
51.791940
 20
145.728830
 30
0.0
 10
51.738270
 20
145.730830
 30
0.0
 10
51.682940
 20
145.728830
 30
0.0
 10
51.625690
 20
145.722830
 30
0.0
 10
51.566270
 20
145.712230
 30
0.0
 10
51.504410
 20
145.697630
 30
0.0
 10
51.439880
 20
145.678830
 30
0.0
 10
51.372400
 20
145.655930
 30
0.0
 10
51.301710
 20
145.629030
 30
0.0
 10
51.227560
 20
145.598030
 30
0.0
 10
51.149710
 20
145.562930
 30
0.0
 10
51.067880
 20
145.523730
 30
0.0
 10
50.981820
 20
145.480530
 30
0.0
 10
50.891280
 20
145.433230
 30
0.0
 10
50.796000
 20
145.381830
 30
0.0
 10
50.695710
 20
145.326330
 30
0.0
 10
50.590168
 20
145.266730
 30
0.0
 10
50.479111
 20
145.202930
 30
0.0
 10
50.309526
 20
145.110730
 30
0.0
 10
50.139763
 20
145.029430
 30
0.0
 10
49.970092
 20
144.959030
 30
0.0
 10
49.800788
 20
144.899430
 30
0.0
 10
49.632124
 20
144.850330
 30
0.0
 10
49.464372
 20
144.811730
 30
0.0
 10
49.297805
 20
144.783430
 30
0.0
 10
49.132697
 20
144.765430
 30
0.0
 10
48.969320
 20
144.758430
 30
0.0
 10
48.807948
 20
144.760430
 30
0.0
 10
48.648854
 20
144.772430
 30
0.0
 10
48.492309
 20
144.794130
 30
0.0
 10
48.338588
 20
144.825530
 30
0.0
 10
48.187964
 20
144.866330
 30
0.0
 10
48.040708
 20
144.916630
 30
0.0
 10
47.897095
 20
144.976030
 30
0.0
 10
47.757397
 20
145.044630
 30
0.0
 10
47.621887
 20
145.122230
 30
0.0
 10
47.490838
 20
145.208730
 30
0.0
 10
47.364523
 20
145.304030
 30
0.0
 10
47.243216
 20
145.407930
 30
0.0
 10
47.127190
 20
145.520310
 30
0.0
 10
47.016715
 20
145.641090
 30
0.0
 10
46.912063
 20
145.770110
 30
0.0
 10
46.813513
 20
145.907300
 30
0.0
 10
46.721343
 20
146.052490
 30
0.0
 10
46.635803
 20
146.205580
 30
0.0
 10
46.557193
 20
146.366440
 30
0.0
 10
46.485763
 20
146.534940
 30
0.0
 10
46.421813
 20
146.710980
 30
0.0
 10
46.365593
 20
146.894410
 30
0.0
 10
46.317383
 20
147.085130
 30
0.0
 10
46.299173
 20
147.162730
 30
0.0
 10
46.279993
 20
147.239330
 30
0.0
 10
46.259893
 20
147.314730
 30
0.0
 10
46.238933
 20
147.389030
 30
0.0
 10
46.217163
 20
147.462030
 30
0.0
 10
46.194623
 20
147.533730
 30
0.0
 10
46.171373
 20
147.603930
 30
0.0
 10
46.147473
 20
147.672530
 30
0.0
 10
46.122963
 20
147.739430
 30
0.0
 10
46.097893
 20
147.804630
 30
0.0
 10
46.072323
 20
147.867930
 30
0.0
 10
46.046303
 20
147.929330
 30
0.0
 10
46.019883
 20
147.988630
 30
0.0
 10
45.993113
 20
148.045830
 30
0.0
 10
45.966053
 20
148.100830
 30
0.0
 10
45.938753
 20
148.153430
 30
0.0
 10
45.911263
 20
148.203630
 30
0.0
 10
45.883623
 20
148.251230
 30
0.0
 10
45.855903
 20
148.296230
 30
0.0
 10
45.828143
 20
148.338430
 30
0.0
 10
45.800393
 20
148.377930
 30
0.0
 10
45.772713
 20
148.414530
 30
0.0
 10
45.745153
 20
148.448030
 30
0.0
 10
45.717763
 20
148.478330
 30
0.0
 10
45.690593
 20
148.505530
 30
0.0
 10
45.663703
 20
148.529330
 30
0.0
 10
45.637133
 20
148.549730
 30
0.0
 10
45.610943
 20
148.566730
 30
0.0
 10
45.585183
 20
148.580130
 30
0.0
 10
45.559903
 20
148.589130
 30
0.0
 10
45.535163
 20
148.595130
 30
0.0
 10
45.511003
 20
148.597130
 30
0.0
 10
45.486153
 20
148.597520
 30
0.0
 10
45.459363
 20
148.598520
 30
0.0
 10
45.430733
 20
148.600520
 30
0.0
 10
45.400333
 20
148.602520
 30
0.0
 10
45.368253
 20
148.605520
 30
0.0
 10
45.334573
 20
148.609520
 30
0.0
 10
45.299383
 20
148.613520
 30
0.0
 10
45.262773
 20
148.618520
 30
0.0
 10
45.224823
 20
148.624520
 30
0.0
 10
45.185623
 20
148.630520
 30
0.0
 10
45.145253
 20
148.637520
 30
0.0
 10
45.103793
 20
148.644520
 30
0.0
 10
45.061343
 20
148.652520
 30
0.0
 10
45.017983
 20
148.660520
 30
0.0
 10
44.973783
 20
148.669520
 30
0.0
 10
44.928853
 20
148.678520
 30
0.0
 10
44.883253
 20
148.689020
 30
0.0
 10
44.837083
 20
148.699820
 30
0.0
 10
44.790433
 20
148.711020
 30
0.0
 10
44.743383
 20
148.722620
 30
0.0
 10
44.696013
 20
148.734620
 30
0.0
 10
44.648413
 20
148.746920
 30
0.0
 10
44.600663
 20
148.759720
 30
0.0
 10
44.552853
 20
148.772820
 30
0.0
 10
44.505063
 20
148.786220
 30
0.0
 10
44.457393
 20
148.799920
 30
0.0
 10
44.409913
 20
148.813820
 30
0.0
 10
44.362713
 20
148.828020
 30
0.0
 10
44.315883
 20
148.842420
 30
0.0
 10
44.269493
 20
148.857120
 30
0.0
 10
44.223643
 20
148.872020
 30
0.0
 10
44.178413
 20
148.887120
 30
0.0
 10
44.161593
 20
148.892120
 30
0.0
 10
44.145013
 20
148.897120
 30
0.0
 10
44.128673
 20
148.902120
 30
0.0
 10
44.112573
 20
148.907120
 30
0.0
 10
44.096703
 20
148.912120
 30
0.0
 10
44.081063
 20
148.916120
 30
0.0
 10
44.065663
 20
148.920120
 30
0.0
 10
44.050503
 20
148.924120
 30
0.0
 10
44.035573
 20
148.928120
 30
0.0
 10
44.020873
 20
148.932120
 30
0.0
 10
44.006403
 20
148.935120
 30
0.0
 10
43.992163
 20
148.938120
 30
0.0
 10
43.978173
 20
148.941120
 30
0.0
 10
43.964413
 20
148.944120
 30
0.0
 10
43.950883
 20
148.947120
 30
0.0
 10
43.937583
 20
148.949120
 30
0.0
 10
43.924503
 20
148.951120
 30
0.0
 10
43.911653
 20
148.953120
 30
0.0
 10
43.899043
 20
148.955120
 30
0.0
 10
43.886663
 20
148.957120
 30
0.0
 10
43.874513
 20
148.958120
 30
0.0
 10
43.862593
 20
148.959120
 30
0.0
 10
43.850893
 20
148.960080
 30
0.0
 10
43.839423
 20
148.960800
 30
0.0
 10
43.828193
 20
148.961300
 30
0.0
 10
43.817183
 20
148.961550
 30
0.0
 10
43.806403
 20
148.961560
 30
0.0
 10
43.795843
 20
148.961330
 30
0.0
 10
43.785513
 20
148.960860
 30
0.0
 10
43.775393
 20
148.960140
 30
0.0
 10
43.765493
 20
148.959170
 30
0.0
 10
43.755793
 20
148.958170
 30
0.0
 10
43.755793
 20
148.958150
 30
0.0
 10
43.755793
 20
148.958120
 30
0.0
 10
43.755793
 20
148.958100
 30
0.0
 10
43.755793
 20
148.958080
 30
0.0
 10
43.755793
 20
148.958060
 30
0.0
 10
43.755793
 20
148.958050
 30
0.0
 10
43.755793
 20
148.958030
 30
0.0
 10
43.755793
 20
148.958010
 30
0.0
 10
43.755793
 20
148.957990
 30
0.0
 10
43.755793
 20
148.957970
 30
0.0
 10
43.755793
 20
148.957950
 30
0.0
 10
43.755793
 20
148.957930
 30
0.0
 10
43.755791
 20
148.957910
 30
0.0
 10
43.755791
 20
148.957890
 30
0.0
 10
43.755791
 20
148.957870
 30
0.0
 10
43.755791
 20
148.957850
 30
0.0
 10
43.755791
 20
148.957830
 30
0.0
 10
43.755791
 20
148.957810
 30
0.0
 10
43.755791
 20
148.957800
 30
0.0
 10
43.755791
 20
148.957780
 30
0.0
 10
43.755791
 20
148.957760
 30
0.0
 10
43.755791
 20
148.957730
 30
0.0
 10
43.755791
 20
148.957710
 30
0.0
 10
43.755791
 20
148.957690
 30
0.0
 10
43.755791
 20
148.957680
 30
0.0
 10
43.755791
 20
148.957660
 30
0.0
 10
43.755791
 20
148.957640
 30
0.0
 10
43.755791
 20
148.957620
 30
0.0
 10
43.755791
 20
148.957600
 30
0.0
 10
43.755791
 20
148.957580
 30
0.0
 10
43.755790
 20
148.957570
 30
0.0
  0
LWPOLYLINE
  5
105
100
AcDbEntity
  8
Silkscreen
 62
7
100
AcDbPolyline
 90
224
 70
1
 10
58.365237
 20
122.897690
 30
0.0
 10
58.560589
 20
122.897100
 30
0.0
 10
58.755558
 20
122.895100
 30
0.0
 10
58.949852
 20
122.892100
 30
0.0
 10
59.143175
 20
122.888100
 30
0.0
 10
59.335232
 20
122.883100
 30
0.0
 10
59.525728
 20
122.877100
 30
0.0
 10
59.714367
 20
122.870100
 30
0.0
 10
59.900856
 20
122.862100
 30
0.0
 10
60.084899
 20
122.853100
 30
0.0
 10
60.266201
 20
122.844100
 30
0.0
 10
60.444467
 20
122.833200
 30
0.0
 10
60.619401
 20
122.821400
 30
0.0
 10
60.790711
 20
122.808900
 30
0.0
 10
60.958098
 20
122.795500
 30
0.0
 10
61.121271
 20
122.781300
 30
0.0
 10
61.279933
 20
122.766300
 30
0.0
 10
61.433788
 20
122.750600
 30
0.0
 10
61.582542
 20
122.734300
 30
0.0
 10
61.725901
 20
122.717200
 30
0.0
 10
61.863570
 20
122.699500
 30
0.0
 10
61.995252
 20
122.681200
 30
0.0
 10
62.120654
 20
122.662300
 30
0.0
 10
62.239479
 20
122.642900
 30
0.0
 10
62.351434
 20
122.623000
 30
0.0
 10
62.456223
 20
122.602600
 30
0.0
 10
62.553553
 20
122.581700
 30
0.0
 10
62.643123
 20
122.560300
 30
0.0
 10
62.724643
 20
122.538600
 30
0.0
 10
62.797813
 20
122.516500
 30
0.0
 10
62.862343
 20
122.494100
 30
0.0
 10
62.917943
 20
122.471300
 30
0.0
 10
62.964313
 20
122.448200
 30
0.0
 10
63.079551
 20
122.375900
 30
0.0
 10
63.181431
 20
122.295400
 30
0.0
 10
63.270171
 20
122.207200
 30
0.0
 10
63.345971
 20
122.111700
 30
0.0
 10
63.409041
 20
122.009380
 30
0.0
 10
63.459601
 20
121.900720
 30
0.0
 10
63.497851
 20
121.786160
 30
0.0
 10
63.524011
 20
121.666150
 30
0.0
 10
63.538281
 20
121.541140
 30
0.0
 10
63.540881
 20
121.411590
 30
0.0
 10
63.531981
 20
121.277960
 30
0.0
 10
63.511841
 20
121.140690
 30
0.0
 10
63.480661
 20
121.000250
 30
0.0
 10
63.438631
 20
120.857090
 30
0.0
 10
63.385981
 20
120.711650
 30
0.0
 10
63.322911
 20
120.564420
 30
0.0
 10
63.249631
 20
120.415810
 30
0.0
 10
63.166351
 20
120.266320
 30
0.0
 10
63.073281
 20
120.116380
 30
0.0
 10
62.970631
 20
119.966430
 30
0.0
 10
62.858611
 20
119.816960
 30
0.0
 10
62.737431
 20
119.668410
 30
0.0
 10
62.607300
 20
119.521230
 30
0.0
 10
62.468428
 20
119.375880
 30
0.0
 10
62.321023
 20
119.232820
 30
0.0
 10
62.165296
 20
119.092480
 30
0.0
 10
62.001458
 20
118.955350
 30
0.0
 10
61.829716
 20
118.821860
 30
0.0
 10
61.650282
 20
118.692470
 30
0.0
 10
61.463365
 20
118.567650
 30
0.0
 10
61.269173
 20
118.447850
 30
0.0
 10
61.067919
 20
118.333500
 30
0.0
 10
60.844465
 20
118.212960
 30
0.0
 10
60.630813
 20
118.100210
 30
0.0
 10
60.426320
 20
117.995250
 30
0.0
 10
60.230341
 20
117.898050
 30
0.0
 10
60.042236
 20
117.808650
 30
0.0
 10
59.861361
 20
117.727050
 30
0.0
 10
59.687076
 20
117.653250
 30
0.0
 10
59.518734
 20
117.587250
 30
0.0
 10
59.355697
 20
117.529150
 30
0.0
 10
59.197321
 20
117.478850
 30
0.0
 10
59.042962
 20
117.436350
 30
0.0
 10
58.891979
 20
117.401650
 30
0.0
 10
58.743731
 20
117.374750
 30
0.0
 10
58.597572
 20
117.355650
 30
0.0
 10
58.452862
 20
117.344450
 30
0.0
 10
58.308958
 20
117.341450
 30
0.0
 10
58.165217
 20
117.345450
 30
0.0
 10
58.020997
 20
117.357750
 30
0.0
 10
57.875656
 20
117.377850
 30
0.0
 10
57.728551
 20
117.405750
 30
0.0
 10
57.579039
 20
117.441550
 30
0.0
 10
57.426479
 20
117.485150
 30
0.0
 10
57.270227
 20
117.536550
 30
0.0
 10
57.109641
 20
117.595850
 30
0.0
 10
56.944078
 20
117.662950
 30
0.0
 10
56.772897
 20
117.737950
 30
0.0
 10
56.595455
 20
117.820750
 30
0.0
 10
56.411108
 20
117.911450
 30
0.0
 10
56.219216
 20
118.009950
 30
0.0
 10
56.019135
 20
118.116360
 30
0.0
 10
55.810222
 20
118.230620
 30
0.0
 10
55.591836
 20
118.352730
 30
0.0
 10
55.591836
 20
118.352700
 30
0.0
 10
55.591836
 20
118.352670
 30
0.0
 10
55.591836
 20
118.352640
 30
0.0
 10
55.591836
 20
118.352590
 30
0.0
 10
55.591836
 20
118.352560
 30
0.0
 10
55.591836
 20
118.352530
 30
0.0
 10
55.591836
 20
118.352500
 30
0.0
 10
55.591836
 20
118.352470
 30
0.0
 10
55.591836
 20
118.352440
 30
0.0
 10
55.591836
 20
118.352400
 30
0.0
 10
55.591836
 20
118.352370
 30
0.0
 10
55.591836
 20
118.352340
 30
0.0
 10
55.591836
 20
118.352310
 30
0.0
 10
55.591836
 20
118.352280
 30
0.0
 10
55.591836
 20
118.352250
 30
0.0
 10
55.591836
 20
118.352220
 30
0.0
 10
55.591836
 20
118.352180
 30
0.0
 10
55.591836
 20
118.352150
 30
0.0
 10
55.591836
 20
118.352120
 30
0.0
 10
55.591836
 20
118.352090
 30
0.0
 10
55.591836
 20
118.352060
 30
0.0
 10
55.591836
 20
118.352030
 30
0.0
 10
55.591836
 20
118.351990
 30
0.0
 10
55.591836
 20
118.351950
 30
0.0
 10
55.591836
 20
118.351920
 30
0.0
 10
55.591836
 20
118.351890
 30
0.0
 10
55.591836
 20
118.351860
 30
0.0
 10
55.591836
 20
118.351830
 30
0.0
 10
55.591836
 20
118.351790
 30
0.0
 10
55.591836
 20
118.351760
 30
0.0
 10
55.591836
 20
118.351730
 30
0.0
 10
55.591836
 20
118.351700
 30
0.0
 10
55.395347
 20
118.467270
 30
0.0
 10
55.205865
 20
118.588120
 30
0.0
 10
55.023587
 20
118.713780
 30
0.0
 10
54.848714
 20
118.843830
 30
0.0
 10
54.681444
 20
118.977810
 30
0.0
 10
54.521977
 20
119.115270
 30
0.0
 10
54.370513
 20
119.255760
 30
0.0
 10
54.227249
 20
119.398850
 30
0.0
 10
54.092386
 20
119.544070
 30
0.0
 10
53.966121
 20
119.690990
 30
0.0
 10
53.848656
 20
119.839170
 30
0.0
 10
53.740189
 20
119.988140
 30
0.0
 10
53.640919
 20
120.137460
 30
0.0
 10
53.551039
 20
120.286690
 30
0.0
 10
53.470759
 20
120.435390
 30
0.0
 10
53.400279
 20
120.583090
 30
0.0
 10
53.339789
 20
120.729360
 30
0.0
 10
53.289489
 20
120.873750
 30
0.0
 10
53.249579
 20
121.015810
 30
0.0
 10
53.220259
 20
121.155090
 30
0.0
 10
53.201739
 20
121.291160
 30
0.0
 10
53.194239
 20
121.423540
 30
0.0
 10
53.197939
 20
121.551820
 30
0.0
 10
53.212989
 20
121.675540
 30
0.0
 10
53.239629
 20
121.794240
 30
0.0
 10
53.278049
 20
121.907480
 30
0.0
 10
53.328459
 20
122.014800
 30
0.0
 10
53.391059
 20
122.115760
 30
0.0
 10
53.466039
 20
122.209960
 30
0.0
 10
53.553599
 20
122.296860
 30
0.0
 10
53.653941
 20
122.376160
 30
0.0
 10
53.767270
 20
122.447260
 30
0.0
 10
53.813640
 20
122.470360
 30
0.0
 10
53.869230
 20
122.493160
 30
0.0
 10
53.933750
 20
122.515560
 30
0.0
 10
54.006900
 20
122.537660
 30
0.0
 10
54.088400
 20
122.559360
 30
0.0
 10
54.177940
 20
122.580760
 30
0.0
 10
54.275240
 20
122.601660
 30
0.0
 10
54.379987
 20
122.622060
 30
0.0
 10
54.491899
 20
122.641960
 30
0.0
 10
54.610680
 20
122.661360
 30
0.0
 10
54.736033
 20
122.680260
 30
0.0
 10
54.867667
 20
122.698560
 30
0.0
 10
55.005283
 20
122.716260
 30
0.0
 10
55.148590
 20
122.733360
 30
0.0
 10
55.297291
 20
122.749660
 30
0.0
 10
55.451092
 20
122.765360
 30
0.0
 10
55.609700
 20
122.780360
 30
0.0
 10
55.772820
 20
122.794560
 30
0.0
 10
55.940156
 20
122.807960
 30
0.0
 10
56.111414
 20
122.820460
 30
0.0
 10
56.286300
 20
122.832260
 30
0.0
 10
56.464519
 20
122.843160
 30
0.0
 10
56.645777
 20
122.852160
 30
0.0
 10
56.829778
 20
122.861160
 30
0.0
 10
57.016230
 20
122.869160
 30
0.0
 10
57.204835
 20
122.876160
 30
0.0
 10
57.395302
 20
122.882160
 30
0.0
 10
57.587334
 20
122.887160
 30
0.0
 10
57.780637
 20
122.891160
 30
0.0
 10
57.974918
 20
122.894160
 30
0.0
 10
58.169880
 20
122.896160
 30
0.0
 10
58.365229
 20
122.896750
 30
0.0
 10
58.365229
 20
122.896750
 30
0.0
 10
58.365229
 20
122.896750
 30
0.0
 10
58.365229
 20
122.896760
 30
0.0
 10
58.365229
 20
122.896760
 30
0.0
 10
58.365229
 20
122.896760
 30
0.0
 10
58.365229
 20
122.896770
 30
0.0
 10
58.365229
 20
122.896770
 30
0.0
 10
58.365229
 20
122.896770
 30
0.0
 10
58.365229
 20
122.896770
 30
0.0
 10
58.365229
 20
122.896780
 30
0.0
 10
58.365229
 20
122.896780
 30
0.0
 10
58.365229
 20
122.896780
 30
0.0
 10
58.365229
 20
122.896790
 30
0.0
 10
58.365229
 20
122.896790
 30
0.0
 10
58.365229
 20
122.896790
 30
0.0
 10
58.365229
 20
122.896790
 30
0.0
 10
58.365229
 20
122.896800
 30
0.0
 10
58.365229
 20
122.896800
 30
0.0
 10
58.365229
 20
122.896800
 30
0.0
 10
58.365229
 20
122.896810
 30
0.0
 10
58.365229
 20
122.896810
 30
0.0
 10
58.365229
 20
122.896810
 30
0.0
 10
58.365229
 20
122.896810
 30
0.0
 10
58.365229
 20
122.896830
 30
0.0
 10
58.365229
 20
122.896830
 30
0.0
 10
58.365229
 20
122.896830
 30
0.0
 10
58.365229
 20
122.896840
 30
0.0
 10
58.365229
 20
122.896840
 30
0.0
 10
58.365229
 20
122.896840
 30
0.0
 10
58.365229
 20
122.896840
 30
0.0
 10
58.365229
 20
122.896850
 30
0.0
  0
LWPOLYLINE
  5
106
100
AcDbEntity
  8
Silkscreen
 62
7
100
AcDbPolyline
 90
128
 70
1
 10
58.365237
 20
113.923960
 30
0.0
 10
57.998488
 20
113.923860
 30
0.0
 10
57.654462
 20
113.923480
 30
0.0
 10
57.332674
 20
113.922670
 30
0.0
 10
57.032635
 20
113.921670
 30
0.0
 10
56.753860
 20
113.919670
 30
0.0
 10
56.495861
 20
113.916670
 30
0.0
 10
56.258152
 20
113.912670
 30
0.0
 10
56.040244
 20
113.907670
 30
0.0
 10
55.841651
 20
113.901670
 30
0.0
 10
55.661886
 20
113.893670
 30
0.0
 10
55.500463
 20
113.884670
 30
0.0
 10
55.356894
 20
113.873070
 30
0.0
 10
55.230691
 20
113.859470
 30
0.0
 10
55.121368
 20
113.843770
 30
0.0
 10
55.028438
 20
113.825870
 30
0.0
 10
54.951418
 20
113.805570
 30
0.0
 10
54.889808
 20
113.782670
 30
0.0
 10
54.843138
 20
113.757070
 30
0.0
 10
54.810918
 20
113.728470
 30
0.0
 10
54.792648
 20
113.696970
 30
0.0
 10
54.787848
 20
113.662270
 30
0.0
 10
54.796048
 20
113.624270
 30
0.0
 10
54.816718
 20
113.582770
 30
0.0
 10
54.849408
 20
113.537670
 30
0.0
 10
54.893628
 20
113.488770
 30
0.0
 10
54.948878
 20
113.435870
 30
0.0
 10
55.014678
 20
113.378970
 30
0.0
 10
55.090538
 20
113.317870
 30
0.0
 10
55.175968
 20
113.252370
 30
0.0
 10
55.270498
 20
113.182270
 30
0.0
 10
55.373622
 20
113.107470
 30
0.0
 10
55.484857
 20
113.027770
 30
0.0
 10
55.551577
 20
112.981770
 30
0.0
 10
55.621647
 20
112.936270
 30
0.0
 10
55.694877
 20
112.891370
 30
0.0
 10
55.771087
 20
112.847170
 30
0.0
 10
55.850087
 20
112.803770
 30
0.0
 10
55.931707
 20
112.761170
 30
0.0
 10
56.015747
 20
112.719470
 30
0.0
 10
56.102027
 20
112.678670
 30
0.0
 10
56.190367
 20
112.638870
 30
0.0
 10
56.280587
 20
112.600070
 30
0.0
 10
56.372487
 20
112.562470
 30
0.0
 10
56.465887
 20
112.525970
 30
0.0
 10
56.560617
 20
112.490670
 30
0.0
 10
56.656467
 20
112.456670
 30
0.0
 10
56.753267
 20
112.423970
 30
0.0
 10
56.850837
 20
112.392670
 30
0.0
 10
56.948987
 20
112.362870
 30
0.0
 10
57.047527
 20
112.334570
 30
0.0
 10
57.146277
 20
112.307770
 30
0.0
 10
57.245057
 20
112.282670
 30
0.0
 10
57.343677
 20
112.259270
 30
0.0
 10
57.441957
 20
112.237570
 30
0.0
 10
57.539707
 20
112.217670
 30
0.0
 10
57.636747
 20
112.199570
 30
0.0
 10
57.732887
 20
112.183470
 30
0.0
 10
57.827947
 20
112.169270
 30
0.0
 10
57.921747
 20
112.157170
 30
0.0
 10
58.014087
 20
112.146670
 30
0.0
 10
58.104797
 20
112.138670
 30
0.0
 10
58.193687
 20
112.133670
 30
0.0
 10
58.280577
 20
112.130670
 30
0.0
 10
58.365277
 20
112.129670
 30
0.0
 10
58.449967
 20
112.130670
 30
0.0
 10
58.536847
 20
112.133670
 30
0.0
 10
58.625737
 20
112.138670
 30
0.0
 10
58.716447
 20
112.146670
 30
0.0
 10
58.808787
 20
112.157170
 30
0.0
 10
58.902587
 20
112.169270
 30
0.0
 10
58.997647
 20
112.183470
 30
0.0
 10
59.093787
 20
112.199570
 30
0.0
 10
59.190827
 20
112.217670
 30
0.0
 10
59.288577
 20
112.237570
 30
0.0
 10
59.386857
 20
112.259270
 30
0.0
 10
59.485477
 20
112.282670
 30
0.0
 10
59.584257
 20
112.307770
 30
0.0
 10
59.683007
 20
112.334570
 30
0.0
 10
59.781547
 20
112.362870
 30
0.0
 10
59.879697
 20
112.392670
 30
0.0
 10
59.977267
 20
112.423970
 30
0.0
 10
60.074067
 20
112.456670
 30
0.0
 10
60.169917
 20
112.490670
 30
0.0
 10
60.264627
 20
112.525970
 30
0.0
 10
60.358027
 20
112.562470
 30
0.0
 10
60.449927
 20
112.600070
 30
0.0
 10
60.540147
 20
112.638870
 30
0.0
 10
60.628487
 20
112.678670
 30
0.0
 10
60.714767
 20
112.719470
 30
0.0
 10
60.798807
 20
112.761170
 30
0.0
 10
60.880427
 20
112.803770
 30
0.0
 10
60.959427
 20
112.847170
 30
0.0
 10
61.035637
 20
112.891370
 30
0.0
 10
61.108867
 20
112.936270
 30
0.0
 10
61.178937
 20
112.981770
 30
0.0
 10
61.245647
 20
113.027770
 30
0.0
 10
61.356882
 20
113.107470
 30
0.0
 10
61.460006
 20
113.182270
 30
0.0
 10
61.554536
 20
113.252370
 30
0.0
 10
61.639966
 20
113.317870
 30
0.0
 10
61.715826
 20
113.379070
 30
0.0
 10
61.781626
 20
113.435970
 30
0.0
 10
61.836876
 20
113.488870
 30
0.0
 10
61.881096
 20
113.537770
 30
0.0
 10
61.913786
 20
113.582870
 30
0.0
 10
61.934466
 20
113.624370
 30
0.0
 10
61.942666
 20
113.662370
 30
0.0
 10
61.937866
 20
113.697070
 30
0.0
 10
61.919596
 20
113.728570
 30
0.0
 10
61.887376
 20
113.757170
 30
0.0
 10
61.840706
 20
113.782770
 30
0.0
 10
61.779096
 20
113.805670
 30
0.0
 10
61.702076
 20
113.825970
 30
0.0
 10
61.609146
 20
113.843870
 30
0.0
 10
61.499822
 20
113.859570
 30
0.0
 10
61.373620
 20
113.873170
 30
0.0
 10
61.230050
 20
113.884770
 30
0.0
 10
61.068626
 20
113.893770
 30
0.0
 10
60.888862
 20
113.901770
 30
0.0
 10
60.690270
 20
113.907770
 30
0.0
 10
60.472364
 20
113.912770
 30
0.0
 10
60.234655
 20
113.916770
 30
0.0
 10
59.976656
 20
113.919770
 30
0.0
 10
59.697883
 20
113.921770
 30
0.0
 10
59.397846
 20
113.922770
 30
0.0
 10
59.076059
 20
113.923590
 30
0.0
 10
58.732035
 20
113.923970
 30
0.0
  0
ENDSEC
  0
SECTION
  2
OBJECTS
  0
DICTIONARY
  5
C
330
0
100
AcDbDictionary
  3
ACAD_GROUP
350
D
  3
ACAD_MLINESTYLE
350
17
  0
DICTIONARY
  5
D
330
C
100
AcDbDictionary
  0
DICTIONARY
  5
1A
330
C
100
AcDbDictionary
  0
DICTIONARY
  5
17
330
C
100
AcDbDictionary
  3
STANDARD
350
18
  0
DICTIONARY
  5
19
330
C
100
AcDbDictionary
  0
ENDSEC
  0
EOF
