G04 #@! TF.GenerationSoftware,KiCad,Pcbnew,(5.0.0)*
G04 #@! TF.CreationDate,2019-03-03T23:19:43-08:00*
G04 #@! TF.ProjectId,Cub_Wolf_Badge_Circuit,4375625F576F6C665F42616467655F43,rev?*
G04 #@! TF.SameCoordinates,Original*
G04 #@! TF.FileFunction,Legend,Bot*
G04 #@! TF.FilePolarity,Positive*
%FSLAX46Y46*%
G04 Gerber Fmt 4.6, Leading zero omitted, Abs format (unit mm)*
G04 Created by KiCad (PCBNEW (5.0.0)) date 03/03/19 23:19:43*
%MOMM*%
%LPD*%
G01*
G04 APERTURE LIST*
%ADD10C,0.275000*%
%ADD11C,0.150000*%
%ADD12C,0.120000*%
G04 APERTURE END LIST*
D10*
X129880952Y-86308333D02*
X129285714Y-86308333D01*
X130000000Y-86665476D02*
X129583333Y-85415476D01*
X129166666Y-86665476D01*
X128809523Y-86605952D02*
X128690476Y-86665476D01*
X128452380Y-86665476D01*
X128333333Y-86605952D01*
X128273809Y-86486904D01*
X128273809Y-86427380D01*
X128333333Y-86308333D01*
X128452380Y-86248809D01*
X128630952Y-86248809D01*
X128750000Y-86189285D01*
X128809523Y-86070238D01*
X128809523Y-86010714D01*
X128750000Y-85891666D01*
X128630952Y-85832142D01*
X128452380Y-85832142D01*
X128333333Y-85891666D01*
X127916666Y-85832142D02*
X127440476Y-85832142D01*
X127738095Y-85415476D02*
X127738095Y-86486904D01*
X127678571Y-86605952D01*
X127559523Y-86665476D01*
X127440476Y-86665476D01*
X126488095Y-86665476D02*
X126488095Y-86010714D01*
X126547619Y-85891666D01*
X126666666Y-85832142D01*
X126904761Y-85832142D01*
X127023809Y-85891666D01*
X126488095Y-86605952D02*
X126607142Y-86665476D01*
X126904761Y-86665476D01*
X127023809Y-86605952D01*
X127083333Y-86486904D01*
X127083333Y-86367857D01*
X127023809Y-86248809D01*
X126904761Y-86189285D01*
X126607142Y-86189285D01*
X126488095Y-86129761D01*
X125892857Y-86665476D02*
X125892857Y-85415476D01*
X125892857Y-85891666D02*
X125773809Y-85832142D01*
X125535714Y-85832142D01*
X125416666Y-85891666D01*
X125357142Y-85951190D01*
X125297619Y-86070238D01*
X125297619Y-86427380D01*
X125357142Y-86546428D01*
X125416666Y-86605952D01*
X125535714Y-86665476D01*
X125773809Y-86665476D01*
X125892857Y-86605952D01*
X124583333Y-86665476D02*
X124702380Y-86605952D01*
X124761904Y-86486904D01*
X124761904Y-85415476D01*
X123630952Y-86605952D02*
X123750000Y-86665476D01*
X123988095Y-86665476D01*
X124107142Y-86605952D01*
X124166666Y-86486904D01*
X124166666Y-86010714D01*
X124107142Y-85891666D01*
X123988095Y-85832142D01*
X123750000Y-85832142D01*
X123630952Y-85891666D01*
X123571428Y-86010714D01*
X123571428Y-86129761D01*
X124166666Y-86248809D01*
X131815476Y-88815476D02*
X131815476Y-87565476D01*
X131398809Y-88458333D01*
X130982142Y-87565476D01*
X130982142Y-88815476D01*
X129851190Y-87982142D02*
X129851190Y-88815476D01*
X130386904Y-87982142D02*
X130386904Y-88636904D01*
X130327380Y-88755952D01*
X130208333Y-88815476D01*
X130029761Y-88815476D01*
X129910714Y-88755952D01*
X129851190Y-88696428D01*
X129077380Y-88815476D02*
X129196428Y-88755952D01*
X129255952Y-88636904D01*
X129255952Y-87565476D01*
X128779761Y-87982142D02*
X128303571Y-87982142D01*
X128601190Y-87565476D02*
X128601190Y-88636904D01*
X128541666Y-88755952D01*
X128422619Y-88815476D01*
X128303571Y-88815476D01*
X127886904Y-88815476D02*
X127886904Y-87982142D01*
X127886904Y-87565476D02*
X127946428Y-87625000D01*
X127886904Y-87684523D01*
X127827380Y-87625000D01*
X127886904Y-87565476D01*
X127886904Y-87684523D01*
X127410714Y-87982142D02*
X127113095Y-88815476D01*
X126815476Y-87982142D01*
X126339285Y-88815476D02*
X126339285Y-87982142D01*
X126339285Y-87565476D02*
X126398809Y-87625000D01*
X126339285Y-87684523D01*
X126279761Y-87625000D01*
X126339285Y-87565476D01*
X126339285Y-87684523D01*
X125744047Y-88815476D02*
X125744047Y-87565476D01*
X125744047Y-88041666D02*
X125625000Y-87982142D01*
X125386904Y-87982142D01*
X125267857Y-88041666D01*
X125208333Y-88101190D01*
X125148809Y-88220238D01*
X125148809Y-88577380D01*
X125208333Y-88696428D01*
X125267857Y-88755952D01*
X125386904Y-88815476D01*
X125625000Y-88815476D01*
X125744047Y-88755952D01*
X124613095Y-88815476D02*
X124613095Y-87982142D01*
X124613095Y-88220238D02*
X124553571Y-88101190D01*
X124494047Y-88041666D01*
X124375000Y-87982142D01*
X124255952Y-87982142D01*
X123303571Y-88815476D02*
X123303571Y-88160714D01*
X123363095Y-88041666D01*
X123482142Y-87982142D01*
X123720238Y-87982142D01*
X123839285Y-88041666D01*
X123303571Y-88755952D02*
X123422619Y-88815476D01*
X123720238Y-88815476D01*
X123839285Y-88755952D01*
X123898809Y-88636904D01*
X123898809Y-88517857D01*
X123839285Y-88398809D01*
X123720238Y-88339285D01*
X123422619Y-88339285D01*
X123303571Y-88279761D01*
X122886904Y-87982142D02*
X122410714Y-87982142D01*
X122708333Y-87565476D02*
X122708333Y-88636904D01*
X122648809Y-88755952D01*
X122529761Y-88815476D01*
X122410714Y-88815476D01*
X121815476Y-88815476D02*
X121934523Y-88755952D01*
X121994047Y-88696428D01*
X122053571Y-88577380D01*
X122053571Y-88220238D01*
X121994047Y-88101190D01*
X121934523Y-88041666D01*
X121815476Y-87982142D01*
X121636904Y-87982142D01*
X121517857Y-88041666D01*
X121458333Y-88101190D01*
X121398809Y-88220238D01*
X121398809Y-88577380D01*
X121458333Y-88696428D01*
X121517857Y-88755952D01*
X121636904Y-88815476D01*
X121815476Y-88815476D01*
X120863095Y-88815476D02*
X120863095Y-87982142D01*
X120863095Y-88220238D02*
X120803571Y-88101190D01*
X120744047Y-88041666D01*
X120625000Y-87982142D01*
X120505952Y-87982142D01*
X130595238Y-90965476D02*
X131190476Y-90965476D01*
X131190476Y-89715476D01*
X130178571Y-90310714D02*
X129761904Y-90310714D01*
X129583333Y-90965476D02*
X130178571Y-90965476D01*
X130178571Y-89715476D01*
X129583333Y-89715476D01*
X129047619Y-90965476D02*
X129047619Y-89715476D01*
X128750000Y-89715476D01*
X128571428Y-89775000D01*
X128452380Y-89894047D01*
X128392857Y-90013095D01*
X128333333Y-90251190D01*
X128333333Y-90429761D01*
X128392857Y-90667857D01*
X128452380Y-90786904D01*
X128571428Y-90905952D01*
X128750000Y-90965476D01*
X129047619Y-90965476D01*
X126130952Y-90846428D02*
X126190476Y-90905952D01*
X126369047Y-90965476D01*
X126488095Y-90965476D01*
X126666666Y-90905952D01*
X126785714Y-90786904D01*
X126845238Y-90667857D01*
X126904761Y-90429761D01*
X126904761Y-90251190D01*
X126845238Y-90013095D01*
X126785714Y-89894047D01*
X126666666Y-89775000D01*
X126488095Y-89715476D01*
X126369047Y-89715476D01*
X126190476Y-89775000D01*
X126130952Y-89834523D01*
X125595238Y-90965476D02*
X125595238Y-90132142D01*
X125595238Y-89715476D02*
X125654761Y-89775000D01*
X125595238Y-89834523D01*
X125535714Y-89775000D01*
X125595238Y-89715476D01*
X125595238Y-89834523D01*
X125000000Y-90965476D02*
X125000000Y-90132142D01*
X125000000Y-90370238D02*
X124940476Y-90251190D01*
X124880952Y-90191666D01*
X124761904Y-90132142D01*
X124642857Y-90132142D01*
X123690476Y-90905952D02*
X123809523Y-90965476D01*
X124047619Y-90965476D01*
X124166666Y-90905952D01*
X124226190Y-90846428D01*
X124285714Y-90727380D01*
X124285714Y-90370238D01*
X124226190Y-90251190D01*
X124166666Y-90191666D01*
X124047619Y-90132142D01*
X123809523Y-90132142D01*
X123690476Y-90191666D01*
X122619047Y-90132142D02*
X122619047Y-90965476D01*
X123154761Y-90132142D02*
X123154761Y-90786904D01*
X123095238Y-90905952D01*
X122976190Y-90965476D01*
X122797619Y-90965476D01*
X122678571Y-90905952D01*
X122619047Y-90846428D01*
X122023809Y-90965476D02*
X122023809Y-90132142D01*
X122023809Y-89715476D02*
X122083333Y-89775000D01*
X122023809Y-89834523D01*
X121964285Y-89775000D01*
X122023809Y-89715476D01*
X122023809Y-89834523D01*
X121607142Y-90132142D02*
X121130952Y-90132142D01*
X121428571Y-89715476D02*
X121428571Y-90786904D01*
X121369047Y-90905952D01*
X121250000Y-90965476D01*
X121130952Y-90965476D01*
D11*
G04 #@! TO.C,BT1*
X123250000Y-85000000D02*
X123250000Y-82208658D01*
X123250000Y-85000000D02*
X129250000Y-85000000D01*
X129250000Y-85000000D02*
X129250000Y-82208658D01*
X129776384Y-81456904D02*
G75*
G03X129250000Y-82208658I273616J-751754D01*
G01*
X126204719Y-59012987D02*
G75*
G02X129750000Y-81458658I45281J-11495671D01*
G01*
X122723616Y-81456904D02*
G75*
G02X123250000Y-82208658I-273616J-751754D01*
G01*
X126295281Y-59012987D02*
G75*
G03X122750000Y-81458658I-45281J-11495671D01*
G01*
D12*
G04 #@! TO.C,R1*
X146500000Y-55820000D02*
X146500000Y-56710000D01*
X146500000Y-64020000D02*
X146500000Y-63130000D01*
X147810000Y-56710000D02*
X147810000Y-63130000D01*
X145190000Y-56710000D02*
X147810000Y-56710000D01*
X145190000Y-63130000D02*
X145190000Y-56710000D01*
X147810000Y-63130000D02*
X145190000Y-63130000D01*
G04 #@! TO.C,R2*
X142000000Y-55820000D02*
X142000000Y-56710000D01*
X142000000Y-64020000D02*
X142000000Y-63130000D01*
X143310000Y-56710000D02*
X143310000Y-63130000D01*
X140690000Y-56710000D02*
X143310000Y-56710000D01*
X140690000Y-63130000D02*
X140690000Y-56710000D01*
X143310000Y-63130000D02*
X140690000Y-63130000D01*
G04 #@! TO.C,R3*
X111810000Y-63130000D02*
X109190000Y-63130000D01*
X109190000Y-63130000D02*
X109190000Y-56710000D01*
X109190000Y-56710000D02*
X111810000Y-56710000D01*
X111810000Y-56710000D02*
X111810000Y-63130000D01*
X110500000Y-64020000D02*
X110500000Y-63130000D01*
X110500000Y-55820000D02*
X110500000Y-56710000D01*
G04 #@! TO.C,R4*
X107310000Y-63130000D02*
X104690000Y-63130000D01*
X104690000Y-63130000D02*
X104690000Y-56710000D01*
X104690000Y-56710000D02*
X107310000Y-56710000D01*
X107310000Y-56710000D02*
X107310000Y-63130000D01*
X106000000Y-64020000D02*
X106000000Y-63130000D01*
X106000000Y-55820000D02*
X106000000Y-56710000D01*
G04 #@! TO.C,C1*
X139150000Y-50650000D02*
X139150000Y-49350000D01*
X138550000Y-50000000D02*
X139750000Y-50000000D01*
X144311000Y-50354000D02*
X144311000Y-49646000D01*
X144271000Y-50559000D02*
X144271000Y-49441000D01*
X144231000Y-50707000D02*
X144231000Y-49293000D01*
X144191000Y-50829000D02*
X144191000Y-49171000D01*
X144151000Y-50934000D02*
X144151000Y-49066000D01*
X144111000Y-51028000D02*
X144111000Y-48972000D01*
X144071000Y-51112000D02*
X144071000Y-48888000D01*
X144031000Y-51189000D02*
X144031000Y-48811000D01*
X143991000Y-51261000D02*
X143991000Y-48739000D01*
X143951000Y-51327000D02*
X143951000Y-48673000D01*
X143911000Y-51390000D02*
X143911000Y-48610000D01*
X143871000Y-51448000D02*
X143871000Y-48552000D01*
X143831000Y-51504000D02*
X143831000Y-48496000D01*
X143791000Y-51556000D02*
X143791000Y-48444000D01*
X143751000Y-51606000D02*
X143751000Y-48394000D01*
X143711000Y-49020000D02*
X143711000Y-48346000D01*
X143711000Y-51654000D02*
X143711000Y-50980000D01*
X143671000Y-49020000D02*
X143671000Y-48301000D01*
X143671000Y-51699000D02*
X143671000Y-50980000D01*
X143631000Y-49020000D02*
X143631000Y-48258000D01*
X143631000Y-51742000D02*
X143631000Y-50980000D01*
X143591000Y-49020000D02*
X143591000Y-48217000D01*
X143591000Y-51783000D02*
X143591000Y-50980000D01*
X143551000Y-49020000D02*
X143551000Y-48177000D01*
X143551000Y-51823000D02*
X143551000Y-50980000D01*
X143511000Y-49020000D02*
X143511000Y-48139000D01*
X143511000Y-51861000D02*
X143511000Y-50980000D01*
X143471000Y-49020000D02*
X143471000Y-48103000D01*
X143471000Y-51897000D02*
X143471000Y-50980000D01*
X143431000Y-49020000D02*
X143431000Y-48068000D01*
X143431000Y-51932000D02*
X143431000Y-50980000D01*
X143391000Y-49020000D02*
X143391000Y-48035000D01*
X143391000Y-51965000D02*
X143391000Y-50980000D01*
X143351000Y-49020000D02*
X143351000Y-48003000D01*
X143351000Y-51997000D02*
X143351000Y-50980000D01*
X143311000Y-49020000D02*
X143311000Y-47972000D01*
X143311000Y-52028000D02*
X143311000Y-50980000D01*
X143271000Y-49020000D02*
X143271000Y-47942000D01*
X143271000Y-52058000D02*
X143271000Y-50980000D01*
X143231000Y-49020000D02*
X143231000Y-47914000D01*
X143231000Y-52086000D02*
X143231000Y-50980000D01*
X143191000Y-49020000D02*
X143191000Y-47887000D01*
X143191000Y-52113000D02*
X143191000Y-50980000D01*
X143151000Y-49020000D02*
X143151000Y-47860000D01*
X143151000Y-52140000D02*
X143151000Y-50980000D01*
X143111000Y-49020000D02*
X143111000Y-47835000D01*
X143111000Y-52165000D02*
X143111000Y-50980000D01*
X143071000Y-49020000D02*
X143071000Y-47811000D01*
X143071000Y-52189000D02*
X143071000Y-50980000D01*
X143031000Y-49020000D02*
X143031000Y-47788000D01*
X143031000Y-52212000D02*
X143031000Y-50980000D01*
X142991000Y-49020000D02*
X142991000Y-47766000D01*
X142991000Y-52234000D02*
X142991000Y-50980000D01*
X142951000Y-49020000D02*
X142951000Y-47744000D01*
X142951000Y-52256000D02*
X142951000Y-50980000D01*
X142911000Y-49020000D02*
X142911000Y-47724000D01*
X142911000Y-52276000D02*
X142911000Y-50980000D01*
X142871000Y-49020000D02*
X142871000Y-47704000D01*
X142871000Y-52296000D02*
X142871000Y-50980000D01*
X142831000Y-49020000D02*
X142831000Y-47685000D01*
X142831000Y-52315000D02*
X142831000Y-50980000D01*
X142791000Y-49020000D02*
X142791000Y-47667000D01*
X142791000Y-52333000D02*
X142791000Y-50980000D01*
X142751000Y-49020000D02*
X142751000Y-47650000D01*
X142751000Y-52350000D02*
X142751000Y-50980000D01*
X142711000Y-49020000D02*
X142711000Y-47634000D01*
X142711000Y-52366000D02*
X142711000Y-50980000D01*
X142671000Y-49020000D02*
X142671000Y-47618000D01*
X142671000Y-52382000D02*
X142671000Y-50980000D01*
X142631000Y-49020000D02*
X142631000Y-47604000D01*
X142631000Y-52396000D02*
X142631000Y-50980000D01*
X142591000Y-49020000D02*
X142591000Y-47590000D01*
X142591000Y-52410000D02*
X142591000Y-50980000D01*
X142551000Y-49020000D02*
X142551000Y-47576000D01*
X142551000Y-52424000D02*
X142551000Y-50980000D01*
X142511000Y-49020000D02*
X142511000Y-47564000D01*
X142511000Y-52436000D02*
X142511000Y-50980000D01*
X142471000Y-49020000D02*
X142471000Y-47552000D01*
X142471000Y-52448000D02*
X142471000Y-50980000D01*
X142430000Y-49020000D02*
X142430000Y-47540000D01*
X142430000Y-52460000D02*
X142430000Y-50980000D01*
X142390000Y-49020000D02*
X142390000Y-47530000D01*
X142390000Y-52470000D02*
X142390000Y-50980000D01*
X142350000Y-49020000D02*
X142350000Y-47520000D01*
X142350000Y-52480000D02*
X142350000Y-50980000D01*
X142310000Y-49020000D02*
X142310000Y-47511000D01*
X142310000Y-52489000D02*
X142310000Y-50980000D01*
X142270000Y-49020000D02*
X142270000Y-47502000D01*
X142270000Y-52498000D02*
X142270000Y-50980000D01*
X142230000Y-49020000D02*
X142230000Y-47494000D01*
X142230000Y-52506000D02*
X142230000Y-50980000D01*
X142190000Y-49020000D02*
X142190000Y-47487000D01*
X142190000Y-52513000D02*
X142190000Y-50980000D01*
X142150000Y-49020000D02*
X142150000Y-47481000D01*
X142150000Y-52519000D02*
X142150000Y-50980000D01*
X142110000Y-49020000D02*
X142110000Y-47475000D01*
X142110000Y-52525000D02*
X142110000Y-50980000D01*
X142070000Y-49020000D02*
X142070000Y-47469000D01*
X142070000Y-52531000D02*
X142070000Y-50980000D01*
X142030000Y-49020000D02*
X142030000Y-47465000D01*
X142030000Y-52535000D02*
X142030000Y-50980000D01*
X141990000Y-49020000D02*
X141990000Y-47461000D01*
X141990000Y-52539000D02*
X141990000Y-50980000D01*
X141950000Y-49020000D02*
X141950000Y-47457000D01*
X141950000Y-52543000D02*
X141950000Y-50980000D01*
X141910000Y-49020000D02*
X141910000Y-47454000D01*
X141910000Y-52546000D02*
X141910000Y-50980000D01*
X141870000Y-49020000D02*
X141870000Y-47452000D01*
X141870000Y-52548000D02*
X141870000Y-50980000D01*
X141830000Y-49020000D02*
X141830000Y-47451000D01*
X141830000Y-52549000D02*
X141830000Y-50980000D01*
X141790000Y-49020000D02*
X141790000Y-47450000D01*
X141790000Y-52550000D02*
X141790000Y-50980000D01*
X141750000Y-52550000D02*
X141750000Y-47450000D01*
X144055722Y-48820277D02*
G75*
G02X144055580Y-51180000I-2305722J-1179723D01*
G01*
X144055722Y-48820277D02*
G75*
G03X139444420Y-48820000I-2305722J-1179723D01*
G01*
X144055722Y-51179723D02*
G75*
G02X139444420Y-51180000I-2305722J1179723D01*
G01*
G04 #@! TO.C,C2*
X108444278Y-48820277D02*
G75*
G02X113055580Y-48820000I2305722J-1179723D01*
G01*
X108444278Y-51179723D02*
G75*
G03X113055580Y-51180000I2305722J1179723D01*
G01*
X108444278Y-51179723D02*
G75*
G02X108444420Y-48820000I2305722J1179723D01*
G01*
X110750000Y-47450000D02*
X110750000Y-52550000D01*
X110710000Y-47450000D02*
X110710000Y-49020000D01*
X110710000Y-50980000D02*
X110710000Y-52550000D01*
X110670000Y-47451000D02*
X110670000Y-49020000D01*
X110670000Y-50980000D02*
X110670000Y-52549000D01*
X110630000Y-47452000D02*
X110630000Y-49020000D01*
X110630000Y-50980000D02*
X110630000Y-52548000D01*
X110590000Y-47454000D02*
X110590000Y-49020000D01*
X110590000Y-50980000D02*
X110590000Y-52546000D01*
X110550000Y-47457000D02*
X110550000Y-49020000D01*
X110550000Y-50980000D02*
X110550000Y-52543000D01*
X110510000Y-47461000D02*
X110510000Y-49020000D01*
X110510000Y-50980000D02*
X110510000Y-52539000D01*
X110470000Y-47465000D02*
X110470000Y-49020000D01*
X110470000Y-50980000D02*
X110470000Y-52535000D01*
X110430000Y-47469000D02*
X110430000Y-49020000D01*
X110430000Y-50980000D02*
X110430000Y-52531000D01*
X110390000Y-47475000D02*
X110390000Y-49020000D01*
X110390000Y-50980000D02*
X110390000Y-52525000D01*
X110350000Y-47481000D02*
X110350000Y-49020000D01*
X110350000Y-50980000D02*
X110350000Y-52519000D01*
X110310000Y-47487000D02*
X110310000Y-49020000D01*
X110310000Y-50980000D02*
X110310000Y-52513000D01*
X110270000Y-47494000D02*
X110270000Y-49020000D01*
X110270000Y-50980000D02*
X110270000Y-52506000D01*
X110230000Y-47502000D02*
X110230000Y-49020000D01*
X110230000Y-50980000D02*
X110230000Y-52498000D01*
X110190000Y-47511000D02*
X110190000Y-49020000D01*
X110190000Y-50980000D02*
X110190000Y-52489000D01*
X110150000Y-47520000D02*
X110150000Y-49020000D01*
X110150000Y-50980000D02*
X110150000Y-52480000D01*
X110110000Y-47530000D02*
X110110000Y-49020000D01*
X110110000Y-50980000D02*
X110110000Y-52470000D01*
X110070000Y-47540000D02*
X110070000Y-49020000D01*
X110070000Y-50980000D02*
X110070000Y-52460000D01*
X110029000Y-47552000D02*
X110029000Y-49020000D01*
X110029000Y-50980000D02*
X110029000Y-52448000D01*
X109989000Y-47564000D02*
X109989000Y-49020000D01*
X109989000Y-50980000D02*
X109989000Y-52436000D01*
X109949000Y-47576000D02*
X109949000Y-49020000D01*
X109949000Y-50980000D02*
X109949000Y-52424000D01*
X109909000Y-47590000D02*
X109909000Y-49020000D01*
X109909000Y-50980000D02*
X109909000Y-52410000D01*
X109869000Y-47604000D02*
X109869000Y-49020000D01*
X109869000Y-50980000D02*
X109869000Y-52396000D01*
X109829000Y-47618000D02*
X109829000Y-49020000D01*
X109829000Y-50980000D02*
X109829000Y-52382000D01*
X109789000Y-47634000D02*
X109789000Y-49020000D01*
X109789000Y-50980000D02*
X109789000Y-52366000D01*
X109749000Y-47650000D02*
X109749000Y-49020000D01*
X109749000Y-50980000D02*
X109749000Y-52350000D01*
X109709000Y-47667000D02*
X109709000Y-49020000D01*
X109709000Y-50980000D02*
X109709000Y-52333000D01*
X109669000Y-47685000D02*
X109669000Y-49020000D01*
X109669000Y-50980000D02*
X109669000Y-52315000D01*
X109629000Y-47704000D02*
X109629000Y-49020000D01*
X109629000Y-50980000D02*
X109629000Y-52296000D01*
X109589000Y-47724000D02*
X109589000Y-49020000D01*
X109589000Y-50980000D02*
X109589000Y-52276000D01*
X109549000Y-47744000D02*
X109549000Y-49020000D01*
X109549000Y-50980000D02*
X109549000Y-52256000D01*
X109509000Y-47766000D02*
X109509000Y-49020000D01*
X109509000Y-50980000D02*
X109509000Y-52234000D01*
X109469000Y-47788000D02*
X109469000Y-49020000D01*
X109469000Y-50980000D02*
X109469000Y-52212000D01*
X109429000Y-47811000D02*
X109429000Y-49020000D01*
X109429000Y-50980000D02*
X109429000Y-52189000D01*
X109389000Y-47835000D02*
X109389000Y-49020000D01*
X109389000Y-50980000D02*
X109389000Y-52165000D01*
X109349000Y-47860000D02*
X109349000Y-49020000D01*
X109349000Y-50980000D02*
X109349000Y-52140000D01*
X109309000Y-47887000D02*
X109309000Y-49020000D01*
X109309000Y-50980000D02*
X109309000Y-52113000D01*
X109269000Y-47914000D02*
X109269000Y-49020000D01*
X109269000Y-50980000D02*
X109269000Y-52086000D01*
X109229000Y-47942000D02*
X109229000Y-49020000D01*
X109229000Y-50980000D02*
X109229000Y-52058000D01*
X109189000Y-47972000D02*
X109189000Y-49020000D01*
X109189000Y-50980000D02*
X109189000Y-52028000D01*
X109149000Y-48003000D02*
X109149000Y-49020000D01*
X109149000Y-50980000D02*
X109149000Y-51997000D01*
X109109000Y-48035000D02*
X109109000Y-49020000D01*
X109109000Y-50980000D02*
X109109000Y-51965000D01*
X109069000Y-48068000D02*
X109069000Y-49020000D01*
X109069000Y-50980000D02*
X109069000Y-51932000D01*
X109029000Y-48103000D02*
X109029000Y-49020000D01*
X109029000Y-50980000D02*
X109029000Y-51897000D01*
X108989000Y-48139000D02*
X108989000Y-49020000D01*
X108989000Y-50980000D02*
X108989000Y-51861000D01*
X108949000Y-48177000D02*
X108949000Y-49020000D01*
X108949000Y-50980000D02*
X108949000Y-51823000D01*
X108909000Y-48217000D02*
X108909000Y-49020000D01*
X108909000Y-50980000D02*
X108909000Y-51783000D01*
X108869000Y-48258000D02*
X108869000Y-49020000D01*
X108869000Y-50980000D02*
X108869000Y-51742000D01*
X108829000Y-48301000D02*
X108829000Y-49020000D01*
X108829000Y-50980000D02*
X108829000Y-51699000D01*
X108789000Y-48346000D02*
X108789000Y-49020000D01*
X108789000Y-50980000D02*
X108789000Y-51654000D01*
X108749000Y-48394000D02*
X108749000Y-51606000D01*
X108709000Y-48444000D02*
X108709000Y-51556000D01*
X108669000Y-48496000D02*
X108669000Y-51504000D01*
X108629000Y-48552000D02*
X108629000Y-51448000D01*
X108589000Y-48610000D02*
X108589000Y-51390000D01*
X108549000Y-48673000D02*
X108549000Y-51327000D01*
X108509000Y-48739000D02*
X108509000Y-51261000D01*
X108469000Y-48811000D02*
X108469000Y-51189000D01*
X108429000Y-48888000D02*
X108429000Y-51112000D01*
X108389000Y-48972000D02*
X108389000Y-51028000D01*
X108349000Y-49066000D02*
X108349000Y-50934000D01*
X108309000Y-49171000D02*
X108309000Y-50829000D01*
X108269000Y-49293000D02*
X108269000Y-50707000D01*
X108229000Y-49441000D02*
X108229000Y-50559000D01*
X108189000Y-49646000D02*
X108189000Y-50354000D01*
X113950000Y-50000000D02*
X112750000Y-50000000D01*
X113350000Y-49350000D02*
X113350000Y-50650000D01*
D11*
G04 #@! TO.C,SW1*
X103950000Y-35000000D02*
X103950000Y-32700000D01*
X103950000Y-41300000D02*
X103950000Y-39100000D01*
X108550000Y-41300000D02*
X108550000Y-32700000D01*
G04 #@! TO.C,Transistor2*
X123604667Y-48917696D02*
X123041920Y-48818469D01*
X123149645Y-49852890D02*
X123323293Y-48868082D01*
X122540002Y-49745394D02*
X122655768Y-49088855D01*
X122622692Y-49276438D02*
X122592334Y-49174377D01*
X122553708Y-49119213D01*
X122468185Y-49055779D01*
X122374394Y-49039241D01*
X121508299Y-49563477D02*
X121599257Y-49047625D01*
X121662691Y-48962103D01*
X121764751Y-48931745D01*
X121952334Y-48964821D01*
X122037856Y-49028254D01*
X121516568Y-49516581D02*
X121602090Y-49580014D01*
X121836568Y-49621359D01*
X121938628Y-49591002D01*
X122002062Y-49505479D01*
X122018600Y-49411688D01*
X121988242Y-49309628D01*
X121902720Y-49246194D01*
X121668242Y-49204850D01*
X121582720Y-49141416D01*
X121155108Y-48824248D02*
X121039343Y-49480787D01*
X121138570Y-48918040D02*
X121099944Y-48862875D01*
X121014421Y-48799442D01*
X120873735Y-48774635D01*
X120771674Y-48804992D01*
X120708241Y-48890515D01*
X120617282Y-49406366D01*
X120203491Y-49285050D02*
X120101431Y-49315408D01*
X119913848Y-49282332D01*
X119828326Y-49218898D01*
X119797968Y-49116838D01*
X119806237Y-49069943D01*
X119869671Y-48984420D01*
X119971731Y-48954063D01*
X120112418Y-48978869D01*
X120214478Y-48948512D01*
X120277912Y-48862990D01*
X120286180Y-48816094D01*
X120255823Y-48714034D01*
X120170301Y-48650600D01*
X120029614Y-48625793D01*
X119927554Y-48656151D01*
X119351101Y-49183104D02*
X119466866Y-48526566D01*
X119524749Y-48198297D02*
X119563376Y-48253461D01*
X119508211Y-48292088D01*
X119469585Y-48236923D01*
X119524749Y-48198297D01*
X119508211Y-48292088D01*
X118937309Y-49061788D02*
X118835249Y-49092146D01*
X118647667Y-49059070D01*
X118562145Y-48995636D01*
X118531787Y-48893576D01*
X118540056Y-48846681D01*
X118603489Y-48761158D01*
X118705550Y-48730801D01*
X118846236Y-48755608D01*
X118948297Y-48725250D01*
X119011730Y-48639728D01*
X119019999Y-48592832D01*
X118989641Y-48490772D01*
X118904119Y-48427338D01*
X118763432Y-48402531D01*
X118661372Y-48432889D01*
X118341372Y-48328111D02*
X117966207Y-48261959D01*
X118258568Y-47975035D02*
X118109726Y-48819156D01*
X118046293Y-48904678D01*
X117944233Y-48935036D01*
X117850442Y-48918498D01*
X117381485Y-48835808D02*
X117483546Y-48805450D01*
X117538710Y-48766824D01*
X117602144Y-48681301D01*
X117651757Y-48399928D01*
X117621400Y-48297868D01*
X117582773Y-48242703D01*
X117497251Y-48179269D01*
X117356564Y-48154463D01*
X117254504Y-48184820D01*
X117199339Y-48223447D01*
X117135906Y-48308969D01*
X117086292Y-48590343D01*
X117116650Y-48692403D01*
X117155276Y-48747568D01*
X117240799Y-48811001D01*
X117381485Y-48835808D01*
X116631156Y-48703505D02*
X116746921Y-48046966D01*
X116713845Y-48234549D02*
X116683488Y-48132488D01*
X116644861Y-48077324D01*
X116559339Y-48013890D01*
X116465548Y-47997352D01*
X116225519Y-47713261D02*
X116186892Y-47658096D01*
X116101370Y-47594662D01*
X115866892Y-47553318D01*
X115764832Y-47583675D01*
X115709667Y-47622302D01*
X115646233Y-47707824D01*
X115629696Y-47801615D01*
X115651784Y-47950571D01*
X116115304Y-48612546D01*
X115505661Y-48505050D01*
G04 #@! TO.C,Transistor1*
X137414481Y-47253704D02*
X136851734Y-47352931D01*
X137306755Y-48288125D02*
X137133107Y-47303318D01*
X136697113Y-48395622D02*
X136581347Y-47739083D01*
X136614423Y-47926666D02*
X136550989Y-47841144D01*
X136495825Y-47802517D01*
X136393765Y-47772159D01*
X136299973Y-47788697D01*
X135665409Y-48577539D02*
X135574451Y-48061687D01*
X135604808Y-47959627D01*
X135690331Y-47896194D01*
X135877913Y-47863118D01*
X135979973Y-47893475D01*
X135657140Y-48530643D02*
X135759200Y-48561001D01*
X135993678Y-48519656D01*
X136079201Y-48456223D01*
X136109558Y-48354163D01*
X136093020Y-48260371D01*
X136029587Y-48174849D01*
X135927527Y-48144491D01*
X135693049Y-48185836D01*
X135590989Y-48155479D01*
X135080688Y-48003690D02*
X135196453Y-48660229D01*
X135097226Y-48097481D02*
X135042061Y-48058855D01*
X134940001Y-48028497D01*
X134799314Y-48053304D01*
X134713792Y-48116737D01*
X134683434Y-48218798D01*
X134774393Y-48734649D01*
X134344063Y-48762174D02*
X134258541Y-48825608D01*
X134070959Y-48858684D01*
X133968898Y-48828326D01*
X133905465Y-48742804D01*
X133897196Y-48695908D01*
X133927554Y-48593848D01*
X134013076Y-48530414D01*
X134153763Y-48505608D01*
X134239285Y-48442174D01*
X134269643Y-48340114D01*
X134261374Y-48293218D01*
X134197940Y-48207696D01*
X134095880Y-48177338D01*
X133955193Y-48202145D01*
X133869671Y-48265579D01*
X133508211Y-48957911D02*
X133392446Y-48301373D01*
X133334563Y-47973103D02*
X133389728Y-48011730D01*
X133351101Y-48066895D01*
X133295936Y-48028268D01*
X133334563Y-47973103D01*
X133351101Y-48066895D01*
X133077882Y-48985436D02*
X132992360Y-49048870D01*
X132804777Y-49081946D01*
X132702717Y-49051588D01*
X132639283Y-48966066D01*
X132631014Y-48919170D01*
X132661372Y-48817110D01*
X132746894Y-48753676D01*
X132887581Y-48728869D01*
X132973103Y-48665436D01*
X133003461Y-48563376D01*
X132995192Y-48516480D01*
X132931759Y-48430958D01*
X132829698Y-48400600D01*
X132689012Y-48425407D01*
X132603489Y-48488841D01*
X132266951Y-48499828D02*
X131891786Y-48565979D01*
X132068382Y-48196365D02*
X132217223Y-49040486D01*
X132186865Y-49142547D01*
X132101343Y-49205980D01*
X132007552Y-49222518D01*
X131538596Y-49305208D02*
X131624118Y-49241774D01*
X131662745Y-49186609D01*
X131693102Y-49084549D01*
X131643489Y-48803176D01*
X131580055Y-48717653D01*
X131524890Y-48679027D01*
X131422830Y-48648669D01*
X131282143Y-48673476D01*
X131196621Y-48736909D01*
X131157995Y-48792074D01*
X131127637Y-48894134D01*
X131177251Y-49175508D01*
X131240684Y-49261030D01*
X131295849Y-49299657D01*
X131397909Y-49330014D01*
X131538596Y-49305208D01*
X130788266Y-49437511D02*
X130672501Y-48780972D01*
X130705576Y-48968555D02*
X130642143Y-48883033D01*
X130586978Y-48844406D01*
X130484918Y-48814048D01*
X130391127Y-48830586D01*
X129662771Y-49635966D02*
X130225519Y-49536738D01*
X129944145Y-49586352D02*
X129770497Y-48601544D01*
X129889095Y-48725693D01*
X129999424Y-48802947D01*
X130101484Y-48833304D01*
G04 #@! TO.C,BT1*
X127035714Y-69428571D02*
X126892857Y-69476190D01*
X126845238Y-69523809D01*
X126797619Y-69619047D01*
X126797619Y-69761904D01*
X126845238Y-69857142D01*
X126892857Y-69904761D01*
X126988095Y-69952380D01*
X127369047Y-69952380D01*
X127369047Y-68952380D01*
X127035714Y-68952380D01*
X126940476Y-69000000D01*
X126892857Y-69047619D01*
X126845238Y-69142857D01*
X126845238Y-69238095D01*
X126892857Y-69333333D01*
X126940476Y-69380952D01*
X127035714Y-69428571D01*
X127369047Y-69428571D01*
X126511904Y-68952380D02*
X125940476Y-68952380D01*
X126226190Y-69952380D02*
X126226190Y-68952380D01*
X125083333Y-69952380D02*
X125654761Y-69952380D01*
X125369047Y-69952380D02*
X125369047Y-68952380D01*
X125464285Y-69095238D01*
X125559523Y-69190476D01*
X125654761Y-69238095D01*
X130154761Y-64928571D02*
X130011904Y-64976190D01*
X129964285Y-65023809D01*
X129916666Y-65119047D01*
X129916666Y-65261904D01*
X129964285Y-65357142D01*
X130011904Y-65404761D01*
X130107142Y-65452380D01*
X130488095Y-65452380D01*
X130488095Y-64452380D01*
X130154761Y-64452380D01*
X130059523Y-64500000D01*
X130011904Y-64547619D01*
X129964285Y-64642857D01*
X129964285Y-64738095D01*
X130011904Y-64833333D01*
X130059523Y-64880952D01*
X130154761Y-64928571D01*
X130488095Y-64928571D01*
X129059523Y-65452380D02*
X129059523Y-64928571D01*
X129107142Y-64833333D01*
X129202380Y-64785714D01*
X129392857Y-64785714D01*
X129488095Y-64833333D01*
X129059523Y-65404761D02*
X129154761Y-65452380D01*
X129392857Y-65452380D01*
X129488095Y-65404761D01*
X129535714Y-65309523D01*
X129535714Y-65214285D01*
X129488095Y-65119047D01*
X129392857Y-65071428D01*
X129154761Y-65071428D01*
X129059523Y-65023809D01*
X128726190Y-64785714D02*
X128345238Y-64785714D01*
X128583333Y-64452380D02*
X128583333Y-65309523D01*
X128535714Y-65404761D01*
X128440476Y-65452380D01*
X128345238Y-65452380D01*
X128154761Y-64785714D02*
X127773809Y-64785714D01*
X128011904Y-64452380D02*
X128011904Y-65309523D01*
X127964285Y-65404761D01*
X127869047Y-65452380D01*
X127773809Y-65452380D01*
X127059523Y-65404761D02*
X127154761Y-65452380D01*
X127345238Y-65452380D01*
X127440476Y-65404761D01*
X127488095Y-65309523D01*
X127488095Y-64928571D01*
X127440476Y-64833333D01*
X127345238Y-64785714D01*
X127154761Y-64785714D01*
X127059523Y-64833333D01*
X127011904Y-64928571D01*
X127011904Y-65023809D01*
X127488095Y-65119047D01*
X126583333Y-65452380D02*
X126583333Y-64785714D01*
X126583333Y-64976190D02*
X126535714Y-64880952D01*
X126488095Y-64833333D01*
X126392857Y-64785714D01*
X126297619Y-64785714D01*
X126059523Y-64785714D02*
X125821428Y-65452380D01*
X125583333Y-64785714D02*
X125821428Y-65452380D01*
X125916666Y-65690476D01*
X125964285Y-65738095D01*
X126059523Y-65785714D01*
X125440476Y-65547619D02*
X124678571Y-65547619D01*
X123869047Y-65357142D02*
X123916666Y-65404761D01*
X124059523Y-65452380D01*
X124154761Y-65452380D01*
X124297619Y-65404761D01*
X124392857Y-65309523D01*
X124440476Y-65214285D01*
X124488095Y-65023809D01*
X124488095Y-64880952D01*
X124440476Y-64690476D01*
X124392857Y-64595238D01*
X124297619Y-64500000D01*
X124154761Y-64452380D01*
X124059523Y-64452380D01*
X123916666Y-64500000D01*
X123869047Y-64547619D01*
X123059523Y-65404761D02*
X123154761Y-65452380D01*
X123345238Y-65452380D01*
X123440476Y-65404761D01*
X123488095Y-65309523D01*
X123488095Y-64928571D01*
X123440476Y-64833333D01*
X123345238Y-64785714D01*
X123154761Y-64785714D01*
X123059523Y-64833333D01*
X123011904Y-64928571D01*
X123011904Y-65023809D01*
X123488095Y-65119047D01*
X122440476Y-65452380D02*
X122535714Y-65404761D01*
X122583333Y-65309523D01*
X122583333Y-64452380D01*
X121916666Y-65452380D02*
X122011904Y-65404761D01*
X122059523Y-65309523D01*
X122059523Y-64452380D01*
X126357142Y-79428571D02*
X126357142Y-80571428D01*
X126928571Y-80000000D02*
X125785714Y-80000000D01*
G04 #@! TO.C,LED1*
X136619047Y-54452380D02*
X137095238Y-54452380D01*
X137095238Y-53452380D01*
X136285714Y-53928571D02*
X135952380Y-53928571D01*
X135809523Y-54452380D02*
X136285714Y-54452380D01*
X136285714Y-53452380D01*
X135809523Y-53452380D01*
X135380952Y-54452380D02*
X135380952Y-53452380D01*
X135142857Y-53452380D01*
X135000000Y-53500000D01*
X134904761Y-53595238D01*
X134857142Y-53690476D01*
X134809523Y-53880952D01*
X134809523Y-54023809D01*
X134857142Y-54214285D01*
X134904761Y-54309523D01*
X135000000Y-54404761D01*
X135142857Y-54452380D01*
X135380952Y-54452380D01*
X133857142Y-54452380D02*
X134428571Y-54452380D01*
X134142857Y-54452380D02*
X134142857Y-53452380D01*
X134238095Y-53595238D01*
X134333333Y-53690476D01*
X134428571Y-53738095D01*
G04 #@! TO.C,LED2*
X118119047Y-54452380D02*
X118595238Y-54452380D01*
X118595238Y-53452380D01*
X117785714Y-53928571D02*
X117452380Y-53928571D01*
X117309523Y-54452380D02*
X117785714Y-54452380D01*
X117785714Y-53452380D01*
X117309523Y-53452380D01*
X116880952Y-54452380D02*
X116880952Y-53452380D01*
X116642857Y-53452380D01*
X116500000Y-53500000D01*
X116404761Y-53595238D01*
X116357142Y-53690476D01*
X116309523Y-53880952D01*
X116309523Y-54023809D01*
X116357142Y-54214285D01*
X116404761Y-54309523D01*
X116500000Y-54404761D01*
X116642857Y-54452380D01*
X116880952Y-54452380D01*
X115928571Y-53547619D02*
X115880952Y-53500000D01*
X115785714Y-53452380D01*
X115547619Y-53452380D01*
X115452380Y-53500000D01*
X115404761Y-53547619D01*
X115357142Y-53642857D01*
X115357142Y-53738095D01*
X115404761Y-53880952D01*
X115976190Y-54452380D01*
X115357142Y-54452380D01*
G04 #@! TO.C,R1*
X149262380Y-59753333D02*
X148786190Y-59420000D01*
X149262380Y-59181904D02*
X148262380Y-59181904D01*
X148262380Y-59562857D01*
X148310000Y-59658095D01*
X148357619Y-59705714D01*
X148452857Y-59753333D01*
X148595714Y-59753333D01*
X148690952Y-59705714D01*
X148738571Y-59658095D01*
X148786190Y-59562857D01*
X148786190Y-59181904D01*
X149262380Y-60705714D02*
X149262380Y-60134285D01*
X149262380Y-60420000D02*
X148262380Y-60420000D01*
X148405238Y-60324761D01*
X148500476Y-60229523D01*
X148548095Y-60134285D01*
X146952380Y-59880952D02*
X146952380Y-59309523D01*
X146952380Y-59595238D02*
X145952380Y-59595238D01*
X146095238Y-59500000D01*
X146190476Y-59404761D01*
X146238095Y-59309523D01*
X146952380Y-60309523D02*
X145952380Y-60309523D01*
X146571428Y-60404761D02*
X146952380Y-60690476D01*
X146285714Y-60690476D02*
X146666666Y-60309523D01*
G04 #@! TO.C,R2*
X144762380Y-59753333D02*
X144286190Y-59420000D01*
X144762380Y-59181904D02*
X143762380Y-59181904D01*
X143762380Y-59562857D01*
X143810000Y-59658095D01*
X143857619Y-59705714D01*
X143952857Y-59753333D01*
X144095714Y-59753333D01*
X144190952Y-59705714D01*
X144238571Y-59658095D01*
X144286190Y-59562857D01*
X144286190Y-59181904D01*
X143857619Y-60134285D02*
X143810000Y-60181904D01*
X143762380Y-60277142D01*
X143762380Y-60515238D01*
X143810000Y-60610476D01*
X143857619Y-60658095D01*
X143952857Y-60705714D01*
X144048095Y-60705714D01*
X144190952Y-60658095D01*
X144762380Y-60086666D01*
X144762380Y-60705714D01*
X141452380Y-59833333D02*
X141452380Y-59357142D01*
X141928571Y-59309523D01*
X141880952Y-59357142D01*
X141833333Y-59452380D01*
X141833333Y-59690476D01*
X141880952Y-59785714D01*
X141928571Y-59833333D01*
X142023809Y-59880952D01*
X142261904Y-59880952D01*
X142357142Y-59833333D01*
X142404761Y-59785714D01*
X142452380Y-59690476D01*
X142452380Y-59452380D01*
X142404761Y-59357142D01*
X142357142Y-59309523D01*
X142452380Y-60309523D02*
X141452380Y-60309523D01*
X142071428Y-60404761D02*
X142452380Y-60690476D01*
X141785714Y-60690476D02*
X142166666Y-60309523D01*
G04 #@! TO.C,R3*
X113262380Y-59753333D02*
X112786190Y-59420000D01*
X113262380Y-59181904D02*
X112262380Y-59181904D01*
X112262380Y-59562857D01*
X112310000Y-59658095D01*
X112357619Y-59705714D01*
X112452857Y-59753333D01*
X112595714Y-59753333D01*
X112690952Y-59705714D01*
X112738571Y-59658095D01*
X112786190Y-59562857D01*
X112786190Y-59181904D01*
X112262380Y-60086666D02*
X112262380Y-60705714D01*
X112643333Y-60372380D01*
X112643333Y-60515238D01*
X112690952Y-60610476D01*
X112738571Y-60658095D01*
X112833809Y-60705714D01*
X113071904Y-60705714D01*
X113167142Y-60658095D01*
X113214761Y-60610476D01*
X113262380Y-60515238D01*
X113262380Y-60229523D01*
X113214761Y-60134285D01*
X113167142Y-60086666D01*
X109952380Y-59833333D02*
X109952380Y-59357142D01*
X110428571Y-59309523D01*
X110380952Y-59357142D01*
X110333333Y-59452380D01*
X110333333Y-59690476D01*
X110380952Y-59785714D01*
X110428571Y-59833333D01*
X110523809Y-59880952D01*
X110761904Y-59880952D01*
X110857142Y-59833333D01*
X110904761Y-59785714D01*
X110952380Y-59690476D01*
X110952380Y-59452380D01*
X110904761Y-59357142D01*
X110857142Y-59309523D01*
X110952380Y-60309523D02*
X109952380Y-60309523D01*
X110571428Y-60404761D02*
X110952380Y-60690476D01*
X110285714Y-60690476D02*
X110666666Y-60309523D01*
G04 #@! TO.C,R4*
X108762380Y-59753333D02*
X108286190Y-59420000D01*
X108762380Y-59181904D02*
X107762380Y-59181904D01*
X107762380Y-59562857D01*
X107810000Y-59658095D01*
X107857619Y-59705714D01*
X107952857Y-59753333D01*
X108095714Y-59753333D01*
X108190952Y-59705714D01*
X108238571Y-59658095D01*
X108286190Y-59562857D01*
X108286190Y-59181904D01*
X108095714Y-60610476D02*
X108762380Y-60610476D01*
X107714761Y-60372380D02*
X108429047Y-60134285D01*
X108429047Y-60753333D01*
X106452380Y-59880952D02*
X106452380Y-59309523D01*
X106452380Y-59595238D02*
X105452380Y-59595238D01*
X105595238Y-59500000D01*
X105690476Y-59404761D01*
X105738095Y-59309523D01*
X106452380Y-60309523D02*
X105452380Y-60309523D01*
X106071428Y-60404761D02*
X106452380Y-60690476D01*
X105785714Y-60690476D02*
X106166666Y-60309523D01*
G04 #@! TO.C,C1*
X141916666Y-46607142D02*
X141964285Y-46654761D01*
X142107142Y-46702380D01*
X142202380Y-46702380D01*
X142345238Y-46654761D01*
X142440476Y-46559523D01*
X142488095Y-46464285D01*
X142535714Y-46273809D01*
X142535714Y-46130952D01*
X142488095Y-45940476D01*
X142440476Y-45845238D01*
X142345238Y-45750000D01*
X142202380Y-45702380D01*
X142107142Y-45702380D01*
X141964285Y-45750000D01*
X141916666Y-45797619D01*
X140964285Y-46702380D02*
X141535714Y-46702380D01*
X141250000Y-46702380D02*
X141250000Y-45702380D01*
X141345238Y-45845238D01*
X141440476Y-45940476D01*
X141535714Y-45988095D01*
G04 #@! TO.C,C2*
X110916666Y-46607142D02*
X110964285Y-46654761D01*
X111107142Y-46702380D01*
X111202380Y-46702380D01*
X111345238Y-46654761D01*
X111440476Y-46559523D01*
X111488095Y-46464285D01*
X111535714Y-46273809D01*
X111535714Y-46130952D01*
X111488095Y-45940476D01*
X111440476Y-45845238D01*
X111345238Y-45750000D01*
X111202380Y-45702380D01*
X111107142Y-45702380D01*
X110964285Y-45750000D01*
X110916666Y-45797619D01*
X110535714Y-45797619D02*
X110488095Y-45750000D01*
X110392857Y-45702380D01*
X110154761Y-45702380D01*
X110059523Y-45750000D01*
X110011904Y-45797619D01*
X109964285Y-45892857D01*
X109964285Y-45988095D01*
X110011904Y-46130952D01*
X110583333Y-46702380D01*
X109964285Y-46702380D01*
G04 #@! TO.C,Solder Pin Here*
X132083333Y-41154761D02*
X131940476Y-41202380D01*
X131702380Y-41202380D01*
X131607142Y-41154761D01*
X131559523Y-41107142D01*
X131511904Y-41011904D01*
X131511904Y-40916666D01*
X131559523Y-40821428D01*
X131607142Y-40773809D01*
X131702380Y-40726190D01*
X131892857Y-40678571D01*
X131988095Y-40630952D01*
X132035714Y-40583333D01*
X132083333Y-40488095D01*
X132083333Y-40392857D01*
X132035714Y-40297619D01*
X131988095Y-40250000D01*
X131892857Y-40202380D01*
X131654761Y-40202380D01*
X131511904Y-40250000D01*
X130940476Y-41202380D02*
X131035714Y-41154761D01*
X131083333Y-41107142D01*
X131130952Y-41011904D01*
X131130952Y-40726190D01*
X131083333Y-40630952D01*
X131035714Y-40583333D01*
X130940476Y-40535714D01*
X130797619Y-40535714D01*
X130702380Y-40583333D01*
X130654761Y-40630952D01*
X130607142Y-40726190D01*
X130607142Y-41011904D01*
X130654761Y-41107142D01*
X130702380Y-41154761D01*
X130797619Y-41202380D01*
X130940476Y-41202380D01*
X130035714Y-41202380D02*
X130130952Y-41154761D01*
X130178571Y-41059523D01*
X130178571Y-40202380D01*
X129226190Y-41202380D02*
X129226190Y-40202380D01*
X129226190Y-41154761D02*
X129321428Y-41202380D01*
X129511904Y-41202380D01*
X129607142Y-41154761D01*
X129654761Y-41107142D01*
X129702380Y-41011904D01*
X129702380Y-40726190D01*
X129654761Y-40630952D01*
X129607142Y-40583333D01*
X129511904Y-40535714D01*
X129321428Y-40535714D01*
X129226190Y-40583333D01*
X128369047Y-41154761D02*
X128464285Y-41202380D01*
X128654761Y-41202380D01*
X128750000Y-41154761D01*
X128797619Y-41059523D01*
X128797619Y-40678571D01*
X128750000Y-40583333D01*
X128654761Y-40535714D01*
X128464285Y-40535714D01*
X128369047Y-40583333D01*
X128321428Y-40678571D01*
X128321428Y-40773809D01*
X128797619Y-40869047D01*
X127892857Y-41202380D02*
X127892857Y-40535714D01*
X127892857Y-40726190D02*
X127845238Y-40630952D01*
X127797619Y-40583333D01*
X127702380Y-40535714D01*
X127607142Y-40535714D01*
X126511904Y-41202380D02*
X126511904Y-40202380D01*
X126130952Y-40202380D01*
X126035714Y-40250000D01*
X125988095Y-40297619D01*
X125940476Y-40392857D01*
X125940476Y-40535714D01*
X125988095Y-40630952D01*
X126035714Y-40678571D01*
X126130952Y-40726190D01*
X126511904Y-40726190D01*
X125511904Y-41202380D02*
X125511904Y-40535714D01*
X125511904Y-40202380D02*
X125559523Y-40250000D01*
X125511904Y-40297619D01*
X125464285Y-40250000D01*
X125511904Y-40202380D01*
X125511904Y-40297619D01*
X125035714Y-40535714D02*
X125035714Y-41202380D01*
X125035714Y-40630952D02*
X124988095Y-40583333D01*
X124892857Y-40535714D01*
X124750000Y-40535714D01*
X124654761Y-40583333D01*
X124607142Y-40678571D01*
X124607142Y-41202380D01*
X123369047Y-41202380D02*
X123369047Y-40202380D01*
X123369047Y-40678571D02*
X122797619Y-40678571D01*
X122797619Y-41202380D02*
X122797619Y-40202380D01*
X121940476Y-41154761D02*
X122035714Y-41202380D01*
X122226190Y-41202380D01*
X122321428Y-41154761D01*
X122369047Y-41059523D01*
X122369047Y-40678571D01*
X122321428Y-40583333D01*
X122226190Y-40535714D01*
X122035714Y-40535714D01*
X121940476Y-40583333D01*
X121892857Y-40678571D01*
X121892857Y-40773809D01*
X122369047Y-40869047D01*
X121464285Y-41202380D02*
X121464285Y-40535714D01*
X121464285Y-40726190D02*
X121416666Y-40630952D01*
X121369047Y-40583333D01*
X121273809Y-40535714D01*
X121178571Y-40535714D01*
X120464285Y-41154761D02*
X120559523Y-41202380D01*
X120750000Y-41202380D01*
X120845238Y-41154761D01*
X120892857Y-41059523D01*
X120892857Y-40678571D01*
X120845238Y-40583333D01*
X120750000Y-40535714D01*
X120559523Y-40535714D01*
X120464285Y-40583333D01*
X120416666Y-40678571D01*
X120416666Y-40773809D01*
X120892857Y-40869047D01*
G04 #@! TO.C,SW1*
X110254761Y-36266666D02*
X110302380Y-36409523D01*
X110302380Y-36647619D01*
X110254761Y-36742857D01*
X110207142Y-36790476D01*
X110111904Y-36838095D01*
X110016666Y-36838095D01*
X109921428Y-36790476D01*
X109873809Y-36742857D01*
X109826190Y-36647619D01*
X109778571Y-36457142D01*
X109730952Y-36361904D01*
X109683333Y-36314285D01*
X109588095Y-36266666D01*
X109492857Y-36266666D01*
X109397619Y-36314285D01*
X109350000Y-36361904D01*
X109302380Y-36457142D01*
X109302380Y-36695238D01*
X109350000Y-36838095D01*
X109302380Y-37171428D02*
X110302380Y-37409523D01*
X109588095Y-37600000D01*
X110302380Y-37790476D01*
X109302380Y-38028571D01*
X110302380Y-38933333D02*
X110302380Y-38361904D01*
X110302380Y-38647619D02*
X109302380Y-38647619D01*
X109445238Y-38552380D01*
X109540476Y-38457142D01*
X109588095Y-38361904D01*
G04 #@! TD*
M02*
